solid shape, STL ascii file, created with Open CASCADE Technology
 facet normal -8.528685e-01 -1.503837e-01 -5.000000e-01
   outer loop
     vertex 8.964760e-01 2.339558e+00 5.141147e-02
     vertex 7.596239e-01 3.115685e+00 5.141147e-02
     vertex 7.610519e-01 3.115937e+00 4.890000e-02
   endloop
 endfacet
 facet normal -8.528685e-01 -1.503837e-01 -5.000000e-01
   outer loop
     vertex 8.964760e-01 2.339558e+00 5.141147e-02
     vertex 7.610519e-01 3.115937e+00 4.890000e-02
     vertex 8.979040e-01 2.339810e+00 4.890000e-02
   endloop
 endfacet
 facet normal 8.528685e-01 1.503837e-01 5.000000e-01
   outer loop
     vertex 1.018692e+00 2.361108e+00 1.230615e-01
     vertex 8.832679e-01 3.137487e+00 1.205500e-01
     vertex 8.818400e-01 3.137235e+00 1.230615e-01
   endloop
 endfacet
 facet normal 8.528685e-01 1.503837e-01 5.000000e-01
   outer loop
     vertex 1.018692e+00 2.361108e+00 1.230615e-01
     vertex 1.020120e+00 2.361360e+00 1.205500e-01
     vertex 8.832679e-01 3.137487e+00 1.205500e-01
   endloop
 endfacet
 facet normal 1.736482e-01 -9.848078e-01 -1.441609e-13
   outer loop
     vertex 1.018692e+00 2.361108e+00 1.230615e-01
     vertex 8.979040e-01 2.339810e+00 4.890000e-02
     vertex 1.020120e+00 2.361360e+00 1.205500e-01
   endloop
 endfacet
 facet normal 1.736482e-01 -9.848078e-01 -1.440141e-13
   outer loop
     vertex 1.018692e+00 2.361108e+00 1.230615e-01
     vertex 8.964760e-01 2.339558e+00 5.141147e-02
     vertex 8.979040e-01 2.339810e+00 4.890000e-02
   endloop
 endfacet
 facet normal -1.736482e-01 9.848078e-01 2.649146e-13
   outer loop
     vertex 8.818400e-01 3.137235e+00 1.230615e-01
     vertex 8.832679e-01 3.137487e+00 1.205500e-01
     vertex 7.610519e-01 3.115937e+00 4.890000e-02
   endloop
 endfacet
 facet normal -1.736482e-01 9.848078e-01 1.534064e-13
   outer loop
     vertex 8.818400e-01 3.137235e+00 1.230615e-01
     vertex 7.610519e-01 3.115937e+00 4.890000e-02
     vertex 7.596239e-01 3.115685e+00 5.141147e-02
   endloop
 endfacet
 facet normal 4.924039e-01 8.682409e-02 -8.660254e-01
   outer loop
     vertex 8.832679e-01 3.137487e+00 1.205500e-01
     vertex 8.979040e-01 2.339810e+00 4.890000e-02
     vertex 7.610519e-01 3.115937e+00 4.890000e-02
   endloop
 endfacet
 facet normal 4.924039e-01 8.682409e-02 -8.660254e-01
   outer loop
     vertex 8.832679e-01 3.137487e+00 1.205500e-01
     vertex 1.020120e+00 2.361360e+00 1.205500e-01
     vertex 8.979040e-01 2.339810e+00 4.890000e-02
   endloop
 endfacet
 facet normal -4.924039e-01 -8.682409e-02 8.660254e-01
   outer loop
     vertex 8.818400e-01 3.137235e+00 1.230615e-01
     vertex 7.596239e-01 3.115685e+00 5.141147e-02
     vertex 8.964760e-01 2.339558e+00 5.141147e-02
   endloop
 endfacet
 facet normal -4.924039e-01 -8.682409e-02 8.660254e-01
   outer loop
     vertex 8.818400e-01 3.137235e+00 1.230615e-01
     vertex 8.964760e-01 2.339558e+00 5.141147e-02
     vertex 1.018692e+00 2.361108e+00 1.230615e-01
   endloop
 endfacet
 facet normal -8.528685e-01 -1.503837e-01 -5.000000e-01
   outer loop
     vertex 7.521570e-01 3.158032e+00 5.141147e-02
     vertex 6.153049e-01 3.934159e+00 5.141147e-02
     vertex 6.167329e-01 3.934411e+00 4.890000e-02
   endloop
 endfacet
 facet normal -8.528685e-01 -1.503837e-01 -5.000000e-01
   outer loop
     vertex 7.521570e-01 3.158032e+00 5.141147e-02
     vertex 6.167329e-01 3.934411e+00 4.890000e-02
     vertex 7.535850e-01 3.158284e+00 4.890000e-02
   endloop
 endfacet
 facet normal 8.528685e-01 1.503837e-01 5.000000e-01
   outer loop
     vertex 8.743731e-01 3.179582e+00 1.230615e-01
     vertex 7.389489e-01 3.955961e+00 1.205500e-01
     vertex 7.375210e-01 3.955709e+00 1.230615e-01
   endloop
 endfacet
 facet normal 8.528685e-01 1.503837e-01 5.000000e-01
   outer loop
     vertex 8.743731e-01 3.179582e+00 1.230615e-01
     vertex 8.758011e-01 3.179834e+00 1.205500e-01
     vertex 7.389489e-01 3.955961e+00 1.205500e-01
   endloop
 endfacet
 facet normal 1.736482e-01 -9.848078e-01 -2.054550e-15
   outer loop
     vertex 8.743731e-01 3.179582e+00 1.230615e-01
     vertex 7.535850e-01 3.158284e+00 4.890000e-02
     vertex 8.758011e-01 3.179834e+00 1.205500e-01
   endloop
 endfacet
 facet normal 1.736482e-01 -9.848078e-01 -1.429706e-13
   outer loop
     vertex 8.743731e-01 3.179582e+00 1.230615e-01
     vertex 7.521570e-01 3.158032e+00 5.141147e-02
     vertex 7.535850e-01 3.158284e+00 4.890000e-02
   endloop
 endfacet
 facet normal -1.736482e-01 9.848078e-01 -2.046397e-15
   outer loop
     vertex 7.375210e-01 3.955709e+00 1.230615e-01
     vertex 7.389489e-01 3.955961e+00 1.205500e-01
     vertex 6.167329e-01 3.934411e+00 4.890000e-02
   endloop
 endfacet
 facet normal -1.736482e-01 9.848078e-01 1.502756e-13
   outer loop
     vertex 7.375210e-01 3.955709e+00 1.230615e-01
     vertex 6.167329e-01 3.934411e+00 4.890000e-02
     vertex 6.153049e-01 3.934159e+00 5.141147e-02
   endloop
 endfacet
 facet normal 4.924039e-01 8.682409e-02 -8.660254e-01
   outer loop
     vertex 7.389489e-01 3.955961e+00 1.205500e-01
     vertex 7.535850e-01 3.158284e+00 4.890000e-02
     vertex 6.167329e-01 3.934411e+00 4.890000e-02
   endloop
 endfacet
 facet normal 4.924039e-01 8.682409e-02 -8.660254e-01
   outer loop
     vertex 7.389489e-01 3.955961e+00 1.205500e-01
     vertex 8.758011e-01 3.179834e+00 1.205500e-01
     vertex 7.535850e-01 3.158284e+00 4.890000e-02
   endloop
 endfacet
 facet normal -4.924039e-01 -8.682409e-02 8.660254e-01
   outer loop
     vertex 7.375210e-01 3.955709e+00 1.230615e-01
     vertex 6.153049e-01 3.934159e+00 5.141147e-02
     vertex 7.521570e-01 3.158032e+00 5.141147e-02
   endloop
 endfacet
 facet normal -4.924039e-01 -8.682409e-02 8.660254e-01
   outer loop
     vertex 7.375210e-01 3.955709e+00 1.230615e-01
     vertex 7.521570e-01 3.158032e+00 5.141147e-02
     vertex 8.743731e-01 3.179582e+00 1.230615e-01
   endloop
 endfacet
 facet normal -8.528685e-01 -1.503837e-01 -5.000000e-01
   outer loop
     vertex 1.178722e+00 2.389326e+00 5.141147e-02
     vertex 1.041870e+00 3.165453e+00 5.141147e-02
     vertex 1.043298e+00 3.165705e+00 4.890000e-02
   endloop
 endfacet
 facet normal -8.528685e-01 -1.503837e-01 -5.000000e-01
   outer loop
     vertex 1.178722e+00 2.389326e+00 5.141147e-02
     vertex 1.043298e+00 3.165705e+00 4.890000e-02
     vertex 1.180150e+00 2.389578e+00 4.890000e-02
   endloop
 endfacet
 facet normal 8.528685e-01 1.503837e-01 5.000000e-01
   outer loop
     vertex 1.300938e+00 2.410876e+00 1.230615e-01
     vertex 1.165514e+00 3.187255e+00 1.205500e-01
     vertex 1.164086e+00 3.187003e+00 1.230615e-01
   endloop
 endfacet
 facet normal 8.528685e-01 1.503837e-01 5.000000e-01
   outer loop
     vertex 1.300938e+00 2.410876e+00 1.230615e-01
     vertex 1.302366e+00 2.411128e+00 1.205500e-01
     vertex 1.165514e+00 3.187255e+00 1.205500e-01
   endloop
 endfacet
 facet normal 1.736482e-01 -9.848078e-01 1.284175e-13
   outer loop
     vertex 1.300938e+00 2.410876e+00 1.230615e-01
     vertex 1.180150e+00 2.389578e+00 4.890000e-02
     vertex 1.302366e+00 2.411128e+00 1.205500e-01
   endloop
 endfacet
 facet normal 1.736482e-01 -9.848078e-01 -1.252297e-14
   outer loop
     vertex 1.300938e+00 2.410876e+00 1.230615e-01
     vertex 1.178722e+00 2.389326e+00 5.141147e-02
     vertex 1.180150e+00 2.389578e+00 4.890000e-02
   endloop
 endfacet
 facet normal -1.736482e-01 9.848078e-01 -1.285561e-13
   outer loop
     vertex 1.164086e+00 3.187003e+00 1.230615e-01
     vertex 1.165514e+00 3.187255e+00 1.205500e-01
     vertex 1.043298e+00 3.165705e+00 4.890000e-02
   endloop
 endfacet
 facet normal -1.736482e-01 9.848078e-01 1.043581e-15
   outer loop
     vertex 1.164086e+00 3.187003e+00 1.230615e-01
     vertex 1.043298e+00 3.165705e+00 4.890000e-02
     vertex 1.041870e+00 3.165453e+00 5.141147e-02
   endloop
 endfacet
 facet normal 4.924039e-01 8.682409e-02 -8.660254e-01
   outer loop
     vertex 1.165514e+00 3.187255e+00 1.205500e-01
     vertex 1.180150e+00 2.389578e+00 4.890000e-02
     vertex 1.043298e+00 3.165705e+00 4.890000e-02
   endloop
 endfacet
 facet normal 4.924039e-01 8.682409e-02 -8.660254e-01
   outer loop
     vertex 1.165514e+00 3.187255e+00 1.205500e-01
     vertex 1.302366e+00 2.411128e+00 1.205500e-01
     vertex 1.180150e+00 2.389578e+00 4.890000e-02
   endloop
 endfacet
 facet normal -4.924039e-01 -8.682409e-02 8.660254e-01
   outer loop
     vertex 1.164086e+00 3.187003e+00 1.230615e-01
     vertex 1.041870e+00 3.165453e+00 5.141147e-02
     vertex 1.178722e+00 2.389326e+00 5.141147e-02
   endloop
 endfacet
 facet normal -4.924039e-01 -8.682409e-02 8.660254e-01
   outer loop
     vertex 1.164086e+00 3.187003e+00 1.230615e-01
     vertex 1.178722e+00 2.389326e+00 5.141147e-02
     vertex 1.300938e+00 2.410876e+00 1.230615e-01
   endloop
 endfacet
 facet normal -8.528685e-01 -1.503837e-01 -5.000000e-01
   outer loop
     vertex 1.034403e+00 3.207800e+00 5.141147e-02
     vertex 8.975508e-01 3.983926e+00 5.141147e-02
     vertex 8.989788e-01 3.984178e+00 4.890000e-02
   endloop
 endfacet
 facet normal -8.528685e-01 -1.503837e-01 -5.000000e-01
   outer loop
     vertex 1.034403e+00 3.207800e+00 5.141147e-02
     vertex 8.989788e-01 3.984178e+00 4.890000e-02
     vertex 1.035831e+00 3.208051e+00 4.890000e-02
   endloop
 endfacet
 facet normal 8.528685e-01 1.503837e-01 5.000000e-01
   outer loop
     vertex 1.156619e+00 3.229349e+00 1.230615e-01
     vertex 1.021195e+00 4.005728e+00 1.205500e-01
     vertex 1.019767e+00 4.005476e+00 1.230615e-01
   endloop
 endfacet
 facet normal 8.528685e-01 1.503837e-01 5.000000e-01
   outer loop
     vertex 1.156619e+00 3.229349e+00 1.230615e-01
     vertex 1.158047e+00 3.229601e+00 1.205500e-01
     vertex 1.021195e+00 4.005728e+00 1.205500e-01
   endloop
 endfacet
 facet normal 1.736482e-01 -9.848078e-01 -3.831898e-16
   outer loop
     vertex 1.156619e+00 3.229349e+00 1.230615e-01
     vertex 1.035831e+00 3.208051e+00 4.890000e-02
     vertex 1.158047e+00 3.229601e+00 1.205500e-01
   endloop
 endfacet
 facet normal 1.736482e-01 -9.848078e-01 1.283604e-13
   outer loop
     vertex 1.156619e+00 3.229349e+00 1.230615e-01
     vertex 1.034403e+00 3.207800e+00 5.141147e-02
     vertex 1.035831e+00 3.208051e+00 4.890000e-02
   endloop
 endfacet
 facet normal -1.736482e-01 9.848078e-01 2.054550e-15
   outer loop
     vertex 1.019767e+00 4.005476e+00 1.230615e-01
     vertex 1.021195e+00 4.005728e+00 1.205500e-01
     vertex 8.989788e-01 3.984178e+00 4.890000e-02
   endloop
 endfacet
 facet normal -1.736482e-01 9.848078e-01 -1.387962e-13
   outer loop
     vertex 1.019767e+00 4.005476e+00 1.230615e-01
     vertex 8.989788e-01 3.984178e+00 4.890000e-02
     vertex 8.975508e-01 3.983926e+00 5.141147e-02
   endloop
 endfacet
 facet normal 4.924039e-01 8.682409e-02 -8.660254e-01
   outer loop
     vertex 1.021195e+00 4.005728e+00 1.205500e-01
     vertex 1.035831e+00 3.208051e+00 4.890000e-02
     vertex 8.989788e-01 3.984178e+00 4.890000e-02
   endloop
 endfacet
 facet normal 4.924039e-01 8.682409e-02 -8.660254e-01
   outer loop
     vertex 1.021195e+00 4.005728e+00 1.205500e-01
     vertex 1.158047e+00 3.229601e+00 1.205500e-01
     vertex 1.035831e+00 3.208051e+00 4.890000e-02
   endloop
 endfacet
 facet normal -4.924039e-01 -8.682409e-02 8.660254e-01
   outer loop
     vertex 1.019767e+00 4.005476e+00 1.230615e-01
     vertex 8.975508e-01 3.983926e+00 5.141147e-02
     vertex 1.034403e+00 3.207800e+00 5.141147e-02
   endloop
 endfacet
 facet normal -4.924039e-01 -8.682409e-02 8.660254e-01
   outer loop
     vertex 1.019767e+00 4.005476e+00 1.230615e-01
     vertex 1.034403e+00 3.207800e+00 5.141147e-02
     vertex 1.156619e+00 3.229349e+00 1.230615e-01
   endloop
 endfacet
 facet normal -8.528685e-01 -1.503837e-01 -5.000000e-01
   outer loop
     vertex 1.460968e+00 2.439093e+00 5.141147e-02
     vertex 1.324116e+00 3.215220e+00 5.141147e-02
     vertex 1.325544e+00 3.215472e+00 4.890000e-02
   endloop
 endfacet
 facet normal -8.528685e-01 -1.503837e-01 -5.000000e-01
   outer loop
     vertex 1.460968e+00 2.439093e+00 5.141147e-02
     vertex 1.325544e+00 3.215472e+00 4.890000e-02
     vertex 1.462396e+00 2.439345e+00 4.890000e-02
   endloop
 endfacet
 facet normal 8.528685e-01 1.503837e-01 5.000000e-01
   outer loop
     vertex 1.583184e+00 2.460643e+00 1.230615e-01
     vertex 1.447760e+00 3.237022e+00 1.205500e-01
     vertex 1.446332e+00 3.236770e+00 1.230615e-01
   endloop
 endfacet
 facet normal 8.528685e-01 1.503837e-01 5.000000e-01
   outer loop
     vertex 1.583184e+00 2.460643e+00 1.230615e-01
     vertex 1.584612e+00 2.460895e+00 1.205500e-01
     vertex 1.447760e+00 3.237022e+00 1.205500e-01
   endloop
 endfacet
 facet normal 1.736482e-01 -9.848078e-01 -3.831898e-16
   outer loop
     vertex 1.583184e+00 2.460643e+00 1.230615e-01
     vertex 1.462396e+00 2.439345e+00 4.890000e-02
     vertex 1.584612e+00 2.460895e+00 1.205500e-01
   endloop
 endfacet
 facet normal 1.736482e-01 -9.848078e-01 1.283604e-13
   outer loop
     vertex 1.583184e+00 2.460643e+00 1.230615e-01
     vertex 1.460968e+00 2.439093e+00 5.141147e-02
     vertex 1.462396e+00 2.439345e+00 4.890000e-02
   endloop
 endfacet
 facet normal -1.736482e-01 9.848078e-01 -7.802397e-15
   outer loop
     vertex 1.446332e+00 3.236770e+00 1.230615e-01
     vertex 1.447760e+00 3.237022e+00 1.205500e-01
     vertex 1.325544e+00 3.215472e+00 4.890000e-02
   endloop
 endfacet
 facet normal -1.736482e-01 9.848078e-01 -1.137503e-13
   outer loop
     vertex 1.446332e+00 3.236770e+00 1.230615e-01
     vertex 1.325544e+00 3.215472e+00 4.890000e-02
     vertex 1.324116e+00 3.215220e+00 5.141147e-02
   endloop
 endfacet
 facet normal 4.924039e-01 8.682409e-02 -8.660254e-01
   outer loop
     vertex 1.447760e+00 3.237022e+00 1.205500e-01
     vertex 1.462396e+00 2.439345e+00 4.890000e-02
     vertex 1.325544e+00 3.215472e+00 4.890000e-02
   endloop
 endfacet
 facet normal 4.924039e-01 8.682409e-02 -8.660254e-01
   outer loop
     vertex 1.447760e+00 3.237022e+00 1.205500e-01
     vertex 1.584612e+00 2.460895e+00 1.205500e-01
     vertex 1.462396e+00 2.439345e+00 4.890000e-02
   endloop
 endfacet
 facet normal -4.924039e-01 -8.682409e-02 8.660254e-01
   outer loop
     vertex 1.446332e+00 3.236770e+00 1.230615e-01
     vertex 1.324116e+00 3.215220e+00 5.141147e-02
     vertex 1.460968e+00 2.439093e+00 5.141147e-02
   endloop
 endfacet
 facet normal -4.924039e-01 -8.682409e-02 8.660254e-01
   outer loop
     vertex 1.446332e+00 3.236770e+00 1.230615e-01
     vertex 1.460968e+00 2.439093e+00 5.141147e-02
     vertex 1.583184e+00 2.460643e+00 1.230615e-01
   endloop
 endfacet
 facet normal -8.528685e-01 -1.503837e-01 -5.000000e-01
   outer loop
     vertex 1.316649e+00 3.257567e+00 5.141147e-02
     vertex 1.179797e+00 4.033694e+00 5.141147e-02
     vertex 1.181225e+00 4.033946e+00 4.890000e-02
   endloop
 endfacet
 facet normal -8.528685e-01 -1.503837e-01 -5.000000e-01
   outer loop
     vertex 1.316649e+00 3.257567e+00 5.141147e-02
     vertex 1.181225e+00 4.033946e+00 4.890000e-02
     vertex 1.318077e+00 3.257819e+00 4.890000e-02
   endloop
 endfacet
 facet normal 8.528685e-01 1.503837e-01 5.000000e-01
   outer loop
     vertex 1.438865e+00 3.279117e+00 1.230615e-01
     vertex 1.303441e+00 4.055496e+00 1.205500e-01
     vertex 1.302013e+00 4.055244e+00 1.230615e-01
   endloop
 endfacet
 facet normal 8.528685e-01 1.503837e-01 5.000000e-01
   outer loop
     vertex 1.438865e+00 3.279117e+00 1.230615e-01
     vertex 1.440293e+00 3.279369e+00 1.205500e-01
     vertex 1.303441e+00 4.055496e+00 1.205500e-01
   endloop
 endfacet
 facet normal 1.736482e-01 -9.848078e-01 1.400600e-13
   outer loop
     vertex 1.438865e+00 3.279117e+00 1.230615e-01
     vertex 1.318077e+00 3.257819e+00 4.890000e-02
     vertex 1.440293e+00 3.279369e+00 1.205500e-01
   endloop
 endfacet
 facet normal 1.736482e-01 -9.848078e-01 -1.043581e-15
   outer loop
     vertex 1.438865e+00 3.279117e+00 1.230615e-01
     vertex 1.316649e+00 3.257567e+00 5.141147e-02
     vertex 1.318077e+00 3.257819e+00 4.890000e-02
   endloop
 endfacet
 facet normal -1.736482e-01 9.848078e-01 1.355840e-14
   outer loop
     vertex 1.302013e+00 4.055244e+00 1.230615e-01
     vertex 1.303441e+00 4.055496e+00 1.205500e-01
     vertex 1.181225e+00 4.033946e+00 4.890000e-02
   endloop
 endfacet
 facet normal -1.736482e-01 9.848078e-01 -2.556773e-13
   outer loop
     vertex 1.302013e+00 4.055244e+00 1.230615e-01
     vertex 1.181225e+00 4.033946e+00 4.890000e-02
     vertex 1.179797e+00 4.033694e+00 5.141147e-02
   endloop
 endfacet
 facet normal 4.924039e-01 8.682409e-02 -8.660254e-01
   outer loop
     vertex 1.303441e+00 4.055496e+00 1.205500e-01
     vertex 1.318077e+00 3.257819e+00 4.890000e-02
     vertex 1.181225e+00 4.033946e+00 4.890000e-02
   endloop
 endfacet
 facet normal 4.924039e-01 8.682409e-02 -8.660254e-01
   outer loop
     vertex 1.303441e+00 4.055496e+00 1.205500e-01
     vertex 1.440293e+00 3.279369e+00 1.205500e-01
     vertex 1.318077e+00 3.257819e+00 4.890000e-02
   endloop
 endfacet
 facet normal -4.924039e-01 -8.682409e-02 8.660254e-01
   outer loop
     vertex 1.302013e+00 4.055244e+00 1.230615e-01
     vertex 1.179797e+00 4.033694e+00 5.141147e-02
     vertex 1.316649e+00 3.257567e+00 5.141147e-02
   endloop
 endfacet
 facet normal -4.924039e-01 -8.682409e-02 8.660254e-01
   outer loop
     vertex 1.302013e+00 4.055244e+00 1.230615e-01
     vertex 1.316649e+00 3.257567e+00 5.141147e-02
     vertex 1.438865e+00 3.279117e+00 1.230615e-01
   endloop
 endfacet
 facet normal -8.528685e-01 -1.503837e-01 -5.000000e-01
   outer loop
     vertex 1.743214e+00 2.488861e+00 5.141147e-02
     vertex 1.606362e+00 3.264988e+00 5.141147e-02
     vertex 1.607790e+00 3.265240e+00 4.890000e-02
   endloop
 endfacet
 facet normal -8.528685e-01 -1.503837e-01 -5.000000e-01
   outer loop
     vertex 1.743214e+00 2.488861e+00 5.141147e-02
     vertex 1.607790e+00 3.265240e+00 4.890000e-02
     vertex 1.744642e+00 2.489113e+00 4.890000e-02
   endloop
 endfacet
 facet normal 8.528685e-01 1.503837e-01 5.000000e-01
   outer loop
     vertex 1.865430e+00 2.510411e+00 1.230615e-01
     vertex 1.730006e+00 3.286790e+00 1.205500e-01
     vertex 1.728578e+00 3.286538e+00 1.230615e-01
   endloop
 endfacet
 facet normal 8.528685e-01 1.503837e-01 5.000000e-01
   outer loop
     vertex 1.865430e+00 2.510411e+00 1.230615e-01
     vertex 1.866858e+00 2.510663e+00 1.205500e-01
     vertex 1.730006e+00 3.286790e+00 1.205500e-01
   endloop
 endfacet
 facet normal 1.736482e-01 -9.848078e-01 2.577645e-13
   outer loop
     vertex 1.865430e+00 2.510411e+00 1.230615e-01
     vertex 1.744642e+00 2.489113e+00 4.890000e-02
     vertex 1.866858e+00 2.510663e+00 1.205500e-01
   endloop
 endfacet
 facet normal 1.736482e-01 -9.848078e-01 -1.043581e-15
   outer loop
     vertex 1.865430e+00 2.510411e+00 1.230615e-01
     vertex 1.743214e+00 2.488861e+00 5.141147e-02
     vertex 1.744642e+00 2.489113e+00 4.890000e-02
   endloop
 endfacet
 facet normal -1.736482e-01 9.848078e-01 -9.261780e-14
   outer loop
     vertex 1.728578e+00 3.286538e+00 1.230615e-01
     vertex 1.730006e+00 3.286790e+00 1.205500e-01
     vertex 1.607790e+00 3.265240e+00 4.890000e-02
   endloop
 endfacet
 facet normal -1.736482e-01 9.848078e-01 2.087162e-15
   outer loop
     vertex 1.728578e+00 3.286538e+00 1.230615e-01
     vertex 1.607790e+00 3.265240e+00 4.890000e-02
     vertex 1.606362e+00 3.264988e+00 5.141147e-02
   endloop
 endfacet
 facet normal 4.924039e-01 8.682409e-02 -8.660254e-01
   outer loop
     vertex 1.730006e+00 3.286790e+00 1.205500e-01
     vertex 1.744642e+00 2.489113e+00 4.890000e-02
     vertex 1.607790e+00 3.265240e+00 4.890000e-02
   endloop
 endfacet
 facet normal 4.924039e-01 8.682409e-02 -8.660254e-01
   outer loop
     vertex 1.730006e+00 3.286790e+00 1.205500e-01
     vertex 1.866858e+00 2.510663e+00 1.205500e-01
     vertex 1.744642e+00 2.489113e+00 4.890000e-02
   endloop
 endfacet
 facet normal -4.924039e-01 -8.682409e-02 8.660254e-01
   outer loop
     vertex 1.728578e+00 3.286538e+00 1.230615e-01
     vertex 1.606362e+00 3.264988e+00 5.141147e-02
     vertex 1.743214e+00 2.488861e+00 5.141147e-02
   endloop
 endfacet
 facet normal -4.924039e-01 -8.682409e-02 8.660254e-01
   outer loop
     vertex 1.728578e+00 3.286538e+00 1.230615e-01
     vertex 1.743214e+00 2.488861e+00 5.141147e-02
     vertex 1.865430e+00 2.510411e+00 1.230615e-01
   endloop
 endfacet
 facet normal -8.528685e-01 -1.503837e-01 -5.000000e-01
   outer loop
     vertex 1.598895e+00 3.307335e+00 5.141147e-02
     vertex 1.462043e+00 4.083462e+00 5.141147e-02
     vertex 1.463471e+00 4.083713e+00 4.890000e-02
   endloop
 endfacet
 facet normal -8.528685e-01 -1.503837e-01 -5.000000e-01
   outer loop
     vertex 1.598895e+00 3.307335e+00 5.141147e-02
     vertex 1.463471e+00 4.083713e+00 4.890000e-02
     vertex 1.600323e+00 3.307586e+00 4.890000e-02
   endloop
 endfacet
 facet normal 8.528685e-01 1.503837e-01 5.000000e-01
   outer loop
     vertex 1.721111e+00 3.328885e+00 1.230615e-01
     vertex 1.585687e+00 4.105263e+00 1.205500e-01
     vertex 1.584259e+00 4.105012e+00 1.230615e-01
   endloop
 endfacet
 facet normal 8.528685e-01 1.503837e-01 5.000000e-01
   outer loop
     vertex 1.721111e+00 3.328885e+00 1.230615e-01
     vertex 1.722539e+00 3.329136e+00 1.205500e-01
     vertex 1.585687e+00 4.105263e+00 1.205500e-01
   endloop
 endfacet
 facet normal 1.736482e-01 -9.848078e-01 -3.632150e-14
   outer loop
     vertex 1.721111e+00 3.328885e+00 1.230615e-01
     vertex 1.600323e+00 3.307586e+00 4.890000e-02
     vertex 1.722539e+00 3.329136e+00 1.205500e-01
   endloop
 endfacet
 facet normal 1.736482e-01 -9.848078e-01 1.387962e-13
   outer loop
     vertex 1.721111e+00 3.328885e+00 1.230615e-01
     vertex 1.598895e+00 3.307335e+00 5.141147e-02
     vertex 1.600323e+00 3.307586e+00 4.890000e-02
   endloop
 endfacet
 facet normal -1.736482e-01 9.848078e-01 4.965162e-15
   outer loop
     vertex 1.584259e+00 4.105012e+00 1.230615e-01
     vertex 1.585687e+00 4.105263e+00 1.205500e-01
     vertex 1.463471e+00 4.083713e+00 4.890000e-02
   endloop
 endfacet
 facet normal -1.736482e-01 9.848078e-01 2.629824e-13
   outer loop
     vertex 1.584259e+00 4.105012e+00 1.230615e-01
     vertex 1.463471e+00 4.083713e+00 4.890000e-02
     vertex 1.462043e+00 4.083462e+00 5.141147e-02
   endloop
 endfacet
 facet normal 4.924039e-01 8.682409e-02 -8.660254e-01
   outer loop
     vertex 1.585687e+00 4.105263e+00 1.205500e-01
     vertex 1.600323e+00 3.307586e+00 4.890000e-02
     vertex 1.463471e+00 4.083713e+00 4.890000e-02
   endloop
 endfacet
 facet normal 4.924039e-01 8.682409e-02 -8.660254e-01
   outer loop
     vertex 1.585687e+00 4.105263e+00 1.205500e-01
     vertex 1.722539e+00 3.329136e+00 1.205500e-01
     vertex 1.600323e+00 3.307586e+00 4.890000e-02
   endloop
 endfacet
 facet normal -4.924039e-01 -8.682409e-02 8.660254e-01
   outer loop
     vertex 1.584259e+00 4.105012e+00 1.230615e-01
     vertex 1.462043e+00 4.083462e+00 5.141147e-02
     vertex 1.598895e+00 3.307335e+00 5.141147e-02
   endloop
 endfacet
 facet normal -4.924039e-01 -8.682409e-02 8.660254e-01
   outer loop
     vertex 1.584259e+00 4.105012e+00 1.230615e-01
     vertex 1.598895e+00 3.307335e+00 5.141147e-02
     vertex 1.721111e+00 3.328885e+00 1.230615e-01
   endloop
 endfacet
 facet normal -8.528685e-01 -1.503837e-01 -5.000000e-01
   outer loop
     vertex 2.025460e+00 2.538628e+00 5.141147e-02
     vertex 1.888608e+00 3.314755e+00 5.141147e-02
     vertex 1.890035e+00 3.315007e+00 4.890000e-02
   endloop
 endfacet
 facet normal -8.528685e-01 -1.503837e-01 -5.000000e-01
   outer loop
     vertex 2.025460e+00 2.538628e+00 5.141147e-02
     vertex 1.890035e+00 3.315007e+00 4.890000e-02
     vertex 2.026888e+00 2.538880e+00 4.890000e-02
   endloop
 endfacet
 facet normal 8.528685e-01 1.503837e-01 5.000000e-01
   outer loop
     vertex 2.147676e+00 2.560178e+00 1.230615e-01
     vertex 2.012252e+00 3.336557e+00 1.205500e-01
     vertex 2.010824e+00 3.336305e+00 1.230615e-01
   endloop
 endfacet
 facet normal 8.528685e-01 1.503837e-01 5.000000e-01
   outer loop
     vertex 2.147676e+00 2.560178e+00 1.230615e-01
     vertex 2.149104e+00 2.560430e+00 1.205500e-01
     vertex 2.012252e+00 3.336557e+00 1.205500e-01
   endloop
 endfacet
 facet normal 1.736482e-01 -9.848078e-01 -1.540178e-13
   outer loop
     vertex 2.147676e+00 2.560178e+00 1.230615e-01
     vertex 2.026888e+00 2.538880e+00 4.890000e-02
     vertex 2.149104e+00 2.560430e+00 1.205500e-01
   endloop
 endfacet
 facet normal 1.736482e-01 -9.848078e-01 -1.314912e-13
   outer loop
     vertex 2.147676e+00 2.560178e+00 1.230615e-01
     vertex 2.025460e+00 2.538628e+00 5.141147e-02
     vertex 2.026888e+00 2.538880e+00 4.890000e-02
   endloop
 endfacet
 facet normal -1.736482e-01 9.848078e-01 4.797210e-14
   outer loop
     vertex 2.010824e+00 3.336305e+00 1.230615e-01
     vertex 2.012252e+00 3.336557e+00 1.205500e-01
     vertex 1.890035e+00 3.315007e+00 4.890000e-02
   endloop
 endfacet
 facet normal -1.736482e-01 9.848078e-01 1.429706e-13
   outer loop
     vertex 2.010824e+00 3.336305e+00 1.230615e-01
     vertex 1.890035e+00 3.315007e+00 4.890000e-02
     vertex 1.888608e+00 3.314755e+00 5.141147e-02
   endloop
 endfacet
 facet normal 4.924039e-01 8.682409e-02 -8.660254e-01
   outer loop
     vertex 2.012252e+00 3.336557e+00 1.205500e-01
     vertex 2.026888e+00 2.538880e+00 4.890000e-02
     vertex 1.890035e+00 3.315007e+00 4.890000e-02
   endloop
 endfacet
 facet normal 4.924039e-01 8.682409e-02 -8.660254e-01
   outer loop
     vertex 2.012252e+00 3.336557e+00 1.205500e-01
     vertex 2.149104e+00 2.560430e+00 1.205500e-01
     vertex 2.026888e+00 2.538880e+00 4.890000e-02
   endloop
 endfacet
 facet normal -4.924039e-01 -8.682409e-02 8.660254e-01
   outer loop
     vertex 2.010824e+00 3.336305e+00 1.230615e-01
     vertex 1.888608e+00 3.314755e+00 5.141147e-02
     vertex 2.025460e+00 2.538628e+00 5.141147e-02
   endloop
 endfacet
 facet normal -4.924039e-01 -8.682409e-02 8.660254e-01
   outer loop
     vertex 2.010824e+00 3.336305e+00 1.230615e-01
     vertex 2.025460e+00 2.538628e+00 5.141147e-02
     vertex 2.147676e+00 2.560178e+00 1.230615e-01
   endloop
 endfacet
 facet normal -8.528685e-01 -1.503837e-01 -5.000000e-01
   outer loop
     vertex 1.881141e+00 3.357102e+00 5.141147e-02
     vertex 1.744289e+00 4.133229e+00 5.141147e-02
     vertex 1.745716e+00 4.133481e+00 4.890000e-02
   endloop
 endfacet
 facet normal -8.528685e-01 -1.503837e-01 -5.000000e-01
   outer loop
     vertex 1.881141e+00 3.357102e+00 5.141147e-02
     vertex 1.745716e+00 4.133481e+00 4.890000e-02
     vertex 1.882569e+00 3.357354e+00 4.890000e-02
   endloop
 endfacet
 facet normal 8.528685e-01 1.503837e-01 5.000000e-01
   outer loop
     vertex 2.003357e+00 3.378652e+00 1.230615e-01
     vertex 1.867933e+00 4.155031e+00 1.205500e-01
     vertex 1.866505e+00 4.154779e+00 1.230615e-01
   endloop
 endfacet
 facet normal 8.528685e-01 1.503837e-01 5.000000e-01
   outer loop
     vertex 2.003357e+00 3.378652e+00 1.230615e-01
     vertex 2.004785e+00 3.378904e+00 1.205500e-01
     vertex 1.867933e+00 4.155031e+00 1.205500e-01
   endloop
 endfacet
 facet normal 1.736482e-01 -9.848078e-01 -1.785746e-13
   outer loop
     vertex 2.003357e+00 3.378652e+00 1.230615e-01
     vertex 1.882569e+00 3.357354e+00 4.890000e-02
     vertex 2.004785e+00 3.378904e+00 1.205500e-01
   endloop
 endfacet
 facet normal 1.736482e-01 -9.848078e-01 -1.669729e-13
   outer loop
     vertex 2.003357e+00 3.378652e+00 1.230615e-01
     vertex 1.881141e+00 3.357102e+00 5.141147e-02
     vertex 1.882569e+00 3.357354e+00 4.890000e-02
   endloop
 endfacet
 facet normal -1.736482e-01 9.848078e-01 1.369700e-14
   outer loop
     vertex 1.866505e+00 4.154779e+00 1.230615e-01
     vertex 1.867933e+00 4.155031e+00 1.205500e-01
     vertex 1.745716e+00 4.133481e+00 4.890000e-02
   endloop
 endfacet
 facet normal -1.736482e-01 9.848078e-01 3.652533e-14
   outer loop
     vertex 1.866505e+00 4.154779e+00 1.230615e-01
     vertex 1.745716e+00 4.133481e+00 4.890000e-02
     vertex 1.744289e+00 4.133229e+00 5.141147e-02
   endloop
 endfacet
 facet normal 4.924039e-01 8.682409e-02 -8.660254e-01
   outer loop
     vertex 1.867933e+00 4.155031e+00 1.205500e-01
     vertex 1.882569e+00 3.357354e+00 4.890000e-02
     vertex 1.745716e+00 4.133481e+00 4.890000e-02
   endloop
 endfacet
 facet normal 4.924039e-01 8.682409e-02 -8.660254e-01
   outer loop
     vertex 1.867933e+00 4.155031e+00 1.205500e-01
     vertex 2.004785e+00 3.378904e+00 1.205500e-01
     vertex 1.882569e+00 3.357354e+00 4.890000e-02
   endloop
 endfacet
 facet normal -4.924039e-01 -8.682409e-02 8.660254e-01
   outer loop
     vertex 1.866505e+00 4.154779e+00 1.230615e-01
     vertex 1.744289e+00 4.133229e+00 5.141147e-02
     vertex 1.881141e+00 3.357102e+00 5.141147e-02
   endloop
 endfacet
 facet normal -4.924039e-01 -8.682409e-02 8.660254e-01
   outer loop
     vertex 1.866505e+00 4.154779e+00 1.230615e-01
     vertex 1.881141e+00 3.357102e+00 5.141147e-02
     vertex 2.003357e+00 3.378652e+00 1.230615e-01
   endloop
 endfacet
 facet normal -8.528685e-01 -1.503837e-01 -5.000000e-01
   outer loop
     vertex 2.307706e+00 2.588396e+00 5.141147e-02
     vertex 2.170853e+00 3.364523e+00 5.141147e-02
     vertex 2.172281e+00 3.364775e+00 4.890000e-02
   endloop
 endfacet
 facet normal -8.528685e-01 -1.503837e-01 -5.000000e-01
   outer loop
     vertex 2.307706e+00 2.588396e+00 5.141147e-02
     vertex 2.172281e+00 3.364775e+00 4.890000e-02
     vertex 2.309134e+00 2.588648e+00 4.890000e-02
   endloop
 endfacet
 facet normal 8.528685e-01 1.503837e-01 5.000000e-01
   outer loop
     vertex 2.429922e+00 2.609946e+00 1.230615e-01
     vertex 2.294497e+00 3.386325e+00 1.205500e-01
     vertex 2.293069e+00 3.386073e+00 1.230615e-01
   endloop
 endfacet
 facet normal 8.528685e-01 1.503837e-01 5.000000e-01
   outer loop
     vertex 2.429922e+00 2.609946e+00 1.230615e-01
     vertex 2.431350e+00 2.610198e+00 1.205500e-01
     vertex 2.294497e+00 3.386325e+00 1.205500e-01
   endloop
 endfacet
 facet normal 1.736482e-01 -9.848078e-01 -2.493995e-14
   outer loop
     vertex 2.429922e+00 2.609946e+00 1.230615e-01
     vertex 2.309134e+00 2.588648e+00 4.890000e-02
     vertex 2.431350e+00 2.610198e+00 1.205500e-01
   endloop
 endfacet
 facet normal 1.736482e-01 -9.848078e-01 -2.504594e-14
   outer loop
     vertex 2.429922e+00 2.609946e+00 1.230615e-01
     vertex 2.307706e+00 2.588396e+00 5.141147e-02
     vertex 2.309134e+00 2.588648e+00 4.890000e-02
   endloop
 endfacet
 facet normal -1.736482e-01 9.848078e-01 4.949671e-14
   outer loop
     vertex 2.293069e+00 3.386073e+00 1.230615e-01
     vertex 2.294497e+00 3.386325e+00 1.205500e-01
     vertex 2.172281e+00 3.364775e+00 4.890000e-02
   endloop
 endfacet
 facet normal -1.736482e-01 9.848078e-01 5.009188e-14
   outer loop
     vertex 2.293069e+00 3.386073e+00 1.230615e-01
     vertex 2.172281e+00 3.364775e+00 4.890000e-02
     vertex 2.170853e+00 3.364523e+00 5.141147e-02
   endloop
 endfacet
 facet normal 4.924039e-01 8.682409e-02 -8.660254e-01
   outer loop
     vertex 2.294497e+00 3.386325e+00 1.205500e-01
     vertex 2.309134e+00 2.588648e+00 4.890000e-02
     vertex 2.172281e+00 3.364775e+00 4.890000e-02
   endloop
 endfacet
 facet normal 4.924039e-01 8.682409e-02 -8.660254e-01
   outer loop
     vertex 2.294497e+00 3.386325e+00 1.205500e-01
     vertex 2.431350e+00 2.610198e+00 1.205500e-01
     vertex 2.309134e+00 2.588648e+00 4.890000e-02
   endloop
 endfacet
 facet normal -4.924039e-01 -8.682409e-02 8.660254e-01
   outer loop
     vertex 2.293069e+00 3.386073e+00 1.230615e-01
     vertex 2.170853e+00 3.364523e+00 5.141147e-02
     vertex 2.307706e+00 2.588396e+00 5.141147e-02
   endloop
 endfacet
 facet normal -4.924039e-01 -8.682409e-02 8.660254e-01
   outer loop
     vertex 2.293069e+00 3.386073e+00 1.230615e-01
     vertex 2.307706e+00 2.588396e+00 5.141147e-02
     vertex 2.429922e+00 2.609946e+00 1.230615e-01
   endloop
 endfacet
 facet normal -8.528685e-01 -1.503837e-01 -5.000000e-01
   outer loop
     vertex 2.163387e+00 3.406870e+00 5.141147e-02
     vertex 2.026534e+00 4.182997e+00 5.141147e-02
     vertex 2.027962e+00 4.183249e+00 4.890000e-02
   endloop
 endfacet
 facet normal -8.528685e-01 -1.503837e-01 -5.000000e-01
   outer loop
     vertex 2.163387e+00 3.406870e+00 5.141147e-02
     vertex 2.027962e+00 4.183249e+00 4.890000e-02
     vertex 2.164815e+00 3.407122e+00 4.890000e-02
   endloop
 endfacet
 facet normal 8.528685e-01 1.503837e-01 5.000000e-01
   outer loop
     vertex 2.285603e+00 3.428420e+00 1.230615e-01
     vertex 2.150178e+00 4.204799e+00 1.205500e-01
     vertex 2.148750e+00 4.204547e+00 1.230615e-01
   endloop
 endfacet
 facet normal 8.528685e-01 1.503837e-01 5.000000e-01
   outer loop
     vertex 2.285603e+00 3.428420e+00 1.230615e-01
     vertex 2.287031e+00 3.428672e+00 1.205500e-01
     vertex 2.150178e+00 4.204799e+00 1.205500e-01
   endloop
 endfacet
 facet normal 1.736482e-01 -9.848078e-01 8.136669e-14
   outer loop
     vertex 2.285603e+00 3.428420e+00 1.230615e-01
     vertex 2.164815e+00 3.407122e+00 4.890000e-02
     vertex 2.287031e+00 3.428672e+00 1.205500e-01
   endloop
 endfacet
 facet normal 1.736482e-01 -9.848078e-01 -1.314912e-13
   outer loop
     vertex 2.285603e+00 3.428420e+00 1.230615e-01
     vertex 2.163387e+00 3.406870e+00 5.141147e-02
     vertex 2.164815e+00 3.407122e+00 4.890000e-02
   endloop
 endfacet
 facet normal -1.736482e-01 9.848078e-01 4.491474e-14
   outer loop
     vertex 2.148750e+00 4.204547e+00 1.230615e-01
     vertex 2.150178e+00 4.204799e+00 1.205500e-01
     vertex 2.027962e+00 4.183249e+00 4.890000e-02
   endloop
 endfacet
 facet normal -1.736482e-01 9.848078e-01 -4.716985e-13
   outer loop
     vertex 2.148750e+00 4.204547e+00 1.230615e-01
     vertex 2.027962e+00 4.183249e+00 4.890000e-02
     vertex 2.026534e+00 4.182997e+00 5.141147e-02
   endloop
 endfacet
 facet normal 4.924039e-01 8.682409e-02 -8.660254e-01
   outer loop
     vertex 2.150178e+00 4.204799e+00 1.205500e-01
     vertex 2.164815e+00 3.407122e+00 4.890000e-02
     vertex 2.027962e+00 4.183249e+00 4.890000e-02
   endloop
 endfacet
 facet normal 4.924039e-01 8.682409e-02 -8.660254e-01
   outer loop
     vertex 2.150178e+00 4.204799e+00 1.205500e-01
     vertex 2.287031e+00 3.428672e+00 1.205500e-01
     vertex 2.164815e+00 3.407122e+00 4.890000e-02
   endloop
 endfacet
 facet normal -4.924039e-01 -8.682409e-02 8.660254e-01
   outer loop
     vertex 2.148750e+00 4.204547e+00 1.230615e-01
     vertex 2.026534e+00 4.182997e+00 5.141147e-02
     vertex 2.163387e+00 3.406870e+00 5.141147e-02
   endloop
 endfacet
 facet normal -4.924039e-01 -8.682409e-02 8.660254e-01
   outer loop
     vertex 2.148750e+00 4.204547e+00 1.230615e-01
     vertex 2.163387e+00 3.406870e+00 5.141147e-02
     vertex 2.285603e+00 3.428420e+00 1.230615e-01
   endloop
 endfacet
 facet normal -8.528685e-01 -1.503837e-01 -5.000000e-01
   outer loop
     vertex 2.589951e+00 2.638164e+00 5.141147e-02
     vertex 2.453099e+00 3.414291e+00 5.141147e-02
     vertex 2.454527e+00 3.414542e+00 4.890000e-02
   endloop
 endfacet
 facet normal -8.528685e-01 -1.503837e-01 -5.000000e-01
   outer loop
     vertex 2.589951e+00 2.638164e+00 5.141147e-02
     vertex 2.454527e+00 3.414542e+00 4.890000e-02
     vertex 2.591379e+00 2.638415e+00 4.890000e-02
   endloop
 endfacet
 facet normal 8.528685e-01 1.503837e-01 5.000000e-01
   outer loop
     vertex 2.712168e+00 2.659714e+00 1.230615e-01
     vertex 2.576743e+00 3.436092e+00 1.205500e-01
     vertex 2.575315e+00 3.435841e+00 1.230615e-01
   endloop
 endfacet
 facet normal 8.528685e-01 1.503837e-01 5.000000e-01
   outer loop
     vertex 2.712168e+00 2.659714e+00 1.230615e-01
     vertex 2.713595e+00 2.659965e+00 1.205500e-01
     vertex 2.576743e+00 3.436092e+00 1.205500e-01
   endloop
 endfacet
 facet normal 1.736482e-01 -9.848078e-01 1.056544e-13
   outer loop
     vertex 2.712168e+00 2.659714e+00 1.230615e-01
     vertex 2.591379e+00 2.638415e+00 4.890000e-02
     vertex 2.713595e+00 2.659965e+00 1.205500e-01
   endloop
 endfacet
 facet normal 1.736482e-01 -9.848078e-01 -1.043581e-15
   outer loop
     vertex 2.712168e+00 2.659714e+00 1.230615e-01
     vertex 2.589951e+00 2.638164e+00 5.141147e-02
     vertex 2.591379e+00 2.638415e+00 4.890000e-02
   endloop
 endfacet
 facet normal -1.736482e-01 9.848078e-01 2.493995e-14
   outer loop
     vertex 2.575315e+00 3.435841e+00 1.230615e-01
     vertex 2.576743e+00 3.436092e+00 1.205500e-01
     vertex 2.454527e+00 3.414542e+00 4.890000e-02
   endloop
 endfacet
 facet normal -1.736482e-01 9.848078e-01 2.504594e-14
   outer loop
     vertex 2.575315e+00 3.435841e+00 1.230615e-01
     vertex 2.454527e+00 3.414542e+00 4.890000e-02
     vertex 2.453099e+00 3.414291e+00 5.141147e-02
   endloop
 endfacet
 facet normal 4.924039e-01 8.682409e-02 -8.660254e-01
   outer loop
     vertex 2.576743e+00 3.436092e+00 1.205500e-01
     vertex 2.591379e+00 2.638415e+00 4.890000e-02
     vertex 2.454527e+00 3.414542e+00 4.890000e-02
   endloop
 endfacet
 facet normal 4.924039e-01 8.682409e-02 -8.660254e-01
   outer loop
     vertex 2.576743e+00 3.436092e+00 1.205500e-01
     vertex 2.713595e+00 2.659965e+00 1.205500e-01
     vertex 2.591379e+00 2.638415e+00 4.890000e-02
   endloop
 endfacet
 facet normal -4.924039e-01 -8.682409e-02 8.660254e-01
   outer loop
     vertex 2.575315e+00 3.435841e+00 1.230615e-01
     vertex 2.453099e+00 3.414291e+00 5.141147e-02
     vertex 2.589951e+00 2.638164e+00 5.141147e-02
   endloop
 endfacet
 facet normal -4.924039e-01 -8.682409e-02 8.660254e-01
   outer loop
     vertex 2.575315e+00 3.435841e+00 1.230615e-01
     vertex 2.589951e+00 2.638164e+00 5.141147e-02
     vertex 2.712168e+00 2.659714e+00 1.230615e-01
   endloop
 endfacet
 facet normal -8.528685e-01 -1.503837e-01 -5.000000e-01
   outer loop
     vertex 2.445632e+00 3.456637e+00 5.141147e-02
     vertex 2.308780e+00 4.232764e+00 5.141147e-02
     vertex 2.310208e+00 4.233016e+00 4.890000e-02
   endloop
 endfacet
 facet normal -8.528685e-01 -1.503837e-01 -5.000000e-01
   outer loop
     vertex 2.445632e+00 3.456637e+00 5.141147e-02
     vertex 2.310208e+00 4.233016e+00 4.890000e-02
     vertex 2.447060e+00 3.456889e+00 4.890000e-02
   endloop
 endfacet
 facet normal 8.528685e-01 1.503837e-01 5.000000e-01
   outer loop
     vertex 2.567849e+00 3.478187e+00 1.230615e-01
     vertex 2.432424e+00 4.254566e+00 1.205500e-01
     vertex 2.430996e+00 4.254314e+00 1.230615e-01
   endloop
 endfacet
 facet normal 8.528685e-01 1.503837e-01 5.000000e-01
   outer loop
     vertex 2.567849e+00 3.478187e+00 1.230615e-01
     vertex 2.569276e+00 3.478439e+00 1.205500e-01
     vertex 2.432424e+00 4.254566e+00 1.205500e-01
   endloop
 endfacet
 facet normal 1.736482e-01 -9.848078e-01 1.056544e-13
   outer loop
     vertex 2.567849e+00 3.478187e+00 1.230615e-01
     vertex 2.447060e+00 3.456889e+00 4.890000e-02
     vertex 2.569276e+00 3.478439e+00 1.205500e-01
   endloop
 endfacet
 facet normal 1.736482e-01 -9.848078e-01 1.054017e-13
   outer loop
     vertex 2.567849e+00 3.478187e+00 1.230615e-01
     vertex 2.445632e+00 3.456637e+00 5.141147e-02
     vertex 2.447060e+00 3.456889e+00 4.890000e-02
   endloop
 endfacet
 facet normal -1.736482e-01 9.848078e-01 2.493995e-14
   outer loop
     vertex 2.430996e+00 4.254314e+00 1.230615e-01
     vertex 2.432424e+00 4.254566e+00 1.205500e-01
     vertex 2.310208e+00 4.233016e+00 4.890000e-02
   endloop
 endfacet
 facet normal -1.736482e-01 9.848078e-01 2.504594e-14
   outer loop
     vertex 2.430996e+00 4.254314e+00 1.230615e-01
     vertex 2.310208e+00 4.233016e+00 4.890000e-02
     vertex 2.308780e+00 4.232764e+00 5.141147e-02
   endloop
 endfacet
 facet normal 4.924039e-01 8.682409e-02 -8.660254e-01
   outer loop
     vertex 2.432424e+00 4.254566e+00 1.205500e-01
     vertex 2.447060e+00 3.456889e+00 4.890000e-02
     vertex 2.310208e+00 4.233016e+00 4.890000e-02
   endloop
 endfacet
 facet normal 4.924039e-01 8.682409e-02 -8.660254e-01
   outer loop
     vertex 2.432424e+00 4.254566e+00 1.205500e-01
     vertex 2.569276e+00 3.478439e+00 1.205500e-01
     vertex 2.447060e+00 3.456889e+00 4.890000e-02
   endloop
 endfacet
 facet normal -4.924039e-01 -8.682409e-02 8.660254e-01
   outer loop
     vertex 2.430996e+00 4.254314e+00 1.230615e-01
     vertex 2.308780e+00 4.232764e+00 5.141147e-02
     vertex 2.445632e+00 3.456637e+00 5.141147e-02
   endloop
 endfacet
 facet normal -4.924039e-01 -8.682409e-02 8.660254e-01
   outer loop
     vertex 2.430996e+00 4.254314e+00 1.230615e-01
     vertex 2.445632e+00 3.456637e+00 5.141147e-02
     vertex 2.567849e+00 3.478187e+00 1.230615e-01
   endloop
 endfacet
endsolid shape
