solid shape, STL ascii file, created with Open CASCADE Technology
 facet normal -6.288730e-16 -8.660254e-01 -5.000000e-01
   outer loop
     vertex 2.234505e+00 2.224459e+00 5.141147e-02
     vertex 1.446405e+00 2.224459e+00 5.141147e-02
     vertex 1.446405e+00 2.225909e+00 4.890000e-02
   endloop
 endfacet
 facet normal -1.232289e-16 -8.660254e-01 -5.000000e-01
   outer loop
     vertex 2.234505e+00 2.224459e+00 5.141147e-02
     vertex 1.446405e+00 2.225909e+00 4.890000e-02
     vertex 2.234505e+00 2.225909e+00 4.890000e-02
   endloop
 endfacet
 facet normal 1.232642e-16 8.660254e-01 5.000000e-01
   outer loop
     vertex 2.234505e+00 2.348560e+00 1.230615e-01
     vertex 1.446405e+00 2.350010e+00 1.205500e-01
     vertex 1.446405e+00 2.348560e+00 1.230615e-01
   endloop
 endfacet
 facet normal 1.232289e-16 8.660254e-01 5.000000e-01
   outer loop
     vertex 2.234505e+00 2.348560e+00 1.230615e-01
     vertex 2.234505e+00 2.350010e+00 1.205500e-01
     vertex 1.446405e+00 2.350010e+00 1.205500e-01
   endloop
 endfacet
 facet normal 1.000000e+00 0.000000e+00 0.000000e+00
   outer loop
     vertex 2.234505e+00 2.348560e+00 1.230615e-01
     vertex 2.234505e+00 2.225909e+00 4.890000e-02
     vertex 2.234505e+00 2.350010e+00 1.205500e-01
   endloop
 endfacet
 facet normal 1.000000e+00 0.000000e+00 0.000000e+00
   outer loop
     vertex 2.234505e+00 2.348560e+00 1.230615e-01
     vertex 2.234505e+00 2.224459e+00 5.141147e-02
     vertex 2.234505e+00 2.225909e+00 4.890000e-02
   endloop
 endfacet
 facet normal -1.000000e+00 0.000000e+00 -0.000000e+00
   outer loop
     vertex 1.446405e+00 2.348560e+00 1.230615e-01
     vertex 1.446405e+00 2.350010e+00 1.205500e-01
     vertex 1.446405e+00 2.225909e+00 4.890000e-02
   endloop
 endfacet
 facet normal -1.000000e+00 0.000000e+00 0.000000e+00
   outer loop
     vertex 1.446405e+00 2.348560e+00 1.230615e-01
     vertex 1.446405e+00 2.225909e+00 4.890000e-02
     vertex 1.446405e+00 2.224459e+00 5.141147e-02
   endloop
 endfacet
 facet normal -1.996853e-16 5.000000e-01 -8.660254e-01
   outer loop
     vertex 1.446405e+00 2.350010e+00 1.205500e-01
     vertex 2.234505e+00 2.225909e+00 4.890000e-02
     vertex 1.446405e+00 2.225909e+00 4.890000e-02
   endloop
 endfacet
 facet normal -2.134999e-16 5.000000e-01 -8.660254e-01
   outer loop
     vertex 1.446405e+00 2.350010e+00 1.205500e-01
     vertex 2.234505e+00 2.350010e+00 1.205500e-01
     vertex 2.234505e+00 2.225909e+00 4.890000e-02
   endloop
 endfacet
 facet normal -4.608122e-17 -5.000000e-01 8.660254e-01
   outer loop
     vertex 1.446405e+00 2.348560e+00 1.230615e-01
     vertex 1.446405e+00 2.224459e+00 5.141147e-02
     vertex 2.234505e+00 2.224459e+00 5.141147e-02
   endloop
 endfacet
 facet normal 2.134999e-16 -5.000000e-01 8.660254e-01
   outer loop
     vertex 1.446405e+00 2.348560e+00 1.230615e-01
     vertex 2.234505e+00 2.224459e+00 5.141147e-02
     vertex 2.234505e+00 2.348560e+00 1.230615e-01
   endloop
 endfacet
 facet normal -4.395744e-16 -8.660254e-01 -5.000000e-01
   outer loop
     vertex 1.403405e+00 2.224459e+00 5.141147e-02
     vertex 6.153050e-01 2.224459e+00 5.141147e-02
     vertex 6.153050e-01 2.225909e+00 4.890000e-02
   endloop
 endfacet
 facet normal 7.060183e-17 -8.660254e-01 -5.000000e-01
   outer loop
     vertex 1.403405e+00 2.224459e+00 5.141147e-02
     vertex 6.153050e-01 2.225909e+00 4.890000e-02
     vertex 1.403405e+00 2.225909e+00 4.890000e-02
   endloop
 endfacet
 facet normal 0.000000e+00 8.660254e-01 5.000000e-01
   outer loop
     vertex 1.403405e+00 2.348560e+00 1.230615e-01
     vertex 6.153050e-01 2.350010e+00 1.205500e-01
     vertex 6.153050e-01 2.348560e+00 1.230615e-01
   endloop
 endfacet
 facet normal 0.000000e+00 8.660254e-01 5.000000e-01
   outer loop
     vertex 1.403405e+00 2.348560e+00 1.230615e-01
     vertex 1.403405e+00 2.350010e+00 1.205500e-01
     vertex 6.153050e-01 2.350010e+00 1.205500e-01
   endloop
 endfacet
 facet normal 1.000000e+00 0.000000e+00 0.000000e+00
   outer loop
     vertex 1.403405e+00 2.348560e+00 1.230615e-01
     vertex 1.403405e+00 2.225909e+00 4.890000e-02
     vertex 1.403405e+00 2.350010e+00 1.205500e-01
   endloop
 endfacet
 facet normal 1.000000e+00 0.000000e+00 0.000000e+00
   outer loop
     vertex 1.403405e+00 2.348560e+00 1.230615e-01
     vertex 1.403405e+00 2.224459e+00 5.141147e-02
     vertex 1.403405e+00 2.225909e+00 4.890000e-02
   endloop
 endfacet
 facet normal -1.000000e+00 0.000000e+00 -0.000000e+00
   outer loop
     vertex 6.153050e-01 2.348560e+00 1.230615e-01
     vertex 6.153050e-01 2.350010e+00 1.205500e-01
     vertex 6.153050e-01 2.225909e+00 4.890000e-02
   endloop
 endfacet
 facet normal -1.000000e+00 0.000000e+00 0.000000e+00
   outer loop
     vertex 6.153050e-01 2.348560e+00 1.230615e-01
     vertex 6.153050e-01 2.225909e+00 4.890000e-02
     vertex 6.153050e-01 2.224459e+00 5.141147e-02
   endloop
 endfacet
 facet normal 1.075229e-16 5.000000e-01 -8.660254e-01
   outer loop
     vertex 6.153050e-01 2.350010e+00 1.205500e-01
     vertex 1.403405e+00 2.225909e+00 4.890000e-02
     vertex 6.153050e-01 2.225909e+00 4.890000e-02
   endloop
 endfacet
 facet normal 0.000000e+00 5.000000e-01 -8.660254e-01
   outer loop
     vertex 6.153050e-01 2.350010e+00 1.205500e-01
     vertex 1.403405e+00 2.350010e+00 1.205500e-01
     vertex 1.403405e+00 2.225909e+00 4.890000e-02
   endloop
 endfacet
 facet normal -3.686498e-16 -5.000000e-01 8.660254e-01
   outer loop
     vertex 6.153050e-01 2.348560e+00 1.230615e-01
     vertex 6.153050e-01 2.224459e+00 5.141147e-02
     vertex 1.403405e+00 2.224459e+00 5.141147e-02
   endloop
 endfacet
 facet normal 0.000000e+00 -5.000000e-01 8.660254e-01
   outer loop
     vertex 6.153050e-01 2.348560e+00 1.230615e-01
     vertex 1.403405e+00 2.224459e+00 5.141147e-02
     vertex 1.403405e+00 2.348560e+00 1.230615e-01
   endloop
 endfacet
 facet normal -0.000000e+00 -8.660254e-01 -5.000000e-01
   outer loop
     vertex 2.234505e+00 2.511059e+00 5.141147e-02
     vertex 1.446405e+00 2.511059e+00 5.141147e-02
     vertex 1.446405e+00 2.512509e+00 4.890000e-02
   endloop
 endfacet
 facet normal -1.232289e-16 -8.660254e-01 -5.000000e-01
   outer loop
     vertex 2.234505e+00 2.511059e+00 5.141147e-02
     vertex 1.446405e+00 2.512509e+00 4.890000e-02
     vertex 2.234505e+00 2.512509e+00 4.890000e-02
   endloop
 endfacet
 facet normal 1.232642e-16 8.660254e-01 5.000000e-01
   outer loop
     vertex 2.234505e+00 2.635160e+00 1.230615e-01
     vertex 1.446405e+00 2.636610e+00 1.205500e-01
     vertex 1.446405e+00 2.635160e+00 1.230615e-01
   endloop
 endfacet
 facet normal -3.648688e-16 8.660254e-01 5.000000e-01
   outer loop
     vertex 2.234505e+00 2.635160e+00 1.230615e-01
     vertex 2.234505e+00 2.636610e+00 1.205500e-01
     vertex 1.446405e+00 2.636610e+00 1.205500e-01
   endloop
 endfacet
 facet normal 1.000000e+00 0.000000e+00 0.000000e+00
   outer loop
     vertex 2.234505e+00 2.635160e+00 1.230615e-01
     vertex 2.234505e+00 2.512509e+00 4.890000e-02
     vertex 2.234505e+00 2.636610e+00 1.205500e-01
   endloop
 endfacet
 facet normal 1.000000e+00 0.000000e+00 0.000000e+00
   outer loop
     vertex 2.234505e+00 2.635160e+00 1.230615e-01
     vertex 2.234505e+00 2.511059e+00 5.141147e-02
     vertex 2.234505e+00 2.512509e+00 4.890000e-02
   endloop
 endfacet
 facet normal -1.000000e+00 0.000000e+00 -0.000000e+00
   outer loop
     vertex 1.446405e+00 2.635160e+00 1.230615e-01
     vertex 1.446405e+00 2.636610e+00 1.205500e-01
     vertex 1.446405e+00 2.512509e+00 4.890000e-02
   endloop
 endfacet
 facet normal -1.000000e+00 0.000000e+00 0.000000e+00
   outer loop
     vertex 1.446405e+00 2.635160e+00 1.230615e-01
     vertex 1.446405e+00 2.512509e+00 4.890000e-02
     vertex 1.446405e+00 2.511059e+00 5.141147e-02
   endloop
 endfacet
 facet normal -2.150457e-16 5.000000e-01 -8.660254e-01
   outer loop
     vertex 1.446405e+00 2.636610e+00 1.205500e-01
     vertex 2.234505e+00 2.512509e+00 4.890000e-02
     vertex 1.446405e+00 2.512509e+00 4.890000e-02
   endloop
 endfacet
 facet normal -4.952466e-16 5.000000e-01 -8.660254e-01
   outer loop
     vertex 1.446405e+00 2.636610e+00 1.205500e-01
     vertex 2.234505e+00 2.636610e+00 1.205500e-01
     vertex 2.234505e+00 2.512509e+00 4.890000e-02
   endloop
 endfacet
 facet normal 0.000000e+00 -5.000000e-01 8.660254e-01
   outer loop
     vertex 1.446405e+00 2.635160e+00 1.230615e-01
     vertex 1.446405e+00 2.511059e+00 5.141147e-02
     vertex 2.234505e+00 2.511059e+00 5.141147e-02
   endloop
 endfacet
 facet normal 2.134999e-16 -5.000000e-01 8.660254e-01
   outer loop
     vertex 1.446405e+00 2.635160e+00 1.230615e-01
     vertex 2.234505e+00 2.511059e+00 5.141147e-02
     vertex 2.234505e+00 2.635160e+00 1.230615e-01
   endloop
 endfacet
 facet normal -3.691378e-16 -8.660254e-01 -5.000000e-01
   outer loop
     vertex 1.403405e+00 2.511059e+00 5.141147e-02
     vertex 6.153050e-01 2.511059e+00 5.141147e-02
     vertex 6.153050e-01 2.512509e+00 4.890000e-02
   endloop
 endfacet
 facet normal 0.000000e+00 -8.660254e-01 -5.000000e-01
   outer loop
     vertex 1.403405e+00 2.511059e+00 5.141147e-02
     vertex 6.153050e-01 2.512509e+00 4.890000e-02
     vertex 1.403405e+00 2.512509e+00 4.890000e-02
   endloop
 endfacet
 facet normal 0.000000e+00 8.660254e-01 5.000000e-01
   outer loop
     vertex 1.403405e+00 2.635160e+00 1.230615e-01
     vertex 6.153050e-01 2.636610e+00 1.205500e-01
     vertex 6.153050e-01 2.635160e+00 1.230615e-01
   endloop
 endfacet
 facet normal 0.000000e+00 8.660254e-01 5.000000e-01
   outer loop
     vertex 1.403405e+00 2.635160e+00 1.230615e-01
     vertex 1.403405e+00 2.636610e+00 1.205500e-01
     vertex 6.153050e-01 2.636610e+00 1.205500e-01
   endloop
 endfacet
 facet normal 1.000000e+00 0.000000e+00 0.000000e+00
   outer loop
     vertex 1.403405e+00 2.635160e+00 1.230615e-01
     vertex 1.403405e+00 2.512509e+00 4.890000e-02
     vertex 1.403405e+00 2.636610e+00 1.205500e-01
   endloop
 endfacet
 facet normal 1.000000e+00 0.000000e+00 0.000000e+00
   outer loop
     vertex 1.403405e+00 2.635160e+00 1.230615e-01
     vertex 1.403405e+00 2.511059e+00 5.141147e-02
     vertex 1.403405e+00 2.512509e+00 4.890000e-02
   endloop
 endfacet
 facet normal -1.000000e+00 0.000000e+00 -0.000000e+00
   outer loop
     vertex 6.153050e-01 2.635160e+00 1.230615e-01
     vertex 6.153050e-01 2.636610e+00 1.205500e-01
     vertex 6.153050e-01 2.512509e+00 4.890000e-02
   endloop
 endfacet
 facet normal -1.000000e+00 0.000000e+00 0.000000e+00
   outer loop
     vertex 6.153050e-01 2.635160e+00 1.230615e-01
     vertex 6.153050e-01 2.512509e+00 4.890000e-02
     vertex 6.153050e-01 2.511059e+00 5.141147e-02
   endloop
 endfacet
 facet normal 0.000000e+00 5.000000e-01 -8.660254e-01
   outer loop
     vertex 6.153050e-01 2.636610e+00 1.205500e-01
     vertex 1.403405e+00 2.512509e+00 4.890000e-02
     vertex 6.153050e-01 2.512509e+00 4.890000e-02
   endloop
 endfacet
 facet normal 0.000000e+00 5.000000e-01 -8.660254e-01
   outer loop
     vertex 6.153050e-01 2.636610e+00 1.205500e-01
     vertex 1.403405e+00 2.636610e+00 1.205500e-01
     vertex 1.403405e+00 2.512509e+00 4.890000e-02
   endloop
 endfacet
 facet normal -4.915330e-16 -5.000000e-01 8.660254e-01
   outer loop
     vertex 6.153050e-01 2.635160e+00 1.230615e-01
     vertex 6.153050e-01 2.511059e+00 5.141147e-02
     vertex 1.403405e+00 2.511059e+00 5.141147e-02
   endloop
 endfacet
 facet normal 0.000000e+00 -5.000000e-01 8.660254e-01
   outer loop
     vertex 6.153050e-01 2.635160e+00 1.230615e-01
     vertex 1.403405e+00 2.511059e+00 5.141147e-02
     vertex 1.403405e+00 2.635160e+00 1.230615e-01
   endloop
 endfacet
 facet normal -6.288730e-16 -8.660254e-01 -5.000000e-01
   outer loop
     vertex 2.234505e+00 2.797659e+00 5.141147e-02
     vertex 1.446405e+00 2.797659e+00 5.141147e-02
     vertex 1.446405e+00 2.799109e+00 4.890000e-02
   endloop
 endfacet
 facet normal -1.232289e-16 -8.660254e-01 -5.000000e-01
   outer loop
     vertex 2.234505e+00 2.797659e+00 5.141147e-02
     vertex 1.446405e+00 2.799109e+00 4.890000e-02
     vertex 2.234505e+00 2.799109e+00 4.890000e-02
   endloop
 endfacet
 facet normal 1.232642e-16 8.660254e-01 5.000000e-01
   outer loop
     vertex 2.234505e+00 2.921760e+00 1.230615e-01
     vertex 1.446405e+00 2.923210e+00 1.205500e-01
     vertex 1.446405e+00 2.921760e+00 1.230615e-01
   endloop
 endfacet
 facet normal 1.232289e-16 8.660254e-01 5.000000e-01
   outer loop
     vertex 2.234505e+00 2.921760e+00 1.230615e-01
     vertex 2.234505e+00 2.923210e+00 1.205500e-01
     vertex 1.446405e+00 2.923210e+00 1.205500e-01
   endloop
 endfacet
 facet normal 1.000000e+00 0.000000e+00 0.000000e+00
   outer loop
     vertex 2.234505e+00 2.921760e+00 1.230615e-01
     vertex 2.234505e+00 2.799109e+00 4.890000e-02
     vertex 2.234505e+00 2.923210e+00 1.205500e-01
   endloop
 endfacet
 facet normal 1.000000e+00 0.000000e+00 0.000000e+00
   outer loop
     vertex 2.234505e+00 2.921760e+00 1.230615e-01
     vertex 2.234505e+00 2.797659e+00 5.141147e-02
     vertex 2.234505e+00 2.799109e+00 4.890000e-02
   endloop
 endfacet
 facet normal -1.000000e+00 0.000000e+00 -0.000000e+00
   outer loop
     vertex 1.446405e+00 2.921760e+00 1.230615e-01
     vertex 1.446405e+00 2.923210e+00 1.205500e-01
     vertex 1.446405e+00 2.799109e+00 4.890000e-02
   endloop
 endfacet
 facet normal -1.000000e+00 0.000000e+00 0.000000e+00
   outer loop
     vertex 1.446405e+00 2.921760e+00 1.230615e-01
     vertex 1.446405e+00 2.799109e+00 4.890000e-02
     vertex 1.446405e+00 2.797659e+00 5.141147e-02
   endloop
 endfacet
 facet normal -2.150457e-16 5.000000e-01 -8.660254e-01
   outer loop
     vertex 1.446405e+00 2.923210e+00 1.205500e-01
     vertex 2.234505e+00 2.799109e+00 4.890000e-02
     vertex 1.446405e+00 2.799109e+00 4.890000e-02
   endloop
 endfacet
 facet normal -2.134999e-16 5.000000e-01 -8.660254e-01
   outer loop
     vertex 1.446405e+00 2.923210e+00 1.205500e-01
     vertex 2.234505e+00 2.923210e+00 1.205500e-01
     vertex 2.234505e+00 2.799109e+00 4.890000e-02
   endloop
 endfacet
 facet normal -4.608122e-17 -5.000000e-01 8.660254e-01
   outer loop
     vertex 1.446405e+00 2.921760e+00 1.230615e-01
     vertex 1.446405e+00 2.797659e+00 5.141147e-02
     vertex 2.234505e+00 2.797659e+00 5.141147e-02
   endloop
 endfacet
 facet normal 2.134999e-16 -5.000000e-01 8.660254e-01
   outer loop
     vertex 1.446405e+00 2.921760e+00 1.230615e-01
     vertex 2.234505e+00 2.797659e+00 5.141147e-02
     vertex 2.234505e+00 2.921760e+00 1.230615e-01
   endloop
 endfacet
 facet normal -5.100111e-16 -8.660254e-01 -5.000000e-01
   outer loop
     vertex 1.403405e+00 2.797659e+00 5.141147e-02
     vertex 6.153050e-01 2.797659e+00 5.141147e-02
     vertex 6.153050e-01 2.799109e+00 4.890000e-02
   endloop
 endfacet
 facet normal 0.000000e+00 -8.660254e-01 -5.000000e-01
   outer loop
     vertex 1.403405e+00 2.797659e+00 5.141147e-02
     vertex 6.153050e-01 2.799109e+00 4.890000e-02
     vertex 1.403405e+00 2.799109e+00 4.890000e-02
   endloop
 endfacet
 facet normal 0.000000e+00 8.660254e-01 5.000000e-01
   outer loop
     vertex 1.403405e+00 2.921760e+00 1.230615e-01
     vertex 6.153050e-01 2.923210e+00 1.205500e-01
     vertex 6.153050e-01 2.921760e+00 1.230615e-01
   endloop
 endfacet
 facet normal 0.000000e+00 8.660254e-01 5.000000e-01
   outer loop
     vertex 1.403405e+00 2.921760e+00 1.230615e-01
     vertex 1.403405e+00 2.923210e+00 1.205500e-01
     vertex 6.153050e-01 2.923210e+00 1.205500e-01
   endloop
 endfacet
 facet normal 1.000000e+00 0.000000e+00 0.000000e+00
   outer loop
     vertex 1.403405e+00 2.921760e+00 1.230615e-01
     vertex 1.403405e+00 2.799109e+00 4.890000e-02
     vertex 1.403405e+00 2.923210e+00 1.205500e-01
   endloop
 endfacet
 facet normal 1.000000e+00 0.000000e+00 0.000000e+00
   outer loop
     vertex 1.403405e+00 2.921760e+00 1.230615e-01
     vertex 1.403405e+00 2.797659e+00 5.141147e-02
     vertex 1.403405e+00 2.799109e+00 4.890000e-02
   endloop
 endfacet
 facet normal -1.000000e+00 0.000000e+00 -0.000000e+00
   outer loop
     vertex 6.153050e-01 2.921760e+00 1.230615e-01
     vertex 6.153050e-01 2.923210e+00 1.205500e-01
     vertex 6.153050e-01 2.799109e+00 4.890000e-02
   endloop
 endfacet
 facet normal -1.000000e+00 0.000000e+00 0.000000e+00
   outer loop
     vertex 6.153050e-01 2.921760e+00 1.230615e-01
     vertex 6.153050e-01 2.799109e+00 4.890000e-02
     vertex 6.153050e-01 2.797659e+00 5.141147e-02
   endloop
 endfacet
 facet normal 0.000000e+00 5.000000e-01 -8.660254e-01
   outer loop
     vertex 6.153050e-01 2.923210e+00 1.205500e-01
     vertex 1.403405e+00 2.799109e+00 4.890000e-02
     vertex 6.153050e-01 2.799109e+00 4.890000e-02
   endloop
 endfacet
 facet normal 0.000000e+00 5.000000e-01 -8.660254e-01
   outer loop
     vertex 6.153050e-01 2.923210e+00 1.205500e-01
     vertex 1.403405e+00 2.923210e+00 1.205500e-01
     vertex 1.403405e+00 2.799109e+00 4.890000e-02
   endloop
 endfacet
 facet normal -2.457665e-16 -5.000000e-01 8.660254e-01
   outer loop
     vertex 6.153050e-01 2.921760e+00 1.230615e-01
     vertex 6.153050e-01 2.797659e+00 5.141147e-02
     vertex 1.403405e+00 2.797659e+00 5.141147e-02
   endloop
 endfacet
 facet normal 0.000000e+00 -5.000000e-01 8.660254e-01
   outer loop
     vertex 6.153050e-01 2.921760e+00 1.230615e-01
     vertex 1.403405e+00 2.797659e+00 5.141147e-02
     vertex 1.403405e+00 2.921760e+00 1.230615e-01
   endloop
 endfacet
 facet normal -6.288730e-16 -8.660254e-01 -5.000000e-01
   outer loop
     vertex 2.234505e+00 3.084259e+00 5.141147e-02
     vertex 1.446405e+00 3.084259e+00 5.141147e-02
     vertex 1.446405e+00 3.085709e+00 4.890000e-02
   endloop
 endfacet
 facet normal -1.232289e-16 -8.660254e-01 -5.000000e-01
   outer loop
     vertex 2.234505e+00 3.084259e+00 5.141147e-02
     vertex 1.446405e+00 3.085709e+00 4.890000e-02
     vertex 2.234505e+00 3.085709e+00 4.890000e-02
   endloop
 endfacet
 facet normal 1.232642e-16 8.660254e-01 5.000000e-01
   outer loop
     vertex 2.234505e+00 3.208360e+00 1.230615e-01
     vertex 1.446405e+00 3.209810e+00 1.205500e-01
     vertex 1.446405e+00 3.208360e+00 1.230615e-01
   endloop
 endfacet
 facet normal 1.232289e-16 8.660254e-01 5.000000e-01
   outer loop
     vertex 2.234505e+00 3.208360e+00 1.230615e-01
     vertex 2.234505e+00 3.209810e+00 1.205500e-01
     vertex 1.446405e+00 3.209810e+00 1.205500e-01
   endloop
 endfacet
 facet normal 1.000000e+00 0.000000e+00 0.000000e+00
   outer loop
     vertex 2.234505e+00 3.208360e+00 1.230615e-01
     vertex 2.234505e+00 3.085709e+00 4.890000e-02
     vertex 2.234505e+00 3.209810e+00 1.205500e-01
   endloop
 endfacet
 facet normal 1.000000e+00 0.000000e+00 0.000000e+00
   outer loop
     vertex 2.234505e+00 3.208360e+00 1.230615e-01
     vertex 2.234505e+00 3.084259e+00 5.141147e-02
     vertex 2.234505e+00 3.085709e+00 4.890000e-02
   endloop
 endfacet
 facet normal -1.000000e+00 0.000000e+00 -0.000000e+00
   outer loop
     vertex 1.446405e+00 3.208360e+00 1.230615e-01
     vertex 1.446405e+00 3.209810e+00 1.205500e-01
     vertex 1.446405e+00 3.085709e+00 4.890000e-02
   endloop
 endfacet
 facet normal -1.000000e+00 0.000000e+00 0.000000e+00
   outer loop
     vertex 1.446405e+00 3.208360e+00 1.230615e-01
     vertex 1.446405e+00 3.085709e+00 4.890000e-02
     vertex 1.446405e+00 3.084259e+00 5.141147e-02
   endloop
 endfacet
 facet normal -2.150457e-16 5.000000e-01 -8.660254e-01
   outer loop
     vertex 1.446405e+00 3.209810e+00 1.205500e-01
     vertex 2.234505e+00 3.085709e+00 4.890000e-02
     vertex 1.446405e+00 3.085709e+00 4.890000e-02
   endloop
 endfacet
 facet normal -2.134999e-16 5.000000e-01 -8.660254e-01
   outer loop
     vertex 1.446405e+00 3.209810e+00 1.205500e-01
     vertex 2.234505e+00 3.209810e+00 1.205500e-01
     vertex 2.234505e+00 3.085709e+00 4.890000e-02
   endloop
 endfacet
 facet normal -4.608122e-17 -5.000000e-01 8.660254e-01
   outer loop
     vertex 1.446405e+00 3.208360e+00 1.230615e-01
     vertex 1.446405e+00 3.084259e+00 5.141147e-02
     vertex 2.234505e+00 3.084259e+00 5.141147e-02
   endloop
 endfacet
 facet normal 2.134999e-16 -5.000000e-01 8.660254e-01
   outer loop
     vertex 1.446405e+00 3.208360e+00 1.230615e-01
     vertex 2.234505e+00 3.084259e+00 5.141147e-02
     vertex 2.234505e+00 3.208360e+00 1.230615e-01
   endloop
 endfacet
 facet normal -9.980108e-16 -8.660254e-01 -5.000000e-01
   outer loop
     vertex 1.403405e+00 3.084259e+00 5.141147e-02
     vertex 6.153050e-01 3.084259e+00 5.141147e-02
     vertex 6.153050e-01 3.085709e+00 4.890000e-02
   endloop
 endfacet
 facet normal 0.000000e+00 -8.660254e-01 -5.000000e-01
   outer loop
     vertex 1.403405e+00 3.084259e+00 5.141147e-02
     vertex 6.153050e-01 3.085709e+00 4.890000e-02
     vertex 1.403405e+00 3.085709e+00 4.890000e-02
   endloop
 endfacet
 facet normal 0.000000e+00 8.660254e-01 5.000000e-01
   outer loop
     vertex 1.403405e+00 3.208360e+00 1.230615e-01
     vertex 6.153050e-01 3.209810e+00 1.205500e-01
     vertex 6.153050e-01 3.208360e+00 1.230615e-01
   endloop
 endfacet
 facet normal 0.000000e+00 8.660254e-01 5.000000e-01
   outer loop
     vertex 1.403405e+00 3.208360e+00 1.230615e-01
     vertex 1.403405e+00 3.209810e+00 1.205500e-01
     vertex 6.153050e-01 3.209810e+00 1.205500e-01
   endloop
 endfacet
 facet normal 1.000000e+00 0.000000e+00 0.000000e+00
   outer loop
     vertex 1.403405e+00 3.208360e+00 1.230615e-01
     vertex 1.403405e+00 3.085709e+00 4.890000e-02
     vertex 1.403405e+00 3.209810e+00 1.205500e-01
   endloop
 endfacet
 facet normal 1.000000e+00 0.000000e+00 0.000000e+00
   outer loop
     vertex 1.403405e+00 3.208360e+00 1.230615e-01
     vertex 1.403405e+00 3.084259e+00 5.141147e-02
     vertex 1.403405e+00 3.085709e+00 4.890000e-02
   endloop
 endfacet
 facet normal -1.000000e+00 0.000000e+00 -0.000000e+00
   outer loop
     vertex 6.153050e-01 3.208360e+00 1.230615e-01
     vertex 6.153050e-01 3.209810e+00 1.205500e-01
     vertex 6.153050e-01 3.085709e+00 4.890000e-02
   endloop
 endfacet
 facet normal -1.000000e+00 0.000000e+00 0.000000e+00
   outer loop
     vertex 6.153050e-01 3.208360e+00 1.230615e-01
     vertex 6.153050e-01 3.085709e+00 4.890000e-02
     vertex 6.153050e-01 3.084259e+00 5.141147e-02
   endloop
 endfacet
 facet normal 0.000000e+00 5.000000e-01 -8.660254e-01
   outer loop
     vertex 6.153050e-01 3.209810e+00 1.205500e-01
     vertex 1.403405e+00 3.085709e+00 4.890000e-02
     vertex 6.153050e-01 3.085709e+00 4.890000e-02
   endloop
 endfacet
 facet normal 0.000000e+00 5.000000e-01 -8.660254e-01
   outer loop
     vertex 6.153050e-01 3.209810e+00 1.205500e-01
     vertex 1.403405e+00 3.209810e+00 1.205500e-01
     vertex 1.403405e+00 3.085709e+00 4.890000e-02
   endloop
 endfacet
 facet normal -5.222539e-16 -5.000000e-01 8.660254e-01
   outer loop
     vertex 6.153050e-01 3.208360e+00 1.230615e-01
     vertex 6.153050e-01 3.084259e+00 5.141147e-02
     vertex 1.403405e+00 3.084259e+00 5.141147e-02
   endloop
 endfacet
 facet normal 0.000000e+00 -5.000000e-01 8.660254e-01
   outer loop
     vertex 6.153050e-01 3.208360e+00 1.230615e-01
     vertex 1.403405e+00 3.084259e+00 5.141147e-02
     vertex 1.403405e+00 3.208360e+00 1.230615e-01
   endloop
 endfacet
 facet normal -0.000000e+00 -8.660254e-01 -5.000000e-01
   outer loop
     vertex 2.234505e+00 3.370859e+00 5.141147e-02
     vertex 1.446405e+00 3.370859e+00 5.141147e-02
     vertex 1.446405e+00 3.372309e+00 4.890000e-02
   endloop
 endfacet
 facet normal -1.232289e-16 -8.660254e-01 -5.000000e-01
   outer loop
     vertex 2.234505e+00 3.370859e+00 5.141147e-02
     vertex 1.446405e+00 3.372309e+00 4.890000e-02
     vertex 2.234505e+00 3.372309e+00 4.890000e-02
   endloop
 endfacet
 facet normal 1.232642e-16 8.660254e-01 5.000000e-01
   outer loop
     vertex 2.234505e+00 3.494960e+00 1.230615e-01
     vertex 1.446405e+00 3.496410e+00 1.205500e-01
     vertex 1.446405e+00 3.494960e+00 1.230615e-01
   endloop
 endfacet
 facet normal 1.232289e-16 8.660254e-01 5.000000e-01
   outer loop
     vertex 2.234505e+00 3.494960e+00 1.230615e-01
     vertex 2.234505e+00 3.496410e+00 1.205500e-01
     vertex 1.446405e+00 3.496410e+00 1.205500e-01
   endloop
 endfacet
 facet normal 1.000000e+00 0.000000e+00 0.000000e+00
   outer loop
     vertex 2.234505e+00 3.494960e+00 1.230615e-01
     vertex 2.234505e+00 3.372309e+00 4.890000e-02
     vertex 2.234505e+00 3.496410e+00 1.205500e-01
   endloop
 endfacet
 facet normal 1.000000e+00 0.000000e+00 0.000000e+00
   outer loop
     vertex 2.234505e+00 3.494960e+00 1.230615e-01
     vertex 2.234505e+00 3.370859e+00 5.141147e-02
     vertex 2.234505e+00 3.372309e+00 4.890000e-02
   endloop
 endfacet
 facet normal -1.000000e+00 0.000000e+00 -0.000000e+00
   outer loop
     vertex 1.446405e+00 3.494960e+00 1.230615e-01
     vertex 1.446405e+00 3.496410e+00 1.205500e-01
     vertex 1.446405e+00 3.372309e+00 4.890000e-02
   endloop
 endfacet
 facet normal -1.000000e+00 0.000000e+00 0.000000e+00
   outer loop
     vertex 1.446405e+00 3.494960e+00 1.230615e-01
     vertex 1.446405e+00 3.372309e+00 4.890000e-02
     vertex 1.446405e+00 3.370859e+00 5.141147e-02
   endloop
 endfacet
 facet normal -2.150457e-16 5.000000e-01 -8.660254e-01
   outer loop
     vertex 1.446405e+00 3.496410e+00 1.205500e-01
     vertex 2.234505e+00 3.372309e+00 4.890000e-02
     vertex 1.446405e+00 3.372309e+00 4.890000e-02
   endloop
 endfacet
 facet normal -2.134999e-16 5.000000e-01 -8.660254e-01
   outer loop
     vertex 1.446405e+00 3.496410e+00 1.205500e-01
     vertex 2.234505e+00 3.496410e+00 1.205500e-01
     vertex 2.234505e+00 3.372309e+00 4.890000e-02
   endloop
 endfacet
 facet normal 0.000000e+00 -5.000000e-01 8.660254e-01
   outer loop
     vertex 1.446405e+00 3.494960e+00 1.230615e-01
     vertex 1.446405e+00 3.370859e+00 5.141147e-02
     vertex 2.234505e+00 3.370859e+00 5.141147e-02
   endloop
 endfacet
 facet normal 2.134999e-16 -5.000000e-01 8.660254e-01
   outer loop
     vertex 1.446405e+00 3.494960e+00 1.230615e-01
     vertex 2.234505e+00 3.370859e+00 5.141147e-02
     vertex 2.234505e+00 3.494960e+00 1.230615e-01
   endloop
 endfacet
 facet normal -3.691378e-16 -8.660254e-01 -5.000000e-01
   outer loop
     vertex 1.403405e+00 3.370859e+00 5.141147e-02
     vertex 6.153050e-01 3.370859e+00 5.141147e-02
     vertex 6.153050e-01 3.372309e+00 4.890000e-02
   endloop
 endfacet
 facet normal 0.000000e+00 -8.660254e-01 -5.000000e-01
   outer loop
     vertex 1.403405e+00 3.370859e+00 5.141147e-02
     vertex 6.153050e-01 3.372309e+00 4.890000e-02
     vertex 1.403405e+00 3.372309e+00 4.890000e-02
   endloop
 endfacet
 facet normal 0.000000e+00 8.660254e-01 5.000000e-01
   outer loop
     vertex 1.403405e+00 3.494960e+00 1.230615e-01
     vertex 6.153050e-01 3.496410e+00 1.205500e-01
     vertex 6.153050e-01 3.494960e+00 1.230615e-01
   endloop
 endfacet
 facet normal 0.000000e+00 8.660254e-01 5.000000e-01
   outer loop
     vertex 1.403405e+00 3.494960e+00 1.230615e-01
     vertex 1.403405e+00 3.496410e+00 1.205500e-01
     vertex 6.153050e-01 3.496410e+00 1.205500e-01
   endloop
 endfacet
 facet normal 1.000000e+00 0.000000e+00 0.000000e+00
   outer loop
     vertex 1.403405e+00 3.494960e+00 1.230615e-01
     vertex 1.403405e+00 3.372309e+00 4.890000e-02
     vertex 1.403405e+00 3.496410e+00 1.205500e-01
   endloop
 endfacet
 facet normal 1.000000e+00 0.000000e+00 0.000000e+00
   outer loop
     vertex 1.403405e+00 3.494960e+00 1.230615e-01
     vertex 1.403405e+00 3.370859e+00 5.141147e-02
     vertex 1.403405e+00 3.372309e+00 4.890000e-02
   endloop
 endfacet
 facet normal -1.000000e+00 0.000000e+00 -0.000000e+00
   outer loop
     vertex 6.153050e-01 3.494960e+00 1.230615e-01
     vertex 6.153050e-01 3.496410e+00 1.205500e-01
     vertex 6.153050e-01 3.372309e+00 4.890000e-02
   endloop
 endfacet
 facet normal -1.000000e+00 0.000000e+00 0.000000e+00
   outer loop
     vertex 6.153050e-01 3.494960e+00 1.230615e-01
     vertex 6.153050e-01 3.372309e+00 4.890000e-02
     vertex 6.153050e-01 3.370859e+00 5.141147e-02
   endloop
 endfacet
 facet normal 0.000000e+00 5.000000e-01 -8.660254e-01
   outer loop
     vertex 6.153050e-01 3.496410e+00 1.205500e-01
     vertex 1.403405e+00 3.372309e+00 4.890000e-02
     vertex 6.153050e-01 3.372309e+00 4.890000e-02
   endloop
 endfacet
 facet normal 0.000000e+00 5.000000e-01 -8.660254e-01
   outer loop
     vertex 6.153050e-01 3.496410e+00 1.205500e-01
     vertex 1.403405e+00 3.496410e+00 1.205500e-01
     vertex 1.403405e+00 3.372309e+00 4.890000e-02
   endloop
 endfacet
 facet normal -4.915330e-16 -5.000000e-01 8.660254e-01
   outer loop
     vertex 6.153050e-01 3.494960e+00 1.230615e-01
     vertex 6.153050e-01 3.370859e+00 5.141147e-02
     vertex 1.403405e+00 3.370859e+00 5.141147e-02
   endloop
 endfacet
 facet normal 0.000000e+00 -5.000000e-01 8.660254e-01
   outer loop
     vertex 6.153050e-01 3.494960e+00 1.230615e-01
     vertex 1.403405e+00 3.370859e+00 5.141147e-02
     vertex 1.403405e+00 3.494960e+00 1.230615e-01
   endloop
 endfacet
 facet normal -6.288730e-16 -8.660254e-01 -5.000000e-01
   outer loop
     vertex 2.234505e+00 3.657459e+00 5.141147e-02
     vertex 1.446405e+00 3.657459e+00 5.141147e-02
     vertex 1.446405e+00 3.658909e+00 4.890000e-02
   endloop
 endfacet
 facet normal -1.232289e-16 -8.660254e-01 -5.000000e-01
   outer loop
     vertex 2.234505e+00 3.657459e+00 5.141147e-02
     vertex 1.446405e+00 3.658909e+00 4.890000e-02
     vertex 2.234505e+00 3.658909e+00 4.890000e-02
   endloop
 endfacet
 facet normal 1.232642e-16 8.660254e-01 5.000000e-01
   outer loop
     vertex 2.234505e+00 3.781560e+00 1.230615e-01
     vertex 1.446405e+00 3.783010e+00 1.205500e-01
     vertex 1.446405e+00 3.781560e+00 1.230615e-01
   endloop
 endfacet
 facet normal 1.232289e-16 8.660254e-01 5.000000e-01
   outer loop
     vertex 2.234505e+00 3.781560e+00 1.230615e-01
     vertex 2.234505e+00 3.783010e+00 1.205500e-01
     vertex 1.446405e+00 3.783010e+00 1.205500e-01
   endloop
 endfacet
 facet normal 1.000000e+00 0.000000e+00 0.000000e+00
   outer loop
     vertex 2.234505e+00 3.781560e+00 1.230615e-01
     vertex 2.234505e+00 3.658909e+00 4.890000e-02
     vertex 2.234505e+00 3.783010e+00 1.205500e-01
   endloop
 endfacet
 facet normal 1.000000e+00 0.000000e+00 0.000000e+00
   outer loop
     vertex 2.234505e+00 3.781560e+00 1.230615e-01
     vertex 2.234505e+00 3.657459e+00 5.141147e-02
     vertex 2.234505e+00 3.658909e+00 4.890000e-02
   endloop
 endfacet
 facet normal -1.000000e+00 0.000000e+00 -0.000000e+00
   outer loop
     vertex 1.446405e+00 3.781560e+00 1.230615e-01
     vertex 1.446405e+00 3.783010e+00 1.205500e-01
     vertex 1.446405e+00 3.658909e+00 4.890000e-02
   endloop
 endfacet
 facet normal -1.000000e+00 0.000000e+00 0.000000e+00
   outer loop
     vertex 1.446405e+00 3.781560e+00 1.230615e-01
     vertex 1.446405e+00 3.658909e+00 4.890000e-02
     vertex 1.446405e+00 3.657459e+00 5.141147e-02
   endloop
 endfacet
 facet normal -2.150457e-16 5.000000e-01 -8.660254e-01
   outer loop
     vertex 1.446405e+00 3.783010e+00 1.205500e-01
     vertex 2.234505e+00 3.658909e+00 4.890000e-02
     vertex 1.446405e+00 3.658909e+00 4.890000e-02
   endloop
 endfacet
 facet normal -2.134999e-16 5.000000e-01 -8.660254e-01
   outer loop
     vertex 1.446405e+00 3.783010e+00 1.205500e-01
     vertex 2.234505e+00 3.783010e+00 1.205500e-01
     vertex 2.234505e+00 3.658909e+00 4.890000e-02
   endloop
 endfacet
 facet normal -4.608122e-17 -5.000000e-01 8.660254e-01
   outer loop
     vertex 1.446405e+00 3.781560e+00 1.230615e-01
     vertex 1.446405e+00 3.657459e+00 5.141147e-02
     vertex 2.234505e+00 3.657459e+00 5.141147e-02
   endloop
 endfacet
 facet normal 2.134999e-16 -5.000000e-01 8.660254e-01
   outer loop
     vertex 1.446405e+00 3.781560e+00 1.230615e-01
     vertex 2.234505e+00 3.657459e+00 5.141147e-02
     vertex 2.234505e+00 3.781560e+00 1.230615e-01
   endloop
 endfacet
 facet normal -9.980108e-16 -8.660254e-01 -5.000000e-01
   outer loop
     vertex 1.403405e+00 3.657459e+00 5.141147e-02
     vertex 6.153050e-01 3.657459e+00 5.141147e-02
     vertex 6.153050e-01 3.658909e+00 4.890000e-02
   endloop
 endfacet
 facet normal 0.000000e+00 -8.660254e-01 -5.000000e-01
   outer loop
     vertex 1.403405e+00 3.657459e+00 5.141147e-02
     vertex 6.153050e-01 3.658909e+00 4.890000e-02
     vertex 1.403405e+00 3.658909e+00 4.890000e-02
   endloop
 endfacet
 facet normal 0.000000e+00 8.660254e-01 5.000000e-01
   outer loop
     vertex 1.403405e+00 3.781560e+00 1.230615e-01
     vertex 6.153050e-01 3.783010e+00 1.205500e-01
     vertex 6.153050e-01 3.781560e+00 1.230615e-01
   endloop
 endfacet
 facet normal 0.000000e+00 8.660254e-01 5.000000e-01
   outer loop
     vertex 1.403405e+00 3.781560e+00 1.230615e-01
     vertex 1.403405e+00 3.783010e+00 1.205500e-01
     vertex 6.153050e-01 3.783010e+00 1.205500e-01
   endloop
 endfacet
 facet normal 1.000000e+00 0.000000e+00 0.000000e+00
   outer loop
     vertex 1.403405e+00 3.781560e+00 1.230615e-01
     vertex 1.403405e+00 3.658909e+00 4.890000e-02
     vertex 1.403405e+00 3.783010e+00 1.205500e-01
   endloop
 endfacet
 facet normal 1.000000e+00 0.000000e+00 0.000000e+00
   outer loop
     vertex 1.403405e+00 3.781560e+00 1.230615e-01
     vertex 1.403405e+00 3.657459e+00 5.141147e-02
     vertex 1.403405e+00 3.658909e+00 4.890000e-02
   endloop
 endfacet
 facet normal -1.000000e+00 0.000000e+00 -0.000000e+00
   outer loop
     vertex 6.153050e-01 3.781560e+00 1.230615e-01
     vertex 6.153050e-01 3.783010e+00 1.205500e-01
     vertex 6.153050e-01 3.658909e+00 4.890000e-02
   endloop
 endfacet
 facet normal -1.000000e+00 0.000000e+00 0.000000e+00
   outer loop
     vertex 6.153050e-01 3.781560e+00 1.230615e-01
     vertex 6.153050e-01 3.658909e+00 4.890000e-02
     vertex 6.153050e-01 3.657459e+00 5.141147e-02
   endloop
 endfacet
 facet normal 0.000000e+00 5.000000e-01 -8.660254e-01
   outer loop
     vertex 6.153050e-01 3.783010e+00 1.205500e-01
     vertex 1.403405e+00 3.658909e+00 4.890000e-02
     vertex 6.153050e-01 3.658909e+00 4.890000e-02
   endloop
 endfacet
 facet normal 0.000000e+00 5.000000e-01 -8.660254e-01
   outer loop
     vertex 6.153050e-01 3.783010e+00 1.205500e-01
     vertex 1.403405e+00 3.783010e+00 1.205500e-01
     vertex 1.403405e+00 3.658909e+00 4.890000e-02
   endloop
 endfacet
 facet normal -5.222539e-16 -5.000000e-01 8.660254e-01
   outer loop
     vertex 6.153050e-01 3.781560e+00 1.230615e-01
     vertex 6.153050e-01 3.657459e+00 5.141147e-02
     vertex 1.403405e+00 3.657459e+00 5.141147e-02
   endloop
 endfacet
 facet normal 0.000000e+00 -5.000000e-01 8.660254e-01
   outer loop
     vertex 6.153050e-01 3.781560e+00 1.230615e-01
     vertex 1.403405e+00 3.657459e+00 5.141147e-02
     vertex 1.403405e+00 3.781560e+00 1.230615e-01
   endloop
 endfacet
 facet normal -6.288730e-16 -8.660254e-01 -5.000000e-01
   outer loop
     vertex 2.234505e+00 3.944059e+00 5.141147e-02
     vertex 1.446405e+00 3.944059e+00 5.141147e-02
     vertex 1.446405e+00 3.945509e+00 4.890000e-02
   endloop
 endfacet
 facet normal -1.232289e-16 -8.660254e-01 -5.000000e-01
   outer loop
     vertex 2.234505e+00 3.944059e+00 5.141147e-02
     vertex 1.446405e+00 3.945509e+00 4.890000e-02
     vertex 2.234505e+00 3.945509e+00 4.890000e-02
   endloop
 endfacet
 facet normal 0.000000e+00 8.660254e-01 5.000000e-01
   outer loop
     vertex 2.234505e+00 4.068160e+00 1.230615e-01
     vertex 1.446405e+00 4.069610e+00 1.205500e-01
     vertex 1.446405e+00 4.068160e+00 1.230615e-01
   endloop
 endfacet
 facet normal 0.000000e+00 8.660254e-01 5.000000e-01
   outer loop
     vertex 2.234505e+00 4.068160e+00 1.230615e-01
     vertex 2.234505e+00 4.069610e+00 1.205500e-01
     vertex 1.446405e+00 4.069610e+00 1.205500e-01
   endloop
 endfacet
 facet normal 1.000000e+00 0.000000e+00 0.000000e+00
   outer loop
     vertex 2.234505e+00 4.068160e+00 1.230615e-01
     vertex 2.234505e+00 3.945509e+00 4.890000e-02
     vertex 2.234505e+00 4.069610e+00 1.205500e-01
   endloop
 endfacet
 facet normal 1.000000e+00 0.000000e+00 0.000000e+00
   outer loop
     vertex 2.234505e+00 4.068160e+00 1.230615e-01
     vertex 2.234505e+00 3.944059e+00 5.141147e-02
     vertex 2.234505e+00 3.945509e+00 4.890000e-02
   endloop
 endfacet
 facet normal -1.000000e+00 0.000000e+00 -0.000000e+00
   outer loop
     vertex 1.446405e+00 4.068160e+00 1.230615e-01
     vertex 1.446405e+00 4.069610e+00 1.205500e-01
     vertex 1.446405e+00 3.945509e+00 4.890000e-02
   endloop
 endfacet
 facet normal -1.000000e+00 0.000000e+00 0.000000e+00
   outer loop
     vertex 1.446405e+00 4.068160e+00 1.230615e-01
     vertex 1.446405e+00 3.945509e+00 4.890000e-02
     vertex 1.446405e+00 3.944059e+00 5.141147e-02
   endloop
 endfacet
 facet normal -2.150457e-16 5.000000e-01 -8.660254e-01
   outer loop
     vertex 1.446405e+00 4.069610e+00 1.205500e-01
     vertex 2.234505e+00 3.945509e+00 4.890000e-02
     vertex 1.446405e+00 3.945509e+00 4.890000e-02
   endloop
 endfacet
 facet normal 0.000000e+00 5.000000e-01 -8.660254e-01
   outer loop
     vertex 1.446405e+00 4.069610e+00 1.205500e-01
     vertex 2.234505e+00 4.069610e+00 1.205500e-01
     vertex 2.234505e+00 3.945509e+00 4.890000e-02
   endloop
 endfacet
 facet normal -4.608122e-17 -5.000000e-01 8.660254e-01
   outer loop
     vertex 1.446405e+00 4.068160e+00 1.230615e-01
     vertex 1.446405e+00 3.944059e+00 5.141147e-02
     vertex 2.234505e+00 3.944059e+00 5.141147e-02
   endloop
 endfacet
 facet normal 0.000000e+00 -5.000000e-01 8.660254e-01
   outer loop
     vertex 1.446405e+00 4.068160e+00 1.230615e-01
     vertex 2.234505e+00 3.944059e+00 5.141147e-02
     vertex 2.234505e+00 4.068160e+00 1.230615e-01
   endloop
 endfacet
 facet normal -9.980108e-16 -8.660254e-01 -5.000000e-01
   outer loop
     vertex 1.403405e+00 3.944059e+00 5.141147e-02
     vertex 6.153050e-01 3.944059e+00 5.141147e-02
     vertex 6.153050e-01 3.945509e+00 4.890000e-02
   endloop
 endfacet
 facet normal 0.000000e+00 -8.660254e-01 -5.000000e-01
   outer loop
     vertex 1.403405e+00 3.944059e+00 5.141147e-02
     vertex 6.153050e-01 3.945509e+00 4.890000e-02
     vertex 1.403405e+00 3.945509e+00 4.890000e-02
   endloop
 endfacet
 facet normal 0.000000e+00 8.660254e-01 5.000000e-01
   outer loop
     vertex 1.403405e+00 4.068160e+00 1.230615e-01
     vertex 6.153050e-01 4.069610e+00 1.205500e-01
     vertex 6.153050e-01 4.068160e+00 1.230615e-01
   endloop
 endfacet
 facet normal 0.000000e+00 8.660254e-01 5.000000e-01
   outer loop
     vertex 1.403405e+00 4.068160e+00 1.230615e-01
     vertex 1.403405e+00 4.069610e+00 1.205500e-01
     vertex 6.153050e-01 4.069610e+00 1.205500e-01
   endloop
 endfacet
 facet normal 1.000000e+00 0.000000e+00 0.000000e+00
   outer loop
     vertex 1.403405e+00 4.068160e+00 1.230615e-01
     vertex 1.403405e+00 3.945509e+00 4.890000e-02
     vertex 1.403405e+00 4.069610e+00 1.205500e-01
   endloop
 endfacet
 facet normal 1.000000e+00 0.000000e+00 0.000000e+00
   outer loop
     vertex 1.403405e+00 4.068160e+00 1.230615e-01
     vertex 1.403405e+00 3.944059e+00 5.141147e-02
     vertex 1.403405e+00 3.945509e+00 4.890000e-02
   endloop
 endfacet
 facet normal -1.000000e+00 0.000000e+00 -0.000000e+00
   outer loop
     vertex 6.153050e-01 4.068160e+00 1.230615e-01
     vertex 6.153050e-01 4.069610e+00 1.205500e-01
     vertex 6.153050e-01 3.945509e+00 4.890000e-02
   endloop
 endfacet
 facet normal -1.000000e+00 0.000000e+00 0.000000e+00
   outer loop
     vertex 6.153050e-01 4.068160e+00 1.230615e-01
     vertex 6.153050e-01 3.945509e+00 4.890000e-02
     vertex 6.153050e-01 3.944059e+00 5.141147e-02
   endloop
 endfacet
 facet normal 0.000000e+00 5.000000e-01 -8.660254e-01
   outer loop
     vertex 6.153050e-01 4.069610e+00 1.205500e-01
     vertex 1.403405e+00 3.945509e+00 4.890000e-02
     vertex 6.153050e-01 3.945509e+00 4.890000e-02
   endloop
 endfacet
 facet normal 0.000000e+00 5.000000e-01 -8.660254e-01
   outer loop
     vertex 6.153050e-01 4.069610e+00 1.205500e-01
     vertex 1.403405e+00 4.069610e+00 1.205500e-01
     vertex 1.403405e+00 3.945509e+00 4.890000e-02
   endloop
 endfacet
 facet normal -5.222539e-16 -5.000000e-01 8.660254e-01
   outer loop
     vertex 6.153050e-01 4.068160e+00 1.230615e-01
     vertex 6.153050e-01 3.944059e+00 5.141147e-02
     vertex 1.403405e+00 3.944059e+00 5.141147e-02
   endloop
 endfacet
 facet normal 0.000000e+00 -5.000000e-01 8.660254e-01
   outer loop
     vertex 6.153050e-01 4.068160e+00 1.230615e-01
     vertex 1.403405e+00 3.944059e+00 5.141147e-02
     vertex 1.403405e+00 4.068160e+00 1.230615e-01
   endloop
 endfacet
endsolid shape
