solid shape, STL ascii file, created with Open CASCADE Technology
 facet normal 4.330127e-01 7.500000e-01 -5.000000e-01
   outer loop
     vertex 1.537881e+00 4.352161e+00 5.141147e-02
     vertex 2.220396e+00 3.958111e+00 5.141147e-02
     vertex 2.219671e+00 3.956855e+00 4.890000e-02
   endloop
 endfacet
 facet normal 4.330127e-01 7.500000e-01 -5.000000e-01
   outer loop
     vertex 1.537881e+00 4.352161e+00 5.141147e-02
     vertex 2.219671e+00 3.956855e+00 4.890000e-02
     vertex 1.537156e+00 4.350905e+00 4.890000e-02
   endloop
 endfacet
 facet normal -4.330127e-01 -7.500000e-01 5.000000e-01
   outer loop
     vertex 1.475830e+00 4.244686e+00 1.230615e-01
     vertex 2.157620e+00 3.849380e+00 1.205500e-01
     vertex 2.158345e+00 3.850636e+00 1.230615e-01
   endloop
 endfacet
 facet normal -4.330127e-01 -7.500000e-01 5.000000e-01
   outer loop
     vertex 1.475830e+00 4.244686e+00 1.230615e-01
     vertex 1.475105e+00 4.243430e+00 1.205500e-01
     vertex 2.157620e+00 3.849380e+00 1.205500e-01
   endloop
 endfacet
 facet normal -8.660254e-01 5.000000e-01 4.285204e-14
   outer loop
     vertex 1.475830e+00 4.244686e+00 1.230615e-01
     vertex 1.537156e+00 4.350905e+00 4.890000e-02
     vertex 1.475105e+00 4.243430e+00 1.205500e-01
   endloop
 endfacet
 facet normal -8.660254e-01 5.000000e-01 4.383039e-14
   outer loop
     vertex 1.475830e+00 4.244686e+00 1.230615e-01
     vertex 1.537881e+00 4.352161e+00 5.141147e-02
     vertex 1.537156e+00 4.350905e+00 4.890000e-02
   endloop
 endfacet
 facet normal 8.660254e-01 -5.000000e-01 -1.090542e-13
   outer loop
     vertex 2.158345e+00 3.850636e+00 1.230615e-01
     vertex 2.157620e+00 3.849380e+00 1.205500e-01
     vertex 2.219671e+00 3.956855e+00 4.890000e-02
   endloop
 endfacet
 facet normal 8.660254e-01 -5.000000e-01 -4.383039e-14
   outer loop
     vertex 2.158345e+00 3.850636e+00 1.230615e-01
     vertex 2.219671e+00 3.956855e+00 4.890000e-02
     vertex 2.220396e+00 3.958111e+00 5.141147e-02
   endloop
 endfacet
 facet normal -2.500000e-01 -4.330127e-01 -8.660254e-01
   outer loop
     vertex 2.157620e+00 3.849380e+00 1.205500e-01
     vertex 1.537156e+00 4.350905e+00 4.890000e-02
     vertex 2.219671e+00 3.956855e+00 4.890000e-02
   endloop
 endfacet
 facet normal -2.500000e-01 -4.330127e-01 -8.660254e-01
   outer loop
     vertex 2.157620e+00 3.849380e+00 1.205500e-01
     vertex 1.475105e+00 4.243430e+00 1.205500e-01
     vertex 1.537156e+00 4.350905e+00 4.890000e-02
   endloop
 endfacet
 facet normal 2.500000e-01 4.330127e-01 8.660254e-01
   outer loop
     vertex 2.158345e+00 3.850636e+00 1.230615e-01
     vertex 2.220396e+00 3.958111e+00 5.141147e-02
     vertex 1.537881e+00 4.352161e+00 5.141147e-02
   endloop
 endfacet
 facet normal 2.500000e-01 4.330127e-01 8.660254e-01
   outer loop
     vertex 2.158345e+00 3.850636e+00 1.230615e-01
     vertex 1.537881e+00 4.352161e+00 5.141147e-02
     vertex 1.475830e+00 4.244686e+00 1.230615e-01
   endloop
 endfacet
 facet normal 4.330127e-01 7.500000e-01 -5.000000e-01
   outer loop
     vertex 2.257635e+00 3.936611e+00 5.141147e-02
     vertex 2.940149e+00 3.542561e+00 5.141147e-02
     vertex 2.939424e+00 3.541305e+00 4.890000e-02
   endloop
 endfacet
 facet normal 4.330127e-01 7.500000e-01 -5.000000e-01
   outer loop
     vertex 2.257635e+00 3.936611e+00 5.141147e-02
     vertex 2.939424e+00 3.541305e+00 4.890000e-02
     vertex 2.256910e+00 3.935355e+00 4.890000e-02
   endloop
 endfacet
 facet normal -4.330127e-01 -7.500000e-01 5.000000e-01
   outer loop
     vertex 2.195584e+00 3.829136e+00 1.230615e-01
     vertex 2.877374e+00 3.433830e+00 1.205500e-01
     vertex 2.878099e+00 3.435086e+00 1.230615e-01
   endloop
 endfacet
 facet normal -4.330127e-01 -7.500000e-01 5.000000e-01
   outer loop
     vertex 2.195584e+00 3.829136e+00 1.230615e-01
     vertex 2.194859e+00 3.827880e+00 1.205500e-01
     vertex 2.877374e+00 3.433830e+00 1.205500e-01
   endloop
 endfacet
 facet normal -8.660254e-01 5.000000e-01 -1.854313e-13
   outer loop
     vertex 2.195584e+00 3.829136e+00 1.230615e-01
     vertex 2.256910e+00 3.935355e+00 4.890000e-02
     vertex 2.194859e+00 3.827880e+00 1.205500e-01
   endloop
 endfacet
 facet normal -8.660254e-01 5.000000e-01 4.174323e-14
   outer loop
     vertex 2.195584e+00 3.829136e+00 1.230615e-01
     vertex 2.257635e+00 3.936611e+00 5.141147e-02
     vertex 2.256910e+00 3.935355e+00 4.890000e-02
   endloop
 endfacet
 facet normal 8.660254e-01 -5.000000e-01 7.053954e-14
   outer loop
     vertex 2.878099e+00 3.435086e+00 1.230615e-01
     vertex 2.877374e+00 3.433830e+00 1.205500e-01
     vertex 2.939424e+00 3.541305e+00 4.890000e-02
   endloop
 endfacet
 facet normal 8.660254e-01 -5.000000e-01 7.096349e-14
   outer loop
     vertex 2.878099e+00 3.435086e+00 1.230615e-01
     vertex 2.939424e+00 3.541305e+00 4.890000e-02
     vertex 2.940149e+00 3.542561e+00 5.141147e-02
   endloop
 endfacet
 facet normal -2.500000e-01 -4.330127e-01 -8.660254e-01
   outer loop
     vertex 2.877374e+00 3.433830e+00 1.205500e-01
     vertex 2.256910e+00 3.935355e+00 4.890000e-02
     vertex 2.939424e+00 3.541305e+00 4.890000e-02
   endloop
 endfacet
 facet normal -2.500000e-01 -4.330127e-01 -8.660254e-01
   outer loop
     vertex 2.877374e+00 3.433830e+00 1.205500e-01
     vertex 2.194859e+00 3.827880e+00 1.205500e-01
     vertex 2.256910e+00 3.935355e+00 4.890000e-02
   endloop
 endfacet
 facet normal 2.500000e-01 4.330127e-01 8.660254e-01
   outer loop
     vertex 2.878099e+00 3.435086e+00 1.230615e-01
     vertex 2.940149e+00 3.542561e+00 5.141147e-02
     vertex 2.257635e+00 3.936611e+00 5.141147e-02
   endloop
 endfacet
 facet normal 2.500000e-01 4.330127e-01 8.660254e-01
   outer loop
     vertex 2.878099e+00 3.435086e+00 1.230615e-01
     vertex 2.257635e+00 3.936611e+00 5.141147e-02
     vertex 2.195584e+00 3.829136e+00 1.230615e-01
   endloop
 endfacet
 facet normal 4.330127e-01 7.500000e-01 -5.000000e-01
   outer loop
     vertex 1.394581e+00 4.103958e+00 5.141147e-02
     vertex 2.077096e+00 3.709908e+00 5.141147e-02
     vertex 2.076371e+00 3.708652e+00 4.890000e-02
   endloop
 endfacet
 facet normal 4.330127e-01 7.500000e-01 -5.000000e-01
   outer loop
     vertex 1.394581e+00 4.103958e+00 5.141147e-02
     vertex 2.076371e+00 3.708652e+00 4.890000e-02
     vertex 1.393856e+00 4.102702e+00 4.890000e-02
   endloop
 endfacet
 facet normal -4.330127e-01 -7.500000e-01 5.000000e-01
   outer loop
     vertex 1.332530e+00 3.996483e+00 1.230615e-01
     vertex 2.014320e+00 3.601177e+00 1.205500e-01
     vertex 2.015045e+00 3.602433e+00 1.230615e-01
   endloop
 endfacet
 facet normal -4.330127e-01 -7.500000e-01 5.000000e-01
   outer loop
     vertex 1.332530e+00 3.996483e+00 1.230615e-01
     vertex 1.331805e+00 3.995227e+00 1.205500e-01
     vertex 2.014320e+00 3.601177e+00 1.205500e-01
   endloop
 endfacet
 facet normal -8.660254e-01 5.000000e-01 -5.120068e-15
   outer loop
     vertex 1.332530e+00 3.996483e+00 1.230615e-01
     vertex 1.393856e+00 4.102702e+00 4.890000e-02
     vertex 1.331805e+00 3.995227e+00 1.205500e-01
   endloop
 endfacet
 facet normal -8.660254e-01 5.000000e-01 1.001838e-13
   outer loop
     vertex 1.332530e+00 3.996483e+00 1.230615e-01
     vertex 1.394581e+00 4.103958e+00 5.141147e-02
     vertex 1.393856e+00 4.102702e+00 4.890000e-02
   endloop
 endfacet
 facet normal 8.660254e-01 -5.000000e-01 -4.353689e-14
   outer loop
     vertex 2.015045e+00 3.602433e+00 1.230615e-01
     vertex 2.014320e+00 3.601177e+00 1.205500e-01
     vertex 2.076371e+00 3.708652e+00 4.890000e-02
   endloop
 endfacet
 facet normal 8.660254e-01 -5.000000e-01 -1.106196e-13
   outer loop
     vertex 2.015045e+00 3.602433e+00 1.230615e-01
     vertex 2.076371e+00 3.708652e+00 4.890000e-02
     vertex 2.077096e+00 3.709908e+00 5.141147e-02
   endloop
 endfacet
 facet normal -2.500000e-01 -4.330127e-01 -8.660254e-01
   outer loop
     vertex 2.014320e+00 3.601177e+00 1.205500e-01
     vertex 1.393856e+00 4.102702e+00 4.890000e-02
     vertex 2.076371e+00 3.708652e+00 4.890000e-02
   endloop
 endfacet
 facet normal -2.500000e-01 -4.330127e-01 -8.660254e-01
   outer loop
     vertex 2.014320e+00 3.601177e+00 1.205500e-01
     vertex 1.331805e+00 3.995227e+00 1.205500e-01
     vertex 1.393856e+00 4.102702e+00 4.890000e-02
   endloop
 endfacet
 facet normal 2.500000e-01 4.330127e-01 8.660254e-01
   outer loop
     vertex 2.015045e+00 3.602433e+00 1.230615e-01
     vertex 2.077096e+00 3.709908e+00 5.141147e-02
     vertex 1.394581e+00 4.103958e+00 5.141147e-02
   endloop
 endfacet
 facet normal 2.500000e-01 4.330127e-01 8.660254e-01
   outer loop
     vertex 2.015045e+00 3.602433e+00 1.230615e-01
     vertex 1.394581e+00 4.103958e+00 5.141147e-02
     vertex 1.332530e+00 3.996483e+00 1.230615e-01
   endloop
 endfacet
 facet normal 4.330127e-01 7.500000e-01 -5.000000e-01
   outer loop
     vertex 2.114335e+00 3.688408e+00 5.141147e-02
     vertex 2.796849e+00 3.294358e+00 5.141147e-02
     vertex 2.796124e+00 3.293102e+00 4.890000e-02
   endloop
 endfacet
 facet normal 4.330127e-01 7.500000e-01 -5.000000e-01
   outer loop
     vertex 2.114335e+00 3.688408e+00 5.141147e-02
     vertex 2.796124e+00 3.293102e+00 4.890000e-02
     vertex 2.113610e+00 3.687152e+00 4.890000e-02
   endloop
 endfacet
 facet normal -4.330127e-01 -7.500000e-01 5.000000e-01
   outer loop
     vertex 2.052284e+00 3.580933e+00 1.230615e-01
     vertex 2.734074e+00 3.185627e+00 1.205500e-01
     vertex 2.734799e+00 3.186883e+00 1.230615e-01
   endloop
 endfacet
 facet normal -4.330127e-01 -7.500000e-01 5.000000e-01
   outer loop
     vertex 2.052284e+00 3.580933e+00 1.230615e-01
     vertex 2.051559e+00 3.579677e+00 1.205500e-01
     vertex 2.734074e+00 3.185627e+00 1.205500e-01
   endloop
 endfacet
 facet normal -8.660254e-01 5.000000e-01 -5.804918e-15
   outer loop
     vertex 2.052284e+00 3.580933e+00 1.230615e-01
     vertex 2.113610e+00 3.687152e+00 4.890000e-02
     vertex 2.051559e+00 3.579677e+00 1.205500e-01
   endloop
 endfacet
 facet normal -8.660254e-01 5.000000e-01 4.174323e-14
   outer loop
     vertex 2.052284e+00 3.580933e+00 1.230615e-01
     vertex 2.114335e+00 3.688408e+00 5.141147e-02
     vertex 2.113610e+00 3.687152e+00 4.890000e-02
   endloop
 endfacet
 facet normal 8.660254e-01 -5.000000e-01 6.998514e-14
   outer loop
     vertex 2.734799e+00 3.186883e+00 1.230615e-01
     vertex 2.734074e+00 3.185627e+00 1.205500e-01
     vertex 2.796124e+00 3.293102e+00 4.890000e-02
   endloop
 endfacet
 facet normal 8.660254e-01 -5.000000e-01 -4.383039e-14
   outer loop
     vertex 2.734799e+00 3.186883e+00 1.230615e-01
     vertex 2.796124e+00 3.293102e+00 4.890000e-02
     vertex 2.796849e+00 3.294358e+00 5.141147e-02
   endloop
 endfacet
 facet normal -2.500000e-01 -4.330127e-01 -8.660254e-01
   outer loop
     vertex 2.734074e+00 3.185627e+00 1.205500e-01
     vertex 2.113610e+00 3.687152e+00 4.890000e-02
     vertex 2.796124e+00 3.293102e+00 4.890000e-02
   endloop
 endfacet
 facet normal -2.500000e-01 -4.330127e-01 -8.660254e-01
   outer loop
     vertex 2.734074e+00 3.185627e+00 1.205500e-01
     vertex 2.051559e+00 3.579677e+00 1.205500e-01
     vertex 2.113610e+00 3.687152e+00 4.890000e-02
   endloop
 endfacet
 facet normal 2.500000e-01 4.330127e-01 8.660254e-01
   outer loop
     vertex 2.734799e+00 3.186883e+00 1.230615e-01
     vertex 2.796849e+00 3.294358e+00 5.141147e-02
     vertex 2.114335e+00 3.688408e+00 5.141147e-02
   endloop
 endfacet
 facet normal 2.500000e-01 4.330127e-01 8.660254e-01
   outer loop
     vertex 2.734799e+00 3.186883e+00 1.230615e-01
     vertex 2.114335e+00 3.688408e+00 5.141147e-02
     vertex 2.052284e+00 3.580933e+00 1.230615e-01
   endloop
 endfacet
 facet normal 4.330127e-01 7.500000e-01 -5.000000e-01
   outer loop
     vertex 1.251281e+00 3.855755e+00 5.141147e-02
     vertex 1.933796e+00 3.461705e+00 5.141147e-02
     vertex 1.933071e+00 3.460449e+00 4.890000e-02
   endloop
 endfacet
 facet normal 4.330127e-01 7.500000e-01 -5.000000e-01
   outer loop
     vertex 1.251281e+00 3.855755e+00 5.141147e-02
     vertex 1.933071e+00 3.460449e+00 4.890000e-02
     vertex 1.250556e+00 3.854499e+00 4.890000e-02
   endloop
 endfacet
 facet normal -4.330127e-01 -7.500000e-01 5.000000e-01
   outer loop
     vertex 1.189230e+00 3.748280e+00 1.230615e-01
     vertex 1.871020e+00 3.352974e+00 1.205500e-01
     vertex 1.871745e+00 3.354230e+00 1.230615e-01
   endloop
 endfacet
 facet normal -4.330127e-01 -7.500000e-01 5.000000e-01
   outer loop
     vertex 1.189230e+00 3.748280e+00 1.230615e-01
     vertex 1.188505e+00 3.747024e+00 1.205500e-01
     vertex 1.871020e+00 3.352974e+00 1.205500e-01
   endloop
 endfacet
 facet normal -8.660254e-01 5.000000e-01 4.285204e-14
   outer loop
     vertex 1.189230e+00 3.748280e+00 1.230615e-01
     vertex 1.250556e+00 3.854499e+00 4.890000e-02
     vertex 1.188505e+00 3.747024e+00 1.205500e-01
   endloop
 endfacet
 facet normal -8.660254e-01 5.000000e-01 -1.252297e-14
   outer loop
     vertex 1.189230e+00 3.748280e+00 1.230615e-01
     vertex 1.251281e+00 3.855755e+00 5.141147e-02
     vertex 1.250556e+00 3.854499e+00 4.890000e-02
   endloop
 endfacet
 facet normal 8.660254e-01 -5.000000e-01 2.335012e-14
   outer loop
     vertex 1.871745e+00 3.354230e+00 1.230615e-01
     vertex 1.871020e+00 3.352974e+00 1.205500e-01
     vertex 1.933071e+00 3.460449e+00 4.890000e-02
   endloop
 endfacet
 facet normal 8.660254e-01 -5.000000e-01 4.174323e-15
   outer loop
     vertex 1.871745e+00 3.354230e+00 1.230615e-01
     vertex 1.933071e+00 3.460449e+00 4.890000e-02
     vertex 1.933796e+00 3.461705e+00 5.141147e-02
   endloop
 endfacet
 facet normal -2.500000e-01 -4.330127e-01 -8.660254e-01
   outer loop
     vertex 1.871020e+00 3.352974e+00 1.205500e-01
     vertex 1.250556e+00 3.854499e+00 4.890000e-02
     vertex 1.933071e+00 3.460449e+00 4.890000e-02
   endloop
 endfacet
 facet normal -2.500000e-01 -4.330127e-01 -8.660254e-01
   outer loop
     vertex 1.871020e+00 3.352974e+00 1.205500e-01
     vertex 1.188505e+00 3.747024e+00 1.205500e-01
     vertex 1.250556e+00 3.854499e+00 4.890000e-02
   endloop
 endfacet
 facet normal 2.500000e-01 4.330127e-01 8.660254e-01
   outer loop
     vertex 1.871745e+00 3.354230e+00 1.230615e-01
     vertex 1.933796e+00 3.461705e+00 5.141147e-02
     vertex 1.251281e+00 3.855755e+00 5.141147e-02
   endloop
 endfacet
 facet normal 2.500000e-01 4.330127e-01 8.660254e-01
   outer loop
     vertex 1.871745e+00 3.354230e+00 1.230615e-01
     vertex 1.251281e+00 3.855755e+00 5.141147e-02
     vertex 1.189230e+00 3.748280e+00 1.230615e-01
   endloop
 endfacet
 facet normal 4.330127e-01 7.500000e-01 -5.000000e-01
   outer loop
     vertex 1.971035e+00 3.440205e+00 5.141147e-02
     vertex 2.653549e+00 3.046155e+00 5.141147e-02
     vertex 2.652824e+00 3.044899e+00 4.890000e-02
   endloop
 endfacet
 facet normal 4.330127e-01 7.500000e-01 -5.000000e-01
   outer loop
     vertex 1.971035e+00 3.440205e+00 5.141147e-02
     vertex 2.652824e+00 3.044899e+00 4.890000e-02
     vertex 1.970310e+00 3.438949e+00 4.890000e-02
   endloop
 endfacet
 facet normal -4.330127e-01 -7.500000e-01 5.000000e-01
   outer loop
     vertex 1.908984e+00 3.332730e+00 1.230615e-01
     vertex 2.590774e+00 2.937424e+00 1.205500e-01
     vertex 2.591499e+00 2.938680e+00 1.230615e-01
   endloop
 endfacet
 facet normal -4.330127e-01 -7.500000e-01 5.000000e-01
   outer loop
     vertex 1.908984e+00 3.332730e+00 1.230615e-01
     vertex 1.908259e+00 3.331474e+00 1.205500e-01
     vertex 2.590774e+00 2.937424e+00 1.205500e-01
   endloop
 endfacet
 facet normal -8.660254e-01 5.000000e-01 4.219980e-14
   outer loop
     vertex 1.908984e+00 3.332730e+00 1.230615e-01
     vertex 1.970310e+00 3.438949e+00 4.890000e-02
     vertex 1.908259e+00 3.331474e+00 1.205500e-01
   endloop
 endfacet
 facet normal -8.660254e-01 5.000000e-01 -1.461013e-14
   outer loop
     vertex 1.908984e+00 3.332730e+00 1.230615e-01
     vertex 1.971035e+00 3.440205e+00 5.141147e-02
     vertex 1.970310e+00 3.438949e+00 4.890000e-02
   endloop
 endfacet
 facet normal 8.660254e-01 -5.000000e-01 7.132222e-14
   outer loop
     vertex 2.591499e+00 2.938680e+00 1.230615e-01
     vertex 2.590774e+00 2.937424e+00 1.205500e-01
     vertex 2.652824e+00 3.044899e+00 4.890000e-02
   endloop
 endfacet
 facet normal 8.660254e-01 -5.000000e-01 7.096349e-14
   outer loop
     vertex 2.591499e+00 2.938680e+00 1.230615e-01
     vertex 2.652824e+00 3.044899e+00 4.890000e-02
     vertex 2.653549e+00 3.046155e+00 5.141147e-02
   endloop
 endfacet
 facet normal -2.500000e-01 -4.330127e-01 -8.660254e-01
   outer loop
     vertex 2.590774e+00 2.937424e+00 1.205500e-01
     vertex 1.970310e+00 3.438949e+00 4.890000e-02
     vertex 2.652824e+00 3.044899e+00 4.890000e-02
   endloop
 endfacet
 facet normal -2.500000e-01 -4.330127e-01 -8.660254e-01
   outer loop
     vertex 2.590774e+00 2.937424e+00 1.205500e-01
     vertex 1.908259e+00 3.331474e+00 1.205500e-01
     vertex 1.970310e+00 3.438949e+00 4.890000e-02
   endloop
 endfacet
 facet normal 2.500000e-01 4.330127e-01 8.660254e-01
   outer loop
     vertex 2.591499e+00 2.938680e+00 1.230615e-01
     vertex 2.653549e+00 3.046155e+00 5.141147e-02
     vertex 1.971035e+00 3.440205e+00 5.141147e-02
   endloop
 endfacet
 facet normal 2.500000e-01 4.330127e-01 8.660254e-01
   outer loop
     vertex 2.591499e+00 2.938680e+00 1.230615e-01
     vertex 1.971035e+00 3.440205e+00 5.141147e-02
     vertex 1.908984e+00 3.332730e+00 1.230615e-01
   endloop
 endfacet
 facet normal 4.330127e-01 7.500000e-01 -5.000000e-01
   outer loop
     vertex 1.107981e+00 3.607552e+00 5.141147e-02
     vertex 1.790496e+00 3.213502e+00 5.141147e-02
     vertex 1.789771e+00 3.212246e+00 4.890000e-02
   endloop
 endfacet
 facet normal 4.330127e-01 7.500000e-01 -5.000000e-01
   outer loop
     vertex 1.107981e+00 3.607552e+00 5.141147e-02
     vertex 1.789771e+00 3.212246e+00 4.890000e-02
     vertex 1.107256e+00 3.606296e+00 4.890000e-02
   endloop
 endfacet
 facet normal -4.330127e-01 -7.500000e-01 5.000000e-01
   outer loop
     vertex 1.045930e+00 3.500077e+00 1.230615e-01
     vertex 1.727720e+00 3.104771e+00 1.205500e-01
     vertex 1.728445e+00 3.106027e+00 1.230615e-01
   endloop
 endfacet
 facet normal -4.330127e-01 -7.500000e-01 5.000000e-01
   outer loop
     vertex 1.045930e+00 3.500077e+00 1.230615e-01
     vertex 1.045205e+00 3.498821e+00 1.205500e-01
     vertex 1.727720e+00 3.104771e+00 1.205500e-01
   endloop
 endfacet
 facet normal -8.660254e-01 5.000000e-01 -1.379483e-14
   outer loop
     vertex 1.045930e+00 3.500077e+00 1.230615e-01
     vertex 1.107256e+00 3.606296e+00 4.890000e-02
     vertex 1.045205e+00 3.498821e+00 1.205500e-01
   endloop
 endfacet
 facet normal -8.660254e-01 5.000000e-01 -1.252297e-14
   outer loop
     vertex 1.045930e+00 3.500077e+00 1.230615e-01
     vertex 1.107981e+00 3.607552e+00 5.141147e-02
     vertex 1.107256e+00 3.606296e+00 4.890000e-02
   endloop
 endfacet
 facet normal 8.660254e-01 -5.000000e-01 -4.294987e-14
   outer loop
     vertex 1.728445e+00 3.106027e+00 1.230615e-01
     vertex 1.727720e+00 3.104771e+00 1.205500e-01
     vertex 1.789771e+00 3.212246e+00 4.890000e-02
   endloop
 endfacet
 facet normal 8.660254e-01 -5.000000e-01 -5.217904e-14
   outer loop
     vertex 1.728445e+00 3.106027e+00 1.230615e-01
     vertex 1.789771e+00 3.212246e+00 4.890000e-02
     vertex 1.790496e+00 3.213502e+00 5.141147e-02
   endloop
 endfacet
 facet normal -2.500000e-01 -4.330127e-01 -8.660254e-01
   outer loop
     vertex 1.727720e+00 3.104771e+00 1.205500e-01
     vertex 1.107256e+00 3.606296e+00 4.890000e-02
     vertex 1.789771e+00 3.212246e+00 4.890000e-02
   endloop
 endfacet
 facet normal -2.500000e-01 -4.330127e-01 -8.660254e-01
   outer loop
     vertex 1.727720e+00 3.104771e+00 1.205500e-01
     vertex 1.045205e+00 3.498821e+00 1.205500e-01
     vertex 1.107256e+00 3.606296e+00 4.890000e-02
   endloop
 endfacet
 facet normal 2.500000e-01 4.330127e-01 8.660254e-01
   outer loop
     vertex 1.728445e+00 3.106027e+00 1.230615e-01
     vertex 1.790496e+00 3.213502e+00 5.141147e-02
     vertex 1.107981e+00 3.607552e+00 5.141147e-02
   endloop
 endfacet
 facet normal 2.500000e-01 4.330127e-01 8.660254e-01
   outer loop
     vertex 1.728445e+00 3.106027e+00 1.230615e-01
     vertex 1.107981e+00 3.607552e+00 5.141147e-02
     vertex 1.045930e+00 3.500077e+00 1.230615e-01
   endloop
 endfacet
 facet normal 4.330127e-01 7.500000e-01 -5.000000e-01
   outer loop
     vertex 1.827735e+00 3.192002e+00 5.141147e-02
     vertex 2.510249e+00 2.797952e+00 5.141147e-02
     vertex 2.509524e+00 2.796696e+00 4.890000e-02
   endloop
 endfacet
 facet normal 4.330127e-01 7.500000e-01 -5.000000e-01
   outer loop
     vertex 1.827735e+00 3.192002e+00 5.141147e-02
     vertex 2.509524e+00 2.796696e+00 4.890000e-02
     vertex 1.827010e+00 3.190746e+00 4.890000e-02
   endloop
 endfacet
 facet normal -4.330127e-01 -7.500000e-01 5.000000e-01
   outer loop
     vertex 1.765684e+00 3.084527e+00 1.230615e-01
     vertex 2.447474e+00 2.689221e+00 1.205500e-01
     vertex 2.448199e+00 2.690477e+00 1.230615e-01
   endloop
 endfacet
 facet normal -4.330127e-01 -7.500000e-01 5.000000e-01
   outer loop
     vertex 1.765684e+00 3.084527e+00 1.230615e-01
     vertex 1.764959e+00 3.083271e+00 1.205500e-01
     vertex 2.447474e+00 2.689221e+00 1.205500e-01
   endloop
 endfacet
 facet normal -8.660254e-01 5.000000e-01 1.090542e-13
   outer loop
     vertex 1.765684e+00 3.084527e+00 1.230615e-01
     vertex 1.827010e+00 3.190746e+00 4.890000e-02
     vertex 1.764959e+00 3.083271e+00 1.205500e-01
   endloop
 endfacet
 facet normal -8.660254e-01 5.000000e-01 4.383039e-14
   outer loop
     vertex 1.765684e+00 3.084527e+00 1.230615e-01
     vertex 1.827735e+00 3.192002e+00 5.141147e-02
     vertex 1.827010e+00 3.190746e+00 4.890000e-02
   endloop
 endfacet
 facet normal 8.660254e-01 -5.000000e-01 -1.077171e-13
   outer loop
     vertex 2.448199e+00 2.690477e+00 1.230615e-01
     vertex 2.447474e+00 2.689221e+00 1.205500e-01
     vertex 2.509524e+00 2.796696e+00 4.890000e-02
   endloop
 endfacet
 facet normal 8.660254e-01 -5.000000e-01 -4.174323e-14
   outer loop
     vertex 2.448199e+00 2.690477e+00 1.230615e-01
     vertex 2.509524e+00 2.796696e+00 4.890000e-02
     vertex 2.510249e+00 2.797952e+00 5.141147e-02
   endloop
 endfacet
 facet normal -2.500000e-01 -4.330127e-01 -8.660254e-01
   outer loop
     vertex 2.447474e+00 2.689221e+00 1.205500e-01
     vertex 1.827010e+00 3.190746e+00 4.890000e-02
     vertex 2.509524e+00 2.796696e+00 4.890000e-02
   endloop
 endfacet
 facet normal -2.500000e-01 -4.330127e-01 -8.660254e-01
   outer loop
     vertex 2.447474e+00 2.689221e+00 1.205500e-01
     vertex 1.764959e+00 3.083271e+00 1.205500e-01
     vertex 1.827010e+00 3.190746e+00 4.890000e-02
   endloop
 endfacet
 facet normal 2.500000e-01 4.330127e-01 8.660254e-01
   outer loop
     vertex 2.448199e+00 2.690477e+00 1.230615e-01
     vertex 2.510249e+00 2.797952e+00 5.141147e-02
     vertex 1.827735e+00 3.192002e+00 5.141147e-02
   endloop
 endfacet
 facet normal 2.500000e-01 4.330127e-01 8.660254e-01
   outer loop
     vertex 2.448199e+00 2.690477e+00 1.230615e-01
     vertex 1.827735e+00 3.192002e+00 5.141147e-02
     vertex 1.765684e+00 3.084527e+00 1.230615e-01
   endloop
 endfacet
 facet normal 4.330127e-01 7.500000e-01 -5.000000e-01
   outer loop
     vertex 9.646810e-01 3.359349e+00 5.141147e-02
     vertex 1.647196e+00 2.965299e+00 5.141147e-02
     vertex 1.646471e+00 2.964043e+00 4.890000e-02
   endloop
 endfacet
 facet normal 4.330127e-01 7.500000e-01 -5.000000e-01
   outer loop
     vertex 9.646810e-01 3.359349e+00 5.141147e-02
     vertex 1.646471e+00 2.964043e+00 4.890000e-02
     vertex 9.639560e-01 3.358093e+00 4.890000e-02
   endloop
 endfacet
 facet normal -4.330127e-01 -7.500000e-01 5.000000e-01
   outer loop
     vertex 9.026303e-01 3.251874e+00 1.230615e-01
     vertex 1.584420e+00 2.856568e+00 1.205500e-01
     vertex 1.585145e+00 2.857824e+00 1.230615e-01
   endloop
 endfacet
 facet normal -4.330127e-01 -7.500000e-01 5.000000e-01
   outer loop
     vertex 9.026303e-01 3.251874e+00 1.230615e-01
     vertex 9.019053e-01 3.250618e+00 1.205500e-01
     vertex 1.584420e+00 2.856568e+00 1.205500e-01
   endloop
 endfacet
 facet normal -8.660254e-01 5.000000e-01 9.992286e-14
   outer loop
     vertex 9.026303e-01 3.251874e+00 1.230615e-01
     vertex 9.639560e-01 3.358093e+00 4.890000e-02
     vertex 9.019053e-01 3.250618e+00 1.205500e-01
   endloop
 endfacet
 facet normal -8.660254e-01 5.000000e-01 2.295878e-14
   outer loop
     vertex 9.026303e-01 3.251874e+00 1.230615e-01
     vertex 9.646810e-01 3.359349e+00 5.141147e-02
     vertex 9.639560e-01 3.358093e+00 4.890000e-02
   endloop
 endfacet
 facet normal 8.660254e-01 -5.000000e-01 -5.162464e-14
   outer loop
     vertex 1.585145e+00 2.857824e+00 1.230615e-01
     vertex 1.584420e+00 2.856568e+00 1.205500e-01
     vertex 1.646471e+00 2.964043e+00 4.890000e-02
   endloop
 endfacet
 facet normal 8.660254e-01 -5.000000e-01 1.252297e-14
   outer loop
     vertex 1.585145e+00 2.857824e+00 1.230615e-01
     vertex 1.646471e+00 2.964043e+00 4.890000e-02
     vertex 1.647196e+00 2.965299e+00 5.141147e-02
   endloop
 endfacet
 facet normal -2.500000e-01 -4.330127e-01 -8.660254e-01
   outer loop
     vertex 1.584420e+00 2.856568e+00 1.205500e-01
     vertex 9.639560e-01 3.358093e+00 4.890000e-02
     vertex 1.646471e+00 2.964043e+00 4.890000e-02
   endloop
 endfacet
 facet normal -2.500000e-01 -4.330127e-01 -8.660254e-01
   outer loop
     vertex 1.584420e+00 2.856568e+00 1.205500e-01
     vertex 9.019053e-01 3.250618e+00 1.205500e-01
     vertex 9.639560e-01 3.358093e+00 4.890000e-02
   endloop
 endfacet
 facet normal 2.500000e-01 4.330127e-01 8.660254e-01
   outer loop
     vertex 1.585145e+00 2.857824e+00 1.230615e-01
     vertex 1.647196e+00 2.965299e+00 5.141147e-02
     vertex 9.646810e-01 3.359349e+00 5.141147e-02
   endloop
 endfacet
 facet normal 2.500000e-01 4.330127e-01 8.660254e-01
   outer loop
     vertex 1.585145e+00 2.857824e+00 1.230615e-01
     vertex 9.646810e-01 3.359349e+00 5.141147e-02
     vertex 9.026303e-01 3.251874e+00 1.230615e-01
   endloop
 endfacet
 facet normal 4.330127e-01 7.500000e-01 -5.000000e-01
   outer loop
     vertex 1.684435e+00 2.943799e+00 5.141147e-02
     vertex 2.366949e+00 2.549749e+00 5.141147e-02
     vertex 2.366224e+00 2.548493e+00 4.890000e-02
   endloop
 endfacet
 facet normal 4.330127e-01 7.500000e-01 -5.000000e-01
   outer loop
     vertex 1.684435e+00 2.943799e+00 5.141147e-02
     vertex 2.366224e+00 2.548493e+00 4.890000e-02
     vertex 1.683710e+00 2.942543e+00 4.890000e-02
   endloop
 endfacet
 facet normal -4.330127e-01 -7.500000e-01 5.000000e-01
   outer loop
     vertex 1.622384e+00 2.836324e+00 1.230615e-01
     vertex 2.304174e+00 2.441018e+00 1.205500e-01
     vertex 2.304899e+00 2.442274e+00 1.230615e-01
   endloop
 endfacet
 facet normal -4.330127e-01 -7.500000e-01 5.000000e-01
   outer loop
     vertex 1.622384e+00 2.836324e+00 1.230615e-01
     vertex 1.621659e+00 2.835068e+00 1.205500e-01
     vertex 2.304174e+00 2.441018e+00 1.205500e-01
   endloop
 endfacet
 facet normal -8.660254e-01 5.000000e-01 1.002816e-13
   outer loop
     vertex 1.622384e+00 2.836324e+00 1.230615e-01
     vertex 1.683710e+00 2.942543e+00 4.890000e-02
     vertex 1.621659e+00 2.835068e+00 1.205500e-01
   endloop
 endfacet
 facet normal -8.660254e-01 5.000000e-01 1.106196e-13
   outer loop
     vertex 1.622384e+00 2.836324e+00 1.230615e-01
     vertex 1.684435e+00 2.943799e+00 5.141147e-02
     vertex 1.683710e+00 2.942543e+00 4.890000e-02
   endloop
 endfacet
 facet normal 8.660254e-01 -5.000000e-01 -4.294987e-14
   outer loop
     vertex 2.304899e+00 2.442274e+00 1.230615e-01
     vertex 2.304174e+00 2.441018e+00 1.205500e-01
     vertex 2.366224e+00 2.548493e+00 4.890000e-02
   endloop
 endfacet
 facet normal 8.660254e-01 -5.000000e-01 -1.085324e-13
   outer loop
     vertex 2.304899e+00 2.442274e+00 1.230615e-01
     vertex 2.366224e+00 2.548493e+00 4.890000e-02
     vertex 2.366949e+00 2.549749e+00 5.141147e-02
   endloop
 endfacet
 facet normal -2.500000e-01 -4.330127e-01 -8.660254e-01
   outer loop
     vertex 2.304174e+00 2.441018e+00 1.205500e-01
     vertex 1.683710e+00 2.942543e+00 4.890000e-02
     vertex 2.366224e+00 2.548493e+00 4.890000e-02
   endloop
 endfacet
 facet normal -2.500000e-01 -4.330127e-01 -8.660254e-01
   outer loop
     vertex 2.304174e+00 2.441018e+00 1.205500e-01
     vertex 1.621659e+00 2.835068e+00 1.205500e-01
     vertex 1.683710e+00 2.942543e+00 4.890000e-02
   endloop
 endfacet
 facet normal 2.500000e-01 4.330127e-01 8.660254e-01
   outer loop
     vertex 2.304899e+00 2.442274e+00 1.230615e-01
     vertex 2.366949e+00 2.549749e+00 5.141147e-02
     vertex 1.684435e+00 2.943799e+00 5.141147e-02
   endloop
 endfacet
 facet normal 2.500000e-01 4.330127e-01 8.660254e-01
   outer loop
     vertex 2.304899e+00 2.442274e+00 1.230615e-01
     vertex 1.684435e+00 2.943799e+00 5.141147e-02
     vertex 1.622384e+00 2.836324e+00 1.230615e-01
   endloop
 endfacet
 facet normal 4.330127e-01 7.500000e-01 -5.000000e-01
   outer loop
     vertex 8.213810e-01 3.111146e+00 5.141147e-02
     vertex 1.503896e+00 2.717096e+00 5.141147e-02
     vertex 1.503171e+00 2.715841e+00 4.890000e-02
   endloop
 endfacet
 facet normal 4.330127e-01 7.500000e-01 -5.000000e-01
   outer loop
     vertex 8.213810e-01 3.111146e+00 5.141147e-02
     vertex 1.503171e+00 2.715841e+00 4.890000e-02
     vertex 8.206560e-01 3.109891e+00 4.890000e-02
   endloop
 endfacet
 facet normal -4.330127e-01 -7.500000e-01 5.000000e-01
   outer loop
     vertex 7.593303e-01 3.003671e+00 1.230615e-01
     vertex 1.441120e+00 2.608366e+00 1.205500e-01
     vertex 1.441845e+00 2.609621e+00 1.230615e-01
   endloop
 endfacet
 facet normal -4.330127e-01 -7.500000e-01 5.000000e-01
   outer loop
     vertex 7.593303e-01 3.003671e+00 1.230615e-01
     vertex 7.586053e-01 3.002416e+00 1.205500e-01
     vertex 1.441120e+00 2.608366e+00 1.205500e-01
   endloop
 endfacet
 facet normal -8.660254e-01 5.000000e-01 -1.425140e-14
   outer loop
     vertex 7.593303e-01 3.003671e+00 1.230615e-01
     vertex 8.206560e-01 3.109891e+00 4.890000e-02
     vertex 7.586053e-01 3.002416e+00 1.205500e-01
   endloop
 endfacet
 facet normal -8.660254e-01 5.000000e-01 5.009188e-14
   outer loop
     vertex 7.593303e-01 3.003671e+00 1.230615e-01
     vertex 8.213810e-01 3.111146e+00 5.141147e-02
     vertex 8.206560e-01 3.109891e+00 4.890000e-02
   endloop
 endfacet
 facet normal 8.660254e-01 -5.000000e-01 1.457752e-14
   outer loop
     vertex 1.441845e+00 2.609621e+00 1.230615e-01
     vertex 1.441120e+00 2.608366e+00 1.205500e-01
     vertex 1.503171e+00 2.715841e+00 4.890000e-02
   endloop
 endfacet
 facet normal 8.660254e-01 -5.000000e-01 7.096349e-14
   outer loop
     vertex 1.441845e+00 2.609621e+00 1.230615e-01
     vertex 1.503171e+00 2.715841e+00 4.890000e-02
     vertex 1.503896e+00 2.717096e+00 5.141147e-02
   endloop
 endfacet
 facet normal -2.500000e-01 -4.330127e-01 -8.660254e-01
   outer loop
     vertex 1.441120e+00 2.608366e+00 1.205500e-01
     vertex 8.206560e-01 3.109891e+00 4.890000e-02
     vertex 1.503171e+00 2.715841e+00 4.890000e-02
   endloop
 endfacet
 facet normal -2.500000e-01 -4.330127e-01 -8.660254e-01
   outer loop
     vertex 1.441120e+00 2.608366e+00 1.205500e-01
     vertex 7.586053e-01 3.002416e+00 1.205500e-01
     vertex 8.206560e-01 3.109891e+00 4.890000e-02
   endloop
 endfacet
 facet normal 2.500000e-01 4.330127e-01 8.660254e-01
   outer loop
     vertex 1.441845e+00 2.609621e+00 1.230615e-01
     vertex 1.503896e+00 2.717096e+00 5.141147e-02
     vertex 8.213810e-01 3.111146e+00 5.141147e-02
   endloop
 endfacet
 facet normal 2.500000e-01 4.330127e-01 8.660254e-01
   outer loop
     vertex 1.441845e+00 2.609621e+00 1.230615e-01
     vertex 8.213810e-01 3.111146e+00 5.141147e-02
     vertex 7.593303e-01 3.003671e+00 1.230615e-01
   endloop
 endfacet
 facet normal 4.330127e-01 7.500000e-01 -5.000000e-01
   outer loop
     vertex 1.541135e+00 2.695596e+00 5.141147e-02
     vertex 2.223649e+00 2.301546e+00 5.141147e-02
     vertex 2.222924e+00 2.300291e+00 4.890000e-02
   endloop
 endfacet
 facet normal 4.330127e-01 7.500000e-01 -5.000000e-01
   outer loop
     vertex 1.541135e+00 2.695596e+00 5.141147e-02
     vertex 2.222924e+00 2.300291e+00 4.890000e-02
     vertex 1.540410e+00 2.694341e+00 4.890000e-02
   endloop
 endfacet
 facet normal -4.330127e-01 -7.500000e-01 5.000000e-01
   outer loop
     vertex 1.479084e+00 2.588121e+00 1.230615e-01
     vertex 2.160874e+00 2.192816e+00 1.205500e-01
     vertex 2.161599e+00 2.194071e+00 1.230615e-01
   endloop
 endfacet
 facet normal -4.330127e-01 -7.500000e-01 5.000000e-01
   outer loop
     vertex 1.479084e+00 2.588121e+00 1.230615e-01
     vertex 1.478359e+00 2.586866e+00 1.205500e-01
     vertex 2.160874e+00 2.192816e+00 1.205500e-01
   endloop
 endfacet
 facet normal -8.660254e-01 5.000000e-01 1.091520e-13
   outer loop
     vertex 1.479084e+00 2.588121e+00 1.230615e-01
     vertex 1.540410e+00 2.694341e+00 4.890000e-02
     vertex 1.478359e+00 2.586866e+00 1.205500e-01
   endloop
 endfacet
 facet normal -8.660254e-01 5.000000e-01 1.001838e-13
   outer loop
     vertex 1.479084e+00 2.588121e+00 1.230615e-01
     vertex 1.541135e+00 2.695596e+00 5.141147e-02
     vertex 1.540410e+00 2.694341e+00 4.890000e-02
   endloop
 endfacet
 facet normal 8.660254e-01 -5.000000e-01 1.193269e-13
   outer loop
     vertex 2.161599e+00 2.194071e+00 1.230615e-01
     vertex 2.160874e+00 2.192816e+00 1.205500e-01
     vertex 2.222924e+00 2.300291e+00 4.890000e-02
   endloop
 endfacet
 facet normal 8.660254e-01 -5.000000e-01 -4.174323e-14
   outer loop
     vertex 2.161599e+00 2.194071e+00 1.230615e-01
     vertex 2.222924e+00 2.300291e+00 4.890000e-02
     vertex 2.223649e+00 2.301546e+00 5.141147e-02
   endloop
 endfacet
 facet normal -2.500000e-01 -4.330127e-01 -8.660254e-01
   outer loop
     vertex 2.160874e+00 2.192816e+00 1.205500e-01
     vertex 1.540410e+00 2.694341e+00 4.890000e-02
     vertex 2.222924e+00 2.300291e+00 4.890000e-02
   endloop
 endfacet
 facet normal -2.500000e-01 -4.330127e-01 -8.660254e-01
   outer loop
     vertex 2.160874e+00 2.192816e+00 1.205500e-01
     vertex 1.478359e+00 2.586866e+00 1.205500e-01
     vertex 1.540410e+00 2.694341e+00 4.890000e-02
   endloop
 endfacet
 facet normal 2.500000e-01 4.330127e-01 8.660254e-01
   outer loop
     vertex 2.161599e+00 2.194071e+00 1.230615e-01
     vertex 2.223649e+00 2.301546e+00 5.141147e-02
     vertex 1.541135e+00 2.695596e+00 5.141147e-02
   endloop
 endfacet
 facet normal 2.500000e-01 4.330127e-01 8.660254e-01
   outer loop
     vertex 2.161599e+00 2.194071e+00 1.230615e-01
     vertex 1.541135e+00 2.695596e+00 5.141147e-02
     vertex 1.479084e+00 2.588121e+00 1.230615e-01
   endloop
 endfacet
 facet normal 4.330127e-01 7.500000e-01 -5.000000e-01
   outer loop
     vertex 6.780810e-01 2.862943e+00 5.141147e-02
     vertex 1.360596e+00 2.468893e+00 5.141147e-02
     vertex 1.359871e+00 2.467638e+00 4.890000e-02
   endloop
 endfacet
 facet normal 4.330127e-01 7.500000e-01 -5.000000e-01
   outer loop
     vertex 6.780810e-01 2.862943e+00 5.141147e-02
     vertex 1.359871e+00 2.467638e+00 4.890000e-02
     vertex 6.773560e-01 2.861688e+00 4.890000e-02
   endloop
 endfacet
 facet normal -4.330127e-01 -7.500000e-01 5.000000e-01
   outer loop
     vertex 6.160303e-01 2.755468e+00 1.230615e-01
     vertex 1.297820e+00 2.360163e+00 1.205500e-01
     vertex 1.298545e+00 2.361418e+00 1.230615e-01
   endloop
 endfacet
 facet normal -4.330127e-01 -7.500000e-01 5.000000e-01
   outer loop
     vertex 6.160303e-01 2.755468e+00 1.230615e-01
     vertex 6.153053e-01 2.754213e+00 1.205500e-01
     vertex 1.297820e+00 2.360163e+00 1.205500e-01
   endloop
 endfacet
 facet normal -8.660254e-01 5.000000e-01 1.412095e-14
   outer loop
     vertex 6.160303e-01 2.755468e+00 1.230615e-01
     vertex 6.773560e-01 2.861688e+00 4.890000e-02
     vertex 6.153053e-01 2.754213e+00 1.205500e-01
   endloop
 endfacet
 facet normal -8.660254e-01 5.000000e-01 2.295878e-14
   outer loop
     vertex 6.160303e-01 2.755468e+00 1.230615e-01
     vertex 6.780810e-01 2.862943e+00 5.141147e-02
     vertex 6.773560e-01 2.861688e+00 4.890000e-02
   endloop
 endfacet
 facet normal 8.660254e-01 -5.000000e-01 -1.084672e-13
   outer loop
     vertex 1.298545e+00 2.361418e+00 1.230615e-01
     vertex 1.297820e+00 2.360163e+00 1.205500e-01
     vertex 1.359871e+00 2.467638e+00 4.890000e-02
   endloop
 endfacet
 facet normal 8.660254e-01 -5.000000e-01 -1.085324e-13
   outer loop
     vertex 1.298545e+00 2.361418e+00 1.230615e-01
     vertex 1.359871e+00 2.467638e+00 4.890000e-02
     vertex 1.360596e+00 2.468893e+00 5.141147e-02
   endloop
 endfacet
 facet normal -2.500000e-01 -4.330127e-01 -8.660254e-01
   outer loop
     vertex 1.297820e+00 2.360163e+00 1.205500e-01
     vertex 6.773560e-01 2.861688e+00 4.890000e-02
     vertex 1.359871e+00 2.467638e+00 4.890000e-02
   endloop
 endfacet
 facet normal -2.500000e-01 -4.330127e-01 -8.660254e-01
   outer loop
     vertex 1.297820e+00 2.360163e+00 1.205500e-01
     vertex 6.153053e-01 2.754213e+00 1.205500e-01
     vertex 6.773560e-01 2.861688e+00 4.890000e-02
   endloop
 endfacet
 facet normal 2.500000e-01 4.330127e-01 8.660254e-01
   outer loop
     vertex 1.298545e+00 2.361418e+00 1.230615e-01
     vertex 1.360596e+00 2.468893e+00 5.141147e-02
     vertex 6.780810e-01 2.862943e+00 5.141147e-02
   endloop
 endfacet
 facet normal 2.500000e-01 4.330127e-01 8.660254e-01
   outer loop
     vertex 1.298545e+00 2.361418e+00 1.230615e-01
     vertex 6.780810e-01 2.862943e+00 5.141147e-02
     vertex 6.160303e-01 2.755468e+00 1.230615e-01
   endloop
 endfacet
 facet normal 4.330127e-01 7.500000e-01 -5.000000e-01
   outer loop
     vertex 1.397835e+00 2.447393e+00 5.141147e-02
     vertex 2.080349e+00 2.053343e+00 5.141147e-02
     vertex 2.079624e+00 2.052088e+00 4.890000e-02
   endloop
 endfacet
 facet normal 4.330127e-01 7.500000e-01 -5.000000e-01
   outer loop
     vertex 1.397835e+00 2.447393e+00 5.141147e-02
     vertex 2.079624e+00 2.052088e+00 4.890000e-02
     vertex 1.397110e+00 2.446138e+00 4.890000e-02
   endloop
 endfacet
 facet normal -4.330127e-01 -7.500000e-01 5.000000e-01
   outer loop
     vertex 1.335784e+00 2.339918e+00 1.230615e-01
     vertex 2.017574e+00 1.944613e+00 1.205500e-01
     vertex 2.018299e+00 1.945868e+00 1.230615e-01
   endloop
 endfacet
 facet normal -4.330127e-01 -7.500000e-01 5.000000e-01
   outer loop
     vertex 1.335784e+00 2.339918e+00 1.230615e-01
     vertex 1.335059e+00 2.338663e+00 1.205500e-01
     vertex 2.017574e+00 1.944613e+00 1.205500e-01
   endloop
 endfacet
 facet normal -8.660254e-01 5.000000e-01 4.285204e-14
   outer loop
     vertex 1.335784e+00 2.339918e+00 1.230615e-01
     vertex 1.397110e+00 2.446138e+00 4.890000e-02
     vertex 1.335059e+00 2.338663e+00 1.205500e-01
   endloop
 endfacet
 facet normal -8.660254e-01 5.000000e-01 4.383039e-14
   outer loop
     vertex 1.335784e+00 2.339918e+00 1.230615e-01
     vertex 1.397835e+00 2.447393e+00 5.141147e-02
     vertex 1.397110e+00 2.446138e+00 4.890000e-02
   endloop
 endfacet
 facet normal 8.660254e-01 -5.000000e-01 7.190924e-14
   outer loop
     vertex 2.018299e+00 1.945868e+00 1.230615e-01
     vertex 2.017574e+00 1.944613e+00 1.205500e-01
     vertex 2.079624e+00 2.052088e+00 4.890000e-02
   endloop
 endfacet
 facet normal 8.660254e-01 -5.000000e-01 -1.064452e-13
   outer loop
     vertex 2.018299e+00 1.945868e+00 1.230615e-01
     vertex 2.079624e+00 2.052088e+00 4.890000e-02
     vertex 2.080349e+00 2.053343e+00 5.141147e-02
   endloop
 endfacet
 facet normal -2.500000e-01 -4.330127e-01 -8.660254e-01
   outer loop
     vertex 2.017574e+00 1.944613e+00 1.205500e-01
     vertex 1.397110e+00 2.446138e+00 4.890000e-02
     vertex 2.079624e+00 2.052088e+00 4.890000e-02
   endloop
 endfacet
 facet normal -2.500000e-01 -4.330127e-01 -8.660254e-01
   outer loop
     vertex 2.017574e+00 1.944613e+00 1.205500e-01
     vertex 1.335059e+00 2.338663e+00 1.205500e-01
     vertex 1.397110e+00 2.446138e+00 4.890000e-02
   endloop
 endfacet
 facet normal 2.500000e-01 4.330127e-01 8.660254e-01
   outer loop
     vertex 2.018299e+00 1.945868e+00 1.230615e-01
     vertex 2.080349e+00 2.053343e+00 5.141147e-02
     vertex 1.397835e+00 2.447393e+00 5.141147e-02
   endloop
 endfacet
 facet normal 2.500000e-01 4.330127e-01 8.660254e-01
   outer loop
     vertex 2.018299e+00 1.945868e+00 1.230615e-01
     vertex 1.397835e+00 2.447393e+00 5.141147e-02
     vertex 1.335784e+00 2.339918e+00 1.230615e-01
   endloop
 endfacet
endsolid shape
