solid shape, STL ascii file, created with Open CASCADE Technology
 facet normal -1.408734e-16 8.660254e-01 -5.000000e-01
   outer loop
     vertex 6.153050e-01 4.071060e+00 5.141147e-02
     vertex 1.403405e+00 4.071060e+00 5.141147e-02
     vertex 1.403405e+00 4.069610e+00 4.890000e-02
   endloop
 endfacet
 facet normal -1.408330e-16 8.660254e-01 -5.000000e-01
   outer loop
     vertex 6.153050e-01 4.071060e+00 5.141147e-02
     vertex 1.403405e+00 4.069610e+00 4.890000e-02
     vertex 6.153050e-01 4.069610e+00 4.890000e-02
   endloop
 endfacet
 facet normal 0.000000e+00 -8.660254e-01 5.000000e-01
   outer loop
     vertex 6.153050e-01 3.946959e+00 1.230615e-01
     vertex 1.403405e+00 3.945509e+00 1.205500e-01
     vertex 1.403405e+00 3.946959e+00 1.230615e-01
   endloop
 endfacet
 facet normal 1.408330e-16 -8.660254e-01 5.000000e-01
   outer loop
     vertex 6.153050e-01 3.946959e+00 1.230615e-01
     vertex 6.153050e-01 3.945509e+00 1.205500e-01
     vertex 1.403405e+00 3.945509e+00 1.205500e-01
   endloop
 endfacet
 facet normal -1.000000e+00 -6.709570e-16 3.873772e-16
   outer loop
     vertex 6.153050e-01 3.946959e+00 1.230615e-01
     vertex 6.153050e-01 4.069610e+00 4.890000e-02
     vertex 6.153050e-01 3.945509e+00 1.205500e-01
   endloop
 endfacet
 facet normal -1.000000e+00 -6.709570e-16 3.873772e-16
   outer loop
     vertex 6.153050e-01 3.946959e+00 1.230615e-01
     vertex 6.153050e-01 4.071060e+00 5.141147e-02
     vertex 6.153050e-01 4.069610e+00 4.890000e-02
   endloop
 endfacet
 facet normal 1.000000e+00 0.000000e+00 0.000000e+00
   outer loop
     vertex 1.403405e+00 3.946959e+00 1.230615e-01
     vertex 1.403405e+00 3.945509e+00 1.205500e-01
     vertex 1.403405e+00 4.069610e+00 4.890000e-02
   endloop
 endfacet
 facet normal 1.000000e+00 0.000000e+00 0.000000e+00
   outer loop
     vertex 1.403405e+00 3.946959e+00 1.230615e-01
     vertex 1.403405e+00 4.069610e+00 4.890000e-02
     vertex 1.403405e+00 4.071060e+00 5.141147e-02
   endloop
 endfacet
 facet normal -2.304061e-16 -5.000000e-01 -8.660254e-01
   outer loop
     vertex 1.403405e+00 3.945509e+00 1.205500e-01
     vertex 6.153050e-01 4.069610e+00 4.890000e-02
     vertex 1.403405e+00 4.069610e+00 4.890000e-02
   endloop
 endfacet
 facet normal -2.439998e-16 -5.000000e-01 -8.660254e-01
   outer loop
     vertex 1.403405e+00 3.945509e+00 1.205500e-01
     vertex 6.153050e-01 3.945509e+00 1.205500e-01
     vertex 6.153050e-01 4.069610e+00 4.890000e-02
   endloop
 endfacet
 facet normal 2.457665e-16 5.000000e-01 8.660254e-01
   outer loop
     vertex 1.403405e+00 3.946959e+00 1.230615e-01
     vertex 1.403405e+00 4.071060e+00 5.141147e-02
     vertex 6.153050e-01 4.071060e+00 5.141147e-02
   endloop
 endfacet
 facet normal 0.000000e+00 5.000000e-01 8.660254e-01
   outer loop
     vertex 1.403405e+00 3.946959e+00 1.230615e-01
     vertex 6.153050e-01 4.071060e+00 5.141147e-02
     vertex 6.153050e-01 3.946959e+00 1.230615e-01
   endloop
 endfacet
 facet normal 2.465284e-16 8.660254e-01 -5.000000e-01
   outer loop
     vertex 1.446405e+00 4.071060e+00 5.141147e-02
     vertex 2.234505e+00 4.071060e+00 5.141147e-02
     vertex 2.234505e+00 4.069610e+00 4.890000e-02
   endloop
 endfacet
 facet normal 2.421958e-16 8.660254e-01 -5.000000e-01
   outer loop
     vertex 1.446405e+00 4.071060e+00 5.141147e-02
     vertex 2.234505e+00 4.069610e+00 4.890000e-02
     vertex 1.446405e+00 4.069610e+00 4.890000e-02
   endloop
 endfacet
 facet normal -6.288730e-16 -8.660254e-01 5.000000e-01
   outer loop
     vertex 1.446405e+00 3.946959e+00 1.230615e-01
     vertex 2.234505e+00 3.945509e+00 1.205500e-01
     vertex 2.234505e+00 3.946959e+00 1.230615e-01
   endloop
 endfacet
 facet normal 0.000000e+00 -8.660254e-01 5.000000e-01
   outer loop
     vertex 1.446405e+00 3.946959e+00 1.230615e-01
     vertex 1.446405e+00 3.945509e+00 1.205500e-01
     vertex 2.234505e+00 3.945509e+00 1.205500e-01
   endloop
 endfacet
 facet normal -1.000000e+00 0.000000e+00 -0.000000e+00
   outer loop
     vertex 1.446405e+00 3.946959e+00 1.230615e-01
     vertex 1.446405e+00 4.069610e+00 4.890000e-02
     vertex 1.446405e+00 3.945509e+00 1.205500e-01
   endloop
 endfacet
 facet normal -1.000000e+00 0.000000e+00 0.000000e+00
   outer loop
     vertex 1.446405e+00 3.946959e+00 1.230615e-01
     vertex 1.446405e+00 4.071060e+00 5.141147e-02
     vertex 1.446405e+00 4.069610e+00 4.890000e-02
   endloop
 endfacet
 facet normal 1.000000e+00 0.000000e+00 0.000000e+00
   outer loop
     vertex 2.234505e+00 3.946959e+00 1.230615e-01
     vertex 2.234505e+00 3.945509e+00 1.205500e-01
     vertex 2.234505e+00 4.069610e+00 4.890000e-02
   endloop
 endfacet
 facet normal 1.000000e+00 0.000000e+00 0.000000e+00
   outer loop
     vertex 2.234505e+00 3.946959e+00 1.230615e-01
     vertex 2.234505e+00 4.069610e+00 4.890000e-02
     vertex 2.234505e+00 4.071060e+00 5.141147e-02
   endloop
 endfacet
 facet normal 3.993706e-16 -5.000000e-01 -8.660254e-01
   outer loop
     vertex 2.234505e+00 3.945509e+00 1.205500e-01
     vertex 1.446405e+00 4.069610e+00 4.890000e-02
     vertex 2.234505e+00 4.069610e+00 4.890000e-02
   endloop
 endfacet
 facet normal -0.000000e+00 -5.000000e-01 -8.660254e-01
   outer loop
     vertex 2.234505e+00 3.945509e+00 1.205500e-01
     vertex 1.446405e+00 3.945509e+00 1.205500e-01
     vertex 1.446405e+00 4.069610e+00 4.890000e-02
   endloop
 endfacet
 facet normal -4.147310e-16 5.000000e-01 8.660254e-01
   outer loop
     vertex 2.234505e+00 3.946959e+00 1.230615e-01
     vertex 2.234505e+00 4.071060e+00 5.141147e-02
     vertex 1.446405e+00 4.071060e+00 5.141147e-02
   endloop
 endfacet
 facet normal 3.774691e-17 5.000000e-01 8.660254e-01
   outer loop
     vertex 2.234505e+00 3.946959e+00 1.230615e-01
     vertex 1.446405e+00 4.071060e+00 5.141147e-02
     vertex 1.446405e+00 3.946959e+00 1.230615e-01
   endloop
 endfacet
 facet normal 4.879997e-16 8.660254e-01 -5.000000e-01
   outer loop
     vertex 6.153050e-01 3.784460e+00 5.141147e-02
     vertex 1.403405e+00 3.784460e+00 5.141147e-02
     vertex 1.403405e+00 3.783010e+00 4.890000e-02
   endloop
 endfacet
 facet normal -5.055165e-16 8.660254e-01 -5.000000e-01
   outer loop
     vertex 6.153050e-01 3.784460e+00 5.141147e-02
     vertex 1.403405e+00 3.783010e+00 4.890000e-02
     vertex 6.153050e-01 3.783010e+00 4.890000e-02
   endloop
 endfacet
 facet normal 0.000000e+00 -8.660254e-01 5.000000e-01
   outer loop
     vertex 6.153050e-01 3.660359e+00 1.230615e-01
     vertex 1.403405e+00 3.658909e+00 1.205500e-01
     vertex 1.403405e+00 3.660359e+00 1.230615e-01
   endloop
 endfacet
 facet normal 5.057018e-16 -8.660254e-01 5.000000e-01
   outer loop
     vertex 6.153050e-01 3.660359e+00 1.230615e-01
     vertex 6.153050e-01 3.658909e+00 1.205500e-01
     vertex 1.403405e+00 3.658909e+00 1.205500e-01
   endloop
 endfacet
 facet normal -1.000000e+00 0.000000e+00 -0.000000e+00
   outer loop
     vertex 6.153050e-01 3.660359e+00 1.230615e-01
     vertex 6.153050e-01 3.783010e+00 4.890000e-02
     vertex 6.153050e-01 3.658909e+00 1.205500e-01
   endloop
 endfacet
 facet normal -1.000000e+00 0.000000e+00 0.000000e+00
   outer loop
     vertex 6.153050e-01 3.660359e+00 1.230615e-01
     vertex 6.153050e-01 3.784460e+00 5.141147e-02
     vertex 6.153050e-01 3.783010e+00 4.890000e-02
   endloop
 endfacet
 facet normal 1.000000e+00 0.000000e+00 0.000000e+00
   outer loop
     vertex 1.403405e+00 3.660359e+00 1.230615e-01
     vertex 1.403405e+00 3.658909e+00 1.205500e-01
     vertex 1.403405e+00 3.783010e+00 4.890000e-02
   endloop
 endfacet
 facet normal 1.000000e+00 0.000000e+00 0.000000e+00
   outer loop
     vertex 1.403405e+00 3.660359e+00 1.230615e-01
     vertex 1.403405e+00 3.783010e+00 4.890000e-02
     vertex 1.403405e+00 3.784460e+00 5.141147e-02
   endloop
 endfacet
 facet normal 2.611269e-16 -5.000000e-01 -8.660254e-01
   outer loop
     vertex 1.403405e+00 3.658909e+00 1.205500e-01
     vertex 6.153050e-01 3.783010e+00 4.890000e-02
     vertex 1.403405e+00 3.783010e+00 4.890000e-02
   endloop
 endfacet
 facet normal 2.512468e-16 -5.000000e-01 -8.660254e-01
   outer loop
     vertex 1.403405e+00 3.658909e+00 1.205500e-01
     vertex 6.153050e-01 3.658909e+00 1.205500e-01
     vertex 6.153050e-01 3.783010e+00 4.890000e-02
   endloop
 endfacet
 facet normal 2.918477e-16 5.000000e-01 8.660254e-01
   outer loop
     vertex 1.403405e+00 3.660359e+00 1.230615e-01
     vertex 1.403405e+00 3.784460e+00 5.141147e-02
     vertex 6.153050e-01 3.784460e+00 5.141147e-02
   endloop
 endfacet
 facet normal 0.000000e+00 5.000000e-01 8.660254e-01
   outer loop
     vertex 1.403405e+00 3.660359e+00 1.230615e-01
     vertex 6.153050e-01 3.784460e+00 5.141147e-02
     vertex 6.153050e-01 3.660359e+00 1.230615e-01
   endloop
 endfacet
 facet normal 9.980108e-16 8.660254e-01 -5.000000e-01
   outer loop
     vertex 1.446405e+00 3.784460e+00 5.141147e-02
     vertex 2.234505e+00 3.784460e+00 5.141147e-02
     vertex 2.234505e+00 3.783010e+00 4.890000e-02
   endloop
 endfacet
 facet normal 0.000000e+00 8.660254e-01 -5.000000e-01
   outer loop
     vertex 1.446405e+00 3.784460e+00 5.141147e-02
     vertex 2.234505e+00 3.783010e+00 4.890000e-02
     vertex 1.446405e+00 3.783010e+00 4.890000e-02
   endloop
 endfacet
 facet normal -5.056088e-16 -8.660254e-01 5.000000e-01
   outer loop
     vertex 1.446405e+00 3.660359e+00 1.230615e-01
     vertex 2.234505e+00 3.658909e+00 1.205500e-01
     vertex 2.234505e+00 3.660359e+00 1.230615e-01
   endloop
 endfacet
 facet normal 0.000000e+00 -8.660254e-01 5.000000e-01
   outer loop
     vertex 1.446405e+00 3.660359e+00 1.230615e-01
     vertex 1.446405e+00 3.658909e+00 1.205500e-01
     vertex 2.234505e+00 3.658909e+00 1.205500e-01
   endloop
 endfacet
 facet normal -1.000000e+00 0.000000e+00 -0.000000e+00
   outer loop
     vertex 1.446405e+00 3.660359e+00 1.230615e-01
     vertex 1.446405e+00 3.783010e+00 4.890000e-02
     vertex 1.446405e+00 3.658909e+00 1.205500e-01
   endloop
 endfacet
 facet normal -1.000000e+00 0.000000e+00 0.000000e+00
   outer loop
     vertex 1.446405e+00 3.660359e+00 1.230615e-01
     vertex 1.446405e+00 3.784460e+00 5.141147e-02
     vertex 1.446405e+00 3.783010e+00 4.890000e-02
   endloop
 endfacet
 facet normal 1.000000e+00 0.000000e+00 0.000000e+00
   outer loop
     vertex 2.234505e+00 3.660359e+00 1.230615e-01
     vertex 2.234505e+00 3.658909e+00 1.205500e-01
     vertex 2.234505e+00 3.783010e+00 4.890000e-02
   endloop
 endfacet
 facet normal 1.000000e+00 0.000000e+00 0.000000e+00
   outer loop
     vertex 2.234505e+00 3.660359e+00 1.230615e-01
     vertex 2.234505e+00 3.783010e+00 4.890000e-02
     vertex 2.234505e+00 3.784460e+00 5.141147e-02
   endloop
 endfacet
 facet normal 0.000000e+00 -5.000000e-01 -8.660254e-01
   outer loop
     vertex 2.234505e+00 3.658909e+00 1.205500e-01
     vertex 1.446405e+00 3.783010e+00 4.890000e-02
     vertex 2.234505e+00 3.783010e+00 4.890000e-02
   endloop
 endfacet
 facet normal -0.000000e+00 -5.000000e-01 -8.660254e-01
   outer loop
     vertex 2.234505e+00 3.658909e+00 1.205500e-01
     vertex 1.446405e+00 3.658909e+00 1.205500e-01
     vertex 1.446405e+00 3.783010e+00 4.890000e-02
   endloop
 endfacet
 facet normal 5.222539e-16 5.000000e-01 8.660254e-01
   outer loop
     vertex 2.234505e+00 3.660359e+00 1.230615e-01
     vertex 2.234505e+00 3.784460e+00 5.141147e-02
     vertex 1.446405e+00 3.784460e+00 5.141147e-02
   endloop
 endfacet
 facet normal 2.512468e-16 5.000000e-01 8.660254e-01
   outer loop
     vertex 2.234505e+00 3.660359e+00 1.230615e-01
     vertex 1.446405e+00 3.784460e+00 5.141147e-02
     vertex 1.446405e+00 3.660359e+00 1.230615e-01
   endloop
 endfacet
 facet normal 4.879997e-16 8.660254e-01 -5.000000e-01
   outer loop
     vertex 6.153050e-01 3.497860e+00 5.141147e-02
     vertex 1.403405e+00 3.497860e+00 5.141147e-02
     vertex 1.403405e+00 3.496410e+00 4.890000e-02
   endloop
 endfacet
 facet normal -5.055165e-16 8.660254e-01 -5.000000e-01
   outer loop
     vertex 6.153050e-01 3.497860e+00 5.141147e-02
     vertex 1.403405e+00 3.496410e+00 4.890000e-02
     vertex 6.153050e-01 3.496410e+00 4.890000e-02
   endloop
 endfacet
 facet normal 0.000000e+00 -8.660254e-01 5.000000e-01
   outer loop
     vertex 6.153050e-01 3.373759e+00 1.230615e-01
     vertex 1.403405e+00 3.372309e+00 1.205500e-01
     vertex 1.403405e+00 3.373759e+00 1.230615e-01
   endloop
 endfacet
 facet normal 5.057018e-16 -8.660254e-01 5.000000e-01
   outer loop
     vertex 6.153050e-01 3.373759e+00 1.230615e-01
     vertex 6.153050e-01 3.372309e+00 1.205500e-01
     vertex 1.403405e+00 3.372309e+00 1.205500e-01
   endloop
 endfacet
 facet normal -1.000000e+00 0.000000e+00 -0.000000e+00
   outer loop
     vertex 6.153050e-01 3.373759e+00 1.230615e-01
     vertex 6.153050e-01 3.496410e+00 4.890000e-02
     vertex 6.153050e-01 3.372309e+00 1.205500e-01
   endloop
 endfacet
 facet normal -1.000000e+00 0.000000e+00 0.000000e+00
   outer loop
     vertex 6.153050e-01 3.373759e+00 1.230615e-01
     vertex 6.153050e-01 3.497860e+00 5.141147e-02
     vertex 6.153050e-01 3.496410e+00 4.890000e-02
   endloop
 endfacet
 facet normal 1.000000e+00 0.000000e+00 0.000000e+00
   outer loop
     vertex 1.403405e+00 3.373759e+00 1.230615e-01
     vertex 1.403405e+00 3.372309e+00 1.205500e-01
     vertex 1.403405e+00 3.496410e+00 4.890000e-02
   endloop
 endfacet
 facet normal 1.000000e+00 0.000000e+00 0.000000e+00
   outer loop
     vertex 1.403405e+00 3.373759e+00 1.230615e-01
     vertex 1.403405e+00 3.496410e+00 4.890000e-02
     vertex 1.403405e+00 3.497860e+00 5.141147e-02
   endloop
 endfacet
 facet normal 2.611269e-16 -5.000000e-01 -8.660254e-01
   outer loop
     vertex 1.403405e+00 3.372309e+00 1.205500e-01
     vertex 6.153050e-01 3.496410e+00 4.890000e-02
     vertex 1.403405e+00 3.496410e+00 4.890000e-02
   endloop
 endfacet
 facet normal 2.512468e-16 -5.000000e-01 -8.660254e-01
   outer loop
     vertex 1.403405e+00 3.372309e+00 1.205500e-01
     vertex 6.153050e-01 3.372309e+00 1.205500e-01
     vertex 6.153050e-01 3.496410e+00 4.890000e-02
   endloop
 endfacet
 facet normal 2.764873e-16 5.000000e-01 8.660254e-01
   outer loop
     vertex 1.403405e+00 3.373759e+00 1.230615e-01
     vertex 1.403405e+00 3.497860e+00 5.141147e-02
     vertex 6.153050e-01 3.497860e+00 5.141147e-02
   endloop
 endfacet
 facet normal 0.000000e+00 5.000000e-01 8.660254e-01
   outer loop
     vertex 1.403405e+00 3.373759e+00 1.230615e-01
     vertex 6.153050e-01 3.497860e+00 5.141147e-02
     vertex 6.153050e-01 3.373759e+00 1.230615e-01
   endloop
 endfacet
 facet normal 9.980108e-16 8.660254e-01 -5.000000e-01
   outer loop
     vertex 1.446405e+00 3.497860e+00 5.141147e-02
     vertex 2.234505e+00 3.497860e+00 5.141147e-02
     vertex 2.234505e+00 3.496410e+00 4.890000e-02
   endloop
 endfacet
 facet normal 0.000000e+00 8.660254e-01 -5.000000e-01
   outer loop
     vertex 1.446405e+00 3.497860e+00 5.141147e-02
     vertex 2.234505e+00 3.496410e+00 4.890000e-02
     vertex 1.446405e+00 3.496410e+00 4.890000e-02
   endloop
 endfacet
 facet normal 1.232642e-16 -8.660254e-01 5.000000e-01
   outer loop
     vertex 1.446405e+00 3.373759e+00 1.230615e-01
     vertex 2.234505e+00 3.372309e+00 1.205500e-01
     vertex 2.234505e+00 3.373759e+00 1.230615e-01
   endloop
 endfacet
 facet normal 0.000000e+00 -8.660254e-01 5.000000e-01
   outer loop
     vertex 1.446405e+00 3.373759e+00 1.230615e-01
     vertex 1.446405e+00 3.372309e+00 1.205500e-01
     vertex 2.234505e+00 3.372309e+00 1.205500e-01
   endloop
 endfacet
 facet normal -1.000000e+00 0.000000e+00 -0.000000e+00
   outer loop
     vertex 1.446405e+00 3.373759e+00 1.230615e-01
     vertex 1.446405e+00 3.496410e+00 4.890000e-02
     vertex 1.446405e+00 3.372309e+00 1.205500e-01
   endloop
 endfacet
 facet normal -1.000000e+00 0.000000e+00 0.000000e+00
   outer loop
     vertex 1.446405e+00 3.373759e+00 1.230615e-01
     vertex 1.446405e+00 3.497860e+00 5.141147e-02
     vertex 1.446405e+00 3.496410e+00 4.890000e-02
   endloop
 endfacet
 facet normal 1.000000e+00 0.000000e+00 0.000000e+00
   outer loop
     vertex 2.234505e+00 3.373759e+00 1.230615e-01
     vertex 2.234505e+00 3.372309e+00 1.205500e-01
     vertex 2.234505e+00 3.496410e+00 4.890000e-02
   endloop
 endfacet
 facet normal 1.000000e+00 0.000000e+00 0.000000e+00
   outer loop
     vertex 2.234505e+00 3.373759e+00 1.230615e-01
     vertex 2.234505e+00 3.496410e+00 4.890000e-02
     vertex 2.234505e+00 3.497860e+00 5.141147e-02
   endloop
 endfacet
 facet normal 0.000000e+00 -5.000000e-01 -8.660254e-01
   outer loop
     vertex 2.234505e+00 3.372309e+00 1.205500e-01
     vertex 1.446405e+00 3.496410e+00 4.890000e-02
     vertex 2.234505e+00 3.496410e+00 4.890000e-02
   endloop
 endfacet
 facet normal -0.000000e+00 -5.000000e-01 -8.660254e-01
   outer loop
     vertex 2.234505e+00 3.372309e+00 1.205500e-01
     vertex 1.446405e+00 3.372309e+00 1.205500e-01
     vertex 1.446405e+00 3.496410e+00 4.890000e-02
   endloop
 endfacet
 facet normal 5.222539e-16 5.000000e-01 8.660254e-01
   outer loop
     vertex 2.234505e+00 3.373759e+00 1.230615e-01
     vertex 2.234505e+00 3.497860e+00 5.141147e-02
     vertex 1.446405e+00 3.497860e+00 5.141147e-02
   endloop
 endfacet
 facet normal 2.134999e-16 5.000000e-01 8.660254e-01
   outer loop
     vertex 2.234505e+00 3.373759e+00 1.230615e-01
     vertex 1.446405e+00 3.497860e+00 5.141147e-02
     vertex 1.446405e+00 3.373759e+00 1.230615e-01
   endloop
 endfacet
 facet normal 4.879997e-16 8.660254e-01 -5.000000e-01
   outer loop
     vertex 6.153050e-01 3.211260e+00 5.141147e-02
     vertex 1.403405e+00 3.211260e+00 5.141147e-02
     vertex 1.403405e+00 3.209810e+00 4.890000e-02
   endloop
 endfacet
 facet normal -5.057018e-16 8.660254e-01 -5.000000e-01
   outer loop
     vertex 6.153050e-01 3.211260e+00 5.141147e-02
     vertex 1.403405e+00 3.209810e+00 4.890000e-02
     vertex 6.153050e-01 3.209810e+00 4.890000e-02
   endloop
 endfacet
 facet normal 0.000000e+00 -8.660254e-01 5.000000e-01
   outer loop
     vertex 6.153050e-01 3.087159e+00 1.230615e-01
     vertex 1.403405e+00 3.085709e+00 1.205500e-01
     vertex 1.403405e+00 3.087159e+00 1.230615e-01
   endloop
 endfacet
 facet normal 5.057018e-16 -8.660254e-01 5.000000e-01
   outer loop
     vertex 6.153050e-01 3.087159e+00 1.230615e-01
     vertex 6.153050e-01 3.085709e+00 1.205500e-01
     vertex 1.403405e+00 3.085709e+00 1.205500e-01
   endloop
 endfacet
 facet normal -1.000000e+00 -6.709570e-16 3.873772e-16
   outer loop
     vertex 6.153050e-01 3.087159e+00 1.230615e-01
     vertex 6.153050e-01 3.209810e+00 4.890000e-02
     vertex 6.153050e-01 3.085709e+00 1.205500e-01
   endloop
 endfacet
 facet normal -1.000000e+00 -6.709570e-16 3.873772e-16
   outer loop
     vertex 6.153050e-01 3.087159e+00 1.230615e-01
     vertex 6.153050e-01 3.211260e+00 5.141147e-02
     vertex 6.153050e-01 3.209810e+00 4.890000e-02
   endloop
 endfacet
 facet normal 1.000000e+00 0.000000e+00 0.000000e+00
   outer loop
     vertex 1.403405e+00 3.087159e+00 1.230615e-01
     vertex 1.403405e+00 3.085709e+00 1.205500e-01
     vertex 1.403405e+00 3.209810e+00 4.890000e-02
   endloop
 endfacet
 facet normal 1.000000e+00 0.000000e+00 0.000000e+00
   outer loop
     vertex 1.403405e+00 3.087159e+00 1.230615e-01
     vertex 1.403405e+00 3.209810e+00 4.890000e-02
     vertex 1.403405e+00 3.211260e+00 5.141147e-02
   endloop
 endfacet
 facet normal 2.457665e-16 -5.000000e-01 -8.660254e-01
   outer loop
     vertex 1.403405e+00 3.085709e+00 1.205500e-01
     vertex 6.153050e-01 3.209810e+00 4.890000e-02
     vertex 1.403405e+00 3.209810e+00 4.890000e-02
   endloop
 endfacet
 facet normal 2.512468e-16 -5.000000e-01 -8.660254e-01
   outer loop
     vertex 1.403405e+00 3.085709e+00 1.205500e-01
     vertex 6.153050e-01 3.085709e+00 1.205500e-01
     vertex 6.153050e-01 3.209810e+00 4.890000e-02
   endloop
 endfacet
 facet normal 2.918477e-16 5.000000e-01 8.660254e-01
   outer loop
     vertex 1.403405e+00 3.087159e+00 1.230615e-01
     vertex 1.403405e+00 3.211260e+00 5.141147e-02
     vertex 6.153050e-01 3.211260e+00 5.141147e-02
   endloop
 endfacet
 facet normal 0.000000e+00 5.000000e-01 8.660254e-01
   outer loop
     vertex 1.403405e+00 3.087159e+00 1.230615e-01
     vertex 6.153050e-01 3.211260e+00 5.141147e-02
     vertex 6.153050e-01 3.087159e+00 1.230615e-01
   endloop
 endfacet
 facet normal 3.691378e-16 8.660254e-01 -5.000000e-01
   outer loop
     vertex 1.446405e+00 3.211260e+00 5.141147e-02
     vertex 2.234505e+00 3.211260e+00 5.141147e-02
     vertex 2.234505e+00 3.209810e+00 4.890000e-02
   endloop
 endfacet
 facet normal 0.000000e+00 8.660254e-01 -5.000000e-01
   outer loop
     vertex 1.446405e+00 3.211260e+00 5.141147e-02
     vertex 2.234505e+00 3.209810e+00 4.890000e-02
     vertex 1.446405e+00 3.209810e+00 4.890000e-02
   endloop
 endfacet
 facet normal -5.056088e-16 -8.660254e-01 5.000000e-01
   outer loop
     vertex 1.446405e+00 3.087159e+00 1.230615e-01
     vertex 2.234505e+00 3.085709e+00 1.205500e-01
     vertex 2.234505e+00 3.087159e+00 1.230615e-01
   endloop
 endfacet
 facet normal 0.000000e+00 -8.660254e-01 5.000000e-01
   outer loop
     vertex 1.446405e+00 3.087159e+00 1.230615e-01
     vertex 1.446405e+00 3.085709e+00 1.205500e-01
     vertex 2.234505e+00 3.085709e+00 1.205500e-01
   endloop
 endfacet
 facet normal -1.000000e+00 0.000000e+00 -0.000000e+00
   outer loop
     vertex 1.446405e+00 3.087159e+00 1.230615e-01
     vertex 1.446405e+00 3.209810e+00 4.890000e-02
     vertex 1.446405e+00 3.085709e+00 1.205500e-01
   endloop
 endfacet
 facet normal -1.000000e+00 0.000000e+00 0.000000e+00
   outer loop
     vertex 1.446405e+00 3.087159e+00 1.230615e-01
     vertex 1.446405e+00 3.211260e+00 5.141147e-02
     vertex 1.446405e+00 3.209810e+00 4.890000e-02
   endloop
 endfacet
 facet normal 1.000000e+00 0.000000e+00 0.000000e+00
   outer loop
     vertex 2.234505e+00 3.087159e+00 1.230615e-01
     vertex 2.234505e+00 3.085709e+00 1.205500e-01
     vertex 2.234505e+00 3.209810e+00 4.890000e-02
   endloop
 endfacet
 facet normal 1.000000e+00 0.000000e+00 0.000000e+00
   outer loop
     vertex 2.234505e+00 3.087159e+00 1.230615e-01
     vertex 2.234505e+00 3.209810e+00 4.890000e-02
     vertex 2.234505e+00 3.211260e+00 5.141147e-02
   endloop
 endfacet
 facet normal 0.000000e+00 -5.000000e-01 -8.660254e-01
   outer loop
     vertex 2.234505e+00 3.085709e+00 1.205500e-01
     vertex 1.446405e+00 3.209810e+00 4.890000e-02
     vertex 2.234505e+00 3.209810e+00 4.890000e-02
   endloop
 endfacet
 facet normal -0.000000e+00 -5.000000e-01 -8.660254e-01
   outer loop
     vertex 2.234505e+00 3.085709e+00 1.205500e-01
     vertex 1.446405e+00 3.085709e+00 1.205500e-01
     vertex 1.446405e+00 3.209810e+00 4.890000e-02
   endloop
 endfacet
 facet normal 4.761726e-16 5.000000e-01 8.660254e-01
   outer loop
     vertex 2.234505e+00 3.087159e+00 1.230615e-01
     vertex 2.234505e+00 3.211260e+00 5.141147e-02
     vertex 1.446405e+00 3.211260e+00 5.141147e-02
   endloop
 endfacet
 facet normal 2.512468e-16 5.000000e-01 8.660254e-01
   outer loop
     vertex 2.234505e+00 3.087159e+00 1.230615e-01
     vertex 1.446405e+00 3.211260e+00 5.141147e-02
     vertex 1.446405e+00 3.087159e+00 1.230615e-01
   endloop
 endfacet
 facet normal 4.879997e-16 8.660254e-01 -5.000000e-01
   outer loop
     vertex 6.153050e-01 2.924660e+00 5.141147e-02
     vertex 1.403405e+00 2.924660e+00 5.141147e-02
     vertex 1.403405e+00 2.923210e+00 4.890000e-02
   endloop
 endfacet
 facet normal -5.055165e-16 8.660254e-01 -5.000000e-01
   outer loop
     vertex 6.153050e-01 2.924660e+00 5.141147e-02
     vertex 1.403405e+00 2.923210e+00 4.890000e-02
     vertex 6.153050e-01 2.923210e+00 4.890000e-02
   endloop
 endfacet
 facet normal 0.000000e+00 -8.660254e-01 5.000000e-01
   outer loop
     vertex 6.153050e-01 2.800559e+00 1.230615e-01
     vertex 1.403405e+00 2.799109e+00 1.205500e-01
     vertex 1.403405e+00 2.800559e+00 1.230615e-01
   endloop
 endfacet
 facet normal 5.057018e-16 -8.660254e-01 5.000000e-01
   outer loop
     vertex 6.153050e-01 2.800559e+00 1.230615e-01
     vertex 6.153050e-01 2.799109e+00 1.205500e-01
     vertex 1.403405e+00 2.799109e+00 1.205500e-01
   endloop
 endfacet
 facet normal -1.000000e+00 0.000000e+00 -0.000000e+00
   outer loop
     vertex 6.153050e-01 2.800559e+00 1.230615e-01
     vertex 6.153050e-01 2.923210e+00 4.890000e-02
     vertex 6.153050e-01 2.799109e+00 1.205500e-01
   endloop
 endfacet
 facet normal -1.000000e+00 0.000000e+00 0.000000e+00
   outer loop
     vertex 6.153050e-01 2.800559e+00 1.230615e-01
     vertex 6.153050e-01 2.924660e+00 5.141147e-02
     vertex 6.153050e-01 2.923210e+00 4.890000e-02
   endloop
 endfacet
 facet normal 1.000000e+00 0.000000e+00 0.000000e+00
   outer loop
     vertex 1.403405e+00 2.800559e+00 1.230615e-01
     vertex 1.403405e+00 2.799109e+00 1.205500e-01
     vertex 1.403405e+00 2.923210e+00 4.890000e-02
   endloop
 endfacet
 facet normal 1.000000e+00 0.000000e+00 0.000000e+00
   outer loop
     vertex 1.403405e+00 2.800559e+00 1.230615e-01
     vertex 1.403405e+00 2.923210e+00 4.890000e-02
     vertex 1.403405e+00 2.924660e+00 5.141147e-02
   endloop
 endfacet
 facet normal 2.611269e-16 -5.000000e-01 -8.660254e-01
   outer loop
     vertex 1.403405e+00 2.799109e+00 1.205500e-01
     vertex 6.153050e-01 2.923210e+00 4.890000e-02
     vertex 1.403405e+00 2.923210e+00 4.890000e-02
   endloop
 endfacet
 facet normal 2.512468e-16 -5.000000e-01 -8.660254e-01
   outer loop
     vertex 1.403405e+00 2.799109e+00 1.205500e-01
     vertex 6.153050e-01 2.799109e+00 1.205500e-01
     vertex 6.153050e-01 2.923210e+00 4.890000e-02
   endloop
 endfacet
 facet normal 2.918477e-16 5.000000e-01 8.660254e-01
   outer loop
     vertex 1.403405e+00 2.800559e+00 1.230615e-01
     vertex 1.403405e+00 2.924660e+00 5.141147e-02
     vertex 6.153050e-01 2.924660e+00 5.141147e-02
   endloop
 endfacet
 facet normal 0.000000e+00 5.000000e-01 8.660254e-01
   outer loop
     vertex 1.403405e+00 2.800559e+00 1.230615e-01
     vertex 6.153050e-01 2.924660e+00 5.141147e-02
     vertex 6.153050e-01 2.800559e+00 1.230615e-01
   endloop
 endfacet
 facet normal 9.980108e-16 8.660254e-01 -5.000000e-01
   outer loop
     vertex 1.446405e+00 2.924660e+00 5.141147e-02
     vertex 2.234505e+00 2.924660e+00 5.141147e-02
     vertex 2.234505e+00 2.923210e+00 4.890000e-02
   endloop
 endfacet
 facet normal 0.000000e+00 8.660254e-01 -5.000000e-01
   outer loop
     vertex 1.446405e+00 2.924660e+00 5.141147e-02
     vertex 2.234505e+00 2.923210e+00 4.890000e-02
     vertex 1.446405e+00 2.923210e+00 4.890000e-02
   endloop
 endfacet
 facet normal -5.056088e-16 -8.660254e-01 5.000000e-01
   outer loop
     vertex 1.446405e+00 2.800559e+00 1.230615e-01
     vertex 2.234505e+00 2.799109e+00 1.205500e-01
     vertex 2.234505e+00 2.800559e+00 1.230615e-01
   endloop
 endfacet
 facet normal 0.000000e+00 -8.660254e-01 5.000000e-01
   outer loop
     vertex 1.446405e+00 2.800559e+00 1.230615e-01
     vertex 1.446405e+00 2.799109e+00 1.205500e-01
     vertex 2.234505e+00 2.799109e+00 1.205500e-01
   endloop
 endfacet
 facet normal -1.000000e+00 0.000000e+00 -0.000000e+00
   outer loop
     vertex 1.446405e+00 2.800559e+00 1.230615e-01
     vertex 1.446405e+00 2.923210e+00 4.890000e-02
     vertex 1.446405e+00 2.799109e+00 1.205500e-01
   endloop
 endfacet
 facet normal -1.000000e+00 0.000000e+00 0.000000e+00
   outer loop
     vertex 1.446405e+00 2.800559e+00 1.230615e-01
     vertex 1.446405e+00 2.924660e+00 5.141147e-02
     vertex 1.446405e+00 2.923210e+00 4.890000e-02
   endloop
 endfacet
 facet normal 1.000000e+00 0.000000e+00 0.000000e+00
   outer loop
     vertex 2.234505e+00 2.800559e+00 1.230615e-01
     vertex 2.234505e+00 2.799109e+00 1.205500e-01
     vertex 2.234505e+00 2.923210e+00 4.890000e-02
   endloop
 endfacet
 facet normal 1.000000e+00 0.000000e+00 0.000000e+00
   outer loop
     vertex 2.234505e+00 2.800559e+00 1.230615e-01
     vertex 2.234505e+00 2.923210e+00 4.890000e-02
     vertex 2.234505e+00 2.924660e+00 5.141147e-02
   endloop
 endfacet
 facet normal 0.000000e+00 -5.000000e-01 -8.660254e-01
   outer loop
     vertex 2.234505e+00 2.799109e+00 1.205500e-01
     vertex 1.446405e+00 2.923210e+00 4.890000e-02
     vertex 2.234505e+00 2.923210e+00 4.890000e-02
   endloop
 endfacet
 facet normal -0.000000e+00 -5.000000e-01 -8.660254e-01
   outer loop
     vertex 2.234505e+00 2.799109e+00 1.205500e-01
     vertex 1.446405e+00 2.799109e+00 1.205500e-01
     vertex 1.446405e+00 2.923210e+00 4.890000e-02
   endloop
 endfacet
 facet normal 5.222539e-16 5.000000e-01 8.660254e-01
   outer loop
     vertex 2.234505e+00 2.800559e+00 1.230615e-01
     vertex 2.234505e+00 2.924660e+00 5.141147e-02
     vertex 1.446405e+00 2.924660e+00 5.141147e-02
   endloop
 endfacet
 facet normal 2.512468e-16 5.000000e-01 8.660254e-01
   outer loop
     vertex 2.234505e+00 2.800559e+00 1.230615e-01
     vertex 1.446405e+00 2.924660e+00 5.141147e-02
     vertex 1.446405e+00 2.800559e+00 1.230615e-01
   endloop
 endfacet
 facet normal -1.408734e-16 8.660254e-01 -5.000000e-01
   outer loop
     vertex 6.153050e-01 2.638060e+00 5.141147e-02
     vertex 1.403405e+00 2.638060e+00 5.141147e-02
     vertex 1.403405e+00 2.636610e+00 4.890000e-02
   endloop
 endfacet
 facet normal -5.057018e-16 8.660254e-01 -5.000000e-01
   outer loop
     vertex 6.153050e-01 2.638060e+00 5.141147e-02
     vertex 1.403405e+00 2.636610e+00 4.890000e-02
     vertex 6.153050e-01 2.636610e+00 4.890000e-02
   endloop
 endfacet
 facet normal 0.000000e+00 -8.660254e-01 5.000000e-01
   outer loop
     vertex 6.153050e-01 2.513959e+00 1.230615e-01
     vertex 1.403405e+00 2.512509e+00 1.205500e-01
     vertex 1.403405e+00 2.513959e+00 1.230615e-01
   endloop
 endfacet
 facet normal 5.057018e-16 -8.660254e-01 5.000000e-01
   outer loop
     vertex 6.153050e-01 2.513959e+00 1.230615e-01
     vertex 6.153050e-01 2.512509e+00 1.205500e-01
     vertex 1.403405e+00 2.512509e+00 1.205500e-01
   endloop
 endfacet
 facet normal -1.000000e+00 -6.709570e-16 3.873772e-16
   outer loop
     vertex 6.153050e-01 2.513959e+00 1.230615e-01
     vertex 6.153050e-01 2.636610e+00 4.890000e-02
     vertex 6.153050e-01 2.512509e+00 1.205500e-01
   endloop
 endfacet
 facet normal -1.000000e+00 -6.709570e-16 3.873772e-16
   outer loop
     vertex 6.153050e-01 2.513959e+00 1.230615e-01
     vertex 6.153050e-01 2.638060e+00 5.141147e-02
     vertex 6.153050e-01 2.636610e+00 4.890000e-02
   endloop
 endfacet
 facet normal 1.000000e+00 0.000000e+00 0.000000e+00
   outer loop
     vertex 1.403405e+00 2.513959e+00 1.230615e-01
     vertex 1.403405e+00 2.512509e+00 1.205500e-01
     vertex 1.403405e+00 2.636610e+00 4.890000e-02
   endloop
 endfacet
 facet normal 1.000000e+00 0.000000e+00 0.000000e+00
   outer loop
     vertex 1.403405e+00 2.513959e+00 1.230615e-01
     vertex 1.403405e+00 2.636610e+00 4.890000e-02
     vertex 1.403405e+00 2.638060e+00 5.141147e-02
   endloop
 endfacet
 facet normal 2.611269e-16 -5.000000e-01 -8.660254e-01
   outer loop
     vertex 1.403405e+00 2.512509e+00 1.205500e-01
     vertex 6.153050e-01 2.636610e+00 4.890000e-02
     vertex 1.403405e+00 2.636610e+00 4.890000e-02
   endloop
 endfacet
 facet normal 2.512468e-16 -5.000000e-01 -8.660254e-01
   outer loop
     vertex 1.403405e+00 2.512509e+00 1.205500e-01
     vertex 6.153050e-01 2.512509e+00 1.205500e-01
     vertex 6.153050e-01 2.636610e+00 4.890000e-02
   endloop
 endfacet
 facet normal 2.457665e-16 5.000000e-01 8.660254e-01
   outer loop
     vertex 1.403405e+00 2.513959e+00 1.230615e-01
     vertex 1.403405e+00 2.638060e+00 5.141147e-02
     vertex 6.153050e-01 2.638060e+00 5.141147e-02
   endloop
 endfacet
 facet normal 0.000000e+00 5.000000e-01 8.660254e-01
   outer loop
     vertex 1.403405e+00 2.513959e+00 1.230615e-01
     vertex 6.153050e-01 2.638060e+00 5.141147e-02
     vertex 6.153050e-01 2.513959e+00 1.230615e-01
   endloop
 endfacet
 facet normal 9.980108e-16 8.660254e-01 -5.000000e-01
   outer loop
     vertex 1.446405e+00 2.638060e+00 5.141147e-02
     vertex 2.234505e+00 2.638060e+00 5.141147e-02
     vertex 2.234505e+00 2.636610e+00 4.890000e-02
   endloop
 endfacet
 facet normal 0.000000e+00 8.660254e-01 -5.000000e-01
   outer loop
     vertex 1.446405e+00 2.638060e+00 5.141147e-02
     vertex 2.234505e+00 2.636610e+00 4.890000e-02
     vertex 1.446405e+00 2.636610e+00 4.890000e-02
   endloop
 endfacet
 facet normal -5.056088e-16 -8.660254e-01 5.000000e-01
   outer loop
     vertex 1.446405e+00 2.513959e+00 1.230615e-01
     vertex 2.234505e+00 2.512509e+00 1.205500e-01
     vertex 2.234505e+00 2.513959e+00 1.230615e-01
   endloop
 endfacet
 facet normal 0.000000e+00 -8.660254e-01 5.000000e-01
   outer loop
     vertex 1.446405e+00 2.513959e+00 1.230615e-01
     vertex 1.446405e+00 2.512509e+00 1.205500e-01
     vertex 2.234505e+00 2.512509e+00 1.205500e-01
   endloop
 endfacet
 facet normal -1.000000e+00 0.000000e+00 -0.000000e+00
   outer loop
     vertex 1.446405e+00 2.513959e+00 1.230615e-01
     vertex 1.446405e+00 2.636610e+00 4.890000e-02
     vertex 1.446405e+00 2.512509e+00 1.205500e-01
   endloop
 endfacet
 facet normal -1.000000e+00 0.000000e+00 0.000000e+00
   outer loop
     vertex 1.446405e+00 2.513959e+00 1.230615e-01
     vertex 1.446405e+00 2.638060e+00 5.141147e-02
     vertex 1.446405e+00 2.636610e+00 4.890000e-02
   endloop
 endfacet
 facet normal 1.000000e+00 0.000000e+00 0.000000e+00
   outer loop
     vertex 2.234505e+00 2.513959e+00 1.230615e-01
     vertex 2.234505e+00 2.512509e+00 1.205500e-01
     vertex 2.234505e+00 2.636610e+00 4.890000e-02
   endloop
 endfacet
 facet normal 1.000000e+00 0.000000e+00 0.000000e+00
   outer loop
     vertex 2.234505e+00 2.513959e+00 1.230615e-01
     vertex 2.234505e+00 2.636610e+00 4.890000e-02
     vertex 2.234505e+00 2.638060e+00 5.141147e-02
   endloop
 endfacet
 facet normal 0.000000e+00 -5.000000e-01 -8.660254e-01
   outer loop
     vertex 2.234505e+00 2.512509e+00 1.205500e-01
     vertex 1.446405e+00 2.636610e+00 4.890000e-02
     vertex 2.234505e+00 2.636610e+00 4.890000e-02
   endloop
 endfacet
 facet normal -0.000000e+00 -5.000000e-01 -8.660254e-01
   outer loop
     vertex 2.234505e+00 2.512509e+00 1.205500e-01
     vertex 1.446405e+00 2.512509e+00 1.205500e-01
     vertex 1.446405e+00 2.636610e+00 4.890000e-02
   endloop
 endfacet
 facet normal 5.068934e-16 5.000000e-01 8.660254e-01
   outer loop
     vertex 2.234505e+00 2.513959e+00 1.230615e-01
     vertex 2.234505e+00 2.638060e+00 5.141147e-02
     vertex 1.446405e+00 2.638060e+00 5.141147e-02
   endloop
 endfacet
 facet normal 2.512468e-16 5.000000e-01 8.660254e-01
   outer loop
     vertex 2.234505e+00 2.513959e+00 1.230615e-01
     vertex 1.446405e+00 2.638060e+00 5.141147e-02
     vertex 1.446405e+00 2.513959e+00 1.230615e-01
   endloop
 endfacet
 facet normal 4.879997e-16 8.660254e-01 -5.000000e-01
   outer loop
     vertex 6.153050e-01 2.351460e+00 5.141147e-02
     vertex 1.403405e+00 2.351460e+00 5.141147e-02
     vertex 1.403405e+00 2.350010e+00 4.890000e-02
   endloop
 endfacet
 facet normal -5.057018e-16 8.660254e-01 -5.000000e-01
   outer loop
     vertex 6.153050e-01 2.351460e+00 5.141147e-02
     vertex 1.403405e+00 2.350010e+00 4.890000e-02
     vertex 6.153050e-01 2.350010e+00 4.890000e-02
   endloop
 endfacet
 facet normal -6.288730e-16 -8.660254e-01 5.000000e-01
   outer loop
     vertex 6.153050e-01 2.227359e+00 1.230615e-01
     vertex 1.403405e+00 2.225909e+00 1.205500e-01
     vertex 1.403405e+00 2.227359e+00 1.230615e-01
   endloop
 endfacet
 facet normal -1.232289e-16 -8.660254e-01 5.000000e-01
   outer loop
     vertex 6.153050e-01 2.227359e+00 1.230615e-01
     vertex 6.153050e-01 2.225909e+00 1.205500e-01
     vertex 1.403405e+00 2.225909e+00 1.205500e-01
   endloop
 endfacet
 facet normal -1.000000e+00 0.000000e+00 -0.000000e+00
   outer loop
     vertex 6.153050e-01 2.227359e+00 1.230615e-01
     vertex 6.153050e-01 2.350010e+00 4.890000e-02
     vertex 6.153050e-01 2.225909e+00 1.205500e-01
   endloop
 endfacet
 facet normal -1.000000e+00 0.000000e+00 0.000000e+00
   outer loop
     vertex 6.153050e-01 2.227359e+00 1.230615e-01
     vertex 6.153050e-01 2.351460e+00 5.141147e-02
     vertex 6.153050e-01 2.350010e+00 4.890000e-02
   endloop
 endfacet
 facet normal 1.000000e+00 0.000000e+00 0.000000e+00
   outer loop
     vertex 1.403405e+00 2.227359e+00 1.230615e-01
     vertex 1.403405e+00 2.225909e+00 1.205500e-01
     vertex 1.403405e+00 2.350010e+00 4.890000e-02
   endloop
 endfacet
 facet normal 1.000000e+00 0.000000e+00 0.000000e+00
   outer loop
     vertex 1.403405e+00 2.227359e+00 1.230615e-01
     vertex 1.403405e+00 2.350010e+00 4.890000e-02
     vertex 1.403405e+00 2.351460e+00 5.141147e-02
   endloop
 endfacet
 facet normal 2.457665e-16 -5.000000e-01 -8.660254e-01
   outer loop
     vertex 1.403405e+00 2.225909e+00 1.205500e-01
     vertex 6.153050e-01 2.350010e+00 4.890000e-02
     vertex 1.403405e+00 2.350010e+00 4.890000e-02
   endloop
 endfacet
 facet normal 2.134999e-16 -5.000000e-01 -8.660254e-01
   outer loop
     vertex 1.403405e+00 2.225909e+00 1.205500e-01
     vertex 6.153050e-01 2.225909e+00 1.205500e-01
     vertex 6.153050e-01 2.350010e+00 4.890000e-02
   endloop
 endfacet
 facet normal 2.918477e-16 5.000000e-01 8.660254e-01
   outer loop
     vertex 1.403405e+00 2.227359e+00 1.230615e-01
     vertex 1.403405e+00 2.351460e+00 5.141147e-02
     vertex 6.153050e-01 2.351460e+00 5.141147e-02
   endloop
 endfacet
 facet normal 3.774691e-17 5.000000e-01 8.660254e-01
   outer loop
     vertex 1.403405e+00 2.227359e+00 1.230615e-01
     vertex 6.153050e-01 2.351460e+00 5.141147e-02
     vertex 6.153050e-01 2.227359e+00 1.230615e-01
   endloop
 endfacet
 facet normal 9.980108e-16 8.660254e-01 -5.000000e-01
   outer loop
     vertex 1.446405e+00 2.351460e+00 5.141147e-02
     vertex 2.234505e+00 2.351460e+00 5.141147e-02
     vertex 2.234505e+00 2.350010e+00 4.890000e-02
   endloop
 endfacet
 facet normal 0.000000e+00 8.660254e-01 -5.000000e-01
   outer loop
     vertex 1.446405e+00 2.351460e+00 5.141147e-02
     vertex 2.234505e+00 2.350010e+00 4.890000e-02
     vertex 1.446405e+00 2.350010e+00 4.890000e-02
   endloop
 endfacet
 facet normal -4.351722e-16 -8.660254e-01 5.000000e-01
   outer loop
     vertex 1.446405e+00 2.227359e+00 1.230615e-01
     vertex 2.234505e+00 2.225909e+00 1.205500e-01
     vertex 2.234505e+00 2.227359e+00 1.230615e-01
   endloop
 endfacet
 facet normal 7.041652e-17 -8.660254e-01 5.000000e-01
   outer loop
     vertex 1.446405e+00 2.227359e+00 1.230615e-01
     vertex 1.446405e+00 2.225909e+00 1.205500e-01
     vertex 2.234505e+00 2.225909e+00 1.205500e-01
   endloop
 endfacet
 facet normal -1.000000e+00 0.000000e+00 -0.000000e+00
   outer loop
     vertex 1.446405e+00 2.227359e+00 1.230615e-01
     vertex 1.446405e+00 2.350010e+00 4.890000e-02
     vertex 1.446405e+00 2.225909e+00 1.205500e-01
   endloop
 endfacet
 facet normal -1.000000e+00 0.000000e+00 0.000000e+00
   outer loop
     vertex 1.446405e+00 2.227359e+00 1.230615e-01
     vertex 1.446405e+00 2.351460e+00 5.141147e-02
     vertex 1.446405e+00 2.350010e+00 4.890000e-02
   endloop
 endfacet
 facet normal 1.000000e+00 0.000000e+00 0.000000e+00
   outer loop
     vertex 2.234505e+00 2.227359e+00 1.230615e-01
     vertex 2.234505e+00 2.225909e+00 1.205500e-01
     vertex 2.234505e+00 2.350010e+00 4.890000e-02
   endloop
 endfacet
 facet normal 1.000000e+00 0.000000e+00 0.000000e+00
   outer loop
     vertex 2.234505e+00 2.227359e+00 1.230615e-01
     vertex 2.234505e+00 2.350010e+00 4.890000e-02
     vertex 2.234505e+00 2.351460e+00 5.141147e-02
   endloop
 endfacet
 facet normal 0.000000e+00 -5.000000e-01 -8.660254e-01
   outer loop
     vertex 2.234505e+00 2.225909e+00 1.205500e-01
     vertex 1.446405e+00 2.350010e+00 4.890000e-02
     vertex 2.234505e+00 2.350010e+00 4.890000e-02
   endloop
 endfacet
 facet normal -1.219999e-16 -5.000000e-01 -8.660254e-01
   outer loop
     vertex 2.234505e+00 2.225909e+00 1.205500e-01
     vertex 1.446405e+00 2.225909e+00 1.205500e-01
     vertex 1.446405e+00 2.350010e+00 4.890000e-02
   endloop
 endfacet
 facet normal 5.222539e-16 5.000000e-01 8.660254e-01
   outer loop
     vertex 2.234505e+00 2.227359e+00 1.230615e-01
     vertex 2.234505e+00 2.351460e+00 5.141147e-02
     vertex 1.446405e+00 2.351460e+00 5.141147e-02
   endloop
 endfacet
 facet normal 3.732467e-16 5.000000e-01 8.660254e-01
   outer loop
     vertex 2.234505e+00 2.227359e+00 1.230615e-01
     vertex 1.446405e+00 2.351460e+00 5.141147e-02
     vertex 1.446405e+00 2.227359e+00 1.230615e-01
   endloop
 endfacet
endsolid shape
