solid shape, STL ascii file, created with Open CASCADE Technology
 facet normal -8.137977e-01 -2.961981e-01 -5.000000e-01
   outer loop
     vertex 1.169104e+00 2.071445e+00 5.141147e-02
     vertex 8.995584e-01 2.812017e+00 5.141147e-02
     vertex 9.009209e-01 2.812513e+00 4.890000e-02
   endloop
 endfacet
 facet normal -8.137977e-01 -2.961981e-01 -5.000000e-01
   outer loop
     vertex 1.169104e+00 2.071445e+00 5.141147e-02
     vertex 9.009209e-01 2.812513e+00 4.890000e-02
     vertex 1.170467e+00 2.071941e+00 4.890000e-02
   endloop
 endfacet
 facet normal 8.137977e-01 2.961981e-01 5.000000e-01
   outer loop
     vertex 1.285722e+00 2.113890e+00 1.230615e-01
     vertex 1.017538e+00 2.854958e+00 1.205500e-01
     vertex 1.016176e+00 2.854462e+00 1.230615e-01
   endloop
 endfacet
 facet normal 8.137977e-01 2.961981e-01 5.000000e-01
   outer loop
     vertex 1.285722e+00 2.113890e+00 1.230615e-01
     vertex 1.287084e+00 2.114386e+00 1.205500e-01
     vertex 1.017538e+00 2.854958e+00 1.205500e-01
   endloop
 endfacet
 facet normal 3.420201e-01 -9.396926e-01 4.912983e-14
   outer loop
     vertex 1.285722e+00 2.113890e+00 1.230615e-01
     vertex 1.170467e+00 2.071941e+00 4.890000e-02
     vertex 1.287084e+00 2.114386e+00 1.205500e-01
   endloop
 endfacet
 facet normal 3.420201e-01 -9.396926e-01 5.009188e-14
   outer loop
     vertex 1.285722e+00 2.113890e+00 1.230615e-01
     vertex 1.169104e+00 2.071445e+00 5.141147e-02
     vertex 1.170467e+00 2.071941e+00 4.890000e-02
   endloop
 endfacet
 facet normal -3.420201e-01 9.396926e-01 -5.756000e-15
   outer loop
     vertex 1.016176e+00 2.854462e+00 1.230615e-01
     vertex 1.017538e+00 2.854958e+00 1.205500e-01
     vertex 9.009209e-01 2.812513e+00 4.890000e-02
   endloop
 endfacet
 facet normal -3.420201e-01 9.396926e-01 -1.732344e-13
   outer loop
     vertex 1.016176e+00 2.854462e+00 1.230615e-01
     vertex 9.009209e-01 2.812513e+00 4.890000e-02
     vertex 8.995584e-01 2.812017e+00 5.141147e-02
   endloop
 endfacet
 facet normal 4.698463e-01 1.710101e-01 -8.660254e-01
   outer loop
     vertex 1.017538e+00 2.854958e+00 1.205500e-01
     vertex 1.170467e+00 2.071941e+00 4.890000e-02
     vertex 9.009209e-01 2.812513e+00 4.890000e-02
   endloop
 endfacet
 facet normal 4.698463e-01 1.710101e-01 -8.660254e-01
   outer loop
     vertex 1.017538e+00 2.854958e+00 1.205500e-01
     vertex 1.287084e+00 2.114386e+00 1.205500e-01
     vertex 1.170467e+00 2.071941e+00 4.890000e-02
   endloop
 endfacet
 facet normal -4.698463e-01 -1.710101e-01 8.660254e-01
   outer loop
     vertex 1.016176e+00 2.854462e+00 1.230615e-01
     vertex 8.995584e-01 2.812017e+00 5.141147e-02
     vertex 1.169104e+00 2.071445e+00 5.141147e-02
   endloop
 endfacet
 facet normal -4.698463e-01 -1.710101e-01 8.660254e-01
   outer loop
     vertex 1.016176e+00 2.854462e+00 1.230615e-01
     vertex 1.169104e+00 2.071445e+00 5.141147e-02
     vertex 1.285722e+00 2.113890e+00 1.230615e-01
   endloop
 endfacet
 facet normal -8.137977e-01 -2.961981e-01 -5.000000e-01
   outer loop
     vertex 8.848515e-01 2.852424e+00 5.141147e-02
     vertex 6.153054e-01 3.592995e+00 5.141147e-02
     vertex 6.166680e-01 3.593491e+00 4.890000e-02
   endloop
 endfacet
 facet normal -8.137977e-01 -2.961981e-01 -5.000000e-01
   outer loop
     vertex 8.848515e-01 2.852424e+00 5.141147e-02
     vertex 6.166680e-01 3.593491e+00 4.890000e-02
     vertex 8.862141e-01 2.852920e+00 4.890000e-02
   endloop
 endfacet
 facet normal 8.137977e-01 2.961981e-01 5.000000e-01
   outer loop
     vertex 1.001469e+00 2.894869e+00 1.230615e-01
     vertex 7.332852e-01 3.635936e+00 1.205500e-01
     vertex 7.319226e-01 3.635441e+00 1.230615e-01
   endloop
 endfacet
 facet normal 8.137977e-01 2.961981e-01 5.000000e-01
   outer loop
     vertex 1.001469e+00 2.894869e+00 1.230615e-01
     vertex 1.002831e+00 2.895365e+00 1.205500e-01
     vertex 7.332852e-01 3.635936e+00 1.205500e-01
   endloop
 endfacet
 facet normal 3.420201e-01 -9.396926e-01 2.525792e-14
   outer loop
     vertex 1.001469e+00 2.894869e+00 1.230615e-01
     vertex 8.862141e-01 2.852920e+00 4.890000e-02
     vertex 1.002831e+00 2.895365e+00 1.205500e-01
   endloop
 endfacet
 facet normal 3.420201e-01 -9.396926e-01 2.504594e-14
   outer loop
     vertex 1.001469e+00 2.894869e+00 1.230615e-01
     vertex 8.848515e-01 2.852424e+00 5.141147e-02
     vertex 8.862141e-01 2.852920e+00 4.890000e-02
   endloop
 endfacet
 facet normal -3.420201e-01 9.396926e-01 -1.853497e-13
   outer loop
     vertex 7.319226e-01 3.635441e+00 1.230615e-01
     vertex 7.332852e-01 3.635936e+00 1.205500e-01
     vertex 6.166680e-01 3.593491e+00 4.890000e-02
   endloop
 endfacet
 facet normal -3.420201e-01 9.396926e-01 -3.965607e-14
   outer loop
     vertex 7.319226e-01 3.635441e+00 1.230615e-01
     vertex 6.166680e-01 3.593491e+00 4.890000e-02
     vertex 6.153054e-01 3.592995e+00 5.141147e-02
   endloop
 endfacet
 facet normal 4.698463e-01 1.710101e-01 -8.660254e-01
   outer loop
     vertex 7.332852e-01 3.635936e+00 1.205500e-01
     vertex 8.862141e-01 2.852920e+00 4.890000e-02
     vertex 6.166680e-01 3.593491e+00 4.890000e-02
   endloop
 endfacet
 facet normal 4.698463e-01 1.710101e-01 -8.660254e-01
   outer loop
     vertex 7.332852e-01 3.635936e+00 1.205500e-01
     vertex 1.002831e+00 2.895365e+00 1.205500e-01
     vertex 8.862141e-01 2.852920e+00 4.890000e-02
   endloop
 endfacet
 facet normal -4.698463e-01 -1.710101e-01 8.660254e-01
   outer loop
     vertex 7.319226e-01 3.635441e+00 1.230615e-01
     vertex 6.153054e-01 3.592995e+00 5.141147e-02
     vertex 8.848515e-01 2.852424e+00 5.141147e-02
   endloop
 endfacet
 facet normal -4.698463e-01 -1.710101e-01 8.660254e-01
   outer loop
     vertex 7.319226e-01 3.635441e+00 1.230615e-01
     vertex 8.848515e-01 2.852424e+00 5.141147e-02
     vertex 1.001469e+00 2.894869e+00 1.230615e-01
   endloop
 endfacet
 facet normal -8.137977e-01 -2.961981e-01 -5.000000e-01
   outer loop
     vertex 1.438420e+00 2.169468e+00 5.141147e-02
     vertex 1.168874e+00 2.910040e+00 5.141147e-02
     vertex 1.170237e+00 2.910536e+00 4.890000e-02
   endloop
 endfacet
 facet normal -8.137977e-01 -2.961981e-01 -5.000000e-01
   outer loop
     vertex 1.438420e+00 2.169468e+00 5.141147e-02
     vertex 1.170237e+00 2.910536e+00 4.890000e-02
     vertex 1.439783e+00 2.169964e+00 4.890000e-02
   endloop
 endfacet
 facet normal 8.137977e-01 2.961981e-01 5.000000e-01
   outer loop
     vertex 1.555038e+00 2.211913e+00 1.230615e-01
     vertex 1.286854e+00 2.952981e+00 1.205500e-01
     vertex 1.285491e+00 2.952485e+00 1.230615e-01
   endloop
 endfacet
 facet normal 8.137977e-01 2.961981e-01 5.000000e-01
   outer loop
     vertex 1.555038e+00 2.211913e+00 1.230615e-01
     vertex 1.556400e+00 2.212409e+00 1.205500e-01
     vertex 1.286854e+00 2.952981e+00 1.205500e-01
   endloop
 endfacet
 facet normal 3.420201e-01 -9.396926e-01 4.767860e-14
   outer loop
     vertex 1.555038e+00 2.211913e+00 1.230615e-01
     vertex 1.439783e+00 2.169964e+00 4.890000e-02
     vertex 1.556400e+00 2.212409e+00 1.205500e-01
   endloop
 endfacet
 facet normal 3.420201e-01 -9.396926e-01 -9.809659e-14
   outer loop
     vertex 1.555038e+00 2.211913e+00 1.230615e-01
     vertex 1.438420e+00 2.169468e+00 5.141147e-02
     vertex 1.439783e+00 2.169964e+00 4.890000e-02
   endloop
 endfacet
 facet normal -3.420201e-01 9.396926e-01 -5.756000e-15
   outer loop
     vertex 1.285491e+00 2.952485e+00 1.230615e-01
     vertex 1.286854e+00 2.952981e+00 1.205500e-01
     vertex 1.170237e+00 2.910536e+00 4.890000e-02
   endloop
 endfacet
 facet normal -3.420201e-01 9.396926e-01 -2.922026e-14
   outer loop
     vertex 1.285491e+00 2.952485e+00 1.230615e-01
     vertex 1.170237e+00 2.910536e+00 4.890000e-02
     vertex 1.168874e+00 2.910040e+00 5.141147e-02
   endloop
 endfacet
 facet normal 4.698463e-01 1.710101e-01 -8.660254e-01
   outer loop
     vertex 1.286854e+00 2.952981e+00 1.205500e-01
     vertex 1.439783e+00 2.169964e+00 4.890000e-02
     vertex 1.170237e+00 2.910536e+00 4.890000e-02
   endloop
 endfacet
 facet normal 4.698463e-01 1.710101e-01 -8.660254e-01
   outer loop
     vertex 1.286854e+00 2.952981e+00 1.205500e-01
     vertex 1.556400e+00 2.212409e+00 1.205500e-01
     vertex 1.439783e+00 2.169964e+00 4.890000e-02
   endloop
 endfacet
 facet normal -4.698463e-01 -1.710101e-01 8.660254e-01
   outer loop
     vertex 1.285491e+00 2.952485e+00 1.230615e-01
     vertex 1.168874e+00 2.910040e+00 5.141147e-02
     vertex 1.438420e+00 2.169468e+00 5.141147e-02
   endloop
 endfacet
 facet normal -4.698463e-01 -1.710101e-01 8.660254e-01
   outer loop
     vertex 1.285491e+00 2.952485e+00 1.230615e-01
     vertex 1.438420e+00 2.169468e+00 5.141147e-02
     vertex 1.555038e+00 2.211913e+00 1.230615e-01
   endloop
 endfacet
 facet normal -8.137977e-01 -2.961981e-01 -5.000000e-01
   outer loop
     vertex 1.154167e+00 2.950447e+00 5.141147e-02
     vertex 8.846213e-01 3.691018e+00 5.141147e-02
     vertex 8.859839e-01 3.691514e+00 4.890000e-02
   endloop
 endfacet
 facet normal -8.137977e-01 -2.961981e-01 -5.000000e-01
   outer loop
     vertex 1.154167e+00 2.950447e+00 5.141147e-02
     vertex 8.859839e-01 3.691514e+00 4.890000e-02
     vertex 1.155530e+00 2.950943e+00 4.890000e-02
   endloop
 endfacet
 facet normal 8.137977e-01 2.961981e-01 5.000000e-01
   outer loop
     vertex 1.270785e+00 2.992892e+00 1.230615e-01
     vertex 1.002601e+00 3.733959e+00 1.205500e-01
     vertex 1.001239e+00 3.733464e+00 1.230615e-01
   endloop
 endfacet
 facet normal 8.137977e-01 2.961981e-01 5.000000e-01
   outer loop
     vertex 1.270785e+00 2.992892e+00 1.230615e-01
     vertex 1.272147e+00 2.993388e+00 1.205500e-01
     vertex 1.002601e+00 3.733959e+00 1.205500e-01
   endloop
 endfacet
 facet normal 3.420201e-01 -9.396926e-01 2.670915e-14
   outer loop
     vertex 1.270785e+00 2.992892e+00 1.230615e-01
     vertex 1.155530e+00 2.950943e+00 4.890000e-02
     vertex 1.272147e+00 2.993388e+00 1.205500e-01
   endloop
 endfacet
 facet normal 3.420201e-01 -9.396926e-01 1.732344e-13
   outer loop
     vertex 1.270785e+00 2.992892e+00 1.230615e-01
     vertex 1.154167e+00 2.950447e+00 5.141147e-02
     vertex 1.155530e+00 2.950943e+00 4.890000e-02
   endloop
 endfacet
 facet normal -3.420201e-01 9.396926e-01 -4.926027e-14
   outer loop
     vertex 1.001239e+00 3.733464e+00 1.230615e-01
     vertex 1.002601e+00 3.733959e+00 1.205500e-01
     vertex 8.859839e-01 3.691514e+00 4.890000e-02
   endloop
 endfacet
 facet normal -3.420201e-01 9.396926e-01 -3.756891e-14
   outer loop
     vertex 1.001239e+00 3.733464e+00 1.230615e-01
     vertex 8.859839e-01 3.691514e+00 4.890000e-02
     vertex 8.846213e-01 3.691018e+00 5.141147e-02
   endloop
 endfacet
 facet normal 4.698463e-01 1.710101e-01 -8.660254e-01
   outer loop
     vertex 1.002601e+00 3.733959e+00 1.205500e-01
     vertex 1.155530e+00 2.950943e+00 4.890000e-02
     vertex 8.859839e-01 3.691514e+00 4.890000e-02
   endloop
 endfacet
 facet normal 4.698463e-01 1.710101e-01 -8.660254e-01
   outer loop
     vertex 1.002601e+00 3.733959e+00 1.205500e-01
     vertex 1.272147e+00 2.993388e+00 1.205500e-01
     vertex 1.155530e+00 2.950943e+00 4.890000e-02
   endloop
 endfacet
 facet normal -4.698463e-01 -1.710101e-01 8.660254e-01
   outer loop
     vertex 1.001239e+00 3.733464e+00 1.230615e-01
     vertex 8.846213e-01 3.691018e+00 5.141147e-02
     vertex 1.154167e+00 2.950447e+00 5.141147e-02
   endloop
 endfacet
 facet normal -4.698463e-01 -1.710101e-01 8.660254e-01
   outer loop
     vertex 1.001239e+00 3.733464e+00 1.230615e-01
     vertex 1.154167e+00 2.950447e+00 5.141147e-02
     vertex 1.270785e+00 2.992892e+00 1.230615e-01
   endloop
 endfacet
 facet normal -8.137977e-01 -2.961981e-01 -5.000000e-01
   outer loop
     vertex 1.707736e+00 2.267491e+00 5.141147e-02
     vertex 1.438190e+00 3.008063e+00 5.141147e-02
     vertex 1.439553e+00 3.008559e+00 4.890000e-02
   endloop
 endfacet
 facet normal -8.137977e-01 -2.961981e-01 -5.000000e-01
   outer loop
     vertex 1.707736e+00 2.267491e+00 5.141147e-02
     vertex 1.439553e+00 3.008559e+00 4.890000e-02
     vertex 1.709099e+00 2.267987e+00 4.890000e-02
   endloop
 endfacet
 facet normal 8.137977e-01 2.961981e-01 5.000000e-01
   outer loop
     vertex 1.824353e+00 2.309936e+00 1.230615e-01
     vertex 1.556170e+00 3.051004e+00 1.205500e-01
     vertex 1.554807e+00 3.050508e+00 1.230615e-01
   endloop
 endfacet
 facet normal 8.137977e-01 2.961981e-01 5.000000e-01
   outer loop
     vertex 1.824353e+00 2.309936e+00 1.230615e-01
     vertex 1.825716e+00 2.310432e+00 1.205500e-01
     vertex 1.556170e+00 3.051004e+00 1.205500e-01
   endloop
 endfacet
 facet normal 3.420201e-01 -9.396926e-01 -9.644969e-14
   outer loop
     vertex 1.824353e+00 2.309936e+00 1.230615e-01
     vertex 1.709099e+00 2.267987e+00 4.890000e-02
     vertex 1.825716e+00 2.310432e+00 1.205500e-01
   endloop
 endfacet
 facet normal 3.420201e-01 -9.396926e-01 2.713310e-14
   outer loop
     vertex 1.824353e+00 2.309936e+00 1.230615e-01
     vertex 1.707736e+00 2.267491e+00 5.141147e-02
     vertex 1.709099e+00 2.267987e+00 4.890000e-02
   endloop
 endfacet
 facet normal -3.420201e-01 9.396926e-01 1.437859e-13
   outer loop
     vertex 1.554807e+00 3.050508e+00 1.230615e-01
     vertex 1.556170e+00 3.051004e+00 1.205500e-01
     vertex 1.439553e+00 3.008559e+00 4.890000e-02
   endloop
 endfacet
 facet normal -3.420201e-01 9.396926e-01 4.174323e-14
   outer loop
     vertex 1.554807e+00 3.050508e+00 1.230615e-01
     vertex 1.439553e+00 3.008559e+00 4.890000e-02
     vertex 1.438190e+00 3.008063e+00 5.141147e-02
   endloop
 endfacet
 facet normal 4.698463e-01 1.710101e-01 -8.660254e-01
   outer loop
     vertex 1.556170e+00 3.051004e+00 1.205500e-01
     vertex 1.709099e+00 2.267987e+00 4.890000e-02
     vertex 1.439553e+00 3.008559e+00 4.890000e-02
   endloop
 endfacet
 facet normal 4.698463e-01 1.710101e-01 -8.660254e-01
   outer loop
     vertex 1.556170e+00 3.051004e+00 1.205500e-01
     vertex 1.825716e+00 2.310432e+00 1.205500e-01
     vertex 1.709099e+00 2.267987e+00 4.890000e-02
   endloop
 endfacet
 facet normal -4.698463e-01 -1.710101e-01 8.660254e-01
   outer loop
     vertex 1.554807e+00 3.050508e+00 1.230615e-01
     vertex 1.438190e+00 3.008063e+00 5.141147e-02
     vertex 1.707736e+00 2.267491e+00 5.141147e-02
   endloop
 endfacet
 facet normal -4.698463e-01 -1.710101e-01 8.660254e-01
   outer loop
     vertex 1.554807e+00 3.050508e+00 1.230615e-01
     vertex 1.707736e+00 2.267491e+00 5.141147e-02
     vertex 1.824353e+00 2.309936e+00 1.230615e-01
   endloop
 endfacet
 facet normal -8.137977e-01 -2.961981e-01 -5.000000e-01
   outer loop
     vertex 1.423483e+00 3.048470e+00 5.141147e-02
     vertex 1.153937e+00 3.789041e+00 5.141147e-02
     vertex 1.155300e+00 3.789537e+00 4.890000e-02
   endloop
 endfacet
 facet normal -8.137977e-01 -2.961981e-01 -5.000000e-01
   outer loop
     vertex 1.423483e+00 3.048470e+00 5.141147e-02
     vertex 1.155300e+00 3.789537e+00 4.890000e-02
     vertex 1.424846e+00 3.048965e+00 4.890000e-02
   endloop
 endfacet
 facet normal 8.137977e-01 2.961981e-01 5.000000e-01
   outer loop
     vertex 1.540101e+00 3.090915e+00 1.230615e-01
     vertex 1.271917e+00 3.831982e+00 1.205500e-01
     vertex 1.270554e+00 3.831487e+00 1.230615e-01
   endloop
 endfacet
 facet normal 8.137977e-01 2.961981e-01 5.000000e-01
   outer loop
     vertex 1.540101e+00 3.090915e+00 1.230615e-01
     vertex 1.541463e+00 3.091411e+00 1.205500e-01
     vertex 1.271917e+00 3.831982e+00 1.205500e-01
   endloop
 endfacet
 facet normal 3.420201e-01 -9.396926e-01 1.269418e-13
   outer loop
     vertex 1.540101e+00 3.090915e+00 1.230615e-01
     vertex 1.424846e+00 3.048965e+00 4.890000e-02
     vertex 1.541463e+00 3.091411e+00 1.205500e-01
   endloop
 endfacet
 facet normal 3.420201e-01 -9.396926e-01 -1.878445e-14
   outer loop
     vertex 1.540101e+00 3.090915e+00 1.230615e-01
     vertex 1.423483e+00 3.048470e+00 5.141147e-02
     vertex 1.424846e+00 3.048965e+00 4.890000e-02
   endloop
 endfacet
 facet normal -3.420201e-01 9.396926e-01 -2.698635e-14
   outer loop
     vertex 1.270554e+00 3.831487e+00 1.230615e-01
     vertex 1.271917e+00 3.831982e+00 1.205500e-01
     vertex 1.155300e+00 3.789537e+00 4.890000e-02
   endloop
 endfacet
 facet normal -3.420201e-01 9.396926e-01 -5.009188e-14
   outer loop
     vertex 1.270554e+00 3.831487e+00 1.230615e-01
     vertex 1.155300e+00 3.789537e+00 4.890000e-02
     vertex 1.153937e+00 3.789041e+00 5.141147e-02
   endloop
 endfacet
 facet normal 4.698463e-01 1.710101e-01 -8.660254e-01
   outer loop
     vertex 1.271917e+00 3.831982e+00 1.205500e-01
     vertex 1.424846e+00 3.048965e+00 4.890000e-02
     vertex 1.155300e+00 3.789537e+00 4.890000e-02
   endloop
 endfacet
 facet normal 4.698463e-01 1.710101e-01 -8.660254e-01
   outer loop
     vertex 1.271917e+00 3.831982e+00 1.205500e-01
     vertex 1.541463e+00 3.091411e+00 1.205500e-01
     vertex 1.424846e+00 3.048965e+00 4.890000e-02
   endloop
 endfacet
 facet normal -4.698463e-01 -1.710101e-01 8.660254e-01
   outer loop
     vertex 1.270554e+00 3.831487e+00 1.230615e-01
     vertex 1.153937e+00 3.789041e+00 5.141147e-02
     vertex 1.423483e+00 3.048470e+00 5.141147e-02
   endloop
 endfacet
 facet normal -4.698463e-01 -1.710101e-01 8.660254e-01
   outer loop
     vertex 1.270554e+00 3.831487e+00 1.230615e-01
     vertex 1.423483e+00 3.048470e+00 5.141147e-02
     vertex 1.540101e+00 3.090915e+00 1.230615e-01
   endloop
 endfacet
 facet normal -8.137977e-01 -2.961981e-01 -5.000000e-01
   outer loop
     vertex 1.977052e+00 2.365514e+00 5.141147e-02
     vertex 1.707506e+00 3.106086e+00 5.141147e-02
     vertex 1.708869e+00 3.106582e+00 4.890000e-02
   endloop
 endfacet
 facet normal -8.137977e-01 -2.961981e-01 -5.000000e-01
   outer loop
     vertex 1.977052e+00 2.365514e+00 5.141147e-02
     vertex 1.708869e+00 3.106582e+00 4.890000e-02
     vertex 1.978415e+00 2.366010e+00 4.890000e-02
   endloop
 endfacet
 facet normal 8.137977e-01 2.961981e-01 5.000000e-01
   outer loop
     vertex 2.093669e+00 2.407959e+00 1.230615e-01
     vertex 1.825486e+00 3.149027e+00 1.205500e-01
     vertex 1.824123e+00 3.148531e+00 1.230615e-01
   endloop
 endfacet
 facet normal 8.137977e-01 2.961981e-01 5.000000e-01
   outer loop
     vertex 2.093669e+00 2.407959e+00 1.230615e-01
     vertex 2.095032e+00 2.408455e+00 1.205500e-01
     vertex 1.825486e+00 3.149027e+00 1.205500e-01
   endloop
 endfacet
 facet normal 3.420201e-01 -9.396926e-01 5.495105e-15
   outer loop
     vertex 2.093669e+00 2.407959e+00 1.230615e-01
     vertex 1.978415e+00 2.366010e+00 4.890000e-02
     vertex 2.095032e+00 2.408455e+00 1.205500e-01
   endloop
 endfacet
 facet normal 3.420201e-01 -9.396926e-01 1.294040e-13
   outer loop
     vertex 2.093669e+00 2.407959e+00 1.230615e-01
     vertex 1.977052e+00 2.365514e+00 5.141147e-02
     vertex 1.978415e+00 2.366010e+00 4.890000e-02
   endloop
 endfacet
 facet normal -3.420201e-01 9.396926e-01 2.034983e-14
   outer loop
     vertex 1.824123e+00 3.148531e+00 1.230615e-01
     vertex 1.825486e+00 3.149027e+00 1.205500e-01
     vertex 1.708869e+00 3.106582e+00 4.890000e-02
   endloop
 endfacet
 facet normal -3.420201e-01 9.396926e-01 -2.087162e-15
   outer loop
     vertex 1.824123e+00 3.148531e+00 1.230615e-01
     vertex 1.708869e+00 3.106582e+00 4.890000e-02
     vertex 1.707506e+00 3.106086e+00 5.141147e-02
   endloop
 endfacet
 facet normal 4.698463e-01 1.710101e-01 -8.660254e-01
   outer loop
     vertex 1.825486e+00 3.149027e+00 1.205500e-01
     vertex 1.978415e+00 2.366010e+00 4.890000e-02
     vertex 1.708869e+00 3.106582e+00 4.890000e-02
   endloop
 endfacet
 facet normal 4.698463e-01 1.710101e-01 -8.660254e-01
   outer loop
     vertex 1.825486e+00 3.149027e+00 1.205500e-01
     vertex 2.095032e+00 2.408455e+00 1.205500e-01
     vertex 1.978415e+00 2.366010e+00 4.890000e-02
   endloop
 endfacet
 facet normal -4.698463e-01 -1.710101e-01 8.660254e-01
   outer loop
     vertex 1.824123e+00 3.148531e+00 1.230615e-01
     vertex 1.707506e+00 3.106086e+00 5.141147e-02
     vertex 1.977052e+00 2.365514e+00 5.141147e-02
   endloop
 endfacet
 facet normal -4.698463e-01 -1.710101e-01 8.660254e-01
   outer loop
     vertex 1.824123e+00 3.148531e+00 1.230615e-01
     vertex 1.977052e+00 2.365514e+00 5.141147e-02
     vertex 2.093669e+00 2.407959e+00 1.230615e-01
   endloop
 endfacet
 facet normal -8.137977e-01 -2.961981e-01 -5.000000e-01
   outer loop
     vertex 1.692799e+00 3.146493e+00 5.141147e-02
     vertex 1.423253e+00 3.887064e+00 5.141147e-02
     vertex 1.424616e+00 3.887560e+00 4.890000e-02
   endloop
 endfacet
 facet normal -8.137977e-01 -2.961981e-01 -5.000000e-01
   outer loop
     vertex 1.692799e+00 3.146493e+00 5.141147e-02
     vertex 1.424616e+00 3.887560e+00 4.890000e-02
     vertex 1.694162e+00 3.146988e+00 4.890000e-02
   endloop
 endfacet
 facet normal 8.137977e-01 2.961981e-01 5.000000e-01
   outer loop
     vertex 1.809416e+00 3.188938e+00 1.230615e-01
     vertex 1.541233e+00 3.930005e+00 1.205500e-01
     vertex 1.539870e+00 3.929509e+00 1.230615e-01
   endloop
 endfacet
 facet normal 8.137977e-01 2.961981e-01 5.000000e-01
   outer loop
     vertex 1.809416e+00 3.188938e+00 1.230615e-01
     vertex 1.810779e+00 3.189434e+00 1.205500e-01
     vertex 1.541233e+00 3.930005e+00 1.205500e-01
   endloop
 endfacet
 facet normal 3.420201e-01 -9.396926e-01 -1.956714e-14
   outer loop
     vertex 1.809416e+00 3.188938e+00 1.230615e-01
     vertex 1.694162e+00 3.146988e+00 4.890000e-02
     vertex 1.810779e+00 3.189434e+00 1.205500e-01
   endloop
 endfacet
 facet normal 3.420201e-01 -9.396926e-01 -1.210554e-13
   outer loop
     vertex 1.809416e+00 3.188938e+00 1.230615e-01
     vertex 1.692799e+00 3.146493e+00 5.141147e-02
     vertex 1.694162e+00 3.146988e+00 4.890000e-02
   endloop
 endfacet
 facet normal -3.420201e-01 9.396926e-01 -1.291920e-13
   outer loop
     vertex 1.539870e+00 3.929509e+00 1.230615e-01
     vertex 1.541233e+00 3.930005e+00 1.205500e-01
     vertex 1.424616e+00 3.887560e+00 4.890000e-02
   endloop
 endfacet
 facet normal -3.420201e-01 9.396926e-01 -2.922026e-14
   outer loop
     vertex 1.539870e+00 3.929509e+00 1.230615e-01
     vertex 1.424616e+00 3.887560e+00 4.890000e-02
     vertex 1.423253e+00 3.887064e+00 5.141147e-02
   endloop
 endfacet
 facet normal 4.698463e-01 1.710101e-01 -8.660254e-01
   outer loop
     vertex 1.541233e+00 3.930005e+00 1.205500e-01
     vertex 1.694162e+00 3.146988e+00 4.890000e-02
     vertex 1.424616e+00 3.887560e+00 4.890000e-02
   endloop
 endfacet
 facet normal 4.698463e-01 1.710101e-01 -8.660254e-01
   outer loop
     vertex 1.541233e+00 3.930005e+00 1.205500e-01
     vertex 1.810779e+00 3.189434e+00 1.205500e-01
     vertex 1.694162e+00 3.146988e+00 4.890000e-02
   endloop
 endfacet
 facet normal -4.698463e-01 -1.710101e-01 8.660254e-01
   outer loop
     vertex 1.539870e+00 3.929509e+00 1.230615e-01
     vertex 1.423253e+00 3.887064e+00 5.141147e-02
     vertex 1.692799e+00 3.146493e+00 5.141147e-02
   endloop
 endfacet
 facet normal -4.698463e-01 -1.710101e-01 8.660254e-01
   outer loop
     vertex 1.539870e+00 3.929509e+00 1.230615e-01
     vertex 1.692799e+00 3.146493e+00 5.141147e-02
     vertex 1.809416e+00 3.188938e+00 1.230615e-01
   endloop
 endfacet
 facet normal -8.137977e-01 -2.961981e-01 -5.000000e-01
   outer loop
     vertex 2.246368e+00 2.463537e+00 5.141147e-02
     vertex 1.976822e+00 3.204109e+00 5.141147e-02
     vertex 1.978185e+00 3.204605e+00 4.890000e-02
   endloop
 endfacet
 facet normal -8.137977e-01 -2.961981e-01 -5.000000e-01
   outer loop
     vertex 2.246368e+00 2.463537e+00 5.141147e-02
     vertex 1.978185e+00 3.204605e+00 4.890000e-02
     vertex 2.247731e+00 2.464033e+00 4.890000e-02
   endloop
 endfacet
 facet normal 8.137977e-01 2.961981e-01 5.000000e-01
   outer loop
     vertex 2.362985e+00 2.505982e+00 1.230615e-01
     vertex 2.094802e+00 3.247050e+00 1.205500e-01
     vertex 2.093439e+00 3.246554e+00 1.230615e-01
   endloop
 endfacet
 facet normal 8.137977e-01 2.961981e-01 5.000000e-01
   outer loop
     vertex 2.362985e+00 2.505982e+00 1.230615e-01
     vertex 2.364348e+00 2.506478e+00 1.205500e-01
     vertex 2.094802e+00 3.247050e+00 1.205500e-01
   endloop
 endfacet
 facet normal 3.420201e-01 -9.396926e-01 4.043876e-15
   outer loop
     vertex 2.362985e+00 2.505982e+00 1.230615e-01
     vertex 2.247731e+00 2.464033e+00 4.890000e-02
     vertex 2.364348e+00 2.506478e+00 1.205500e-01
   endloop
 endfacet
 facet normal 3.420201e-01 -9.396926e-01 -4.174323e-14
   outer loop
     vertex 2.362985e+00 2.505982e+00 1.230615e-01
     vertex 2.246368e+00 2.463537e+00 5.141147e-02
     vertex 2.247731e+00 2.464033e+00 4.890000e-02
   endloop
 endfacet
 facet normal -3.420201e-01 9.396926e-01 4.159648e-14
   outer loop
     vertex 2.093439e+00 3.246554e+00 1.230615e-01
     vertex 2.094802e+00 3.247050e+00 1.205500e-01
     vertex 1.978185e+00 3.204605e+00 4.890000e-02
   endloop
 endfacet
 facet normal -3.420201e-01 9.396926e-01 1.878445e-14
   outer loop
     vertex 2.093439e+00 3.246554e+00 1.230615e-01
     vertex 1.978185e+00 3.204605e+00 4.890000e-02
     vertex 1.976822e+00 3.204109e+00 5.141147e-02
   endloop
 endfacet
 facet normal 4.698463e-01 1.710101e-01 -8.660254e-01
   outer loop
     vertex 2.094802e+00 3.247050e+00 1.205500e-01
     vertex 2.247731e+00 2.464033e+00 4.890000e-02
     vertex 1.978185e+00 3.204605e+00 4.890000e-02
   endloop
 endfacet
 facet normal 4.698463e-01 1.710101e-01 -8.660254e-01
   outer loop
     vertex 2.094802e+00 3.247050e+00 1.205500e-01
     vertex 2.364348e+00 2.506478e+00 1.205500e-01
     vertex 2.247731e+00 2.464033e+00 4.890000e-02
   endloop
 endfacet
 facet normal -4.698463e-01 -1.710101e-01 8.660254e-01
   outer loop
     vertex 2.093439e+00 3.246554e+00 1.230615e-01
     vertex 1.976822e+00 3.204109e+00 5.141147e-02
     vertex 2.246368e+00 2.463537e+00 5.141147e-02
   endloop
 endfacet
 facet normal -4.698463e-01 -1.710101e-01 8.660254e-01
   outer loop
     vertex 2.093439e+00 3.246554e+00 1.230615e-01
     vertex 2.246368e+00 2.463537e+00 5.141147e-02
     vertex 2.362985e+00 2.505982e+00 1.230615e-01
   endloop
 endfacet
 facet normal -8.137977e-01 -2.961981e-01 -5.000000e-01
   outer loop
     vertex 1.962115e+00 3.244516e+00 5.141147e-02
     vertex 1.692569e+00 3.985087e+00 5.141147e-02
     vertex 1.693932e+00 3.985583e+00 4.890000e-02
   endloop
 endfacet
 facet normal -8.137977e-01 -2.961981e-01 -5.000000e-01
   outer loop
     vertex 1.962115e+00 3.244516e+00 5.141147e-02
     vertex 1.693932e+00 3.985583e+00 4.890000e-02
     vertex 1.963478e+00 3.245011e+00 4.890000e-02
   endloop
 endfacet
 facet normal 8.137977e-01 2.961981e-01 5.000000e-01
   outer loop
     vertex 2.078732e+00 3.286961e+00 1.230615e-01
     vertex 1.810549e+00 4.028028e+00 1.205500e-01
     vertex 1.809186e+00 4.027532e+00 1.230615e-01
   endloop
 endfacet
 facet normal 8.137977e-01 2.961981e-01 5.000000e-01
   outer loop
     vertex 2.078732e+00 3.286961e+00 1.230615e-01
     vertex 2.080095e+00 3.287457e+00 1.205500e-01
     vertex 1.810549e+00 4.028028e+00 1.205500e-01
   endloop
 endfacet
 facet normal 3.420201e-01 -9.396926e-01 -4.053659e-14
   outer loop
     vertex 2.078732e+00 3.286961e+00 1.230615e-01
     vertex 1.963478e+00 3.245011e+00 4.890000e-02
     vertex 2.080095e+00 3.287457e+00 1.205500e-01
   endloop
 endfacet
 facet normal 3.420201e-01 -9.396926e-01 4.174323e-15
   outer loop
     vertex 2.078732e+00 3.286961e+00 1.230615e-01
     vertex 1.962115e+00 3.244516e+00 5.141147e-02
     vertex 1.963478e+00 3.245011e+00 4.890000e-02
   endloop
 endfacet
 facet normal -3.420201e-01 9.396926e-01 1.203216e-13
   outer loop
     vertex 1.809186e+00 4.027532e+00 1.230615e-01
     vertex 1.810549e+00 4.028028e+00 1.205500e-01
     vertex 1.693932e+00 3.985583e+00 4.890000e-02
   endloop
 endfacet
 facet normal -3.420201e-01 9.396926e-01 -2.504594e-14
   outer loop
     vertex 1.809186e+00 4.027532e+00 1.230615e-01
     vertex 1.693932e+00 3.985583e+00 4.890000e-02
     vertex 1.692569e+00 3.985087e+00 5.141147e-02
   endloop
 endfacet
 facet normal 4.698463e-01 1.710101e-01 -8.660254e-01
   outer loop
     vertex 1.810549e+00 4.028028e+00 1.205500e-01
     vertex 1.963478e+00 3.245011e+00 4.890000e-02
     vertex 1.693932e+00 3.985583e+00 4.890000e-02
   endloop
 endfacet
 facet normal 4.698463e-01 1.710101e-01 -8.660254e-01
   outer loop
     vertex 1.810549e+00 4.028028e+00 1.205500e-01
     vertex 2.080095e+00 3.287457e+00 1.205500e-01
     vertex 1.963478e+00 3.245011e+00 4.890000e-02
   endloop
 endfacet
 facet normal -4.698463e-01 -1.710101e-01 8.660254e-01
   outer loop
     vertex 1.809186e+00 4.027532e+00 1.230615e-01
     vertex 1.692569e+00 3.985087e+00 5.141147e-02
     vertex 1.962115e+00 3.244516e+00 5.141147e-02
   endloop
 endfacet
 facet normal -4.698463e-01 -1.710101e-01 8.660254e-01
   outer loop
     vertex 1.809186e+00 4.027532e+00 1.230615e-01
     vertex 1.962115e+00 3.244516e+00 5.141147e-02
     vertex 2.078732e+00 3.286961e+00 1.230615e-01
   endloop
 endfacet
 facet normal -8.137977e-01 -2.961981e-01 -5.000000e-01
   outer loop
     vertex 2.515684e+00 2.561560e+00 5.141147e-02
     vertex 2.246138e+00 3.302132e+00 5.141147e-02
     vertex 2.247500e+00 3.302628e+00 4.890000e-02
   endloop
 endfacet
 facet normal -8.137977e-01 -2.961981e-01 -5.000000e-01
   outer loop
     vertex 2.515684e+00 2.561560e+00 5.141147e-02
     vertex 2.247500e+00 3.302628e+00 4.890000e-02
     vertex 2.517047e+00 2.562056e+00 4.890000e-02
   endloop
 endfacet
 facet normal 8.137977e-01 2.961981e-01 5.000000e-01
   outer loop
     vertex 2.632301e+00 2.604005e+00 1.230615e-01
     vertex 2.364118e+00 3.345073e+00 1.205500e-01
     vertex 2.362755e+00 3.344577e+00 1.230615e-01
   endloop
 endfacet
 facet normal 8.137977e-01 2.961981e-01 5.000000e-01
   outer loop
     vertex 2.632301e+00 2.604005e+00 1.230615e-01
     vertex 2.633664e+00 2.604501e+00 1.205500e-01
     vertex 2.364118e+00 3.345073e+00 1.205500e-01
   endloop
 endfacet
 facet normal 3.420201e-01 -9.396926e-01 1.286539e-13
   outer loop
     vertex 2.632301e+00 2.604005e+00 1.230615e-01
     vertex 2.517047e+00 2.562056e+00 4.890000e-02
     vertex 2.633664e+00 2.604501e+00 1.205500e-01
   endloop
 endfacet
 facet normal 3.420201e-01 -9.396926e-01 6.261485e-15
   outer loop
     vertex 2.632301e+00 2.604005e+00 1.230615e-01
     vertex 2.515684e+00 2.561560e+00 5.141147e-02
     vertex 2.517047e+00 2.562056e+00 4.890000e-02
   endloop
 endfacet
 facet normal -3.420201e-01 9.396926e-01 -1.272027e-13
   outer loop
     vertex 2.362755e+00 3.344577e+00 1.230615e-01
     vertex 2.364118e+00 3.345073e+00 1.205500e-01
     vertex 2.247500e+00 3.302628e+00 4.890000e-02
   endloop
 endfacet
 facet normal -3.420201e-01 9.396926e-01 4.174323e-14
   outer loop
     vertex 2.362755e+00 3.344577e+00 1.230615e-01
     vertex 2.247500e+00 3.302628e+00 4.890000e-02
     vertex 2.246138e+00 3.302132e+00 5.141147e-02
   endloop
 endfacet
 facet normal 4.698463e-01 1.710101e-01 -8.660254e-01
   outer loop
     vertex 2.364118e+00 3.345073e+00 1.205500e-01
     vertex 2.517047e+00 2.562056e+00 4.890000e-02
     vertex 2.247500e+00 3.302628e+00 4.890000e-02
   endloop
 endfacet
 facet normal 4.698463e-01 1.710101e-01 -8.660254e-01
   outer loop
     vertex 2.364118e+00 3.345073e+00 1.205500e-01
     vertex 2.633664e+00 2.604501e+00 1.205500e-01
     vertex 2.517047e+00 2.562056e+00 4.890000e-02
   endloop
 endfacet
 facet normal -4.698463e-01 -1.710101e-01 8.660254e-01
   outer loop
     vertex 2.362755e+00 3.344577e+00 1.230615e-01
     vertex 2.246138e+00 3.302132e+00 5.141147e-02
     vertex 2.515684e+00 2.561560e+00 5.141147e-02
   endloop
 endfacet
 facet normal -4.698463e-01 -1.710101e-01 8.660254e-01
   outer loop
     vertex 2.362755e+00 3.344577e+00 1.230615e-01
     vertex 2.515684e+00 2.561560e+00 5.141147e-02
     vertex 2.632301e+00 2.604005e+00 1.230615e-01
   endloop
 endfacet
 facet normal -8.137977e-01 -2.961981e-01 -5.000000e-01
   outer loop
     vertex 2.231431e+00 3.342538e+00 5.141147e-02
     vertex 1.961885e+00 4.083110e+00 5.141147e-02
     vertex 1.963248e+00 4.083606e+00 4.890000e-02
   endloop
 endfacet
 facet normal -8.137977e-01 -2.961981e-01 -5.000000e-01
   outer loop
     vertex 2.231431e+00 3.342538e+00 5.141147e-02
     vertex 1.963248e+00 4.083606e+00 4.890000e-02
     vertex 2.232794e+00 3.343034e+00 4.890000e-02
   endloop
 endfacet
 facet normal 8.137977e-01 2.961981e-01 5.000000e-01
   outer loop
     vertex 2.348048e+00 3.384984e+00 1.230615e-01
     vertex 2.079865e+00 4.126051e+00 1.205500e-01
     vertex 2.078502e+00 4.125555e+00 1.230615e-01
   endloop
 endfacet
 facet normal 8.137977e-01 2.961981e-01 5.000000e-01
   outer loop
     vertex 2.348048e+00 3.384984e+00 1.230615e-01
     vertex 2.349411e+00 3.385480e+00 1.205500e-01
     vertex 2.079865e+00 4.126051e+00 1.205500e-01
   endloop
 endfacet
 facet normal 3.420201e-01 -9.396926e-01 1.286539e-13
   outer loop
     vertex 2.348048e+00 3.384984e+00 1.230615e-01
     vertex 2.232794e+00 3.343034e+00 4.890000e-02
     vertex 2.349411e+00 3.385480e+00 1.205500e-01
   endloop
 endfacet
 facet normal 3.420201e-01 -9.396926e-01 6.261485e-15
   outer loop
     vertex 2.348048e+00 3.384984e+00 1.230615e-01
     vertex 2.231431e+00 3.342538e+00 5.141147e-02
     vertex 2.232794e+00 3.343034e+00 4.890000e-02
   endloop
 endfacet
 facet normal -3.420201e-01 9.396926e-01 1.176637e-13
   outer loop
     vertex 2.078502e+00 4.125555e+00 1.230615e-01
     vertex 2.079865e+00 4.126051e+00 1.205500e-01
     vertex 1.963248e+00 4.083606e+00 4.890000e-02
   endloop
 endfacet
 facet normal -3.420201e-01 9.396926e-01 1.627986e-13
   outer loop
     vertex 2.078502e+00 4.125555e+00 1.230615e-01
     vertex 1.963248e+00 4.083606e+00 4.890000e-02
     vertex 1.961885e+00 4.083110e+00 5.141147e-02
   endloop
 endfacet
 facet normal 4.698463e-01 1.710101e-01 -8.660254e-01
   outer loop
     vertex 2.079865e+00 4.126051e+00 1.205500e-01
     vertex 2.232794e+00 3.343034e+00 4.890000e-02
     vertex 1.963248e+00 4.083606e+00 4.890000e-02
   endloop
 endfacet
 facet normal 4.698463e-01 1.710101e-01 -8.660254e-01
   outer loop
     vertex 2.079865e+00 4.126051e+00 1.205500e-01
     vertex 2.349411e+00 3.385480e+00 1.205500e-01
     vertex 2.232794e+00 3.343034e+00 4.890000e-02
   endloop
 endfacet
 facet normal -4.698463e-01 -1.710101e-01 8.660254e-01
   outer loop
     vertex 2.078502e+00 4.125555e+00 1.230615e-01
     vertex 1.961885e+00 4.083110e+00 5.141147e-02
     vertex 2.231431e+00 3.342538e+00 5.141147e-02
   endloop
 endfacet
 facet normal -4.698463e-01 -1.710101e-01 8.660254e-01
   outer loop
     vertex 2.078502e+00 4.125555e+00 1.230615e-01
     vertex 2.231431e+00 3.342538e+00 5.141147e-02
     vertex 2.348048e+00 3.384984e+00 1.230615e-01
   endloop
 endfacet
 facet normal -8.137977e-01 -2.961981e-01 -5.000000e-01
   outer loop
     vertex 2.785000e+00 2.659583e+00 5.141147e-02
     vertex 2.515454e+00 3.400155e+00 5.141147e-02
     vertex 2.516816e+00 3.400651e+00 4.890000e-02
   endloop
 endfacet
 facet normal -8.137977e-01 -2.961981e-01 -5.000000e-01
   outer loop
     vertex 2.785000e+00 2.659583e+00 5.141147e-02
     vertex 2.516816e+00 3.400651e+00 4.890000e-02
     vertex 2.786362e+00 2.660079e+00 4.890000e-02
   endloop
 endfacet
 facet normal 8.137977e-01 2.961981e-01 5.000000e-01
   outer loop
     vertex 2.901617e+00 2.702028e+00 1.230615e-01
     vertex 2.633434e+00 3.443096e+00 1.205500e-01
     vertex 2.632071e+00 3.442600e+00 1.230615e-01
   endloop
 endfacet
 facet normal 8.137977e-01 2.961981e-01 5.000000e-01
   outer loop
     vertex 2.901617e+00 2.702028e+00 1.230615e-01
     vertex 2.902980e+00 2.702524e+00 1.205500e-01
     vertex 2.633434e+00 3.443096e+00 1.205500e-01
   endloop
 endfacet
 facet normal 3.420201e-01 -9.396926e-01 4.581972e-15
   outer loop
     vertex 2.901617e+00 2.702028e+00 1.230615e-01
     vertex 2.786362e+00 2.660079e+00 4.890000e-02
     vertex 2.902980e+00 2.702524e+00 1.205500e-01
   endloop
 endfacet
 facet normal 3.420201e-01 -9.396926e-01 4.174323e-15
   outer loop
     vertex 2.901617e+00 2.702028e+00 1.230615e-01
     vertex 2.785000e+00 2.659583e+00 5.141147e-02
     vertex 2.786362e+00 2.660079e+00 4.890000e-02
   endloop
 endfacet
 facet normal -3.420201e-01 9.396926e-01 4.131928e-14
   outer loop
     vertex 2.632071e+00 3.442600e+00 1.230615e-01
     vertex 2.633434e+00 3.443096e+00 1.205500e-01
     vertex 2.516816e+00 3.400651e+00 4.890000e-02
   endloop
 endfacet
 facet normal -3.420201e-01 9.396926e-01 4.174323e-14
   outer loop
     vertex 2.632071e+00 3.442600e+00 1.230615e-01
     vertex 2.516816e+00 3.400651e+00 4.890000e-02
     vertex 2.515454e+00 3.400155e+00 5.141147e-02
   endloop
 endfacet
 facet normal 4.698463e-01 1.710101e-01 -8.660254e-01
   outer loop
     vertex 2.633434e+00 3.443096e+00 1.205500e-01
     vertex 2.786362e+00 2.660079e+00 4.890000e-02
     vertex 2.516816e+00 3.400651e+00 4.890000e-02
   endloop
 endfacet
 facet normal 4.698463e-01 1.710101e-01 -8.660254e-01
   outer loop
     vertex 2.633434e+00 3.443096e+00 1.205500e-01
     vertex 2.902980e+00 2.702524e+00 1.205500e-01
     vertex 2.786362e+00 2.660079e+00 4.890000e-02
   endloop
 endfacet
 facet normal -4.698463e-01 -1.710101e-01 8.660254e-01
   outer loop
     vertex 2.632071e+00 3.442600e+00 1.230615e-01
     vertex 2.515454e+00 3.400155e+00 5.141147e-02
     vertex 2.785000e+00 2.659583e+00 5.141147e-02
   endloop
 endfacet
 facet normal -4.698463e-01 -1.710101e-01 8.660254e-01
   outer loop
     vertex 2.632071e+00 3.442600e+00 1.230615e-01
     vertex 2.785000e+00 2.659583e+00 5.141147e-02
     vertex 2.901617e+00 2.702028e+00 1.230615e-01
   endloop
 endfacet
 facet normal -8.137977e-01 -2.961981e-01 -5.000000e-01
   outer loop
     vertex 2.500747e+00 3.440561e+00 5.141147e-02
     vertex 2.231201e+00 4.181133e+00 5.141147e-02
     vertex 2.232563e+00 4.181629e+00 4.890000e-02
   endloop
 endfacet
 facet normal -8.137977e-01 -2.961981e-01 -5.000000e-01
   outer loop
     vertex 2.500747e+00 3.440561e+00 5.141147e-02
     vertex 2.232563e+00 4.181629e+00 4.890000e-02
     vertex 2.502109e+00 3.441057e+00 4.890000e-02
   endloop
 endfacet
 facet normal 8.137977e-01 2.961981e-01 5.000000e-01
   outer loop
     vertex 2.617364e+00 3.483007e+00 1.230615e-01
     vertex 2.349181e+00 4.224074e+00 1.205500e-01
     vertex 2.347818e+00 4.223578e+00 1.230615e-01
   endloop
 endfacet
 facet normal 8.137977e-01 2.961981e-01 5.000000e-01
   outer loop
     vertex 2.617364e+00 3.483007e+00 1.230615e-01
     vertex 2.618727e+00 3.483503e+00 1.205500e-01
     vertex 2.349181e+00 4.224074e+00 1.205500e-01
   endloop
 endfacet
 facet normal 3.420201e-01 -9.396926e-01 5.495105e-15
   outer loop
     vertex 2.617364e+00 3.483007e+00 1.230615e-01
     vertex 2.502109e+00 3.441057e+00 4.890000e-02
     vertex 2.618727e+00 3.483503e+00 1.205500e-01
   endloop
 endfacet
 facet normal 3.420201e-01 -9.396926e-01 1.294040e-13
   outer loop
     vertex 2.617364e+00 3.483007e+00 1.230615e-01
     vertex 2.500747e+00 3.440561e+00 5.141147e-02
     vertex 2.502109e+00 3.441057e+00 4.890000e-02
   endloop
 endfacet
 facet normal -3.420201e-01 9.396926e-01 1.234850e-13
   outer loop
     vertex 2.347818e+00 4.223578e+00 1.230615e-01
     vertex 2.349181e+00 4.224074e+00 1.205500e-01
     vertex 2.232563e+00 4.181629e+00 4.890000e-02
   endloop
 endfacet
 facet normal -3.420201e-01 9.396926e-01 -1.231425e-13
   outer loop
     vertex 2.347818e+00 4.223578e+00 1.230615e-01
     vertex 2.232563e+00 4.181629e+00 4.890000e-02
     vertex 2.231201e+00 4.181133e+00 5.141147e-02
   endloop
 endfacet
 facet normal 4.698463e-01 1.710101e-01 -8.660254e-01
   outer loop
     vertex 2.349181e+00 4.224074e+00 1.205500e-01
     vertex 2.502109e+00 3.441057e+00 4.890000e-02
     vertex 2.232563e+00 4.181629e+00 4.890000e-02
   endloop
 endfacet
 facet normal 4.698463e-01 1.710101e-01 -8.660254e-01
   outer loop
     vertex 2.349181e+00 4.224074e+00 1.205500e-01
     vertex 2.618727e+00 3.483503e+00 1.205500e-01
     vertex 2.502109e+00 3.441057e+00 4.890000e-02
   endloop
 endfacet
 facet normal -4.698463e-01 -1.710101e-01 8.660254e-01
   outer loop
     vertex 2.347818e+00 4.223578e+00 1.230615e-01
     vertex 2.231201e+00 4.181133e+00 5.141147e-02
     vertex 2.500747e+00 3.440561e+00 5.141147e-02
   endloop
 endfacet
 facet normal -4.698463e-01 -1.710101e-01 8.660254e-01
   outer loop
     vertex 2.347818e+00 4.223578e+00 1.230615e-01
     vertex 2.500747e+00 3.440561e+00 5.141147e-02
     vertex 2.617364e+00 3.483007e+00 1.230615e-01
   endloop
 endfacet
endsolid shape
