solid shape, STL ascii file, created with Open CASCADE Technology
 facet normal -8.660254e-01 1.463427e-16 -5.000000e-01
   outer loop
     vertex 5.093190e-01 2.485407e+00 4.143483e-02
     vertex 5.089023e-01 2.485407e+00 4.215653e-02
     vertex 5.089023e-01 3.142196e+00 4.215653e-02
   endloop
 endfacet
 facet normal -8.660254e-01 1.463911e-16 -5.000000e-01
   outer loop
     vertex 5.093190e-01 2.485407e+00 4.143483e-02
     vertex 5.089023e-01 3.142196e+00 4.215653e-02
     vertex 5.093190e-01 3.142196e+00 4.143483e-02
   endloop
 endfacet
 facet normal 8.660254e-01 0.000000e+00 5.000000e-01
   outer loop
     vertex 6.127365e-01 2.485407e+00 1.011429e-01
     vertex 6.123198e-01 3.142196e+00 1.018646e-01
     vertex 6.123198e-01 2.485407e+00 1.018646e-01
   endloop
 endfacet
 facet normal 8.660254e-01 -1.463911e-16 5.000000e-01
   outer loop
     vertex 6.127365e-01 2.485407e+00 1.011429e-01
     vertex 6.127365e-01 3.142196e+00 1.011429e-01
     vertex 6.123198e-01 3.142196e+00 1.018646e-01
   endloop
 endfacet
 facet normal 5.000000e-01 -8.451897e-17 -8.660254e-01
   outer loop
     vertex 6.127365e-01 2.485407e+00 1.011429e-01
     vertex 5.093190e-01 3.142196e+00 4.143483e-02
     vertex 6.127365e-01 3.142196e+00 1.011429e-01
   endloop
 endfacet
 facet normal 5.000000e-01 -8.847098e-17 -8.660254e-01
   outer loop
     vertex 6.127365e-01 2.485407e+00 1.011429e-01
     vertex 5.093190e-01 2.485407e+00 4.143483e-02
     vertex 5.093190e-01 3.142196e+00 4.143483e-02
   endloop
 endfacet
 facet normal -5.000000e-01 0.000000e+00 8.660254e-01
   outer loop
     vertex 6.123198e-01 2.485407e+00 1.018646e-01
     vertex 6.123198e-01 3.142196e+00 1.018646e-01
     vertex 5.089023e-01 3.142196e+00 4.215653e-02
   endloop
 endfacet
 facet normal -5.000000e-01 7.741210e-17 8.660254e-01
   outer loop
     vertex 6.123198e-01 2.485407e+00 1.018646e-01
     vertex 5.089023e-01 3.142196e+00 4.215653e-02
     vertex 5.089023e-01 2.485407e+00 4.215653e-02
   endloop
 endfacet
 facet normal 0.000000e+00 1.000000e+00 0.000000e+00
   outer loop
     vertex 6.123198e-01 3.142196e+00 1.018646e-01
     vertex 5.093190e-01 3.142196e+00 4.143483e-02
     vertex 5.089023e-01 3.142196e+00 4.215653e-02
   endloop
 endfacet
 facet normal 0.000000e+00 1.000000e+00 0.000000e+00
   outer loop
     vertex 6.123198e-01 3.142196e+00 1.018646e-01
     vertex 6.127365e-01 3.142196e+00 1.011429e-01
     vertex 5.093190e-01 3.142196e+00 4.143483e-02
   endloop
 endfacet
 facet normal 0.000000e+00 -1.000000e+00 0.000000e+00
   outer loop
     vertex 6.123198e-01 2.485407e+00 1.018646e-01
     vertex 5.089023e-01 2.485407e+00 4.215653e-02
     vertex 5.093190e-01 2.485407e+00 4.143483e-02
   endloop
 endfacet
 facet normal 0.000000e+00 -1.000000e+00 -0.000000e+00
   outer loop
     vertex 6.123198e-01 2.485407e+00 1.018646e-01
     vertex 5.093190e-01 2.485407e+00 4.143483e-02
     vertex 6.127365e-01 2.485407e+00 1.011429e-01
   endloop
 endfacet
 facet normal -8.660254e-01 -1.463911e-16 -5.000000e-01
   outer loop
     vertex 5.089023e-01 1.792793e+00 4.215653e-02
     vertex 5.089023e-01 2.449582e+00 4.215653e-02
     vertex 5.093190e-01 2.449582e+00 4.143483e-02
   endloop
 endfacet
 facet normal -8.660254e-01 -3.154291e-16 -5.000000e-01
   outer loop
     vertex 5.093190e-01 1.792793e+00 4.143483e-02
     vertex 5.089023e-01 1.792793e+00 4.215653e-02
     vertex 5.093190e-01 2.449582e+00 4.143483e-02
   endloop
 endfacet
 facet normal 8.660254e-01 -0.000000e+00 5.000000e-01
   outer loop
     vertex 6.123198e-01 1.792793e+00 1.018646e-01
     vertex 6.127365e-01 2.449582e+00 1.011429e-01
     vertex 6.123198e-01 2.449582e+00 1.018646e-01
   endloop
 endfacet
 facet normal 8.660254e-01 1.463911e-16 5.000000e-01
   outer loop
     vertex 6.127365e-01 1.792793e+00 1.011429e-01
     vertex 6.127365e-01 2.449582e+00 1.011429e-01
     vertex 6.123198e-01 1.792793e+00 1.018646e-01
   endloop
 endfacet
 facet normal 5.000000e-01 -2.082633e-16 -8.660254e-01
   outer loop
     vertex 5.093190e-01 1.792793e+00 4.143483e-02
     vertex 5.093190e-01 2.449582e+00 4.143483e-02
     vertex 6.127365e-01 2.449582e+00 1.011429e-01
   endloop
 endfacet
 facet normal 5.000000e-01 8.451897e-17 -8.660254e-01
   outer loop
     vertex 6.127365e-01 1.792793e+00 1.011429e-01
     vertex 5.093190e-01 1.792793e+00 4.143483e-02
     vertex 6.127365e-01 2.449582e+00 1.011429e-01
   endloop
 endfacet
 facet normal -5.000000e-01 -8.451897e-17 8.660254e-01
   outer loop
     vertex 5.089023e-01 1.792793e+00 4.215653e-02
     vertex 6.123198e-01 2.449582e+00 1.018646e-01
     vertex 5.089023e-01 2.449582e+00 4.215653e-02
   endloop
 endfacet
 facet normal -5.000000e-01 0.000000e+00 8.660254e-01
   outer loop
     vertex 6.123198e-01 1.792793e+00 1.018646e-01
     vertex 6.123198e-01 2.449582e+00 1.018646e-01
     vertex 5.089023e-01 1.792793e+00 4.215653e-02
   endloop
 endfacet
 facet normal 0.000000e+00 1.000000e+00 0.000000e+00
   outer loop
     vertex 6.123198e-01 2.449582e+00 1.018646e-01
     vertex 5.093190e-01 2.449582e+00 4.143483e-02
     vertex 5.089023e-01 2.449582e+00 4.215653e-02
   endloop
 endfacet
 facet normal 0.000000e+00 1.000000e+00 0.000000e+00
   outer loop
     vertex 6.123198e-01 2.449582e+00 1.018646e-01
     vertex 6.127365e-01 2.449582e+00 1.011429e-01
     vertex 5.093190e-01 2.449582e+00 4.143483e-02
   endloop
 endfacet
 facet normal 0.000000e+00 -1.000000e+00 0.000000e+00
   outer loop
     vertex 6.123198e-01 1.792793e+00 1.018646e-01
     vertex 5.089023e-01 1.792793e+00 4.215653e-02
     vertex 5.093190e-01 1.792793e+00 4.143483e-02
   endloop
 endfacet
 facet normal 0.000000e+00 -1.000000e+00 -0.000000e+00
   outer loop
     vertex 6.123198e-01 1.792793e+00 1.018646e-01
     vertex 5.093190e-01 1.792793e+00 4.143483e-02
     vertex 6.127365e-01 1.792793e+00 1.011429e-01
   endloop
 endfacet
 facet normal -8.660254e-01 0.000000e+00 -5.000000e-01
   outer loop
     vertex 7.481515e-01 2.485407e+00 4.143483e-02
     vertex 7.477348e-01 2.485407e+00 4.215653e-02
     vertex 7.477348e-01 3.142196e+00 4.215653e-02
   endloop
 endfacet
 facet normal -8.660254e-01 -3.380759e-16 -5.000000e-01
   outer loop
     vertex 7.481515e-01 2.485407e+00 4.143483e-02
     vertex 7.477348e-01 3.142196e+00 4.215653e-02
     vertex 7.481515e-01 3.142196e+00 4.143483e-02
   endloop
 endfacet
 facet normal 8.660254e-01 0.000000e+00 5.000000e-01
   outer loop
     vertex 8.515690e-01 2.485407e+00 1.011429e-01
     vertex 8.511523e-01 3.142196e+00 1.018646e-01
     vertex 8.511523e-01 2.485407e+00 1.018646e-01
   endloop
 endfacet
 facet normal 8.660254e-01 -0.000000e+00 5.000000e-01
   outer loop
     vertex 8.515690e-01 2.485407e+00 1.011429e-01
     vertex 8.515690e-01 3.142196e+00 1.011429e-01
     vertex 8.511523e-01 3.142196e+00 1.018646e-01
   endloop
 endfacet
 facet normal 5.000000e-01 0.000000e+00 -8.660254e-01
   outer loop
     vertex 8.515690e-01 2.485407e+00 1.011429e-01
     vertex 7.481515e-01 3.142196e+00 4.143483e-02
     vertex 8.515690e-01 3.142196e+00 1.011429e-01
   endloop
 endfacet
 facet normal 5.000000e-01 -5.861202e-16 -8.660254e-01
   outer loop
     vertex 8.515690e-01 2.485407e+00 1.011429e-01
     vertex 7.481515e-01 2.485407e+00 4.143483e-02
     vertex 7.481515e-01 3.142196e+00 4.143483e-02
   endloop
 endfacet
 facet normal -5.000000e-01 0.000000e+00 8.660254e-01
   outer loop
     vertex 8.511523e-01 2.485407e+00 1.018646e-01
     vertex 8.511523e-01 3.142196e+00 1.018646e-01
     vertex 7.477348e-01 3.142196e+00 4.215653e-02
   endloop
 endfacet
 facet normal -5.000000e-01 0.000000e+00 8.660254e-01
   outer loop
     vertex 8.511523e-01 2.485407e+00 1.018646e-01
     vertex 7.477348e-01 3.142196e+00 4.215653e-02
     vertex 7.477348e-01 2.485407e+00 4.215653e-02
   endloop
 endfacet
 facet normal 0.000000e+00 1.000000e+00 0.000000e+00
   outer loop
     vertex 8.511523e-01 3.142196e+00 1.018646e-01
     vertex 7.481515e-01 3.142196e+00 4.143483e-02
     vertex 7.477348e-01 3.142196e+00 4.215653e-02
   endloop
 endfacet
 facet normal 0.000000e+00 1.000000e+00 0.000000e+00
   outer loop
     vertex 8.511523e-01 3.142196e+00 1.018646e-01
     vertex 8.515690e-01 3.142196e+00 1.011429e-01
     vertex 7.481515e-01 3.142196e+00 4.143483e-02
   endloop
 endfacet
 facet normal 0.000000e+00 -1.000000e+00 0.000000e+00
   outer loop
     vertex 8.511523e-01 2.485407e+00 1.018646e-01
     vertex 7.477348e-01 2.485407e+00 4.215653e-02
     vertex 7.481515e-01 2.485407e+00 4.143483e-02
   endloop
 endfacet
 facet normal 0.000000e+00 -1.000000e+00 -0.000000e+00
   outer loop
     vertex 8.511523e-01 2.485407e+00 1.018646e-01
     vertex 7.481515e-01 2.485407e+00 4.143483e-02
     vertex 8.515690e-01 2.485407e+00 1.011429e-01
   endloop
 endfacet
 facet normal -8.660254e-01 0.000000e+00 -5.000000e-01
   outer loop
     vertex 7.477348e-01 1.792793e+00 4.215653e-02
     vertex 7.477348e-01 2.449582e+00 4.215653e-02
     vertex 7.481515e-01 2.449582e+00 4.143483e-02
   endloop
 endfacet
 facet normal -8.660254e-01 0.000000e+00 -5.000000e-01
   outer loop
     vertex 7.481515e-01 1.792793e+00 4.143483e-02
     vertex 7.477348e-01 1.792793e+00 4.215653e-02
     vertex 7.481515e-01 2.449582e+00 4.143483e-02
   endloop
 endfacet
 facet normal 8.660254e-01 -0.000000e+00 5.000000e-01
   outer loop
     vertex 8.511523e-01 1.792793e+00 1.018646e-01
     vertex 8.515690e-01 2.449582e+00 1.011429e-01
     vertex 8.511523e-01 2.449582e+00 1.018646e-01
   endloop
 endfacet
 facet normal 8.660254e-01 3.380759e-16 5.000000e-01
   outer loop
     vertex 8.515690e-01 1.792793e+00 1.011429e-01
     vertex 8.515690e-01 2.449582e+00 1.011429e-01
     vertex 8.511523e-01 1.792793e+00 1.018646e-01
   endloop
 endfacet
 facet normal 5.000000e-01 0.000000e+00 -8.660254e-01
   outer loop
     vertex 7.481515e-01 1.792793e+00 4.143483e-02
     vertex 7.481515e-01 2.449582e+00 4.143483e-02
     vertex 8.515690e-01 2.449582e+00 1.011429e-01
   endloop
 endfacet
 facet normal 5.000000e-01 -5.855646e-16 -8.660254e-01
   outer loop
     vertex 8.515690e-01 1.792793e+00 1.011429e-01
     vertex 7.481515e-01 1.792793e+00 4.143483e-02
     vertex 8.515690e-01 2.449582e+00 1.011429e-01
   endloop
 endfacet
 facet normal -5.000000e-01 0.000000e+00 8.660254e-01
   outer loop
     vertex 7.477348e-01 1.792793e+00 4.215653e-02
     vertex 8.511523e-01 2.449582e+00 1.018646e-01
     vertex 7.477348e-01 2.449582e+00 4.215653e-02
   endloop
 endfacet
 facet normal -5.000000e-01 0.000000e+00 8.660254e-01
   outer loop
     vertex 8.511523e-01 1.792793e+00 1.018646e-01
     vertex 8.511523e-01 2.449582e+00 1.018646e-01
     vertex 7.477348e-01 1.792793e+00 4.215653e-02
   endloop
 endfacet
 facet normal 0.000000e+00 1.000000e+00 0.000000e+00
   outer loop
     vertex 8.511523e-01 2.449582e+00 1.018646e-01
     vertex 7.481515e-01 2.449582e+00 4.143483e-02
     vertex 7.477348e-01 2.449582e+00 4.215653e-02
   endloop
 endfacet
 facet normal 0.000000e+00 1.000000e+00 0.000000e+00
   outer loop
     vertex 8.511523e-01 2.449582e+00 1.018646e-01
     vertex 8.515690e-01 2.449582e+00 1.011429e-01
     vertex 7.481515e-01 2.449582e+00 4.143483e-02
   endloop
 endfacet
 facet normal 0.000000e+00 -1.000000e+00 0.000000e+00
   outer loop
     vertex 8.511523e-01 1.792793e+00 1.018646e-01
     vertex 7.477348e-01 1.792793e+00 4.215653e-02
     vertex 7.481515e-01 1.792793e+00 4.143483e-02
   endloop
 endfacet
 facet normal 0.000000e+00 -1.000000e+00 -0.000000e+00
   outer loop
     vertex 8.511523e-01 1.792793e+00 1.018646e-01
     vertex 7.481515e-01 1.792793e+00 4.143483e-02
     vertex 8.515690e-01 1.792793e+00 1.011429e-01
   endloop
 endfacet
 facet normal -8.660254e-01 0.000000e+00 -5.000000e-01
   outer loop
     vertex 9.869839e-01 2.485407e+00 4.143483e-02
     vertex 9.865673e-01 2.485407e+00 4.215653e-02
     vertex 9.865673e-01 3.142196e+00 4.215653e-02
   endloop
 endfacet
 facet normal -8.660254e-01 0.000000e+00 -5.000000e-01
   outer loop
     vertex 9.869839e-01 2.485407e+00 4.143483e-02
     vertex 9.865673e-01 3.142196e+00 4.215653e-02
     vertex 9.869839e-01 3.142196e+00 4.143483e-02
   endloop
 endfacet
 facet normal 8.660254e-01 0.000000e+00 5.000000e-01
   outer loop
     vertex 1.090401e+00 2.485407e+00 1.011429e-01
     vertex 1.089985e+00 3.142196e+00 1.018646e-01
     vertex 1.089985e+00 2.485407e+00 1.018646e-01
   endloop
 endfacet
 facet normal 8.660254e-01 -0.000000e+00 5.000000e-01
   outer loop
     vertex 1.090401e+00 2.485407e+00 1.011429e-01
     vertex 1.090401e+00 3.142196e+00 1.011429e-01
     vertex 1.089985e+00 3.142196e+00 1.018646e-01
   endloop
 endfacet
 facet normal 5.000000e-01 0.000000e+00 -8.660254e-01
   outer loop
     vertex 1.090401e+00 2.485407e+00 1.011429e-01
     vertex 9.869839e-01 3.142196e+00 4.143483e-02
     vertex 1.090401e+00 3.142196e+00 1.011429e-01
   endloop
 endfacet
 facet normal 5.000000e-01 0.000000e+00 -8.660254e-01
   outer loop
     vertex 1.090401e+00 2.485407e+00 1.011429e-01
     vertex 9.869839e-01 2.485407e+00 4.143483e-02
     vertex 9.869839e-01 3.142196e+00 4.143483e-02
   endloop
 endfacet
 facet normal -5.000000e-01 0.000000e+00 8.660254e-01
   outer loop
     vertex 1.089985e+00 2.485407e+00 1.018646e-01
     vertex 1.089985e+00 3.142196e+00 1.018646e-01
     vertex 9.865673e-01 3.142196e+00 4.215653e-02
   endloop
 endfacet
 facet normal -5.000000e-01 0.000000e+00 8.660254e-01
   outer loop
     vertex 1.089985e+00 2.485407e+00 1.018646e-01
     vertex 9.865673e-01 3.142196e+00 4.215653e-02
     vertex 9.865673e-01 2.485407e+00 4.215653e-02
   endloop
 endfacet
 facet normal 0.000000e+00 1.000000e+00 0.000000e+00
   outer loop
     vertex 1.089985e+00 3.142196e+00 1.018646e-01
     vertex 9.869839e-01 3.142196e+00 4.143483e-02
     vertex 9.865673e-01 3.142196e+00 4.215653e-02
   endloop
 endfacet
 facet normal 0.000000e+00 1.000000e+00 0.000000e+00
   outer loop
     vertex 1.089985e+00 3.142196e+00 1.018646e-01
     vertex 1.090401e+00 3.142196e+00 1.011429e-01
     vertex 9.869839e-01 3.142196e+00 4.143483e-02
   endloop
 endfacet
 facet normal 0.000000e+00 -1.000000e+00 0.000000e+00
   outer loop
     vertex 1.089985e+00 2.485407e+00 1.018646e-01
     vertex 9.865673e-01 2.485407e+00 4.215653e-02
     vertex 9.869839e-01 2.485407e+00 4.143483e-02
   endloop
 endfacet
 facet normal 0.000000e+00 -1.000000e+00 -0.000000e+00
   outer loop
     vertex 1.089985e+00 2.485407e+00 1.018646e-01
     vertex 9.869839e-01 2.485407e+00 4.143483e-02
     vertex 1.090401e+00 2.485407e+00 1.011429e-01
   endloop
 endfacet
 facet normal -8.660254e-01 0.000000e+00 -5.000000e-01
   outer loop
     vertex 9.865673e-01 1.792793e+00 4.215653e-02
     vertex 9.865673e-01 2.449582e+00 4.215653e-02
     vertex 9.869839e-01 2.449582e+00 4.143483e-02
   endloop
 endfacet
 facet normal -8.660254e-01 0.000000e+00 -5.000000e-01
   outer loop
     vertex 9.869839e-01 1.792793e+00 4.143483e-02
     vertex 9.865673e-01 1.792793e+00 4.215653e-02
     vertex 9.869839e-01 2.449582e+00 4.143483e-02
   endloop
 endfacet
 facet normal 8.660254e-01 6.761517e-16 5.000000e-01
   outer loop
     vertex 1.089985e+00 1.792793e+00 1.018646e-01
     vertex 1.090401e+00 2.449582e+00 1.011429e-01
     vertex 1.089985e+00 2.449582e+00 1.018646e-01
   endloop
 endfacet
 facet normal 8.660254e-01 -0.000000e+00 5.000000e-01
   outer loop
     vertex 1.090401e+00 1.792793e+00 1.011429e-01
     vertex 1.090401e+00 2.449582e+00 1.011429e-01
     vertex 1.089985e+00 1.792793e+00 1.018646e-01
   endloop
 endfacet
 facet normal 5.000000e-01 0.000000e+00 -8.660254e-01
   outer loop
     vertex 9.869839e-01 1.792793e+00 4.143483e-02
     vertex 9.869839e-01 2.449582e+00 4.143483e-02
     vertex 1.090401e+00 2.449582e+00 1.011429e-01
   endloop
 endfacet
 facet normal 5.000000e-01 0.000000e+00 -8.660254e-01
   outer loop
     vertex 1.090401e+00 1.792793e+00 1.011429e-01
     vertex 9.869839e-01 1.792793e+00 4.143483e-02
     vertex 1.090401e+00 2.449582e+00 1.011429e-01
   endloop
 endfacet
 facet normal -5.000000e-01 0.000000e+00 8.660254e-01
   outer loop
     vertex 9.865673e-01 1.792793e+00 4.215653e-02
     vertex 1.089985e+00 2.449582e+00 1.018646e-01
     vertex 9.865673e-01 2.449582e+00 4.215653e-02
   endloop
 endfacet
 facet normal -5.000000e-01 1.171129e-15 8.660254e-01
   outer loop
     vertex 1.089985e+00 1.792793e+00 1.018646e-01
     vertex 1.089985e+00 2.449582e+00 1.018646e-01
     vertex 9.865673e-01 1.792793e+00 4.215653e-02
   endloop
 endfacet
 facet normal 0.000000e+00 1.000000e+00 0.000000e+00
   outer loop
     vertex 1.089985e+00 2.449582e+00 1.018646e-01
     vertex 9.869839e-01 2.449582e+00 4.143483e-02
     vertex 9.865673e-01 2.449582e+00 4.215653e-02
   endloop
 endfacet
 facet normal 0.000000e+00 1.000000e+00 0.000000e+00
   outer loop
     vertex 1.089985e+00 2.449582e+00 1.018646e-01
     vertex 1.090401e+00 2.449582e+00 1.011429e-01
     vertex 9.869839e-01 2.449582e+00 4.143483e-02
   endloop
 endfacet
 facet normal 0.000000e+00 -1.000000e+00 0.000000e+00
   outer loop
     vertex 1.089985e+00 1.792793e+00 1.018646e-01
     vertex 9.865673e-01 1.792793e+00 4.215653e-02
     vertex 9.869839e-01 1.792793e+00 4.143483e-02
   endloop
 endfacet
 facet normal 0.000000e+00 -1.000000e+00 -0.000000e+00
   outer loop
     vertex 1.089985e+00 1.792793e+00 1.018646e-01
     vertex 9.869839e-01 1.792793e+00 4.143483e-02
     vertex 1.090401e+00 1.792793e+00 1.011429e-01
   endloop
 endfacet
 facet normal -8.660254e-01 0.000000e+00 -5.000000e-01
   outer loop
     vertex 1.225816e+00 2.485407e+00 4.143483e-02
     vertex 1.225400e+00 2.485407e+00 4.215653e-02
     vertex 1.225400e+00 3.142196e+00 4.215653e-02
   endloop
 endfacet
 facet normal -8.660254e-01 0.000000e+00 -5.000000e-01
   outer loop
     vertex 1.225816e+00 2.485407e+00 4.143483e-02
     vertex 1.225400e+00 3.142196e+00 4.215653e-02
     vertex 1.225816e+00 3.142196e+00 4.143483e-02
   endloop
 endfacet
 facet normal 8.660254e-01 0.000000e+00 5.000000e-01
   outer loop
     vertex 1.329234e+00 2.485407e+00 1.011429e-01
     vertex 1.328817e+00 3.142196e+00 1.018646e-01
     vertex 1.328817e+00 2.485407e+00 1.018646e-01
   endloop
 endfacet
 facet normal 8.660254e-01 -0.000000e+00 5.000000e-01
   outer loop
     vertex 1.329234e+00 2.485407e+00 1.011429e-01
     vertex 1.329234e+00 3.142196e+00 1.011429e-01
     vertex 1.328817e+00 3.142196e+00 1.018646e-01
   endloop
 endfacet
 facet normal 5.000000e-01 0.000000e+00 -8.660254e-01
   outer loop
     vertex 1.329234e+00 2.485407e+00 1.011429e-01
     vertex 1.225816e+00 3.142196e+00 4.143483e-02
     vertex 1.329234e+00 3.142196e+00 1.011429e-01
   endloop
 endfacet
 facet normal 5.000000e-01 0.000000e+00 -8.660254e-01
   outer loop
     vertex 1.329234e+00 2.485407e+00 1.011429e-01
     vertex 1.225816e+00 2.485407e+00 4.143483e-02
     vertex 1.225816e+00 3.142196e+00 4.143483e-02
   endloop
 endfacet
 facet normal -5.000000e-01 0.000000e+00 8.660254e-01
   outer loop
     vertex 1.328817e+00 2.485407e+00 1.018646e-01
     vertex 1.328817e+00 3.142196e+00 1.018646e-01
     vertex 1.225400e+00 3.142196e+00 4.215653e-02
   endloop
 endfacet
 facet normal -5.000000e-01 0.000000e+00 8.660254e-01
   outer loop
     vertex 1.328817e+00 2.485407e+00 1.018646e-01
     vertex 1.225400e+00 3.142196e+00 4.215653e-02
     vertex 1.225400e+00 2.485407e+00 4.215653e-02
   endloop
 endfacet
 facet normal 0.000000e+00 1.000000e+00 0.000000e+00
   outer loop
     vertex 1.328817e+00 3.142196e+00 1.018646e-01
     vertex 1.225816e+00 3.142196e+00 4.143483e-02
     vertex 1.225400e+00 3.142196e+00 4.215653e-02
   endloop
 endfacet
 facet normal 0.000000e+00 1.000000e+00 0.000000e+00
   outer loop
     vertex 1.328817e+00 3.142196e+00 1.018646e-01
     vertex 1.329234e+00 3.142196e+00 1.011429e-01
     vertex 1.225816e+00 3.142196e+00 4.143483e-02
   endloop
 endfacet
 facet normal 0.000000e+00 -1.000000e+00 0.000000e+00
   outer loop
     vertex 1.328817e+00 2.485407e+00 1.018646e-01
     vertex 1.225400e+00 2.485407e+00 4.215653e-02
     vertex 1.225816e+00 2.485407e+00 4.143483e-02
   endloop
 endfacet
 facet normal 0.000000e+00 -1.000000e+00 -0.000000e+00
   outer loop
     vertex 1.328817e+00 2.485407e+00 1.018646e-01
     vertex 1.225816e+00 2.485407e+00 4.143483e-02
     vertex 1.329234e+00 2.485407e+00 1.011429e-01
   endloop
 endfacet
 facet normal -8.660254e-01 0.000000e+00 -5.000000e-01
   outer loop
     vertex 1.225400e+00 1.792793e+00 4.215653e-02
     vertex 1.225400e+00 2.449582e+00 4.215653e-02
     vertex 1.225816e+00 2.449582e+00 4.143483e-02
   endloop
 endfacet
 facet normal -8.660254e-01 0.000000e+00 -5.000000e-01
   outer loop
     vertex 1.225816e+00 1.792793e+00 4.143483e-02
     vertex 1.225400e+00 1.792793e+00 4.215653e-02
     vertex 1.225816e+00 2.449582e+00 4.143483e-02
   endloop
 endfacet
 facet normal 8.660254e-01 -0.000000e+00 5.000000e-01
   outer loop
     vertex 1.328817e+00 1.792793e+00 1.018646e-01
     vertex 1.329234e+00 2.449582e+00 1.011429e-01
     vertex 1.328817e+00 2.449582e+00 1.018646e-01
   endloop
 endfacet
 facet normal 8.660254e-01 -0.000000e+00 5.000000e-01
   outer loop
     vertex 1.329234e+00 1.792793e+00 1.011429e-01
     vertex 1.329234e+00 2.449582e+00 1.011429e-01
     vertex 1.328817e+00 1.792793e+00 1.018646e-01
   endloop
 endfacet
 facet normal 5.000000e-01 0.000000e+00 -8.660254e-01
   outer loop
     vertex 1.225816e+00 1.792793e+00 4.143483e-02
     vertex 1.225816e+00 2.449582e+00 4.143483e-02
     vertex 1.329234e+00 2.449582e+00 1.011429e-01
   endloop
 endfacet
 facet normal 5.000000e-01 0.000000e+00 -8.660254e-01
   outer loop
     vertex 1.329234e+00 1.792793e+00 1.011429e-01
     vertex 1.225816e+00 1.792793e+00 4.143483e-02
     vertex 1.329234e+00 2.449582e+00 1.011429e-01
   endloop
 endfacet
 facet normal -5.000000e-01 0.000000e+00 8.660254e-01
   outer loop
     vertex 1.225400e+00 1.792793e+00 4.215653e-02
     vertex 1.328817e+00 2.449582e+00 1.018646e-01
     vertex 1.225400e+00 2.449582e+00 4.215653e-02
   endloop
 endfacet
 facet normal -5.000000e-01 0.000000e+00 8.660254e-01
   outer loop
     vertex 1.328817e+00 1.792793e+00 1.018646e-01
     vertex 1.328817e+00 2.449582e+00 1.018646e-01
     vertex 1.225400e+00 1.792793e+00 4.215653e-02
   endloop
 endfacet
 facet normal 0.000000e+00 1.000000e+00 0.000000e+00
   outer loop
     vertex 1.328817e+00 2.449582e+00 1.018646e-01
     vertex 1.225816e+00 2.449582e+00 4.143483e-02
     vertex 1.225400e+00 2.449582e+00 4.215653e-02
   endloop
 endfacet
 facet normal 0.000000e+00 1.000000e+00 0.000000e+00
   outer loop
     vertex 1.328817e+00 2.449582e+00 1.018646e-01
     vertex 1.329234e+00 2.449582e+00 1.011429e-01
     vertex 1.225816e+00 2.449582e+00 4.143483e-02
   endloop
 endfacet
 facet normal 0.000000e+00 -1.000000e+00 0.000000e+00
   outer loop
     vertex 1.328817e+00 1.792793e+00 1.018646e-01
     vertex 1.225400e+00 1.792793e+00 4.215653e-02
     vertex 1.225816e+00 1.792793e+00 4.143483e-02
   endloop
 endfacet
 facet normal 0.000000e+00 -1.000000e+00 -0.000000e+00
   outer loop
     vertex 1.328817e+00 1.792793e+00 1.018646e-01
     vertex 1.225816e+00 1.792793e+00 4.143483e-02
     vertex 1.329234e+00 1.792793e+00 1.011429e-01
   endloop
 endfacet
 facet normal -8.660254e-01 0.000000e+00 -5.000000e-01
   outer loop
     vertex 1.464649e+00 2.485407e+00 4.143483e-02
     vertex 1.464232e+00 2.485407e+00 4.215653e-02
     vertex 1.464232e+00 3.142196e+00 4.215653e-02
   endloop
 endfacet
 facet normal -8.660254e-01 0.000000e+00 -5.000000e-01
   outer loop
     vertex 1.464649e+00 2.485407e+00 4.143483e-02
     vertex 1.464232e+00 3.142196e+00 4.215653e-02
     vertex 1.464649e+00 3.142196e+00 4.143483e-02
   endloop
 endfacet
 facet normal 8.660254e-01 0.000000e+00 5.000000e-01
   outer loop
     vertex 1.568066e+00 2.485407e+00 1.011429e-01
     vertex 1.567650e+00 3.142196e+00 1.018646e-01
     vertex 1.567650e+00 2.485407e+00 1.018646e-01
   endloop
 endfacet
 facet normal 8.660254e-01 -0.000000e+00 5.000000e-01
   outer loop
     vertex 1.568066e+00 2.485407e+00 1.011429e-01
     vertex 1.568066e+00 3.142196e+00 1.011429e-01
     vertex 1.567650e+00 3.142196e+00 1.018646e-01
   endloop
 endfacet
 facet normal 5.000000e-01 0.000000e+00 -8.660254e-01
   outer loop
     vertex 1.568066e+00 2.485407e+00 1.011429e-01
     vertex 1.464649e+00 3.142196e+00 4.143483e-02
     vertex 1.568066e+00 3.142196e+00 1.011429e-01
   endloop
 endfacet
 facet normal 5.000000e-01 0.000000e+00 -8.660254e-01
   outer loop
     vertex 1.568066e+00 2.485407e+00 1.011429e-01
     vertex 1.464649e+00 2.485407e+00 4.143483e-02
     vertex 1.464649e+00 3.142196e+00 4.143483e-02
   endloop
 endfacet
 facet normal -5.000000e-01 0.000000e+00 8.660254e-01
   outer loop
     vertex 1.567650e+00 2.485407e+00 1.018646e-01
     vertex 1.567650e+00 3.142196e+00 1.018646e-01
     vertex 1.464232e+00 3.142196e+00 4.215653e-02
   endloop
 endfacet
 facet normal -5.000000e-01 0.000000e+00 8.660254e-01
   outer loop
     vertex 1.567650e+00 2.485407e+00 1.018646e-01
     vertex 1.464232e+00 3.142196e+00 4.215653e-02
     vertex 1.464232e+00 2.485407e+00 4.215653e-02
   endloop
 endfacet
 facet normal 0.000000e+00 1.000000e+00 0.000000e+00
   outer loop
     vertex 1.567650e+00 3.142196e+00 1.018646e-01
     vertex 1.464649e+00 3.142196e+00 4.143483e-02
     vertex 1.464232e+00 3.142196e+00 4.215653e-02
   endloop
 endfacet
 facet normal 0.000000e+00 1.000000e+00 0.000000e+00
   outer loop
     vertex 1.567650e+00 3.142196e+00 1.018646e-01
     vertex 1.568066e+00 3.142196e+00 1.011429e-01
     vertex 1.464649e+00 3.142196e+00 4.143483e-02
   endloop
 endfacet
 facet normal 0.000000e+00 -1.000000e+00 0.000000e+00
   outer loop
     vertex 1.567650e+00 2.485407e+00 1.018646e-01
     vertex 1.464232e+00 2.485407e+00 4.215653e-02
     vertex 1.464649e+00 2.485407e+00 4.143483e-02
   endloop
 endfacet
 facet normal 0.000000e+00 -1.000000e+00 -0.000000e+00
   outer loop
     vertex 1.567650e+00 2.485407e+00 1.018646e-01
     vertex 1.464649e+00 2.485407e+00 4.143483e-02
     vertex 1.568066e+00 2.485407e+00 1.011429e-01
   endloop
 endfacet
 facet normal -8.660254e-01 0.000000e+00 -5.000000e-01
   outer loop
     vertex 1.464232e+00 1.792793e+00 4.215653e-02
     vertex 1.464232e+00 2.449582e+00 4.215653e-02
     vertex 1.464649e+00 2.449582e+00 4.143483e-02
   endloop
 endfacet
 facet normal -8.660254e-01 0.000000e+00 -5.000000e-01
   outer loop
     vertex 1.464649e+00 1.792793e+00 4.143483e-02
     vertex 1.464232e+00 1.792793e+00 4.215653e-02
     vertex 1.464649e+00 2.449582e+00 4.143483e-02
   endloop
 endfacet
 facet normal 8.660254e-01 -0.000000e+00 5.000000e-01
   outer loop
     vertex 1.567650e+00 1.792793e+00 1.018646e-01
     vertex 1.568066e+00 2.449582e+00 1.011429e-01
     vertex 1.567650e+00 2.449582e+00 1.018646e-01
   endloop
 endfacet
 facet normal 8.660254e-01 -0.000000e+00 5.000000e-01
   outer loop
     vertex 1.568066e+00 1.792793e+00 1.011429e-01
     vertex 1.568066e+00 2.449582e+00 1.011429e-01
     vertex 1.567650e+00 1.792793e+00 1.018646e-01
   endloop
 endfacet
 facet normal 5.000000e-01 0.000000e+00 -8.660254e-01
   outer loop
     vertex 1.464649e+00 1.792793e+00 4.143483e-02
     vertex 1.464649e+00 2.449582e+00 4.143483e-02
     vertex 1.568066e+00 2.449582e+00 1.011429e-01
   endloop
 endfacet
 facet normal 5.000000e-01 0.000000e+00 -8.660254e-01
   outer loop
     vertex 1.568066e+00 1.792793e+00 1.011429e-01
     vertex 1.464649e+00 1.792793e+00 4.143483e-02
     vertex 1.568066e+00 2.449582e+00 1.011429e-01
   endloop
 endfacet
 facet normal -5.000000e-01 0.000000e+00 8.660254e-01
   outer loop
     vertex 1.464232e+00 1.792793e+00 4.215653e-02
     vertex 1.567650e+00 2.449582e+00 1.018646e-01
     vertex 1.464232e+00 2.449582e+00 4.215653e-02
   endloop
 endfacet
 facet normal -5.000000e-01 0.000000e+00 8.660254e-01
   outer loop
     vertex 1.567650e+00 1.792793e+00 1.018646e-01
     vertex 1.567650e+00 2.449582e+00 1.018646e-01
     vertex 1.464232e+00 1.792793e+00 4.215653e-02
   endloop
 endfacet
 facet normal 0.000000e+00 1.000000e+00 0.000000e+00
   outer loop
     vertex 1.567650e+00 2.449582e+00 1.018646e-01
     vertex 1.464649e+00 2.449582e+00 4.143483e-02
     vertex 1.464232e+00 2.449582e+00 4.215653e-02
   endloop
 endfacet
 facet normal 0.000000e+00 1.000000e+00 0.000000e+00
   outer loop
     vertex 1.567650e+00 2.449582e+00 1.018646e-01
     vertex 1.568066e+00 2.449582e+00 1.011429e-01
     vertex 1.464649e+00 2.449582e+00 4.143483e-02
   endloop
 endfacet
 facet normal 0.000000e+00 -1.000000e+00 0.000000e+00
   outer loop
     vertex 1.567650e+00 1.792793e+00 1.018646e-01
     vertex 1.464232e+00 1.792793e+00 4.215653e-02
     vertex 1.464649e+00 1.792793e+00 4.143483e-02
   endloop
 endfacet
 facet normal 0.000000e+00 -1.000000e+00 -0.000000e+00
   outer loop
     vertex 1.567650e+00 1.792793e+00 1.018646e-01
     vertex 1.464649e+00 1.792793e+00 4.143483e-02
     vertex 1.568066e+00 1.792793e+00 1.011429e-01
   endloop
 endfacet
 facet normal -8.660254e-01 0.000000e+00 -5.000000e-01
   outer loop
     vertex 1.703481e+00 2.485407e+00 4.143483e-02
     vertex 1.703065e+00 2.485407e+00 4.215653e-02
     vertex 1.703065e+00 3.142196e+00 4.215653e-02
   endloop
 endfacet
 facet normal -8.660254e-01 0.000000e+00 -5.000000e-01
   outer loop
     vertex 1.703481e+00 2.485407e+00 4.143483e-02
     vertex 1.703065e+00 3.142196e+00 4.215653e-02
     vertex 1.703481e+00 3.142196e+00 4.143483e-02
   endloop
 endfacet
 facet normal 8.660254e-01 0.000000e+00 5.000000e-01
   outer loop
     vertex 1.806899e+00 2.485407e+00 1.011429e-01
     vertex 1.806482e+00 3.142196e+00 1.018646e-01
     vertex 1.806482e+00 2.485407e+00 1.018646e-01
   endloop
 endfacet
 facet normal 8.660254e-01 -0.000000e+00 5.000000e-01
   outer loop
     vertex 1.806899e+00 2.485407e+00 1.011429e-01
     vertex 1.806899e+00 3.142196e+00 1.011429e-01
     vertex 1.806482e+00 3.142196e+00 1.018646e-01
   endloop
 endfacet
 facet normal 5.000000e-01 0.000000e+00 -8.660254e-01
   outer loop
     vertex 1.806899e+00 2.485407e+00 1.011429e-01
     vertex 1.703481e+00 3.142196e+00 4.143483e-02
     vertex 1.806899e+00 3.142196e+00 1.011429e-01
   endloop
 endfacet
 facet normal 5.000000e-01 0.000000e+00 -8.660254e-01
   outer loop
     vertex 1.806899e+00 2.485407e+00 1.011429e-01
     vertex 1.703481e+00 2.485407e+00 4.143483e-02
     vertex 1.703481e+00 3.142196e+00 4.143483e-02
   endloop
 endfacet
 facet normal -5.000000e-01 0.000000e+00 8.660254e-01
   outer loop
     vertex 1.806482e+00 2.485407e+00 1.018646e-01
     vertex 1.806482e+00 3.142196e+00 1.018646e-01
     vertex 1.703065e+00 3.142196e+00 4.215653e-02
   endloop
 endfacet
 facet normal -5.000000e-01 0.000000e+00 8.660254e-01
   outer loop
     vertex 1.806482e+00 2.485407e+00 1.018646e-01
     vertex 1.703065e+00 3.142196e+00 4.215653e-02
     vertex 1.703065e+00 2.485407e+00 4.215653e-02
   endloop
 endfacet
 facet normal 0.000000e+00 1.000000e+00 0.000000e+00
   outer loop
     vertex 1.806899e+00 3.142196e+00 1.011429e-01
     vertex 1.703481e+00 3.142196e+00 4.143483e-02
     vertex 1.703065e+00 3.142196e+00 4.215653e-02
   endloop
 endfacet
 facet normal 0.000000e+00 1.000000e+00 0.000000e+00
   outer loop
     vertex 1.806482e+00 3.142196e+00 1.018646e-01
     vertex 1.806899e+00 3.142196e+00 1.011429e-01
     vertex 1.703065e+00 3.142196e+00 4.215653e-02
   endloop
 endfacet
 facet normal 0.000000e+00 -1.000000e+00 0.000000e+00
   outer loop
     vertex 1.806899e+00 2.485407e+00 1.011429e-01
     vertex 1.703065e+00 2.485407e+00 4.215653e-02
     vertex 1.703481e+00 2.485407e+00 4.143483e-02
   endloop
 endfacet
 facet normal 0.000000e+00 -1.000000e+00 -0.000000e+00
   outer loop
     vertex 1.806482e+00 2.485407e+00 1.018646e-01
     vertex 1.703065e+00 2.485407e+00 4.215653e-02
     vertex 1.806899e+00 2.485407e+00 1.011429e-01
   endloop
 endfacet
 facet normal -8.660254e-01 0.000000e+00 -5.000000e-01
   outer loop
     vertex 1.703065e+00 1.792793e+00 4.215653e-02
     vertex 1.703065e+00 2.449582e+00 4.215653e-02
     vertex 1.703481e+00 2.449582e+00 4.143483e-02
   endloop
 endfacet
 facet normal -8.660254e-01 0.000000e+00 -5.000000e-01
   outer loop
     vertex 1.703481e+00 1.792793e+00 4.143483e-02
     vertex 1.703065e+00 1.792793e+00 4.215653e-02
     vertex 1.703481e+00 2.449582e+00 4.143483e-02
   endloop
 endfacet
 facet normal 8.660254e-01 -0.000000e+00 5.000000e-01
   outer loop
     vertex 1.806482e+00 1.792793e+00 1.018646e-01
     vertex 1.806899e+00 2.449582e+00 1.011429e-01
     vertex 1.806482e+00 2.449582e+00 1.018646e-01
   endloop
 endfacet
 facet normal 8.660254e-01 -0.000000e+00 5.000000e-01
   outer loop
     vertex 1.806899e+00 1.792793e+00 1.011429e-01
     vertex 1.806899e+00 2.449582e+00 1.011429e-01
     vertex 1.806482e+00 1.792793e+00 1.018646e-01
   endloop
 endfacet
 facet normal 5.000000e-01 0.000000e+00 -8.660254e-01
   outer loop
     vertex 1.806899e+00 1.792793e+00 1.011429e-01
     vertex 1.703481e+00 2.449582e+00 4.143483e-02
     vertex 1.806899e+00 2.449582e+00 1.011429e-01
   endloop
 endfacet
 facet normal 5.000000e-01 0.000000e+00 -8.660254e-01
   outer loop
     vertex 1.806899e+00 1.792793e+00 1.011429e-01
     vertex 1.703481e+00 1.792793e+00 4.143483e-02
     vertex 1.703481e+00 2.449582e+00 4.143483e-02
   endloop
 endfacet
 facet normal -5.000000e-01 0.000000e+00 8.660254e-01
   outer loop
     vertex 1.806482e+00 1.792793e+00 1.018646e-01
     vertex 1.806482e+00 2.449582e+00 1.018646e-01
     vertex 1.703065e+00 2.449582e+00 4.215653e-02
   endloop
 endfacet
 facet normal -5.000000e-01 0.000000e+00 8.660254e-01
   outer loop
     vertex 1.806482e+00 1.792793e+00 1.018646e-01
     vertex 1.703065e+00 2.449582e+00 4.215653e-02
     vertex 1.703065e+00 1.792793e+00 4.215653e-02
   endloop
 endfacet
 facet normal 0.000000e+00 1.000000e+00 0.000000e+00
   outer loop
     vertex 1.806899e+00 2.449582e+00 1.011429e-01
     vertex 1.703481e+00 2.449582e+00 4.143483e-02
     vertex 1.703065e+00 2.449582e+00 4.215653e-02
   endloop
 endfacet
 facet normal 0.000000e+00 1.000000e+00 0.000000e+00
   outer loop
     vertex 1.806482e+00 2.449582e+00 1.018646e-01
     vertex 1.806899e+00 2.449582e+00 1.011429e-01
     vertex 1.703065e+00 2.449582e+00 4.215653e-02
   endloop
 endfacet
 facet normal 0.000000e+00 -1.000000e+00 0.000000e+00
   outer loop
     vertex 1.806899e+00 1.792793e+00 1.011429e-01
     vertex 1.703065e+00 1.792793e+00 4.215653e-02
     vertex 1.703481e+00 1.792793e+00 4.143483e-02
   endloop
 endfacet
 facet normal 0.000000e+00 -1.000000e+00 -0.000000e+00
   outer loop
     vertex 1.806482e+00 1.792793e+00 1.018646e-01
     vertex 1.703065e+00 1.792793e+00 4.215653e-02
     vertex 1.806899e+00 1.792793e+00 1.011429e-01
   endloop
 endfacet
 facet normal -8.660254e-01 0.000000e+00 -5.000000e-01
   outer loop
     vertex 1.942314e+00 2.485407e+00 4.143483e-02
     vertex 1.941897e+00 2.485407e+00 4.215653e-02
     vertex 1.941897e+00 3.142196e+00 4.215653e-02
   endloop
 endfacet
 facet normal -8.660254e-01 0.000000e+00 -5.000000e-01
   outer loop
     vertex 1.942314e+00 2.485407e+00 4.143483e-02
     vertex 1.941897e+00 3.142196e+00 4.215653e-02
     vertex 1.942314e+00 3.142196e+00 4.143483e-02
   endloop
 endfacet
 facet normal 8.660254e-01 0.000000e+00 5.000000e-01
   outer loop
     vertex 2.045731e+00 2.485407e+00 1.011429e-01
     vertex 2.045315e+00 3.142196e+00 1.018646e-01
     vertex 2.045315e+00 2.485407e+00 1.018646e-01
   endloop
 endfacet
 facet normal 8.660254e-01 -0.000000e+00 5.000000e-01
   outer loop
     vertex 2.045731e+00 2.485407e+00 1.011429e-01
     vertex 2.045731e+00 3.142196e+00 1.011429e-01
     vertex 2.045315e+00 3.142196e+00 1.018646e-01
   endloop
 endfacet
 facet normal 5.000000e-01 0.000000e+00 -8.660254e-01
   outer loop
     vertex 2.045731e+00 2.485407e+00 1.011429e-01
     vertex 1.942314e+00 3.142196e+00 4.143483e-02
     vertex 2.045731e+00 3.142196e+00 1.011429e-01
   endloop
 endfacet
 facet normal 5.000000e-01 0.000000e+00 -8.660254e-01
   outer loop
     vertex 2.045731e+00 2.485407e+00 1.011429e-01
     vertex 1.942314e+00 2.485407e+00 4.143483e-02
     vertex 1.942314e+00 3.142196e+00 4.143483e-02
   endloop
 endfacet
 facet normal -5.000000e-01 0.000000e+00 8.660254e-01
   outer loop
     vertex 2.045315e+00 2.485407e+00 1.018646e-01
     vertex 2.045315e+00 3.142196e+00 1.018646e-01
     vertex 1.941897e+00 3.142196e+00 4.215653e-02
   endloop
 endfacet
 facet normal -5.000000e-01 0.000000e+00 8.660254e-01
   outer loop
     vertex 2.045315e+00 2.485407e+00 1.018646e-01
     vertex 1.941897e+00 3.142196e+00 4.215653e-02
     vertex 1.941897e+00 2.485407e+00 4.215653e-02
   endloop
 endfacet
 facet normal 0.000000e+00 1.000000e+00 0.000000e+00
   outer loop
     vertex 2.045731e+00 3.142196e+00 1.011429e-01
     vertex 1.942314e+00 3.142196e+00 4.143483e-02
     vertex 1.941897e+00 3.142196e+00 4.215653e-02
   endloop
 endfacet
 facet normal 0.000000e+00 1.000000e+00 0.000000e+00
   outer loop
     vertex 2.045315e+00 3.142196e+00 1.018646e-01
     vertex 2.045731e+00 3.142196e+00 1.011429e-01
     vertex 1.941897e+00 3.142196e+00 4.215653e-02
   endloop
 endfacet
 facet normal 0.000000e+00 -1.000000e+00 0.000000e+00
   outer loop
     vertex 2.045731e+00 2.485407e+00 1.011429e-01
     vertex 1.941897e+00 2.485407e+00 4.215653e-02
     vertex 1.942314e+00 2.485407e+00 4.143483e-02
   endloop
 endfacet
 facet normal 0.000000e+00 -1.000000e+00 -0.000000e+00
   outer loop
     vertex 2.045315e+00 2.485407e+00 1.018646e-01
     vertex 1.941897e+00 2.485407e+00 4.215653e-02
     vertex 2.045731e+00 2.485407e+00 1.011429e-01
   endloop
 endfacet
 facet normal -8.660254e-01 0.000000e+00 -5.000000e-01
   outer loop
     vertex 1.941897e+00 1.792793e+00 4.215653e-02
     vertex 1.941897e+00 2.449582e+00 4.215653e-02
     vertex 1.942314e+00 2.449582e+00 4.143483e-02
   endloop
 endfacet
 facet normal -8.660254e-01 0.000000e+00 -5.000000e-01
   outer loop
     vertex 1.942314e+00 1.792793e+00 4.143483e-02
     vertex 1.941897e+00 1.792793e+00 4.215653e-02
     vertex 1.942314e+00 2.449582e+00 4.143483e-02
   endloop
 endfacet
 facet normal 8.660254e-01 -0.000000e+00 5.000000e-01
   outer loop
     vertex 2.045315e+00 1.792793e+00 1.018646e-01
     vertex 2.045731e+00 2.449582e+00 1.011429e-01
     vertex 2.045315e+00 2.449582e+00 1.018646e-01
   endloop
 endfacet
 facet normal 8.660254e-01 -0.000000e+00 5.000000e-01
   outer loop
     vertex 2.045731e+00 1.792793e+00 1.011429e-01
     vertex 2.045731e+00 2.449582e+00 1.011429e-01
     vertex 2.045315e+00 1.792793e+00 1.018646e-01
   endloop
 endfacet
 facet normal 5.000000e-01 0.000000e+00 -8.660254e-01
   outer loop
     vertex 2.045731e+00 1.792793e+00 1.011429e-01
     vertex 1.942314e+00 2.449582e+00 4.143483e-02
     vertex 2.045731e+00 2.449582e+00 1.011429e-01
   endloop
 endfacet
 facet normal 5.000000e-01 0.000000e+00 -8.660254e-01
   outer loop
     vertex 2.045731e+00 1.792793e+00 1.011429e-01
     vertex 1.942314e+00 1.792793e+00 4.143483e-02
     vertex 1.942314e+00 2.449582e+00 4.143483e-02
   endloop
 endfacet
 facet normal -5.000000e-01 0.000000e+00 8.660254e-01
   outer loop
     vertex 2.045315e+00 1.792793e+00 1.018646e-01
     vertex 2.045315e+00 2.449582e+00 1.018646e-01
     vertex 1.941897e+00 2.449582e+00 4.215653e-02
   endloop
 endfacet
 facet normal -5.000000e-01 0.000000e+00 8.660254e-01
   outer loop
     vertex 2.045315e+00 1.792793e+00 1.018646e-01
     vertex 1.941897e+00 2.449582e+00 4.215653e-02
     vertex 1.941897e+00 1.792793e+00 4.215653e-02
   endloop
 endfacet
 facet normal 0.000000e+00 1.000000e+00 0.000000e+00
   outer loop
     vertex 2.045731e+00 2.449582e+00 1.011429e-01
     vertex 1.942314e+00 2.449582e+00 4.143483e-02
     vertex 1.941897e+00 2.449582e+00 4.215653e-02
   endloop
 endfacet
 facet normal 0.000000e+00 1.000000e+00 0.000000e+00
   outer loop
     vertex 2.045315e+00 2.449582e+00 1.018646e-01
     vertex 2.045731e+00 2.449582e+00 1.011429e-01
     vertex 1.941897e+00 2.449582e+00 4.215653e-02
   endloop
 endfacet
 facet normal 0.000000e+00 -1.000000e+00 0.000000e+00
   outer loop
     vertex 2.045731e+00 1.792793e+00 1.011429e-01
     vertex 1.941897e+00 1.792793e+00 4.215653e-02
     vertex 1.942314e+00 1.792793e+00 4.143483e-02
   endloop
 endfacet
 facet normal 0.000000e+00 -1.000000e+00 -0.000000e+00
   outer loop
     vertex 2.045315e+00 1.792793e+00 1.018646e-01
     vertex 1.941897e+00 1.792793e+00 4.215653e-02
     vertex 2.045731e+00 1.792793e+00 1.011429e-01
   endloop
 endfacet
endsolid shape
