solid shape, STL ascii file, created with Open CASCADE Technology
 facet normal 7.500000e-01 4.330127e-01 -5.000000e-01
   outer loop
     vertex 2.213253e+00 4.310544e+00 5.141147e-02
     vertex 2.607303e+00 3.628029e+00 5.141147e-02
     vertex 2.606047e+00 3.627304e+00 4.890000e-02
   endloop
 endfacet
 facet normal 7.500000e-01 4.330127e-01 -5.000000e-01
   outer loop
     vertex 2.213253e+00 4.310544e+00 5.141147e-02
     vertex 2.606047e+00 3.627304e+00 4.890000e-02
     vertex 2.211997e+00 4.309819e+00 4.890000e-02
   endloop
 endfacet
 facet normal -7.500000e-01 -4.330127e-01 5.000000e-01
   outer loop
     vertex 2.105778e+00 4.248493e+00 1.230615e-01
     vertex 2.498572e+00 3.565254e+00 1.205500e-01
     vertex 2.499828e+00 3.565979e+00 1.230615e-01
   endloop
 endfacet
 facet normal -7.500000e-01 -4.330127e-01 5.000000e-01
   outer loop
     vertex 2.105778e+00 4.248493e+00 1.230615e-01
     vertex 2.104522e+00 4.247768e+00 1.205500e-01
     vertex 2.498572e+00 3.565254e+00 1.205500e-01
   endloop
 endfacet
 facet normal -5.000000e-01 8.660254e-01 -1.098043e-13
   outer loop
     vertex 2.105778e+00 4.248493e+00 1.230615e-01
     vertex 2.211997e+00 4.309819e+00 4.890000e-02
     vertex 2.104522e+00 4.247768e+00 1.205500e-01
   endloop
 endfacet
 facet normal -5.000000e-01 8.660254e-01 -4.383039e-14
   outer loop
     vertex 2.105778e+00 4.248493e+00 1.230615e-01
     vertex 2.213253e+00 4.310544e+00 5.141147e-02
     vertex 2.211997e+00 4.309819e+00 4.890000e-02
   endloop
 endfacet
 facet normal 5.000000e-01 -8.660254e-01 -5.804918e-15
   outer loop
     vertex 2.499828e+00 3.565979e+00 1.230615e-01
     vertex 2.498572e+00 3.565254e+00 1.205500e-01
     vertex 2.606047e+00 3.627304e+00 4.890000e-02
   endloop
 endfacet
 facet normal 5.000000e-01 -8.660254e-01 4.174323e-14
   outer loop
     vertex 2.499828e+00 3.565979e+00 1.230615e-01
     vertex 2.606047e+00 3.627304e+00 4.890000e-02
     vertex 2.607303e+00 3.628029e+00 5.141147e-02
   endloop
 endfacet
 facet normal -4.330127e-01 -2.500000e-01 -8.660254e-01
   outer loop
     vertex 2.498572e+00 3.565254e+00 1.205500e-01
     vertex 2.211997e+00 4.309819e+00 4.890000e-02
     vertex 2.606047e+00 3.627304e+00 4.890000e-02
   endloop
 endfacet
 facet normal -4.330127e-01 -2.500000e-01 -8.660254e-01
   outer loop
     vertex 2.498572e+00 3.565254e+00 1.205500e-01
     vertex 2.104522e+00 4.247768e+00 1.205500e-01
     vertex 2.211997e+00 4.309819e+00 4.890000e-02
   endloop
 endfacet
 facet normal 4.330127e-01 2.500000e-01 8.660254e-01
   outer loop
     vertex 2.499828e+00 3.565979e+00 1.230615e-01
     vertex 2.607303e+00 3.628029e+00 5.141147e-02
     vertex 2.213253e+00 4.310544e+00 5.141147e-02
   endloop
 endfacet
 facet normal 4.330127e-01 2.500000e-01 8.660254e-01
   outer loop
     vertex 2.499828e+00 3.565979e+00 1.230615e-01
     vertex 2.213253e+00 4.310544e+00 5.141147e-02
     vertex 2.105778e+00 4.248493e+00 1.230615e-01
   endloop
 endfacet
 facet normal 7.500000e-01 4.330127e-01 -5.000000e-01
   outer loop
     vertex 2.628803e+00 3.590790e+00 5.141147e-02
     vertex 3.022853e+00 2.908276e+00 5.141147e-02
     vertex 3.021597e+00 2.907551e+00 4.890000e-02
   endloop
 endfacet
 facet normal 7.500000e-01 4.330127e-01 -5.000000e-01
   outer loop
     vertex 2.628803e+00 3.590790e+00 5.141147e-02
     vertex 3.021597e+00 2.907551e+00 4.890000e-02
     vertex 2.627547e+00 3.590065e+00 4.890000e-02
   endloop
 endfacet
 facet normal -7.500000e-01 -4.330127e-01 5.000000e-01
   outer loop
     vertex 2.521328e+00 3.528740e+00 1.230615e-01
     vertex 2.914122e+00 2.845500e+00 1.205500e-01
     vertex 2.915378e+00 2.846225e+00 1.230615e-01
   endloop
 endfacet
 facet normal -7.500000e-01 -4.330127e-01 5.000000e-01
   outer loop
     vertex 2.521328e+00 3.528740e+00 1.230615e-01
     vertex 2.520072e+00 3.528015e+00 1.205500e-01
     vertex 2.914122e+00 2.845500e+00 1.205500e-01
   endloop
 endfacet
 facet normal -5.000000e-01 8.660254e-01 1.862139e-13
   outer loop
     vertex 2.521328e+00 3.528740e+00 1.230615e-01
     vertex 2.627547e+00 3.590065e+00 4.890000e-02
     vertex 2.520072e+00 3.528015e+00 1.205500e-01
   endloop
 endfacet
 facet normal -5.000000e-01 8.660254e-01 6.261485e-15
   outer loop
     vertex 2.521328e+00 3.528740e+00 1.230615e-01
     vertex 2.628803e+00 3.590790e+00 5.141147e-02
     vertex 2.627547e+00 3.590065e+00 4.890000e-02
   endloop
 endfacet
 facet normal 5.000000e-01 -8.660254e-01 1.098043e-13
   outer loop
     vertex 2.915378e+00 2.846225e+00 1.230615e-01
     vertex 2.914122e+00 2.845500e+00 1.205500e-01
     vertex 3.021597e+00 2.907551e+00 4.890000e-02
   endloop
 endfacet
 facet normal 5.000000e-01 -8.660254e-01 4.383039e-14
   outer loop
     vertex 2.915378e+00 2.846225e+00 1.230615e-01
     vertex 3.021597e+00 2.907551e+00 4.890000e-02
     vertex 3.022853e+00 2.908276e+00 5.141147e-02
   endloop
 endfacet
 facet normal -4.330127e-01 -2.500000e-01 -8.660254e-01
   outer loop
     vertex 2.914122e+00 2.845500e+00 1.205500e-01
     vertex 2.627547e+00 3.590065e+00 4.890000e-02
     vertex 3.021597e+00 2.907551e+00 4.890000e-02
   endloop
 endfacet
 facet normal -4.330127e-01 -2.500000e-01 -8.660254e-01
   outer loop
     vertex 2.914122e+00 2.845500e+00 1.205500e-01
     vertex 2.520072e+00 3.528015e+00 1.205500e-01
     vertex 2.627547e+00 3.590065e+00 4.890000e-02
   endloop
 endfacet
 facet normal 4.330127e-01 2.500000e-01 8.660254e-01
   outer loop
     vertex 2.915378e+00 2.846225e+00 1.230615e-01
     vertex 3.022853e+00 2.908276e+00 5.141147e-02
     vertex 2.628803e+00 3.590790e+00 5.141147e-02
   endloop
 endfacet
 facet normal 4.330127e-01 2.500000e-01 8.660254e-01
   outer loop
     vertex 2.915378e+00 2.846225e+00 1.230615e-01
     vertex 2.628803e+00 3.590790e+00 5.141147e-02
     vertex 2.521328e+00 3.528740e+00 1.230615e-01
   endloop
 endfacet
 facet normal 7.500000e-01 4.330127e-01 -5.000000e-01
   outer loop
     vertex 1.965050e+00 4.167244e+00 5.141147e-02
     vertex 2.359100e+00 3.484729e+00 5.141147e-02
     vertex 2.357844e+00 3.484004e+00 4.890000e-02
   endloop
 endfacet
 facet normal 7.500000e-01 4.330127e-01 -5.000000e-01
   outer loop
     vertex 1.965050e+00 4.167244e+00 5.141147e-02
     vertex 2.357844e+00 3.484004e+00 4.890000e-02
     vertex 1.963794e+00 4.166519e+00 4.890000e-02
   endloop
 endfacet
 facet normal -7.500000e-01 -4.330127e-01 5.000000e-01
   outer loop
     vertex 1.857575e+00 4.105193e+00 1.230615e-01
     vertex 2.250369e+00 3.421954e+00 1.205500e-01
     vertex 2.251625e+00 3.422679e+00 1.230615e-01
   endloop
 endfacet
 facet normal -7.500000e-01 -4.330127e-01 5.000000e-01
   outer loop
     vertex 1.857575e+00 4.105193e+00 1.230615e-01
     vertex 1.856319e+00 4.104468e+00 1.205500e-01
     vertex 2.250369e+00 3.421954e+00 1.205500e-01
   endloop
 endfacet
 facet normal -5.000000e-01 8.660254e-01 -7.670319e-14
   outer loop
     vertex 1.857575e+00 4.105193e+00 1.230615e-01
     vertex 1.963794e+00 4.166519e+00 4.890000e-02
     vertex 1.856319e+00 4.104468e+00 1.205500e-01
   endloop
 endfacet
 facet normal -5.000000e-01 8.660254e-01 -7.513782e-14
   outer loop
     vertex 1.857575e+00 4.105193e+00 1.230615e-01
     vertex 1.965050e+00 4.167244e+00 5.141147e-02
     vertex 1.963794e+00 4.166519e+00 4.890000e-02
   endloop
 endfacet
 facet normal 5.000000e-01 -8.660254e-01 1.098043e-13
   outer loop
     vertex 2.251625e+00 3.422679e+00 1.230615e-01
     vertex 2.250369e+00 3.421954e+00 1.205500e-01
     vertex 2.357844e+00 3.484004e+00 4.890000e-02
   endloop
 endfacet
 facet normal 5.000000e-01 -8.660254e-01 4.383039e-14
   outer loop
     vertex 2.251625e+00 3.422679e+00 1.230615e-01
     vertex 2.357844e+00 3.484004e+00 4.890000e-02
     vertex 2.359100e+00 3.484729e+00 5.141147e-02
   endloop
 endfacet
 facet normal -4.330127e-01 -2.500000e-01 -8.660254e-01
   outer loop
     vertex 2.250369e+00 3.421954e+00 1.205500e-01
     vertex 1.963794e+00 4.166519e+00 4.890000e-02
     vertex 2.357844e+00 3.484004e+00 4.890000e-02
   endloop
 endfacet
 facet normal -4.330127e-01 -2.500000e-01 -8.660254e-01
   outer loop
     vertex 2.250369e+00 3.421954e+00 1.205500e-01
     vertex 1.856319e+00 4.104468e+00 1.205500e-01
     vertex 1.963794e+00 4.166519e+00 4.890000e-02
   endloop
 endfacet
 facet normal 4.330127e-01 2.500000e-01 8.660254e-01
   outer loop
     vertex 2.251625e+00 3.422679e+00 1.230615e-01
     vertex 2.359100e+00 3.484729e+00 5.141147e-02
     vertex 1.965050e+00 4.167244e+00 5.141147e-02
   endloop
 endfacet
 facet normal 4.330127e-01 2.500000e-01 8.660254e-01
   outer loop
     vertex 2.251625e+00 3.422679e+00 1.230615e-01
     vertex 1.965050e+00 4.167244e+00 5.141147e-02
     vertex 1.857575e+00 4.105193e+00 1.230615e-01
   endloop
 endfacet
 facet normal 7.500000e-01 4.330127e-01 -5.000000e-01
   outer loop
     vertex 2.380600e+00 3.447490e+00 5.141147e-02
     vertex 2.774650e+00 2.764976e+00 5.141147e-02
     vertex 2.773394e+00 2.764251e+00 4.890000e-02
   endloop
 endfacet
 facet normal 7.500000e-01 4.330127e-01 -5.000000e-01
   outer loop
     vertex 2.380600e+00 3.447490e+00 5.141147e-02
     vertex 2.773394e+00 2.764251e+00 4.890000e-02
     vertex 2.379344e+00 3.446765e+00 4.890000e-02
   endloop
 endfacet
 facet normal -7.500000e-01 -4.330127e-01 5.000000e-01
   outer loop
     vertex 2.273125e+00 3.385440e+00 1.230615e-01
     vertex 2.665919e+00 2.702200e+00 1.205500e-01
     vertex 2.667175e+00 2.702925e+00 1.230615e-01
   endloop
 endfacet
 facet normal -7.500000e-01 -4.330127e-01 5.000000e-01
   outer loop
     vertex 2.273125e+00 3.385440e+00 1.230615e-01
     vertex 2.271869e+00 3.384715e+00 1.205500e-01
     vertex 2.665919e+00 2.702200e+00 1.205500e-01
   endloop
 endfacet
 facet normal -5.000000e-01 8.660254e-01 5.022233e-15
   outer loop
     vertex 2.273125e+00 3.385440e+00 1.230615e-01
     vertex 2.379344e+00 3.446765e+00 4.890000e-02
     vertex 2.271869e+00 3.384715e+00 1.205500e-01
   endloop
 endfacet
 facet normal -5.000000e-01 8.660254e-01 7.096349e-14
   outer loop
     vertex 2.273125e+00 3.385440e+00 1.230615e-01
     vertex 2.380600e+00 3.447490e+00 5.141147e-02
     vertex 2.379344e+00 3.446765e+00 4.890000e-02
   endloop
 endfacet
 facet normal 5.000000e-01 -8.660254e-01 1.098043e-13
   outer loop
     vertex 2.667175e+00 2.702925e+00 1.230615e-01
     vertex 2.665919e+00 2.702200e+00 1.205500e-01
     vertex 2.773394e+00 2.764251e+00 4.890000e-02
   endloop
 endfacet
 facet normal 5.000000e-01 -8.660254e-01 1.586243e-13
   outer loop
     vertex 2.667175e+00 2.702925e+00 1.230615e-01
     vertex 2.773394e+00 2.764251e+00 4.890000e-02
     vertex 2.774650e+00 2.764976e+00 5.141147e-02
   endloop
 endfacet
 facet normal -4.330127e-01 -2.500000e-01 -8.660254e-01
   outer loop
     vertex 2.665919e+00 2.702200e+00 1.205500e-01
     vertex 2.379344e+00 3.446765e+00 4.890000e-02
     vertex 2.773394e+00 2.764251e+00 4.890000e-02
   endloop
 endfacet
 facet normal -4.330127e-01 -2.500000e-01 -8.660254e-01
   outer loop
     vertex 2.665919e+00 2.702200e+00 1.205500e-01
     vertex 2.271869e+00 3.384715e+00 1.205500e-01
     vertex 2.379344e+00 3.446765e+00 4.890000e-02
   endloop
 endfacet
 facet normal 4.330127e-01 2.500000e-01 8.660254e-01
   outer loop
     vertex 2.667175e+00 2.702925e+00 1.230615e-01
     vertex 2.774650e+00 2.764976e+00 5.141147e-02
     vertex 2.380600e+00 3.447490e+00 5.141147e-02
   endloop
 endfacet
 facet normal 4.330127e-01 2.500000e-01 8.660254e-01
   outer loop
     vertex 2.667175e+00 2.702925e+00 1.230615e-01
     vertex 2.380600e+00 3.447490e+00 5.141147e-02
     vertex 2.273125e+00 3.385440e+00 1.230615e-01
   endloop
 endfacet
 facet normal 7.500000e-01 4.330127e-01 -5.000000e-01
   outer loop
     vertex 1.716847e+00 4.023944e+00 5.141147e-02
     vertex 2.110897e+00 3.341429e+00 5.141147e-02
     vertex 2.109641e+00 3.340704e+00 4.890000e-02
   endloop
 endfacet
 facet normal 7.500000e-01 4.330127e-01 -5.000000e-01
   outer loop
     vertex 1.716847e+00 4.023944e+00 5.141147e-02
     vertex 2.109641e+00 3.340704e+00 4.890000e-02
     vertex 1.715591e+00 4.023219e+00 4.890000e-02
   endloop
 endfacet
 facet normal -7.500000e-01 -4.330127e-01 5.000000e-01
   outer loop
     vertex 1.609372e+00 3.961893e+00 1.230615e-01
     vertex 2.002166e+00 3.278654e+00 1.205500e-01
     vertex 2.003422e+00 3.279379e+00 1.230615e-01
   endloop
 endfacet
 facet normal -7.500000e-01 -4.330127e-01 5.000000e-01
   outer loop
     vertex 1.609372e+00 3.961893e+00 1.230615e-01
     vertex 1.608116e+00 3.961168e+00 1.205500e-01
     vertex 2.002166e+00 3.278654e+00 1.205500e-01
   endloop
 endfacet
 facet normal -5.000000e-01 8.660254e-01 3.818853e-14
   outer loop
     vertex 1.609372e+00 3.961893e+00 1.230615e-01
     vertex 1.715591e+00 4.023219e+00 4.890000e-02
     vertex 1.608116e+00 3.961168e+00 1.205500e-01
   endloop
 endfacet
 facet normal -5.000000e-01 8.660254e-01 -1.043581e-14
   outer loop
     vertex 1.609372e+00 3.961893e+00 1.230615e-01
     vertex 1.716847e+00 4.023944e+00 5.141147e-02
     vertex 1.715591e+00 4.023219e+00 4.890000e-02
   endloop
 endfacet
 facet normal 5.000000e-01 -8.660254e-01 4.487397e-14
   outer loop
     vertex 2.003422e+00 3.279379e+00 1.230615e-01
     vertex 2.002166e+00 3.278654e+00 1.205500e-01
     vertex 2.109641e+00 3.340704e+00 4.890000e-02
   endloop
 endfacet
 facet normal 5.000000e-01 -8.660254e-01 1.106196e-13
   outer loop
     vertex 2.003422e+00 3.279379e+00 1.230615e-01
     vertex 2.109641e+00 3.340704e+00 4.890000e-02
     vertex 2.110897e+00 3.341429e+00 5.141147e-02
   endloop
 endfacet
 facet normal -4.330127e-01 -2.500000e-01 -8.660254e-01
   outer loop
     vertex 2.002166e+00 3.278654e+00 1.205500e-01
     vertex 1.715591e+00 4.023219e+00 4.890000e-02
     vertex 2.109641e+00 3.340704e+00 4.890000e-02
   endloop
 endfacet
 facet normal -4.330127e-01 -2.500000e-01 -8.660254e-01
   outer loop
     vertex 2.002166e+00 3.278654e+00 1.205500e-01
     vertex 1.608116e+00 3.961168e+00 1.205500e-01
     vertex 1.715591e+00 4.023219e+00 4.890000e-02
   endloop
 endfacet
 facet normal 4.330127e-01 2.500000e-01 8.660254e-01
   outer loop
     vertex 2.003422e+00 3.279379e+00 1.230615e-01
     vertex 2.110897e+00 3.341429e+00 5.141147e-02
     vertex 1.716847e+00 4.023944e+00 5.141147e-02
   endloop
 endfacet
 facet normal 4.330127e-01 2.500000e-01 8.660254e-01
   outer loop
     vertex 2.003422e+00 3.279379e+00 1.230615e-01
     vertex 1.716847e+00 4.023944e+00 5.141147e-02
     vertex 1.609372e+00 3.961893e+00 1.230615e-01
   endloop
 endfacet
 facet normal 7.500000e-01 4.330127e-01 -5.000000e-01
   outer loop
     vertex 2.132397e+00 3.304190e+00 5.141147e-02
     vertex 2.526447e+00 2.621676e+00 5.141147e-02
     vertex 2.525191e+00 2.620951e+00 4.890000e-02
   endloop
 endfacet
 facet normal 7.500000e-01 4.330127e-01 -5.000000e-01
   outer loop
     vertex 2.132397e+00 3.304190e+00 5.141147e-02
     vertex 2.525191e+00 2.620951e+00 4.890000e-02
     vertex 2.131141e+00 3.303465e+00 4.890000e-02
   endloop
 endfacet
 facet normal -7.500000e-01 -4.330127e-01 5.000000e-01
   outer loop
     vertex 2.024922e+00 3.242140e+00 1.230615e-01
     vertex 2.417716e+00 2.558900e+00 1.205500e-01
     vertex 2.418972e+00 2.559625e+00 1.230615e-01
   endloop
 endfacet
 facet normal -7.500000e-01 -4.330127e-01 5.000000e-01
   outer loop
     vertex 2.024922e+00 3.242140e+00 1.230615e-01
     vertex 2.023666e+00 3.241415e+00 1.205500e-01
     vertex 2.417716e+00 2.558900e+00 1.205500e-01
   endloop
 endfacet
 facet normal -5.000000e-01 8.660254e-01 5.022233e-15
   outer loop
     vertex 2.024922e+00 3.242140e+00 1.230615e-01
     vertex 2.131141e+00 3.303465e+00 4.890000e-02
     vertex 2.023666e+00 3.241415e+00 1.205500e-01
   endloop
 endfacet
 facet normal -5.000000e-01 8.660254e-01 7.096349e-14
   outer loop
     vertex 2.024922e+00 3.242140e+00 1.230615e-01
     vertex 2.132397e+00 3.304190e+00 5.141147e-02
     vertex 2.131141e+00 3.303465e+00 4.890000e-02
   endloop
 endfacet
 facet normal 5.000000e-01 -8.660254e-01 -3.685145e-15
   outer loop
     vertex 2.418972e+00 2.559625e+00 1.230615e-01
     vertex 2.417716e+00 2.558900e+00 1.205500e-01
     vertex 2.525191e+00 2.620951e+00 4.890000e-02
   endloop
 endfacet
 facet normal 5.000000e-01 -8.660254e-01 2.233263e-13
   outer loop
     vertex 2.418972e+00 2.559625e+00 1.230615e-01
     vertex 2.525191e+00 2.620951e+00 4.890000e-02
     vertex 2.526447e+00 2.621676e+00 5.141147e-02
   endloop
 endfacet
 facet normal -4.330127e-01 -2.500000e-01 -8.660254e-01
   outer loop
     vertex 2.417716e+00 2.558900e+00 1.205500e-01
     vertex 2.131141e+00 3.303465e+00 4.890000e-02
     vertex 2.525191e+00 2.620951e+00 4.890000e-02
   endloop
 endfacet
 facet normal -4.330127e-01 -2.500000e-01 -8.660254e-01
   outer loop
     vertex 2.417716e+00 2.558900e+00 1.205500e-01
     vertex 2.023666e+00 3.241415e+00 1.205500e-01
     vertex 2.131141e+00 3.303465e+00 4.890000e-02
   endloop
 endfacet
 facet normal 4.330127e-01 2.500000e-01 8.660254e-01
   outer loop
     vertex 2.418972e+00 2.559625e+00 1.230615e-01
     vertex 2.526447e+00 2.621676e+00 5.141147e-02
     vertex 2.132397e+00 3.304190e+00 5.141147e-02
   endloop
 endfacet
 facet normal 4.330127e-01 2.500000e-01 8.660254e-01
   outer loop
     vertex 2.418972e+00 2.559625e+00 1.230615e-01
     vertex 2.132397e+00 3.304190e+00 5.141147e-02
     vertex 2.024922e+00 3.242140e+00 1.230615e-01
   endloop
 endfacet
 facet normal 7.500000e-01 4.330127e-01 -5.000000e-01
   outer loop
     vertex 1.468644e+00 3.880644e+00 5.141147e-02
     vertex 1.862694e+00 3.198129e+00 5.141147e-02
     vertex 1.861438e+00 3.197404e+00 4.890000e-02
   endloop
 endfacet
 facet normal 7.500000e-01 4.330127e-01 -5.000000e-01
   outer loop
     vertex 1.468644e+00 3.880644e+00 5.141147e-02
     vertex 1.861438e+00 3.197404e+00 4.890000e-02
     vertex 1.467388e+00 3.879919e+00 4.890000e-02
   endloop
 endfacet
 facet normal -7.500000e-01 -4.330127e-01 5.000000e-01
   outer loop
     vertex 1.361169e+00 3.818593e+00 1.230615e-01
     vertex 1.753963e+00 3.135354e+00 1.205500e-01
     vertex 1.755219e+00 3.136079e+00 1.230615e-01
   endloop
 endfacet
 facet normal -7.500000e-01 -4.330127e-01 5.000000e-01
   outer loop
     vertex 1.361169e+00 3.818593e+00 1.230615e-01
     vertex 1.359913e+00 3.817868e+00 1.205500e-01
     vertex 1.753963e+00 3.135354e+00 1.205500e-01
   endloop
 endfacet
 facet normal -5.000000e-01 8.660254e-01 1.517106e-13
   outer loop
     vertex 1.361169e+00 3.818593e+00 1.230615e-01
     vertex 1.467388e+00 3.879919e+00 4.890000e-02
     vertex 1.359913e+00 3.817868e+00 1.205500e-01
   endloop
 endfacet
 facet normal -5.000000e-01 8.660254e-01 -1.231425e-13
   outer loop
     vertex 1.361169e+00 3.818593e+00 1.230615e-01
     vertex 1.468644e+00 3.880644e+00 5.141147e-02
     vertex 1.467388e+00 3.879919e+00 4.890000e-02
   endloop
 endfacet
 facet normal 5.000000e-01 -8.660254e-01 -6.998514e-14
   outer loop
     vertex 1.755219e+00 3.136079e+00 1.230615e-01
     vertex 1.753963e+00 3.135354e+00 1.205500e-01
     vertex 1.861438e+00 3.197404e+00 4.890000e-02
   endloop
 endfacet
 facet normal 5.000000e-01 -8.660254e-01 4.383039e-14
   outer loop
     vertex 1.755219e+00 3.136079e+00 1.230615e-01
     vertex 1.861438e+00 3.197404e+00 4.890000e-02
     vertex 1.862694e+00 3.198129e+00 5.141147e-02
   endloop
 endfacet
 facet normal -4.330127e-01 -2.500000e-01 -8.660254e-01
   outer loop
     vertex 1.753963e+00 3.135354e+00 1.205500e-01
     vertex 1.467388e+00 3.879919e+00 4.890000e-02
     vertex 1.861438e+00 3.197404e+00 4.890000e-02
   endloop
 endfacet
 facet normal -4.330127e-01 -2.500000e-01 -8.660254e-01
   outer loop
     vertex 1.753963e+00 3.135354e+00 1.205500e-01
     vertex 1.359913e+00 3.817868e+00 1.205500e-01
     vertex 1.467388e+00 3.879919e+00 4.890000e-02
   endloop
 endfacet
 facet normal 4.330127e-01 2.500000e-01 8.660254e-01
   outer loop
     vertex 1.755219e+00 3.136079e+00 1.230615e-01
     vertex 1.862694e+00 3.198129e+00 5.141147e-02
     vertex 1.468644e+00 3.880644e+00 5.141147e-02
   endloop
 endfacet
 facet normal 4.330127e-01 2.500000e-01 8.660254e-01
   outer loop
     vertex 1.755219e+00 3.136079e+00 1.230615e-01
     vertex 1.468644e+00 3.880644e+00 5.141147e-02
     vertex 1.361169e+00 3.818593e+00 1.230615e-01
   endloop
 endfacet
 facet normal 7.500000e-01 4.330127e-01 -5.000000e-01
   outer loop
     vertex 1.884194e+00 3.160890e+00 5.141147e-02
     vertex 2.278244e+00 2.478376e+00 5.141147e-02
     vertex 2.276988e+00 2.477651e+00 4.890000e-02
   endloop
 endfacet
 facet normal 7.500000e-01 4.330127e-01 -5.000000e-01
   outer loop
     vertex 1.884194e+00 3.160890e+00 5.141147e-02
     vertex 2.276988e+00 2.477651e+00 4.890000e-02
     vertex 1.882938e+00 3.160165e+00 4.890000e-02
   endloop
 endfacet
 facet normal -7.500000e-01 -4.330127e-01 5.000000e-01
   outer loop
     vertex 1.776719e+00 3.098840e+00 1.230615e-01
     vertex 2.169513e+00 2.415600e+00 1.205500e-01
     vertex 2.170769e+00 2.416325e+00 1.230615e-01
   endloop
 endfacet
 facet normal -7.500000e-01 -4.330127e-01 5.000000e-01
   outer loop
     vertex 1.776719e+00 3.098840e+00 1.230615e-01
     vertex 1.775463e+00 3.098115e+00 1.205500e-01
     vertex 2.169513e+00 2.415600e+00 1.205500e-01
   endloop
 endfacet
 facet normal -5.000000e-01 8.660254e-01 1.844529e-13
   outer loop
     vertex 1.776719e+00 3.098840e+00 1.230615e-01
     vertex 1.882938e+00 3.160165e+00 4.890000e-02
     vertex 1.775463e+00 3.098115e+00 1.205500e-01
   endloop
 endfacet
 facet normal -5.000000e-01 8.660254e-01 -7.513782e-14
   outer loop
     vertex 1.776719e+00 3.098840e+00 1.230615e-01
     vertex 1.884194e+00 3.160890e+00 5.141147e-02
     vertex 1.882938e+00 3.160165e+00 4.890000e-02
   endloop
 endfacet
 facet normal 5.000000e-01 -8.660254e-01 4.353689e-14
   outer loop
     vertex 2.170769e+00 2.416325e+00 1.230615e-01
     vertex 2.169513e+00 2.415600e+00 1.205500e-01
     vertex 2.276988e+00 2.477651e+00 4.890000e-02
   endloop
 endfacet
 facet normal 5.000000e-01 -8.660254e-01 1.106196e-13
   outer loop
     vertex 2.170769e+00 2.416325e+00 1.230615e-01
     vertex 2.276988e+00 2.477651e+00 4.890000e-02
     vertex 2.278244e+00 2.478376e+00 5.141147e-02
   endloop
 endfacet
 facet normal -4.330127e-01 -2.500000e-01 -8.660254e-01
   outer loop
     vertex 2.169513e+00 2.415600e+00 1.205500e-01
     vertex 1.882938e+00 3.160165e+00 4.890000e-02
     vertex 2.276988e+00 2.477651e+00 4.890000e-02
   endloop
 endfacet
 facet normal -4.330127e-01 -2.500000e-01 -8.660254e-01
   outer loop
     vertex 2.169513e+00 2.415600e+00 1.205500e-01
     vertex 1.775463e+00 3.098115e+00 1.205500e-01
     vertex 1.882938e+00 3.160165e+00 4.890000e-02
   endloop
 endfacet
 facet normal 4.330127e-01 2.500000e-01 8.660254e-01
   outer loop
     vertex 2.170769e+00 2.416325e+00 1.230615e-01
     vertex 2.278244e+00 2.478376e+00 5.141147e-02
     vertex 1.884194e+00 3.160890e+00 5.141147e-02
   endloop
 endfacet
 facet normal 4.330127e-01 2.500000e-01 8.660254e-01
   outer loop
     vertex 2.170769e+00 2.416325e+00 1.230615e-01
     vertex 1.884194e+00 3.160890e+00 5.141147e-02
     vertex 1.776719e+00 3.098840e+00 1.230615e-01
   endloop
 endfacet
 facet normal 7.500000e-01 4.330127e-01 -5.000000e-01
   outer loop
     vertex 1.220441e+00 3.737344e+00 5.141147e-02
     vertex 1.614491e+00 3.054829e+00 5.141147e-02
     vertex 1.613235e+00 3.054104e+00 4.890000e-02
   endloop
 endfacet
 facet normal 7.500000e-01 4.330127e-01 -5.000000e-01
   outer loop
     vertex 1.220441e+00 3.737344e+00 5.141147e-02
     vertex 1.613235e+00 3.054104e+00 4.890000e-02
     vertex 1.219185e+00 3.736619e+00 4.890000e-02
   endloop
 endfacet
 facet normal -7.500000e-01 -4.330127e-01 5.000000e-01
   outer loop
     vertex 1.112966e+00 3.675293e+00 1.230615e-01
     vertex 1.505760e+00 2.992054e+00 1.205500e-01
     vertex 1.507016e+00 2.992779e+00 1.230615e-01
   endloop
 endfacet
 facet normal -7.500000e-01 -4.330127e-01 5.000000e-01
   outer loop
     vertex 1.112966e+00 3.675293e+00 1.230615e-01
     vertex 1.111710e+00 3.674568e+00 1.205500e-01
     vertex 1.505760e+00 2.992054e+00 1.205500e-01
   endloop
 endfacet
 facet normal -5.000000e-01 8.660254e-01 3.818853e-14
   outer loop
     vertex 1.112966e+00 3.675293e+00 1.230615e-01
     vertex 1.219185e+00 3.736619e+00 4.890000e-02
     vertex 1.111710e+00 3.674568e+00 1.205500e-01
   endloop
 endfacet
 facet normal -5.000000e-01 8.660254e-01 3.965607e-14
   outer loop
     vertex 1.112966e+00 3.675293e+00 1.230615e-01
     vertex 1.220441e+00 3.737344e+00 5.141147e-02
     vertex 1.219185e+00 3.736619e+00 4.890000e-02
   endloop
 endfacet
 facet normal 5.000000e-01 -8.660254e-01 1.098043e-13
   outer loop
     vertex 1.507016e+00 2.992779e+00 1.230615e-01
     vertex 1.505760e+00 2.992054e+00 1.205500e-01
     vertex 1.613235e+00 3.054104e+00 4.890000e-02
   endloop
 endfacet
 facet normal 5.000000e-01 -8.660254e-01 -3.548175e-14
   outer loop
     vertex 1.507016e+00 2.992779e+00 1.230615e-01
     vertex 1.613235e+00 3.054104e+00 4.890000e-02
     vertex 1.614491e+00 3.054829e+00 5.141147e-02
   endloop
 endfacet
 facet normal -4.330127e-01 -2.500000e-01 -8.660254e-01
   outer loop
     vertex 1.505760e+00 2.992054e+00 1.205500e-01
     vertex 1.219185e+00 3.736619e+00 4.890000e-02
     vertex 1.613235e+00 3.054104e+00 4.890000e-02
   endloop
 endfacet
 facet normal -4.330127e-01 -2.500000e-01 -8.660254e-01
   outer loop
     vertex 1.505760e+00 2.992054e+00 1.205500e-01
     vertex 1.111710e+00 3.674568e+00 1.205500e-01
     vertex 1.219185e+00 3.736619e+00 4.890000e-02
   endloop
 endfacet
 facet normal 4.330127e-01 2.500000e-01 8.660254e-01
   outer loop
     vertex 1.507016e+00 2.992779e+00 1.230615e-01
     vertex 1.614491e+00 3.054829e+00 5.141147e-02
     vertex 1.220441e+00 3.737344e+00 5.141147e-02
   endloop
 endfacet
 facet normal 4.330127e-01 2.500000e-01 8.660254e-01
   outer loop
     vertex 1.507016e+00 2.992779e+00 1.230615e-01
     vertex 1.220441e+00 3.737344e+00 5.141147e-02
     vertex 1.112966e+00 3.675293e+00 1.230615e-01
   endloop
 endfacet
 facet normal 7.500000e-01 4.330127e-01 -5.000000e-01
   outer loop
     vertex 1.635991e+00 3.017590e+00 5.141147e-02
     vertex 2.030041e+00 2.335076e+00 5.141147e-02
     vertex 2.028785e+00 2.334351e+00 4.890000e-02
   endloop
 endfacet
 facet normal 7.500000e-01 4.330127e-01 -5.000000e-01
   outer loop
     vertex 1.635991e+00 3.017590e+00 5.141147e-02
     vertex 2.028785e+00 2.334351e+00 4.890000e-02
     vertex 1.634735e+00 3.016865e+00 4.890000e-02
   endloop
 endfacet
 facet normal -7.500000e-01 -4.330127e-01 5.000000e-01
   outer loop
     vertex 1.528516e+00 2.955540e+00 1.230615e-01
     vertex 1.921310e+00 2.272300e+00 1.205500e-01
     vertex 1.922566e+00 2.273025e+00 1.230615e-01
   endloop
 endfacet
 facet normal -7.500000e-01 -4.330127e-01 5.000000e-01
   outer loop
     vertex 1.528516e+00 2.955540e+00 1.230615e-01
     vertex 1.527260e+00 2.954815e+00 1.205500e-01
     vertex 1.921310e+00 2.272300e+00 1.205500e-01
   endloop
 endfacet
 facet normal -5.000000e-01 8.660254e-01 1.862139e-13
   outer loop
     vertex 1.528516e+00 2.955540e+00 1.230615e-01
     vertex 1.634735e+00 3.016865e+00 4.890000e-02
     vertex 1.527260e+00 2.954815e+00 1.205500e-01
   endloop
 endfacet
 facet normal -5.000000e-01 8.660254e-01 7.305066e-14
   outer loop
     vertex 1.528516e+00 2.955540e+00 1.230615e-01
     vertex 1.635991e+00 3.017590e+00 5.141147e-02
     vertex 1.634735e+00 3.016865e+00 4.890000e-02
   endloop
 endfacet
 facet normal 5.000000e-01 -8.660254e-01 -3.818853e-14
   outer loop
     vertex 1.922566e+00 2.273025e+00 1.230615e-01
     vertex 1.921310e+00 2.272300e+00 1.205500e-01
     vertex 2.028785e+00 2.334351e+00 4.890000e-02
   endloop
 endfacet
 facet normal 5.000000e-01 -8.660254e-01 -7.096349e-14
   outer loop
     vertex 1.922566e+00 2.273025e+00 1.230615e-01
     vertex 2.028785e+00 2.334351e+00 4.890000e-02
     vertex 2.030041e+00 2.335076e+00 5.141147e-02
   endloop
 endfacet
 facet normal -4.330127e-01 -2.500000e-01 -8.660254e-01
   outer loop
     vertex 1.921310e+00 2.272300e+00 1.205500e-01
     vertex 1.634735e+00 3.016865e+00 4.890000e-02
     vertex 2.028785e+00 2.334351e+00 4.890000e-02
   endloop
 endfacet
 facet normal -4.330127e-01 -2.500000e-01 -8.660254e-01
   outer loop
     vertex 1.921310e+00 2.272300e+00 1.205500e-01
     vertex 1.527260e+00 2.954815e+00 1.205500e-01
     vertex 1.634735e+00 3.016865e+00 4.890000e-02
   endloop
 endfacet
 facet normal 4.330127e-01 2.500000e-01 8.660254e-01
   outer loop
     vertex 1.922566e+00 2.273025e+00 1.230615e-01
     vertex 2.030041e+00 2.335076e+00 5.141147e-02
     vertex 1.635991e+00 3.017590e+00 5.141147e-02
   endloop
 endfacet
 facet normal 4.330127e-01 2.500000e-01 8.660254e-01
   outer loop
     vertex 1.922566e+00 2.273025e+00 1.230615e-01
     vertex 1.635991e+00 3.017590e+00 5.141147e-02
     vertex 1.528516e+00 2.955540e+00 1.230615e-01
   endloop
 endfacet
 facet normal 7.500000e-01 4.330127e-01 -5.000000e-01
   outer loop
     vertex 9.722383e-01 3.594044e+00 5.141147e-02
     vertex 1.366288e+00 2.911529e+00 5.141147e-02
     vertex 1.365033e+00 2.910804e+00 4.890000e-02
   endloop
 endfacet
 facet normal 7.500000e-01 4.330127e-01 -5.000000e-01
   outer loop
     vertex 9.722383e-01 3.594044e+00 5.141147e-02
     vertex 1.365033e+00 2.910804e+00 4.890000e-02
     vertex 9.709826e-01 3.593319e+00 4.890000e-02
   endloop
 endfacet
 facet normal -7.500000e-01 -4.330127e-01 5.000000e-01
   outer loop
     vertex 8.647633e-01 3.531993e+00 1.230615e-01
     vertex 1.257558e+00 2.848754e+00 1.205500e-01
     vertex 1.258813e+00 2.849479e+00 1.230615e-01
   endloop
 endfacet
 facet normal -7.500000e-01 -4.330127e-01 5.000000e-01
   outer loop
     vertex 8.647633e-01 3.531993e+00 1.230615e-01
     vertex 8.635076e-01 3.531268e+00 1.205500e-01
     vertex 1.257558e+00 2.848754e+00 1.205500e-01
   endloop
 endfacet
 facet normal -5.000000e-01 8.660254e-01 3.818853e-14
   outer loop
     vertex 8.647633e-01 3.531993e+00 1.230615e-01
     vertex 9.709826e-01 3.593319e+00 4.890000e-02
     vertex 8.635076e-01 3.531268e+00 1.205500e-01
   endloop
 endfacet
 facet normal -5.000000e-01 8.660254e-01 3.965607e-14
   outer loop
     vertex 8.647633e-01 3.531993e+00 1.230615e-01
     vertex 9.722383e-01 3.594044e+00 5.141147e-02
     vertex 9.709826e-01 3.593319e+00 4.890000e-02
   endloop
 endfacet
 facet normal 5.000000e-01 -8.660254e-01 -3.818853e-14
   outer loop
     vertex 1.258813e+00 2.849479e+00 1.230615e-01
     vertex 1.257558e+00 2.848754e+00 1.205500e-01
     vertex 1.365033e+00 2.910804e+00 4.890000e-02
   endloop
 endfacet
 facet normal 5.000000e-01 -8.660254e-01 7.513782e-14
   outer loop
     vertex 1.258813e+00 2.849479e+00 1.230615e-01
     vertex 1.365033e+00 2.910804e+00 4.890000e-02
     vertex 1.366288e+00 2.911529e+00 5.141147e-02
   endloop
 endfacet
 facet normal -4.330127e-01 -2.500000e-01 -8.660254e-01
   outer loop
     vertex 1.257558e+00 2.848754e+00 1.205500e-01
     vertex 9.709826e-01 3.593319e+00 4.890000e-02
     vertex 1.365033e+00 2.910804e+00 4.890000e-02
   endloop
 endfacet
 facet normal -4.330127e-01 -2.500000e-01 -8.660254e-01
   outer loop
     vertex 1.257558e+00 2.848754e+00 1.205500e-01
     vertex 8.635076e-01 3.531268e+00 1.205500e-01
     vertex 9.709826e-01 3.593319e+00 4.890000e-02
   endloop
 endfacet
 facet normal 4.330127e-01 2.500000e-01 8.660254e-01
   outer loop
     vertex 1.258813e+00 2.849479e+00 1.230615e-01
     vertex 1.366288e+00 2.911529e+00 5.141147e-02
     vertex 9.722383e-01 3.594044e+00 5.141147e-02
   endloop
 endfacet
 facet normal 4.330127e-01 2.500000e-01 8.660254e-01
   outer loop
     vertex 1.258813e+00 2.849479e+00 1.230615e-01
     vertex 9.722383e-01 3.594044e+00 5.141147e-02
     vertex 8.647633e-01 3.531993e+00 1.230615e-01
   endloop
 endfacet
 facet normal 7.500000e-01 4.330127e-01 -5.000000e-01
   outer loop
     vertex 1.387788e+00 2.874290e+00 5.141147e-02
     vertex 1.781838e+00 2.191776e+00 5.141147e-02
     vertex 1.780583e+00 2.191051e+00 4.890000e-02
   endloop
 endfacet
 facet normal 7.500000e-01 4.330127e-01 -5.000000e-01
   outer loop
     vertex 1.387788e+00 2.874290e+00 5.141147e-02
     vertex 1.780583e+00 2.191051e+00 4.890000e-02
     vertex 1.386533e+00 2.873565e+00 4.890000e-02
   endloop
 endfacet
 facet normal -7.500000e-01 -4.330127e-01 5.000000e-01
   outer loop
     vertex 1.280313e+00 2.812240e+00 1.230615e-01
     vertex 1.673108e+00 2.129000e+00 1.205500e-01
     vertex 1.674363e+00 2.129725e+00 1.230615e-01
   endloop
 endfacet
 facet normal -7.500000e-01 -4.330127e-01 5.000000e-01
   outer loop
     vertex 1.280313e+00 2.812240e+00 1.230615e-01
     vertex 1.279058e+00 2.811515e+00 1.205500e-01
     vertex 1.673108e+00 2.129000e+00 1.205500e-01
   endloop
 endfacet
 facet normal -5.000000e-01 8.660254e-01 3.818853e-14
   outer loop
     vertex 1.280313e+00 2.812240e+00 1.230615e-01
     vertex 1.386533e+00 2.873565e+00 4.890000e-02
     vertex 1.279058e+00 2.811515e+00 1.205500e-01
   endloop
 endfacet
 facet normal -5.000000e-01 8.660254e-01 -1.043581e-14
   outer loop
     vertex 1.280313e+00 2.812240e+00 1.230615e-01
     vertex 1.387788e+00 2.874290e+00 5.141147e-02
     vertex 1.386533e+00 2.873565e+00 4.890000e-02
   endloop
 endfacet
 facet normal 5.000000e-01 -8.660254e-01 4.487397e-14
   outer loop
     vertex 1.674363e+00 2.129725e+00 1.230615e-01
     vertex 1.673108e+00 2.129000e+00 1.205500e-01
     vertex 1.780583e+00 2.191051e+00 4.890000e-02
   endloop
 endfacet
 facet normal 5.000000e-01 -8.660254e-01 1.586243e-13
   outer loop
     vertex 1.674363e+00 2.129725e+00 1.230615e-01
     vertex 1.780583e+00 2.191051e+00 4.890000e-02
     vertex 1.781838e+00 2.191776e+00 5.141147e-02
   endloop
 endfacet
 facet normal -4.330127e-01 -2.500000e-01 -8.660254e-01
   outer loop
     vertex 1.673108e+00 2.129000e+00 1.205500e-01
     vertex 1.386533e+00 2.873565e+00 4.890000e-02
     vertex 1.780583e+00 2.191051e+00 4.890000e-02
   endloop
 endfacet
 facet normal -4.330127e-01 -2.500000e-01 -8.660254e-01
   outer loop
     vertex 1.673108e+00 2.129000e+00 1.205500e-01
     vertex 1.279058e+00 2.811515e+00 1.205500e-01
     vertex 1.386533e+00 2.873565e+00 4.890000e-02
   endloop
 endfacet
 facet normal 4.330127e-01 2.500000e-01 8.660254e-01
   outer loop
     vertex 1.674363e+00 2.129725e+00 1.230615e-01
     vertex 1.781838e+00 2.191776e+00 5.141147e-02
     vertex 1.387788e+00 2.874290e+00 5.141147e-02
   endloop
 endfacet
 facet normal 4.330127e-01 2.500000e-01 8.660254e-01
   outer loop
     vertex 1.674363e+00 2.129725e+00 1.230615e-01
     vertex 1.387788e+00 2.874290e+00 5.141147e-02
     vertex 1.280313e+00 2.812240e+00 1.230615e-01
   endloop
 endfacet
 facet normal 7.500000e-01 4.330127e-01 -5.000000e-01
   outer loop
     vertex 7.240355e-01 3.450744e+00 5.141147e-02
     vertex 1.118085e+00 2.768229e+00 5.141147e-02
     vertex 1.116830e+00 2.767504e+00 4.890000e-02
   endloop
 endfacet
 facet normal 7.500000e-01 4.330127e-01 -5.000000e-01
   outer loop
     vertex 7.240355e-01 3.450744e+00 5.141147e-02
     vertex 1.116830e+00 2.767504e+00 4.890000e-02
     vertex 7.227797e-01 3.450019e+00 4.890000e-02
   endloop
 endfacet
 facet normal -7.500000e-01 -4.330127e-01 5.000000e-01
   outer loop
     vertex 6.165605e-01 3.388693e+00 1.230615e-01
     vertex 1.009355e+00 2.705454e+00 1.205500e-01
     vertex 1.010610e+00 2.706179e+00 1.230615e-01
   endloop
 endfacet
 facet normal -7.500000e-01 -4.330127e-01 5.000000e-01
   outer loop
     vertex 6.165605e-01 3.388693e+00 1.230615e-01
     vertex 6.153047e-01 3.387968e+00 1.205500e-01
     vertex 1.009355e+00 2.705454e+00 1.205500e-01
   endloop
 endfacet
 facet normal -5.000000e-01 8.660254e-01 8.772601e-14
   outer loop
     vertex 6.165605e-01 3.388693e+00 1.230615e-01
     vertex 7.227797e-01 3.450019e+00 4.890000e-02
     vertex 6.153047e-01 3.387968e+00 1.205500e-01
   endloop
 endfacet
 facet normal -5.000000e-01 8.660254e-01 5.426620e-14
   outer loop
     vertex 6.165605e-01 3.388693e+00 1.230615e-01
     vertex 7.240355e-01 3.450744e+00 5.141147e-02
     vertex 7.227797e-01 3.450019e+00 4.890000e-02
   endloop
 endfacet
 facet normal 5.000000e-01 -8.660254e-01 -2.201303e-14
   outer loop
     vertex 1.010610e+00 2.706179e+00 1.230615e-01
     vertex 1.009355e+00 2.705454e+00 1.205500e-01
     vertex 1.116830e+00 2.767504e+00 4.890000e-02
   endloop
 endfacet
 facet normal 5.000000e-01 -8.660254e-01 7.722498e-14
   outer loop
     vertex 1.010610e+00 2.706179e+00 1.230615e-01
     vertex 1.116830e+00 2.767504e+00 4.890000e-02
     vertex 1.118085e+00 2.768229e+00 5.141147e-02
   endloop
 endfacet
 facet normal -4.330127e-01 -2.500000e-01 -8.660254e-01
   outer loop
     vertex 1.009355e+00 2.705454e+00 1.205500e-01
     vertex 7.227797e-01 3.450019e+00 4.890000e-02
     vertex 1.116830e+00 2.767504e+00 4.890000e-02
   endloop
 endfacet
 facet normal -4.330127e-01 -2.500000e-01 -8.660254e-01
   outer loop
     vertex 1.009355e+00 2.705454e+00 1.205500e-01
     vertex 6.153047e-01 3.387968e+00 1.205500e-01
     vertex 7.227797e-01 3.450019e+00 4.890000e-02
   endloop
 endfacet
 facet normal 4.330127e-01 2.500000e-01 8.660254e-01
   outer loop
     vertex 1.010610e+00 2.706179e+00 1.230615e-01
     vertex 1.118085e+00 2.768229e+00 5.141147e-02
     vertex 7.240355e-01 3.450744e+00 5.141147e-02
   endloop
 endfacet
 facet normal 4.330127e-01 2.500000e-01 8.660254e-01
   outer loop
     vertex 1.010610e+00 2.706179e+00 1.230615e-01
     vertex 7.240355e-01 3.450744e+00 5.141147e-02
     vertex 6.165605e-01 3.388693e+00 1.230615e-01
   endloop
 endfacet
 facet normal 7.500000e-01 4.330127e-01 -5.000000e-01
   outer loop
     vertex 1.139585e+00 2.730990e+00 5.141147e-02
     vertex 1.533635e+00 2.048476e+00 5.141147e-02
     vertex 1.532380e+00 2.047751e+00 4.890000e-02
   endloop
 endfacet
 facet normal 7.500000e-01 4.330127e-01 -5.000000e-01
   outer loop
     vertex 1.139585e+00 2.730990e+00 5.141147e-02
     vertex 1.532380e+00 2.047751e+00 4.890000e-02
     vertex 1.138330e+00 2.730265e+00 4.890000e-02
   endloop
 endfacet
 facet normal -7.500000e-01 -4.330127e-01 5.000000e-01
   outer loop
     vertex 1.032110e+00 2.668940e+00 1.230615e-01
     vertex 1.424905e+00 1.985700e+00 1.205500e-01
     vertex 1.426160e+00 1.986425e+00 1.230615e-01
   endloop
 endfacet
 facet normal -7.500000e-01 -4.330127e-01 5.000000e-01
   outer loop
     vertex 1.032110e+00 2.668940e+00 1.230615e-01
     vertex 1.030855e+00 2.668215e+00 1.205500e-01
     vertex 1.424905e+00 1.985700e+00 1.205500e-01
   endloop
 endfacet
 facet normal -5.000000e-01 8.660254e-01 3.857988e-14
   outer loop
     vertex 1.032110e+00 2.668940e+00 1.230615e-01
     vertex 1.138330e+00 2.730265e+00 4.890000e-02
     vertex 1.030855e+00 2.668215e+00 1.205500e-01
   endloop
 endfacet
 facet normal -5.000000e-01 8.660254e-01 -4.174323e-14
   outer loop
     vertex 1.032110e+00 2.668940e+00 1.230615e-01
     vertex 1.139585e+00 2.730990e+00 5.141147e-02
     vertex 1.138330e+00 2.730265e+00 4.890000e-02
   endloop
 endfacet
 facet normal 5.000000e-01 -8.660254e-01 -2.126296e-14
   outer loop
     vertex 1.426160e+00 1.986425e+00 1.230615e-01
     vertex 1.424905e+00 1.985700e+00 1.205500e-01
     vertex 1.532380e+00 2.047751e+00 4.890000e-02
   endloop
 endfacet
 facet normal 5.000000e-01 -8.660254e-01 1.085324e-13
   outer loop
     vertex 1.426160e+00 1.986425e+00 1.230615e-01
     vertex 1.532380e+00 2.047751e+00 4.890000e-02
     vertex 1.533635e+00 2.048476e+00 5.141147e-02
   endloop
 endfacet
 facet normal -4.330127e-01 -2.500000e-01 -8.660254e-01
   outer loop
     vertex 1.424905e+00 1.985700e+00 1.205500e-01
     vertex 1.138330e+00 2.730265e+00 4.890000e-02
     vertex 1.532380e+00 2.047751e+00 4.890000e-02
   endloop
 endfacet
 facet normal -4.330127e-01 -2.500000e-01 -8.660254e-01
   outer loop
     vertex 1.424905e+00 1.985700e+00 1.205500e-01
     vertex 1.030855e+00 2.668215e+00 1.205500e-01
     vertex 1.138330e+00 2.730265e+00 4.890000e-02
   endloop
 endfacet
 facet normal 4.330127e-01 2.500000e-01 8.660254e-01
   outer loop
     vertex 1.426160e+00 1.986425e+00 1.230615e-01
     vertex 1.533635e+00 2.048476e+00 5.141147e-02
     vertex 1.139585e+00 2.730990e+00 5.141147e-02
   endloop
 endfacet
 facet normal 4.330127e-01 2.500000e-01 8.660254e-01
   outer loop
     vertex 1.426160e+00 1.986425e+00 1.230615e-01
     vertex 1.139585e+00 2.730990e+00 5.141147e-02
     vertex 1.032110e+00 2.668940e+00 1.230615e-01
   endloop
 endfacet
endsolid shape
