solid shape, STL ascii file, created with Open CASCADE Technology
 facet normal 8.660254e-01 -9.980108e-16 -5.000000e-01
   outer loop
     vertex 2.460456e+00 3.957359e+00 5.141147e-02
     vertex 2.460456e+00 3.169259e+00 5.141147e-02
     vertex 2.459006e+00 3.169259e+00 4.890000e-02
   endloop
 endfacet
 facet normal 8.660254e-01 0.000000e+00 -5.000000e-01
   outer loop
     vertex 2.460456e+00 3.957359e+00 5.141147e-02
     vertex 2.459006e+00 3.169259e+00 4.890000e-02
     vertex 2.459006e+00 3.957359e+00 4.890000e-02
   endloop
 endfacet
 facet normal -8.660254e-01 4.879997e-16 5.000000e-01
   outer loop
     vertex 2.336355e+00 3.957359e+00 1.230615e-01
     vertex 2.334905e+00 3.169259e+00 1.205500e-01
     vertex 2.336355e+00 3.169259e+00 1.230615e-01
   endloop
 endfacet
 facet normal -8.660254e-01 0.000000e+00 5.000000e-01
   outer loop
     vertex 2.336355e+00 3.957359e+00 1.230615e-01
     vertex 2.334905e+00 3.957359e+00 1.205500e-01
     vertex 2.334905e+00 3.169259e+00 1.205500e-01
   endloop
 endfacet
 facet normal 0.000000e+00 1.000000e+00 0.000000e+00
   outer loop
     vertex 2.336355e+00 3.957359e+00 1.230615e-01
     vertex 2.459006e+00 3.957359e+00 4.890000e-02
     vertex 2.334905e+00 3.957359e+00 1.205500e-01
   endloop
 endfacet
 facet normal 0.000000e+00 1.000000e+00 0.000000e+00
   outer loop
     vertex 2.336355e+00 3.957359e+00 1.230615e-01
     vertex 2.460456e+00 3.957359e+00 5.141147e-02
     vertex 2.459006e+00 3.957359e+00 4.890000e-02
   endloop
 endfacet
 facet normal 0.000000e+00 -1.000000e+00 -0.000000e+00
   outer loop
     vertex 2.336355e+00 3.169259e+00 1.230615e-01
     vertex 2.334905e+00 3.169259e+00 1.205500e-01
     vertex 2.459006e+00 3.169259e+00 4.890000e-02
   endloop
 endfacet
 facet normal 0.000000e+00 -1.000000e+00 0.000000e+00
   outer loop
     vertex 2.336355e+00 3.169259e+00 1.230615e-01
     vertex 2.459006e+00 3.169259e+00 4.890000e-02
     vertex 2.460456e+00 3.169259e+00 5.141147e-02
   endloop
 endfacet
 facet normal -5.000000e-01 0.000000e+00 -8.660254e-01
   outer loop
     vertex 2.334905e+00 3.169259e+00 1.205500e-01
     vertex 2.459006e+00 3.957359e+00 4.890000e-02
     vertex 2.459006e+00 3.169259e+00 4.890000e-02
   endloop
 endfacet
 facet normal -5.000000e-01 0.000000e+00 -8.660254e-01
   outer loop
     vertex 2.334905e+00 3.169259e+00 1.205500e-01
     vertex 2.334905e+00 3.957359e+00 1.205500e-01
     vertex 2.459006e+00 3.957359e+00 4.890000e-02
   endloop
 endfacet
 facet normal 5.000000e-01 -5.222539e-16 8.660254e-01
   outer loop
     vertex 2.336355e+00 3.169259e+00 1.230615e-01
     vertex 2.460456e+00 3.169259e+00 5.141147e-02
     vertex 2.460456e+00 3.957359e+00 5.141147e-02
   endloop
 endfacet
 facet normal 5.000000e-01 -2.817467e-16 8.660254e-01
   outer loop
     vertex 2.336355e+00 3.169259e+00 1.230615e-01
     vertex 2.460456e+00 3.957359e+00 5.141147e-02
     vertex 2.336355e+00 3.957359e+00 1.230615e-01
   endloop
 endfacet
 facet normal 8.660254e-01 -9.980108e-16 -5.000000e-01
   outer loop
     vertex 2.460456e+00 3.126259e+00 5.141147e-02
     vertex 2.460456e+00 2.338159e+00 5.141147e-02
     vertex 2.459006e+00 2.338159e+00 4.890000e-02
   endloop
 endfacet
 facet normal 8.660254e-01 0.000000e+00 -5.000000e-01
   outer loop
     vertex 2.460456e+00 3.126259e+00 5.141147e-02
     vertex 2.459006e+00 2.338159e+00 4.890000e-02
     vertex 2.459006e+00 3.126259e+00 4.890000e-02
   endloop
 endfacet
 facet normal -8.660254e-01 4.879997e-16 5.000000e-01
   outer loop
     vertex 2.336355e+00 3.126259e+00 1.230615e-01
     vertex 2.334905e+00 2.338159e+00 1.205500e-01
     vertex 2.336355e+00 2.338159e+00 1.230615e-01
   endloop
 endfacet
 facet normal -8.660254e-01 0.000000e+00 5.000000e-01
   outer loop
     vertex 2.336355e+00 3.126259e+00 1.230615e-01
     vertex 2.334905e+00 3.126259e+00 1.205500e-01
     vertex 2.334905e+00 2.338159e+00 1.205500e-01
   endloop
 endfacet
 facet normal 0.000000e+00 1.000000e+00 0.000000e+00
   outer loop
     vertex 2.336355e+00 3.126259e+00 1.230615e-01
     vertex 2.459006e+00 3.126259e+00 4.890000e-02
     vertex 2.334905e+00 3.126259e+00 1.205500e-01
   endloop
 endfacet
 facet normal 0.000000e+00 1.000000e+00 0.000000e+00
   outer loop
     vertex 2.336355e+00 3.126259e+00 1.230615e-01
     vertex 2.460456e+00 3.126259e+00 5.141147e-02
     vertex 2.459006e+00 3.126259e+00 4.890000e-02
   endloop
 endfacet
 facet normal 0.000000e+00 -1.000000e+00 -0.000000e+00
   outer loop
     vertex 2.336355e+00 2.338159e+00 1.230615e-01
     vertex 2.334905e+00 2.338159e+00 1.205500e-01
     vertex 2.459006e+00 2.338159e+00 4.890000e-02
   endloop
 endfacet
 facet normal 0.000000e+00 -1.000000e+00 0.000000e+00
   outer loop
     vertex 2.336355e+00 2.338159e+00 1.230615e-01
     vertex 2.459006e+00 2.338159e+00 4.890000e-02
     vertex 2.460456e+00 2.338159e+00 5.141147e-02
   endloop
 endfacet
 facet normal -5.000000e-01 0.000000e+00 -8.660254e-01
   outer loop
     vertex 2.334905e+00 2.338159e+00 1.205500e-01
     vertex 2.459006e+00 3.126259e+00 4.890000e-02
     vertex 2.459006e+00 2.338159e+00 4.890000e-02
   endloop
 endfacet
 facet normal -5.000000e-01 0.000000e+00 -8.660254e-01
   outer loop
     vertex 2.334905e+00 2.338159e+00 1.205500e-01
     vertex 2.334905e+00 3.126259e+00 1.205500e-01
     vertex 2.459006e+00 3.126259e+00 4.890000e-02
   endloop
 endfacet
 facet normal 5.000000e-01 -5.222539e-16 8.660254e-01
   outer loop
     vertex 2.336355e+00 2.338159e+00 1.230615e-01
     vertex 2.460456e+00 2.338159e+00 5.141147e-02
     vertex 2.460456e+00 3.126259e+00 5.141147e-02
   endloop
 endfacet
 facet normal 5.000000e-01 -2.817467e-16 8.660254e-01
   outer loop
     vertex 2.336355e+00 2.338159e+00 1.230615e-01
     vertex 2.460456e+00 3.126259e+00 5.141147e-02
     vertex 2.336355e+00 3.126259e+00 1.230615e-01
   endloop
 endfacet
 facet normal 8.660254e-01 -5.100111e-16 -5.000000e-01
   outer loop
     vertex 2.173856e+00 3.957359e+00 5.141147e-02
     vertex 2.173856e+00 3.169259e+00 5.141147e-02
     vertex 2.172406e+00 3.169259e+00 4.890000e-02
   endloop
 endfacet
 facet normal 8.660254e-01 0.000000e+00 -5.000000e-01
   outer loop
     vertex 2.173856e+00 3.957359e+00 5.141147e-02
     vertex 2.172406e+00 3.169259e+00 4.890000e-02
     vertex 2.172406e+00 3.957359e+00 4.890000e-02
   endloop
 endfacet
 facet normal -8.660254e-01 0.000000e+00 5.000000e-01
   outer loop
     vertex 2.049755e+00 3.957359e+00 1.230615e-01
     vertex 2.048305e+00 3.169259e+00 1.205500e-01
     vertex 2.049755e+00 3.169259e+00 1.230615e-01
   endloop
 endfacet
 facet normal -8.660254e-01 0.000000e+00 5.000000e-01
   outer loop
     vertex 2.049755e+00 3.957359e+00 1.230615e-01
     vertex 2.048305e+00 3.957359e+00 1.205500e-01
     vertex 2.048305e+00 3.169259e+00 1.205500e-01
   endloop
 endfacet
 facet normal 0.000000e+00 1.000000e+00 0.000000e+00
   outer loop
     vertex 2.049755e+00 3.957359e+00 1.230615e-01
     vertex 2.172406e+00 3.957359e+00 4.890000e-02
     vertex 2.048305e+00 3.957359e+00 1.205500e-01
   endloop
 endfacet
 facet normal 0.000000e+00 1.000000e+00 0.000000e+00
   outer loop
     vertex 2.049755e+00 3.957359e+00 1.230615e-01
     vertex 2.173856e+00 3.957359e+00 5.141147e-02
     vertex 2.172406e+00 3.957359e+00 4.890000e-02
   endloop
 endfacet
 facet normal 0.000000e+00 -1.000000e+00 -0.000000e+00
   outer loop
     vertex 2.049755e+00 3.169259e+00 1.230615e-01
     vertex 2.048305e+00 3.169259e+00 1.205500e-01
     vertex 2.172406e+00 3.169259e+00 4.890000e-02
   endloop
 endfacet
 facet normal 0.000000e+00 -1.000000e+00 0.000000e+00
   outer loop
     vertex 2.049755e+00 3.169259e+00 1.230615e-01
     vertex 2.172406e+00 3.169259e+00 4.890000e-02
     vertex 2.173856e+00 3.169259e+00 5.141147e-02
   endloop
 endfacet
 facet normal -5.000000e-01 0.000000e+00 -8.660254e-01
   outer loop
     vertex 2.048305e+00 3.169259e+00 1.205500e-01
     vertex 2.172406e+00 3.957359e+00 4.890000e-02
     vertex 2.172406e+00 3.169259e+00 4.890000e-02
   endloop
 endfacet
 facet normal -5.000000e-01 0.000000e+00 -8.660254e-01
   outer loop
     vertex 2.048305e+00 3.169259e+00 1.205500e-01
     vertex 2.048305e+00 3.957359e+00 1.205500e-01
     vertex 2.172406e+00 3.957359e+00 4.890000e-02
   endloop
 endfacet
 facet normal 5.000000e-01 -2.457665e-16 8.660254e-01
   outer loop
     vertex 2.049755e+00 3.169259e+00 1.230615e-01
     vertex 2.173856e+00 3.169259e+00 5.141147e-02
     vertex 2.173856e+00 3.957359e+00 5.141147e-02
   endloop
 endfacet
 facet normal 5.000000e-01 -0.000000e+00 8.660254e-01
   outer loop
     vertex 2.049755e+00 3.169259e+00 1.230615e-01
     vertex 2.173856e+00 3.957359e+00 5.141147e-02
     vertex 2.049755e+00 3.957359e+00 1.230615e-01
   endloop
 endfacet
 facet normal 8.660254e-01 -5.100111e-16 -5.000000e-01
   outer loop
     vertex 2.173856e+00 3.126259e+00 5.141147e-02
     vertex 2.173856e+00 2.338159e+00 5.141147e-02
     vertex 2.172406e+00 2.338159e+00 4.890000e-02
   endloop
 endfacet
 facet normal 8.660254e-01 0.000000e+00 -5.000000e-01
   outer loop
     vertex 2.173856e+00 3.126259e+00 5.141147e-02
     vertex 2.172406e+00 2.338159e+00 4.890000e-02
     vertex 2.172406e+00 3.126259e+00 4.890000e-02
   endloop
 endfacet
 facet normal -8.660254e-01 0.000000e+00 5.000000e-01
   outer loop
     vertex 2.049755e+00 3.126259e+00 1.230615e-01
     vertex 2.048305e+00 2.338159e+00 1.205500e-01
     vertex 2.049755e+00 2.338159e+00 1.230615e-01
   endloop
 endfacet
 facet normal -8.660254e-01 0.000000e+00 5.000000e-01
   outer loop
     vertex 2.049755e+00 3.126259e+00 1.230615e-01
     vertex 2.048305e+00 3.126259e+00 1.205500e-01
     vertex 2.048305e+00 2.338159e+00 1.205500e-01
   endloop
 endfacet
 facet normal 0.000000e+00 1.000000e+00 0.000000e+00
   outer loop
     vertex 2.049755e+00 3.126259e+00 1.230615e-01
     vertex 2.172406e+00 3.126259e+00 4.890000e-02
     vertex 2.048305e+00 3.126259e+00 1.205500e-01
   endloop
 endfacet
 facet normal 0.000000e+00 1.000000e+00 0.000000e+00
   outer loop
     vertex 2.049755e+00 3.126259e+00 1.230615e-01
     vertex 2.173856e+00 3.126259e+00 5.141147e-02
     vertex 2.172406e+00 3.126259e+00 4.890000e-02
   endloop
 endfacet
 facet normal 0.000000e+00 -1.000000e+00 -0.000000e+00
   outer loop
     vertex 2.049755e+00 2.338159e+00 1.230615e-01
     vertex 2.048305e+00 2.338159e+00 1.205500e-01
     vertex 2.172406e+00 2.338159e+00 4.890000e-02
   endloop
 endfacet
 facet normal 0.000000e+00 -1.000000e+00 0.000000e+00
   outer loop
     vertex 2.049755e+00 2.338159e+00 1.230615e-01
     vertex 2.172406e+00 2.338159e+00 4.890000e-02
     vertex 2.173856e+00 2.338159e+00 5.141147e-02
   endloop
 endfacet
 facet normal -5.000000e-01 0.000000e+00 -8.660254e-01
   outer loop
     vertex 2.048305e+00 2.338159e+00 1.205500e-01
     vertex 2.172406e+00 3.126259e+00 4.890000e-02
     vertex 2.172406e+00 2.338159e+00 4.890000e-02
   endloop
 endfacet
 facet normal -5.000000e-01 0.000000e+00 -8.660254e-01
   outer loop
     vertex 2.048305e+00 2.338159e+00 1.205500e-01
     vertex 2.048305e+00 3.126259e+00 1.205500e-01
     vertex 2.172406e+00 3.126259e+00 4.890000e-02
   endloop
 endfacet
 facet normal 5.000000e-01 -2.457665e-16 8.660254e-01
   outer loop
     vertex 2.049755e+00 2.338159e+00 1.230615e-01
     vertex 2.173856e+00 2.338159e+00 5.141147e-02
     vertex 2.173856e+00 3.126259e+00 5.141147e-02
   endloop
 endfacet
 facet normal 5.000000e-01 -0.000000e+00 8.660254e-01
   outer loop
     vertex 2.049755e+00 2.338159e+00 1.230615e-01
     vertex 2.173856e+00 3.126259e+00 5.141147e-02
     vertex 2.049755e+00 3.126259e+00 1.230615e-01
   endloop
 endfacet
 facet normal 8.660254e-01 0.000000e+00 -5.000000e-01
   outer loop
     vertex 1.887256e+00 3.957359e+00 5.141147e-02
     vertex 1.887256e+00 3.169259e+00 5.141147e-02
     vertex 1.885806e+00 3.169259e+00 4.890000e-02
   endloop
 endfacet
 facet normal 8.660254e-01 0.000000e+00 -5.000000e-01
   outer loop
     vertex 1.887256e+00 3.957359e+00 5.141147e-02
     vertex 1.885806e+00 3.169259e+00 4.890000e-02
     vertex 1.885806e+00 3.957359e+00 4.890000e-02
   endloop
 endfacet
 facet normal -8.660254e-01 1.823677e-16 5.000000e-01
   outer loop
     vertex 1.763155e+00 3.957359e+00 1.230615e-01
     vertex 1.761705e+00 3.169259e+00 1.205500e-01
     vertex 1.763155e+00 3.169259e+00 1.230615e-01
   endloop
 endfacet
 facet normal -8.660254e-01 2.440488e-16 5.000000e-01
   outer loop
     vertex 1.763155e+00 3.957359e+00 1.230615e-01
     vertex 1.761705e+00 3.957359e+00 1.205500e-01
     vertex 1.761705e+00 3.169259e+00 1.205500e-01
   endloop
 endfacet
 facet normal -2.683828e-15 1.000000e+00 1.549509e-15
   outer loop
     vertex 1.763155e+00 3.957359e+00 1.230615e-01
     vertex 1.885806e+00 3.957359e+00 4.890000e-02
     vertex 1.761705e+00 3.957359e+00 1.205500e-01
   endloop
 endfacet
 facet normal -2.683828e-15 1.000000e+00 1.549509e-15
   outer loop
     vertex 1.763155e+00 3.957359e+00 1.230615e-01
     vertex 1.887256e+00 3.957359e+00 5.141147e-02
     vertex 1.885806e+00 3.957359e+00 4.890000e-02
   endloop
 endfacet
 facet normal 2.683828e-15 -1.000000e+00 -1.549509e-15
   outer loop
     vertex 1.763155e+00 3.169259e+00 1.230615e-01
     vertex 1.761705e+00 3.169259e+00 1.205500e-01
     vertex 1.885806e+00 3.169259e+00 4.890000e-02
   endloop
 endfacet
 facet normal 2.683828e-15 -1.000000e+00 -1.549509e-15
   outer loop
     vertex 1.763155e+00 3.169259e+00 1.230615e-01
     vertex 1.885806e+00 3.169259e+00 4.890000e-02
     vertex 1.887256e+00 3.169259e+00 5.141147e-02
   endloop
 endfacet
 facet normal -5.000000e-01 0.000000e+00 -8.660254e-01
   outer loop
     vertex 1.761705e+00 3.169259e+00 1.205500e-01
     vertex 1.885806e+00 3.957359e+00 4.890000e-02
     vertex 1.885806e+00 3.169259e+00 4.890000e-02
   endloop
 endfacet
 facet normal -5.000000e-01 1.408734e-16 -8.660254e-01
   outer loop
     vertex 1.761705e+00 3.169259e+00 1.205500e-01
     vertex 1.761705e+00 3.957359e+00 1.205500e-01
     vertex 1.885806e+00 3.957359e+00 4.890000e-02
   endloop
 endfacet
 facet normal 5.000000e-01 0.000000e+00 8.660254e-01
   outer loop
     vertex 1.763155e+00 3.169259e+00 1.230615e-01
     vertex 1.887256e+00 3.169259e+00 5.141147e-02
     vertex 1.887256e+00 3.957359e+00 5.141147e-02
   endloop
 endfacet
 facet normal 5.000000e-01 -2.476233e-16 8.660254e-01
   outer loop
     vertex 1.763155e+00 3.169259e+00 1.230615e-01
     vertex 1.887256e+00 3.957359e+00 5.141147e-02
     vertex 1.763155e+00 3.957359e+00 1.230615e-01
   endloop
 endfacet
 facet normal 8.660254e-01 -6.163210e-17 -5.000000e-01
   outer loop
     vertex 1.887256e+00 3.126259e+00 5.141147e-02
     vertex 1.887256e+00 2.338159e+00 5.141147e-02
     vertex 1.885806e+00 2.338159e+00 4.890000e-02
   endloop
 endfacet
 facet normal 8.660254e-01 -6.170711e-17 -5.000000e-01
   outer loop
     vertex 1.887256e+00 3.126259e+00 5.141147e-02
     vertex 1.885806e+00 2.338159e+00 4.890000e-02
     vertex 1.885806e+00 3.126259e+00 4.890000e-02
   endloop
 endfacet
 facet normal -8.660254e-01 5.584364e-16 5.000000e-01
   outer loop
     vertex 1.763155e+00 3.126259e+00 1.230615e-01
     vertex 1.761705e+00 2.338159e+00 1.205500e-01
     vertex 1.763155e+00 2.338159e+00 1.230615e-01
   endloop
 endfacet
 facet normal -8.660254e-01 5.585142e-16 5.000000e-01
   outer loop
     vertex 1.763155e+00 3.126259e+00 1.230615e-01
     vertex 1.761705e+00 3.126259e+00 1.205500e-01
     vertex 1.761705e+00 2.338159e+00 1.205500e-01
   endloop
 endfacet
 facet normal -2.683828e-15 1.000000e+00 1.549509e-15
   outer loop
     vertex 1.763155e+00 3.126259e+00 1.230615e-01
     vertex 1.885806e+00 3.126259e+00 4.890000e-02
     vertex 1.761705e+00 3.126259e+00 1.205500e-01
   endloop
 endfacet
 facet normal -2.683828e-15 1.000000e+00 1.549509e-15
   outer loop
     vertex 1.763155e+00 3.126259e+00 1.230615e-01
     vertex 1.887256e+00 3.126259e+00 5.141147e-02
     vertex 1.885806e+00 3.126259e+00 4.890000e-02
   endloop
 endfacet
 facet normal 2.683828e-15 -1.000000e+00 -1.549509e-15
   outer loop
     vertex 1.763155e+00 2.338159e+00 1.230615e-01
     vertex 1.761705e+00 2.338159e+00 1.205500e-01
     vertex 1.885806e+00 2.338159e+00 4.890000e-02
   endloop
 endfacet
 facet normal 2.683828e-15 -1.000000e+00 -1.549509e-15
   outer loop
     vertex 1.763155e+00 2.338159e+00 1.230615e-01
     vertex 1.885806e+00 2.338159e+00 4.890000e-02
     vertex 1.887256e+00 2.338159e+00 5.141147e-02
   endloop
 endfacet
 facet normal -5.000000e-01 -1.075229e-16 -8.660254e-01
   outer loop
     vertex 1.761705e+00 2.338159e+00 1.205500e-01
     vertex 1.885806e+00 3.126259e+00 4.890000e-02
     vertex 1.885806e+00 2.338159e+00 4.890000e-02
   endloop
 endfacet
 facet normal -5.000000e-01 1.597468e-16 -8.660254e-01
   outer loop
     vertex 1.761705e+00 2.338159e+00 1.205500e-01
     vertex 1.761705e+00 3.126259e+00 1.205500e-01
     vertex 1.885806e+00 3.126259e+00 4.890000e-02
   endloop
 endfacet
 facet normal 5.000000e-01 1.075229e-16 8.660254e-01
   outer loop
     vertex 1.763155e+00 2.338159e+00 1.230615e-01
     vertex 1.887256e+00 2.338159e+00 5.141147e-02
     vertex 1.887256e+00 3.126259e+00 5.141147e-02
   endloop
 endfacet
 facet normal 5.000000e-01 -1.597468e-16 8.660254e-01
   outer loop
     vertex 1.763155e+00 2.338159e+00 1.230615e-01
     vertex 1.887256e+00 3.126259e+00 5.141147e-02
     vertex 1.763155e+00 3.126259e+00 1.230615e-01
   endloop
 endfacet
 facet normal 8.660254e-01 -2.439998e-16 -5.000000e-01
   outer loop
     vertex 1.600656e+00 3.957359e+00 5.141147e-02
     vertex 1.600656e+00 3.169259e+00 5.141147e-02
     vertex 1.599206e+00 3.169259e+00 4.890000e-02
   endloop
 endfacet
 facet normal 8.660254e-01 0.000000e+00 -5.000000e-01
   outer loop
     vertex 1.600656e+00 3.957359e+00 5.141147e-02
     vertex 1.599206e+00 3.169259e+00 4.890000e-02
     vertex 1.599206e+00 3.957359e+00 4.890000e-02
   endloop
 endfacet
 facet normal -8.660254e-01 4.968043e-16 5.000000e-01
   outer loop
     vertex 1.476555e+00 3.957359e+00 1.230615e-01
     vertex 1.475105e+00 3.169259e+00 1.205500e-01
     vertex 1.476555e+00 3.169259e+00 1.230615e-01
   endloop
 endfacet
 facet normal -8.660254e-01 1.823417e-16 5.000000e-01
   outer loop
     vertex 1.476555e+00 3.957359e+00 1.230615e-01
     vertex 1.475105e+00 3.957359e+00 1.205500e-01
     vertex 1.475105e+00 3.169259e+00 1.205500e-01
   endloop
 endfacet
 facet normal 0.000000e+00 1.000000e+00 0.000000e+00
   outer loop
     vertex 1.476555e+00 3.957359e+00 1.230615e-01
     vertex 1.599206e+00 3.957359e+00 4.890000e-02
     vertex 1.475105e+00 3.957359e+00 1.205500e-01
   endloop
 endfacet
 facet normal 0.000000e+00 1.000000e+00 0.000000e+00
   outer loop
     vertex 1.476555e+00 3.957359e+00 1.230615e-01
     vertex 1.600656e+00 3.957359e+00 5.141147e-02
     vertex 1.599206e+00 3.957359e+00 4.890000e-02
   endloop
 endfacet
 facet normal 0.000000e+00 -1.000000e+00 -0.000000e+00
   outer loop
     vertex 1.476555e+00 3.169259e+00 1.230615e-01
     vertex 1.475105e+00 3.169259e+00 1.205500e-01
     vertex 1.599206e+00 3.169259e+00 4.890000e-02
   endloop
 endfacet
 facet normal 0.000000e+00 -1.000000e+00 0.000000e+00
   outer loop
     vertex 1.476555e+00 3.169259e+00 1.230615e-01
     vertex 1.599206e+00 3.169259e+00 4.890000e-02
     vertex 1.600656e+00 3.169259e+00 5.141147e-02
   endloop
 endfacet
 facet normal -5.000000e-01 0.000000e+00 -8.660254e-01
   outer loop
     vertex 1.475105e+00 3.169259e+00 1.205500e-01
     vertex 1.599206e+00 3.957359e+00 4.890000e-02
     vertex 1.599206e+00 3.169259e+00 4.890000e-02
   endloop
 endfacet
 facet normal -5.000000e-01 2.476233e-16 -8.660254e-01
   outer loop
     vertex 1.475105e+00 3.169259e+00 1.205500e-01
     vertex 1.475105e+00 3.957359e+00 1.205500e-01
     vertex 1.599206e+00 3.957359e+00 4.890000e-02
   endloop
 endfacet
 facet normal 5.000000e-01 -1.382437e-16 8.660254e-01
   outer loop
     vertex 1.476555e+00 3.169259e+00 1.230615e-01
     vertex 1.600656e+00 3.169259e+00 5.141147e-02
     vertex 1.600656e+00 3.957359e+00 5.141147e-02
   endloop
 endfacet
 facet normal 5.000000e-01 -2.664967e-16 8.660254e-01
   outer loop
     vertex 1.476555e+00 3.169259e+00 1.230615e-01
     vertex 1.600656e+00 3.957359e+00 5.141147e-02
     vertex 1.476555e+00 3.957359e+00 1.230615e-01
   endloop
 endfacet
 facet normal 8.660254e-01 -6.163210e-17 -5.000000e-01
   outer loop
     vertex 1.600656e+00 3.126259e+00 5.141147e-02
     vertex 1.600656e+00 2.338159e+00 5.141147e-02
     vertex 1.599206e+00 2.338159e+00 4.890000e-02
   endloop
 endfacet
 facet normal 8.660254e-01 -6.170711e-17 -5.000000e-01
   outer loop
     vertex 1.600656e+00 3.126259e+00 5.141147e-02
     vertex 1.599206e+00 2.338159e+00 4.890000e-02
     vertex 1.599206e+00 3.126259e+00 4.890000e-02
   endloop
 endfacet
 facet normal -8.660254e-01 5.584364e-16 5.000000e-01
   outer loop
     vertex 1.476555e+00 3.126259e+00 1.230615e-01
     vertex 1.475105e+00 2.338159e+00 1.205500e-01
     vertex 1.476555e+00 2.338159e+00 1.230615e-01
   endloop
 endfacet
 facet normal -8.660254e-01 6.170711e-17 5.000000e-01
   outer loop
     vertex 1.476555e+00 3.126259e+00 1.230615e-01
     vertex 1.475105e+00 3.126259e+00 1.205500e-01
     vertex 1.475105e+00 2.338159e+00 1.205500e-01
   endloop
 endfacet
 facet normal 0.000000e+00 1.000000e+00 0.000000e+00
   outer loop
     vertex 1.476555e+00 3.126259e+00 1.230615e-01
     vertex 1.599206e+00 3.126259e+00 4.890000e-02
     vertex 1.475105e+00 3.126259e+00 1.205500e-01
   endloop
 endfacet
 facet normal 0.000000e+00 1.000000e+00 0.000000e+00
   outer loop
     vertex 1.476555e+00 3.126259e+00 1.230615e-01
     vertex 1.600656e+00 3.126259e+00 5.141147e-02
     vertex 1.599206e+00 3.126259e+00 4.890000e-02
   endloop
 endfacet
 facet normal 0.000000e+00 -1.000000e+00 -0.000000e+00
   outer loop
     vertex 1.476555e+00 2.338159e+00 1.230615e-01
     vertex 1.475105e+00 2.338159e+00 1.205500e-01
     vertex 1.599206e+00 2.338159e+00 4.890000e-02
   endloop
 endfacet
 facet normal 0.000000e+00 -1.000000e+00 0.000000e+00
   outer loop
     vertex 1.476555e+00 2.338159e+00 1.230615e-01
     vertex 1.599206e+00 2.338159e+00 4.890000e-02
     vertex 1.600656e+00 2.338159e+00 5.141147e-02
   endloop
 endfacet
 facet normal -5.000000e-01 -1.075229e-16 -8.660254e-01
   outer loop
     vertex 1.475105e+00 2.338159e+00 1.205500e-01
     vertex 1.599206e+00 3.126259e+00 4.890000e-02
     vertex 1.599206e+00 2.338159e+00 4.890000e-02
   endloop
 endfacet
 facet normal -5.000000e-01 -1.067499e-16 -8.660254e-01
   outer loop
     vertex 1.475105e+00 2.338159e+00 1.205500e-01
     vertex 1.475105e+00 3.126259e+00 1.205500e-01
     vertex 1.599206e+00 3.126259e+00 4.890000e-02
   endloop
 endfacet
 facet normal 5.000000e-01 1.075229e-16 8.660254e-01
   outer loop
     vertex 1.476555e+00 2.338159e+00 1.230615e-01
     vertex 1.600656e+00 2.338159e+00 5.141147e-02
     vertex 1.600656e+00 3.126259e+00 5.141147e-02
   endloop
 endfacet
 facet normal 5.000000e-01 -1.597468e-16 8.660254e-01
   outer loop
     vertex 1.476555e+00 2.338159e+00 1.230615e-01
     vertex 1.600656e+00 3.126259e+00 5.141147e-02
     vertex 1.476555e+00 3.126259e+00 1.230615e-01
   endloop
 endfacet
 facet normal 8.660254e-01 -2.439998e-16 -5.000000e-01
   outer loop
     vertex 1.314056e+00 3.957359e+00 5.141147e-02
     vertex 1.314056e+00 3.169259e+00 5.141147e-02
     vertex 1.312606e+00 3.169259e+00 4.890000e-02
   endloop
 endfacet
 facet normal 8.660254e-01 0.000000e+00 -5.000000e-01
   outer loop
     vertex 1.314056e+00 3.957359e+00 5.141147e-02
     vertex 1.312606e+00 3.169259e+00 4.890000e-02
     vertex 1.312606e+00 3.957359e+00 4.890000e-02
   endloop
 endfacet
 facet normal -8.660254e-01 4.968043e-16 5.000000e-01
   outer loop
     vertex 1.189955e+00 3.957359e+00 1.230615e-01
     vertex 1.188505e+00 3.169259e+00 1.205500e-01
     vertex 1.189955e+00 3.169259e+00 1.230615e-01
   endloop
 endfacet
 facet normal -8.660254e-01 4.968071e-16 5.000000e-01
   outer loop
     vertex 1.189955e+00 3.957359e+00 1.230615e-01
     vertex 1.188505e+00 3.957359e+00 1.205500e-01
     vertex 1.188505e+00 3.169259e+00 1.205500e-01
   endloop
 endfacet
 facet normal 0.000000e+00 1.000000e+00 0.000000e+00
   outer loop
     vertex 1.189955e+00 3.957359e+00 1.230615e-01
     vertex 1.312606e+00 3.957359e+00 4.890000e-02
     vertex 1.188505e+00 3.957359e+00 1.205500e-01
   endloop
 endfacet
 facet normal 0.000000e+00 1.000000e+00 0.000000e+00
   outer loop
     vertex 1.189955e+00 3.957359e+00 1.230615e-01
     vertex 1.314056e+00 3.957359e+00 5.141147e-02
     vertex 1.312606e+00 3.957359e+00 4.890000e-02
   endloop
 endfacet
 facet normal 0.000000e+00 -1.000000e+00 -0.000000e+00
   outer loop
     vertex 1.189955e+00 3.169259e+00 1.230615e-01
     vertex 1.188505e+00 3.169259e+00 1.205500e-01
     vertex 1.312606e+00 3.169259e+00 4.890000e-02
   endloop
 endfacet
 facet normal 0.000000e+00 -1.000000e+00 0.000000e+00
   outer loop
     vertex 1.189955e+00 3.169259e+00 1.230615e-01
     vertex 1.312606e+00 3.169259e+00 4.890000e-02
     vertex 1.314056e+00 3.169259e+00 5.141147e-02
   endloop
 endfacet
 facet normal -5.000000e-01 0.000000e+00 -8.660254e-01
   outer loop
     vertex 1.188505e+00 3.169259e+00 1.205500e-01
     vertex 1.312606e+00 3.957359e+00 4.890000e-02
     vertex 1.312606e+00 3.169259e+00 4.890000e-02
   endloop
 endfacet
 facet normal -5.000000e-01 2.664967e-16 -8.660254e-01
   outer loop
     vertex 1.188505e+00 3.169259e+00 1.205500e-01
     vertex 1.188505e+00 3.957359e+00 1.205500e-01
     vertex 1.312606e+00 3.957359e+00 4.890000e-02
   endloop
 endfacet
 facet normal 5.000000e-01 -1.382437e-16 8.660254e-01
   outer loop
     vertex 1.189955e+00 3.169259e+00 1.230615e-01
     vertex 1.314056e+00 3.169259e+00 5.141147e-02
     vertex 1.314056e+00 3.957359e+00 5.141147e-02
   endloop
 endfacet
 facet normal 5.000000e-01 -2.664967e-16 8.660254e-01
   outer loop
     vertex 1.189955e+00 3.169259e+00 1.230615e-01
     vertex 1.314056e+00 3.957359e+00 5.141147e-02
     vertex 1.189955e+00 3.957359e+00 1.230615e-01
   endloop
 endfacet
 facet normal 8.660254e-01 -6.163210e-17 -5.000000e-01
   outer loop
     vertex 1.314056e+00 3.126259e+00 5.141147e-02
     vertex 1.314056e+00 2.338159e+00 5.141147e-02
     vertex 1.312606e+00 2.338159e+00 4.890000e-02
   endloop
 endfacet
 facet normal 8.660254e-01 -6.170711e-17 -5.000000e-01
   outer loop
     vertex 1.314056e+00 3.126259e+00 5.141147e-02
     vertex 1.312606e+00 2.338159e+00 4.890000e-02
     vertex 1.312606e+00 3.126259e+00 4.890000e-02
   endloop
 endfacet
 facet normal -8.660254e-01 5.584364e-16 5.000000e-01
   outer loop
     vertex 1.189955e+00 3.126259e+00 1.230615e-01
     vertex 1.188505e+00 2.338159e+00 1.205500e-01
     vertex 1.189955e+00 2.338159e+00 1.230615e-01
   endloop
 endfacet
 facet normal -8.660254e-01 3.142801e-16 5.000000e-01
   outer loop
     vertex 1.189955e+00 3.126259e+00 1.230615e-01
     vertex 1.188505e+00 3.126259e+00 1.205500e-01
     vertex 1.188505e+00 2.338159e+00 1.205500e-01
   endloop
 endfacet
 facet normal 0.000000e+00 1.000000e+00 0.000000e+00
   outer loop
     vertex 1.189955e+00 3.126259e+00 1.230615e-01
     vertex 1.312606e+00 3.126259e+00 4.890000e-02
     vertex 1.188505e+00 3.126259e+00 1.205500e-01
   endloop
 endfacet
 facet normal 0.000000e+00 1.000000e+00 0.000000e+00
   outer loop
     vertex 1.189955e+00 3.126259e+00 1.230615e-01
     vertex 1.314056e+00 3.126259e+00 5.141147e-02
     vertex 1.312606e+00 3.126259e+00 4.890000e-02
   endloop
 endfacet
 facet normal 0.000000e+00 -1.000000e+00 -0.000000e+00
   outer loop
     vertex 1.189955e+00 2.338159e+00 1.230615e-01
     vertex 1.188505e+00 2.338159e+00 1.205500e-01
     vertex 1.312606e+00 2.338159e+00 4.890000e-02
   endloop
 endfacet
 facet normal 0.000000e+00 -1.000000e+00 0.000000e+00
   outer loop
     vertex 1.189955e+00 2.338159e+00 1.230615e-01
     vertex 1.312606e+00 2.338159e+00 4.890000e-02
     vertex 1.314056e+00 2.338159e+00 5.141147e-02
   endloop
 endfacet
 facet normal -5.000000e-01 -1.075229e-16 -8.660254e-01
   outer loop
     vertex 1.188505e+00 2.338159e+00 1.205500e-01
     vertex 1.312606e+00 3.126259e+00 4.890000e-02
     vertex 1.312606e+00 2.338159e+00 4.890000e-02
   endloop
 endfacet
 facet normal -5.000000e-01 1.887345e-17 -8.660254e-01
   outer loop
     vertex 1.188505e+00 2.338159e+00 1.205500e-01
     vertex 1.188505e+00 3.126259e+00 1.205500e-01
     vertex 1.312606e+00 3.126259e+00 4.890000e-02
   endloop
 endfacet
 facet normal 5.000000e-01 1.075229e-16 8.660254e-01
   outer loop
     vertex 1.189955e+00 2.338159e+00 1.230615e-01
     vertex 1.314056e+00 2.338159e+00 5.141147e-02
     vertex 1.314056e+00 3.126259e+00 5.141147e-02
   endloop
 endfacet
 facet normal 5.000000e-01 -1.597468e-16 8.660254e-01
   outer loop
     vertex 1.189955e+00 2.338159e+00 1.230615e-01
     vertex 1.314056e+00 3.126259e+00 5.141147e-02
     vertex 1.189955e+00 3.126259e+00 1.230615e-01
   endloop
 endfacet
 facet normal 8.660254e-01 3.521834e-17 -5.000000e-01
   outer loop
     vertex 1.027456e+00 3.957359e+00 5.141147e-02
     vertex 1.027456e+00 3.169259e+00 5.141147e-02
     vertex 1.026006e+00 3.169259e+00 4.890000e-02
   endloop
 endfacet
 facet normal 8.660254e-01 3.520826e-17 -5.000000e-01
   outer loop
     vertex 1.027456e+00 3.957359e+00 5.141147e-02
     vertex 1.026006e+00 3.169259e+00 4.890000e-02
     vertex 1.026006e+00 3.957359e+00 4.890000e-02
   endloop
 endfacet
 facet normal -8.660254e-01 1.219999e-16 5.000000e-01
   outer loop
     vertex 9.033546e-01 3.957359e+00 1.230615e-01
     vertex 9.019046e-01 3.169259e+00 1.205500e-01
     vertex 9.033546e-01 3.169259e+00 1.230615e-01
   endloop
 endfacet
 facet normal -8.660254e-01 1.219318e-16 5.000000e-01
   outer loop
     vertex 9.033546e-01 3.957359e+00 1.230615e-01
     vertex 9.019046e-01 3.957359e+00 1.205500e-01
     vertex 9.019046e-01 3.169259e+00 1.205500e-01
   endloop
 endfacet
 facet normal 0.000000e+00 1.000000e+00 0.000000e+00
   outer loop
     vertex 9.033546e-01 3.957359e+00 1.230615e-01
     vertex 1.026006e+00 3.957359e+00 4.890000e-02
     vertex 9.019046e-01 3.957359e+00 1.205500e-01
   endloop
 endfacet
 facet normal 0.000000e+00 1.000000e+00 0.000000e+00
   outer loop
     vertex 9.033546e-01 3.957359e+00 1.230615e-01
     vertex 1.027456e+00 3.957359e+00 5.141147e-02
     vertex 1.026006e+00 3.957359e+00 4.890000e-02
   endloop
 endfacet
 facet normal 0.000000e+00 -1.000000e+00 -0.000000e+00
   outer loop
     vertex 9.033546e-01 3.169259e+00 1.230615e-01
     vertex 9.019046e-01 3.169259e+00 1.205500e-01
     vertex 1.026006e+00 3.169259e+00 4.890000e-02
   endloop
 endfacet
 facet normal 0.000000e+00 -1.000000e+00 0.000000e+00
   outer loop
     vertex 9.033546e-01 3.169259e+00 1.230615e-01
     vertex 1.026006e+00 3.169259e+00 4.890000e-02
     vertex 1.027456e+00 3.169259e+00 5.141147e-02
   endloop
 endfacet
 facet normal -5.000000e-01 6.144163e-17 -8.660254e-01
   outer loop
     vertex 9.019046e-01 3.169259e+00 1.205500e-01
     vertex 1.026006e+00 3.957359e+00 4.890000e-02
     vertex 1.026006e+00 3.169259e+00 4.890000e-02
   endloop
 endfacet
 facet normal -5.000000e-01 7.043668e-17 -8.660254e-01
   outer loop
     vertex 9.019046e-01 3.169259e+00 1.205500e-01
     vertex 9.019046e-01 3.957359e+00 1.205500e-01
     vertex 1.026006e+00 3.957359e+00 4.890000e-02
   endloop
 endfacet
 facet normal 5.000000e-01 -6.144163e-17 8.660254e-01
   outer loop
     vertex 9.033546e-01 3.169259e+00 1.230615e-01
     vertex 1.027456e+00 3.169259e+00 5.141147e-02
     vertex 1.027456e+00 3.957359e+00 5.141147e-02
   endloop
 endfacet
 facet normal 5.000000e-01 -7.043668e-17 8.660254e-01
   outer loop
     vertex 9.033546e-01 3.169259e+00 1.230615e-01
     vertex 1.027456e+00 3.957359e+00 5.141147e-02
     vertex 9.033546e-01 3.957359e+00 1.230615e-01
   endloop
 endfacet
 facet normal 8.660254e-01 -2.641376e-17 -5.000000e-01
   outer loop
     vertex 1.027456e+00 3.126259e+00 5.141147e-02
     vertex 1.027456e+00 2.338159e+00 5.141147e-02
     vertex 1.026006e+00 2.338159e+00 4.890000e-02
   endloop
 endfacet
 facet normal 8.660254e-01 -2.649885e-17 -5.000000e-01
   outer loop
     vertex 1.027456e+00 3.126259e+00 5.141147e-02
     vertex 1.026006e+00 2.338159e+00 4.890000e-02
     vertex 1.026006e+00 3.126259e+00 4.890000e-02
   endloop
 endfacet
 facet normal -8.660254e-01 1.219999e-16 5.000000e-01
   outer loop
     vertex 9.033546e-01 3.126259e+00 1.230615e-01
     vertex 9.019046e-01 2.338159e+00 1.205500e-01
     vertex 9.033546e-01 2.338159e+00 1.230615e-01
   endloop
 endfacet
 facet normal -8.660254e-01 1.823417e-16 5.000000e-01
   outer loop
     vertex 9.033546e-01 3.126259e+00 1.230615e-01
     vertex 9.019046e-01 3.126259e+00 1.205500e-01
     vertex 9.019046e-01 2.338159e+00 1.205500e-01
   endloop
 endfacet
 facet normal 0.000000e+00 1.000000e+00 0.000000e+00
   outer loop
     vertex 9.033546e-01 3.126259e+00 1.230615e-01
     vertex 1.026006e+00 3.126259e+00 4.890000e-02
     vertex 9.019046e-01 3.126259e+00 1.205500e-01
   endloop
 endfacet
 facet normal 0.000000e+00 1.000000e+00 0.000000e+00
   outer loop
     vertex 9.033546e-01 3.126259e+00 1.230615e-01
     vertex 1.027456e+00 3.126259e+00 5.141147e-02
     vertex 1.026006e+00 3.126259e+00 4.890000e-02
   endloop
 endfacet
 facet normal 0.000000e+00 -1.000000e+00 -0.000000e+00
   outer loop
     vertex 9.033546e-01 2.338159e+00 1.230615e-01
     vertex 9.019046e-01 2.338159e+00 1.205500e-01
     vertex 1.026006e+00 2.338159e+00 4.890000e-02
   endloop
 endfacet
 facet normal 0.000000e+00 -1.000000e+00 0.000000e+00
   outer loop
     vertex 9.033546e-01 2.338159e+00 1.230615e-01
     vertex 1.026006e+00 2.338159e+00 4.890000e-02
     vertex 1.027456e+00 2.338159e+00 5.141147e-02
   endloop
 endfacet
 facet normal -5.000000e-01 -4.608122e-17 -8.660254e-01
   outer loop
     vertex 9.019046e-01 2.338159e+00 1.205500e-01
     vertex 1.026006e+00 3.126259e+00 4.890000e-02
     vertex 1.026006e+00 2.338159e+00 4.890000e-02
   endloop
 endfacet
 facet normal -5.000000e-01 2.476233e-16 -8.660254e-01
   outer loop
     vertex 9.019046e-01 2.338159e+00 1.205500e-01
     vertex 9.019046e-01 3.126259e+00 1.205500e-01
     vertex 1.026006e+00 3.126259e+00 4.890000e-02
   endloop
 endfacet
 facet normal 5.000000e-01 4.608122e-17 8.660254e-01
   outer loop
     vertex 9.033546e-01 2.338159e+00 1.230615e-01
     vertex 1.027456e+00 2.338159e+00 5.141147e-02
     vertex 1.027456e+00 3.126259e+00 5.141147e-02
   endloop
 endfacet
 facet normal 5.000000e-01 -7.043668e-17 8.660254e-01
   outer loop
     vertex 9.033546e-01 2.338159e+00 1.230615e-01
     vertex 1.027456e+00 3.126259e+00 5.141147e-02
     vertex 9.033546e-01 3.126259e+00 1.230615e-01
   endloop
 endfacet
 facet normal 8.660254e-01 4.402293e-18 -5.000000e-01
   outer loop
     vertex 7.408560e-01 3.957359e+00 5.141147e-02
     vertex 7.408560e-01 3.169259e+00 5.141147e-02
     vertex 7.394060e-01 3.169259e+00 4.890000e-02
   endloop
 endfacet
 facet normal 8.660254e-01 -1.221171e-16 -5.000000e-01
   outer loop
     vertex 7.408560e-01 3.957359e+00 5.141147e-02
     vertex 7.394060e-01 3.169259e+00 4.890000e-02
     vertex 7.394060e-01 3.957359e+00 4.890000e-02
   endloop
 endfacet
 facet normal -8.660254e-01 -3.521834e-17 5.000000e-01
   outer loop
     vertex 6.167546e-01 3.957359e+00 1.230615e-01
     vertex 6.153046e-01 3.169259e+00 1.205500e-01
     vertex 6.167546e-01 3.169259e+00 1.230615e-01
   endloop
 endfacet
 facet normal -8.660254e-01 1.219318e-16 5.000000e-01
   outer loop
     vertex 6.167546e-01 3.957359e+00 1.230615e-01
     vertex 6.153046e-01 3.957359e+00 1.205500e-01
     vertex 6.153046e-01 3.169259e+00 1.205500e-01
   endloop
 endfacet
 facet normal 0.000000e+00 1.000000e+00 0.000000e+00
   outer loop
     vertex 6.167546e-01 3.957359e+00 1.230615e-01
     vertex 7.394060e-01 3.957359e+00 4.890000e-02
     vertex 6.153046e-01 3.957359e+00 1.205500e-01
   endloop
 endfacet
 facet normal 0.000000e+00 1.000000e+00 0.000000e+00
   outer loop
     vertex 6.167546e-01 3.957359e+00 1.230615e-01
     vertex 7.408560e-01 3.957359e+00 5.141147e-02
     vertex 7.394060e-01 3.957359e+00 4.890000e-02
   endloop
 endfacet
 facet normal 0.000000e+00 -1.000000e+00 -0.000000e+00
   outer loop
     vertex 6.167546e-01 3.169259e+00 1.230615e-01
     vertex 6.153046e-01 3.169259e+00 1.205500e-01
     vertex 7.394060e-01 3.169259e+00 4.890000e-02
   endloop
 endfacet
 facet normal 0.000000e+00 -1.000000e+00 0.000000e+00
   outer loop
     vertex 6.167546e-01 3.169259e+00 1.230615e-01
     vertex 7.394060e-01 3.169259e+00 4.890000e-02
     vertex 7.408560e-01 3.169259e+00 5.141147e-02
   endloop
 endfacet
 facet normal -5.000000e-01 7.680204e-17 -8.660254e-01
   outer loop
     vertex 6.153046e-01 3.169259e+00 1.205500e-01
     vertex 7.394060e-01 3.957359e+00 4.890000e-02
     vertex 7.394060e-01 3.169259e+00 4.890000e-02
   endloop
 endfacet
 facet normal -5.000000e-01 7.043668e-17 -8.660254e-01
   outer loop
     vertex 6.153046e-01 3.169259e+00 1.205500e-01
     vertex 6.153046e-01 3.957359e+00 1.205500e-01
     vertex 7.394060e-01 3.957359e+00 4.890000e-02
   endloop
 endfacet
 facet normal 5.000000e-01 -1.536041e-17 8.660254e-01
   outer loop
     vertex 6.167546e-01 3.169259e+00 1.230615e-01
     vertex 7.408560e-01 3.169259e+00 5.141147e-02
     vertex 7.408560e-01 3.957359e+00 5.141147e-02
   endloop
 endfacet
 facet normal 5.000000e-01 -6.099996e-17 8.660254e-01
   outer loop
     vertex 6.167546e-01 3.169259e+00 1.230615e-01
     vertex 7.408560e-01 3.957359e+00 5.141147e-02
     vertex 6.167546e-01 3.957359e+00 1.230615e-01
   endloop
 endfacet
 facet normal 8.660254e-01 3.521834e-17 -5.000000e-01
   outer loop
     vertex 7.408560e-01 3.126259e+00 5.141147e-02
     vertex 7.408560e-01 2.338159e+00 5.141147e-02
     vertex 7.394060e-01 2.338159e+00 4.890000e-02
   endloop
 endfacet
 facet normal 8.660254e-01 -9.117087e-17 -5.000000e-01
   outer loop
     vertex 7.408560e-01 3.126259e+00 5.141147e-02
     vertex 7.394060e-01 2.338159e+00 4.890000e-02
     vertex 7.394060e-01 3.126259e+00 4.890000e-02
   endloop
 endfacet
 facet normal -8.660254e-01 -6.163210e-17 5.000000e-01
   outer loop
     vertex 6.167546e-01 3.126259e+00 1.230615e-01
     vertex 6.153046e-01 2.338159e+00 1.205500e-01
     vertex 6.167546e-01 2.338159e+00 1.230615e-01
   endloop
 endfacet
 facet normal -8.660254e-01 8.672351e-17 5.000000e-01
   outer loop
     vertex 6.167546e-01 3.126259e+00 1.230615e-01
     vertex 6.153046e-01 3.126259e+00 1.205500e-01
     vertex 6.153046e-01 2.338159e+00 1.205500e-01
   endloop
 endfacet
 facet normal 0.000000e+00 1.000000e+00 0.000000e+00
   outer loop
     vertex 6.167546e-01 3.126259e+00 1.230615e-01
     vertex 7.394060e-01 3.126259e+00 4.890000e-02
     vertex 6.153046e-01 3.126259e+00 1.205500e-01
   endloop
 endfacet
 facet normal 0.000000e+00 1.000000e+00 0.000000e+00
   outer loop
     vertex 6.167546e-01 3.126259e+00 1.230615e-01
     vertex 7.408560e-01 3.126259e+00 5.141147e-02
     vertex 7.394060e-01 3.126259e+00 4.890000e-02
   endloop
 endfacet
 facet normal 0.000000e+00 -1.000000e+00 -0.000000e+00
   outer loop
     vertex 6.167546e-01 2.338159e+00 1.230615e-01
     vertex 6.153046e-01 2.338159e+00 1.205500e-01
     vertex 7.394060e-01 2.338159e+00 4.890000e-02
   endloop
 endfacet
 facet normal 0.000000e+00 -1.000000e+00 0.000000e+00
   outer loop
     vertex 6.167546e-01 2.338159e+00 1.230615e-01
     vertex 7.394060e-01 2.338159e+00 4.890000e-02
     vertex 7.408560e-01 2.338159e+00 5.141147e-02
   endloop
 endfacet
 facet normal -5.000000e-01 1.382437e-16 -8.660254e-01
   outer loop
     vertex 6.153046e-01 2.338159e+00 1.205500e-01
     vertex 7.394060e-01 3.126259e+00 4.890000e-02
     vertex 7.394060e-01 2.338159e+00 4.890000e-02
   endloop
 endfacet
 facet normal -5.000000e-01 1.314366e-16 -8.660254e-01
   outer loop
     vertex 6.153046e-01 2.338159e+00 1.205500e-01
     vertex 6.153046e-01 3.126259e+00 1.205500e-01
     vertex 7.394060e-01 3.126259e+00 4.890000e-02
   endloop
 endfacet
 facet normal 5.000000e-01 -6.144163e-17 8.660254e-01
   outer loop
     vertex 6.167546e-01 2.338159e+00 1.230615e-01
     vertex 7.408560e-01 2.338159e+00 5.141147e-02
     vertex 7.408560e-01 3.126259e+00 5.141147e-02
   endloop
 endfacet
 facet normal 5.000000e-01 -1.067499e-16 8.660254e-01
   outer loop
     vertex 6.167546e-01 2.338159e+00 1.230615e-01
     vertex 7.408560e-01 3.126259e+00 5.141147e-02
     vertex 6.167546e-01 3.126259e+00 1.230615e-01
   endloop
 endfacet
endsolid shape
