solid shape, STL ascii file, created with Open CASCADE Technology
 facet normal -4.330127e-01 -7.500000e-01 -5.000000e-01
   outer loop
     vertex 2.017573e+00 1.943985e+00 5.141147e-02
     vertex 1.335058e+00 2.338035e+00 5.141147e-02
     vertex 1.335783e+00 2.339291e+00 4.890000e-02
   endloop
 endfacet
 facet normal -4.330127e-01 -7.500000e-01 -5.000000e-01
   outer loop
     vertex 2.017573e+00 1.943985e+00 5.141147e-02
     vertex 1.335783e+00 2.339291e+00 4.890000e-02
     vertex 2.018298e+00 1.945241e+00 4.890000e-02
   endloop
 endfacet
 facet normal 4.330127e-01 7.500000e-01 5.000000e-01
   outer loop
     vertex 2.079624e+00 2.051460e+00 1.230615e-01
     vertex 1.397834e+00 2.446766e+00 1.205500e-01
     vertex 1.397109e+00 2.445510e+00 1.230615e-01
   endloop
 endfacet
 facet normal 4.330127e-01 7.500000e-01 5.000000e-01
   outer loop
     vertex 2.079624e+00 2.051460e+00 1.230615e-01
     vertex 2.080349e+00 2.052716e+00 1.205500e-01
     vertex 1.397834e+00 2.446766e+00 1.205500e-01
   endloop
 endfacet
 facet normal 8.660254e-01 -5.000000e-01 -1.364808e-13
   outer loop
     vertex 2.079624e+00 2.051460e+00 1.230615e-01
     vertex 2.018298e+00 1.945241e+00 4.890000e-02
     vertex 2.080349e+00 2.052716e+00 1.205500e-01
   endloop
 endfacet
 facet normal 8.660254e-01 -5.000000e-01 7.513782e-14
   outer loop
     vertex 2.079624e+00 2.051460e+00 1.230615e-01
     vertex 2.017573e+00 1.943985e+00 5.141147e-02
     vertex 2.018298e+00 1.945241e+00 4.890000e-02
   endloop
 endfacet
 facet normal -8.660254e-01 5.000000e-01 5.804918e-15
   outer loop
     vertex 1.397109e+00 2.445510e+00 1.230615e-01
     vertex 1.397834e+00 2.446766e+00 1.205500e-01
     vertex 1.335783e+00 2.339291e+00 4.890000e-02
   endloop
 endfacet
 facet normal -8.660254e-01 5.000000e-01 1.461013e-14
   outer loop
     vertex 1.397109e+00 2.445510e+00 1.230615e-01
     vertex 1.335783e+00 2.339291e+00 4.890000e-02
     vertex 1.335058e+00 2.338035e+00 5.141147e-02
   endloop
 endfacet
 facet normal 2.500000e-01 4.330127e-01 -8.660254e-01
   outer loop
     vertex 1.397834e+00 2.446766e+00 1.205500e-01
     vertex 2.018298e+00 1.945241e+00 4.890000e-02
     vertex 1.335783e+00 2.339291e+00 4.890000e-02
   endloop
 endfacet
 facet normal 2.500000e-01 4.330127e-01 -8.660254e-01
   outer loop
     vertex 1.397834e+00 2.446766e+00 1.205500e-01
     vertex 2.080349e+00 2.052716e+00 1.205500e-01
     vertex 2.018298e+00 1.945241e+00 4.890000e-02
   endloop
 endfacet
 facet normal -2.500000e-01 -4.330127e-01 8.660254e-01
   outer loop
     vertex 1.397109e+00 2.445510e+00 1.230615e-01
     vertex 1.335058e+00 2.338035e+00 5.141147e-02
     vertex 2.017573e+00 1.943985e+00 5.141147e-02
   endloop
 endfacet
 facet normal -2.500000e-01 -4.330127e-01 8.660254e-01
   outer loop
     vertex 1.397109e+00 2.445510e+00 1.230615e-01
     vertex 2.017573e+00 1.943985e+00 5.141147e-02
     vertex 2.079624e+00 2.051460e+00 1.230615e-01
   endloop
 endfacet
 facet normal -4.330127e-01 -7.500000e-01 -5.000000e-01
   outer loop
     vertex 1.297819e+00 2.359535e+00 5.141147e-02
     vertex 6.153047e-01 2.753585e+00 5.141147e-02
     vertex 6.160297e-01 2.754841e+00 4.890000e-02
   endloop
 endfacet
 facet normal -4.330127e-01 -7.500000e-01 -5.000000e-01
   outer loop
     vertex 1.297819e+00 2.359535e+00 5.141147e-02
     vertex 6.160297e-01 2.754841e+00 4.890000e-02
     vertex 1.298544e+00 2.360791e+00 4.890000e-02
   endloop
 endfacet
 facet normal 4.330127e-01 7.500000e-01 5.000000e-01
   outer loop
     vertex 1.359870e+00 2.467010e+00 1.230615e-01
     vertex 6.780804e-01 2.862316e+00 1.205500e-01
     vertex 6.773554e-01 2.861060e+00 1.230615e-01
   endloop
 endfacet
 facet normal 4.330127e-01 7.500000e-01 5.000000e-01
   outer loop
     vertex 1.359870e+00 2.467010e+00 1.230615e-01
     vertex 1.360595e+00 2.468266e+00 1.205500e-01
     vertex 6.780804e-01 2.862316e+00 1.205500e-01
   endloop
 endfacet
 facet normal 8.660254e-01 -5.000000e-01 1.084672e-13
   outer loop
     vertex 1.359870e+00 2.467010e+00 1.230615e-01
     vertex 1.298544e+00 2.360791e+00 4.890000e-02
     vertex 1.360595e+00 2.468266e+00 1.205500e-01
   endloop
 endfacet
 facet normal 8.660254e-01 -5.000000e-01 -1.252297e-14
   outer loop
     vertex 1.359870e+00 2.467010e+00 1.230615e-01
     vertex 1.297819e+00 2.359535e+00 5.141147e-02
     vertex 1.298544e+00 2.360791e+00 4.890000e-02
   endloop
 endfacet
 facet normal -8.660254e-01 5.000000e-01 -4.252592e-14
   outer loop
     vertex 6.773554e-01 2.861060e+00 1.230615e-01
     vertex 6.780804e-01 2.862316e+00 1.205500e-01
     vertex 6.160297e-01 2.754841e+00 4.890000e-02
   endloop
 endfacet
 facet normal -8.660254e-01 5.000000e-01 -1.461013e-14
   outer loop
     vertex 6.773554e-01 2.861060e+00 1.230615e-01
     vertex 6.160297e-01 2.754841e+00 4.890000e-02
     vertex 6.153047e-01 2.753585e+00 5.141147e-02
   endloop
 endfacet
 facet normal 2.500000e-01 4.330127e-01 -8.660254e-01
   outer loop
     vertex 6.780804e-01 2.862316e+00 1.205500e-01
     vertex 1.298544e+00 2.360791e+00 4.890000e-02
     vertex 6.160297e-01 2.754841e+00 4.890000e-02
   endloop
 endfacet
 facet normal 2.500000e-01 4.330127e-01 -8.660254e-01
   outer loop
     vertex 6.780804e-01 2.862316e+00 1.205500e-01
     vertex 1.360595e+00 2.468266e+00 1.205500e-01
     vertex 1.298544e+00 2.360791e+00 4.890000e-02
   endloop
 endfacet
 facet normal -2.500000e-01 -4.330127e-01 8.660254e-01
   outer loop
     vertex 6.773554e-01 2.861060e+00 1.230615e-01
     vertex 6.153047e-01 2.753585e+00 5.141147e-02
     vertex 1.297819e+00 2.359535e+00 5.141147e-02
   endloop
 endfacet
 facet normal -2.500000e-01 -4.330127e-01 8.660254e-01
   outer loop
     vertex 6.773554e-01 2.861060e+00 1.230615e-01
     vertex 1.297819e+00 2.359535e+00 5.141147e-02
     vertex 1.359870e+00 2.467010e+00 1.230615e-01
   endloop
 endfacet
 facet normal -4.330127e-01 -7.500000e-01 -5.000000e-01
   outer loop
     vertex 2.160873e+00 2.192188e+00 5.141147e-02
     vertex 1.478358e+00 2.586238e+00 5.141147e-02
     vertex 1.479083e+00 2.587494e+00 4.890000e-02
   endloop
 endfacet
 facet normal -4.330127e-01 -7.500000e-01 -5.000000e-01
   outer loop
     vertex 2.160873e+00 2.192188e+00 5.141147e-02
     vertex 1.479083e+00 2.587494e+00 4.890000e-02
     vertex 2.161598e+00 2.193444e+00 4.890000e-02
   endloop
 endfacet
 facet normal 4.330127e-01 7.500000e-01 5.000000e-01
   outer loop
     vertex 2.222924e+00 2.299663e+00 1.230615e-01
     vertex 1.541134e+00 2.694969e+00 1.205500e-01
     vertex 1.540409e+00 2.693713e+00 1.230615e-01
   endloop
 endfacet
 facet normal 4.330127e-01 7.500000e-01 5.000000e-01
   outer loop
     vertex 2.222924e+00 2.299663e+00 1.230615e-01
     vertex 2.223649e+00 2.300919e+00 1.205500e-01
     vertex 1.541134e+00 2.694969e+00 1.205500e-01
   endloop
 endfacet
 facet normal 8.660254e-01 -5.000000e-01 -1.854313e-13
   outer loop
     vertex 2.222924e+00 2.299663e+00 1.230615e-01
     vertex 2.161598e+00 2.193444e+00 4.890000e-02
     vertex 2.223649e+00 2.300919e+00 1.205500e-01
   endloop
 endfacet
 facet normal 8.660254e-01 -5.000000e-01 1.064452e-13
   outer loop
     vertex 2.222924e+00 2.299663e+00 1.230615e-01
     vertex 2.160873e+00 2.192188e+00 5.141147e-02
     vertex 2.161598e+00 2.193444e+00 4.890000e-02
   endloop
 endfacet
 facet normal -8.660254e-01 5.000000e-01 -4.226502e-14
   outer loop
     vertex 1.540409e+00 2.693713e+00 1.230615e-01
     vertex 1.541134e+00 2.694969e+00 1.205500e-01
     vertex 1.479083e+00 2.587494e+00 4.890000e-02
   endloop
 endfacet
 facet normal -8.660254e-01 5.000000e-01 -5.217904e-14
   outer loop
     vertex 1.540409e+00 2.693713e+00 1.230615e-01
     vertex 1.479083e+00 2.587494e+00 4.890000e-02
     vertex 1.478358e+00 2.586238e+00 5.141147e-02
   endloop
 endfacet
 facet normal 2.500000e-01 4.330127e-01 -8.660254e-01
   outer loop
     vertex 1.541134e+00 2.694969e+00 1.205500e-01
     vertex 2.161598e+00 2.193444e+00 4.890000e-02
     vertex 1.479083e+00 2.587494e+00 4.890000e-02
   endloop
 endfacet
 facet normal 2.500000e-01 4.330127e-01 -8.660254e-01
   outer loop
     vertex 1.541134e+00 2.694969e+00 1.205500e-01
     vertex 2.223649e+00 2.300919e+00 1.205500e-01
     vertex 2.161598e+00 2.193444e+00 4.890000e-02
   endloop
 endfacet
 facet normal -2.500000e-01 -4.330127e-01 8.660254e-01
   outer loop
     vertex 1.540409e+00 2.693713e+00 1.230615e-01
     vertex 1.478358e+00 2.586238e+00 5.141147e-02
     vertex 2.160873e+00 2.192188e+00 5.141147e-02
   endloop
 endfacet
 facet normal -2.500000e-01 -4.330127e-01 8.660254e-01
   outer loop
     vertex 1.540409e+00 2.693713e+00 1.230615e-01
     vertex 2.160873e+00 2.192188e+00 5.141147e-02
     vertex 2.222924e+00 2.299663e+00 1.230615e-01
   endloop
 endfacet
 facet normal -4.330127e-01 -7.500000e-01 -5.000000e-01
   outer loop
     vertex 1.441119e+00 2.607738e+00 5.141147e-02
     vertex 7.586047e-01 3.001788e+00 5.141147e-02
     vertex 7.593297e-01 3.003044e+00 4.890000e-02
   endloop
 endfacet
 facet normal -4.330127e-01 -7.500000e-01 -5.000000e-01
   outer loop
     vertex 1.441119e+00 2.607738e+00 5.141147e-02
     vertex 7.593297e-01 3.003044e+00 4.890000e-02
     vertex 1.441844e+00 2.608994e+00 4.890000e-02
   endloop
 endfacet
 facet normal 4.330127e-01 7.500000e-01 5.000000e-01
   outer loop
     vertex 1.503170e+00 2.715213e+00 1.230615e-01
     vertex 8.213804e-01 3.110519e+00 1.205500e-01
     vertex 8.206554e-01 3.109263e+00 1.230615e-01
   endloop
 endfacet
 facet normal 4.330127e-01 7.500000e-01 5.000000e-01
   outer loop
     vertex 1.503170e+00 2.715213e+00 1.230615e-01
     vertex 1.503895e+00 2.716469e+00 1.205500e-01
     vertex 8.213804e-01 3.110519e+00 1.205500e-01
   endloop
 endfacet
 facet normal 8.660254e-01 -5.000000e-01 9.147638e-14
   outer loop
     vertex 1.503170e+00 2.715213e+00 1.230615e-01
     vertex 1.441844e+00 2.608994e+00 4.890000e-02
     vertex 1.503895e+00 2.716469e+00 1.205500e-01
   endloop
 endfacet
 facet normal 8.660254e-01 -5.000000e-01 5.217904e-14
   outer loop
     vertex 1.503170e+00 2.715213e+00 1.230615e-01
     vertex 1.441119e+00 2.607738e+00 5.141147e-02
     vertex 1.441844e+00 2.608994e+00 4.890000e-02
   endloop
 endfacet
 facet normal -8.660254e-01 5.000000e-01 -1.402312e-14
   outer loop
     vertex 8.206554e-01 3.109263e+00 1.230615e-01
     vertex 8.213804e-01 3.110519e+00 1.205500e-01
     vertex 7.593297e-01 3.003044e+00 4.890000e-02
   endloop
 endfacet
 facet normal -8.660254e-01 5.000000e-01 -1.461013e-14
   outer loop
     vertex 8.206554e-01 3.109263e+00 1.230615e-01
     vertex 7.593297e-01 3.003044e+00 4.890000e-02
     vertex 7.586047e-01 3.001788e+00 5.141147e-02
   endloop
 endfacet
 facet normal 2.500000e-01 4.330127e-01 -8.660254e-01
   outer loop
     vertex 8.213804e-01 3.110519e+00 1.205500e-01
     vertex 1.441844e+00 2.608994e+00 4.890000e-02
     vertex 7.593297e-01 3.003044e+00 4.890000e-02
   endloop
 endfacet
 facet normal 2.500000e-01 4.330127e-01 -8.660254e-01
   outer loop
     vertex 8.213804e-01 3.110519e+00 1.205500e-01
     vertex 1.503895e+00 2.716469e+00 1.205500e-01
     vertex 1.441844e+00 2.608994e+00 4.890000e-02
   endloop
 endfacet
 facet normal -2.500000e-01 -4.330127e-01 8.660254e-01
   outer loop
     vertex 8.206554e-01 3.109263e+00 1.230615e-01
     vertex 7.586047e-01 3.001788e+00 5.141147e-02
     vertex 1.441119e+00 2.607738e+00 5.141147e-02
   endloop
 endfacet
 facet normal -2.500000e-01 -4.330127e-01 8.660254e-01
   outer loop
     vertex 8.206554e-01 3.109263e+00 1.230615e-01
     vertex 1.441119e+00 2.607738e+00 5.141147e-02
     vertex 1.503170e+00 2.715213e+00 1.230615e-01
   endloop
 endfacet
 facet normal -4.330127e-01 -7.500000e-01 -5.000000e-01
   outer loop
     vertex 2.304173e+00 2.440391e+00 5.141147e-02
     vertex 1.621658e+00 2.834441e+00 5.141147e-02
     vertex 1.622383e+00 2.835697e+00 4.890000e-02
   endloop
 endfacet
 facet normal -4.330127e-01 -7.500000e-01 -5.000000e-01
   outer loop
     vertex 2.304173e+00 2.440391e+00 5.141147e-02
     vertex 1.622383e+00 2.835697e+00 4.890000e-02
     vertex 2.304898e+00 2.441647e+00 4.890000e-02
   endloop
 endfacet
 facet normal 4.330127e-01 7.500000e-01 5.000000e-01
   outer loop
     vertex 2.366224e+00 2.547866e+00 1.230615e-01
     vertex 1.684434e+00 2.943172e+00 1.205500e-01
     vertex 1.683709e+00 2.941916e+00 1.230615e-01
   endloop
 endfacet
 facet normal 4.330127e-01 7.500000e-01 5.000000e-01
   outer loop
     vertex 2.366224e+00 2.547866e+00 1.230615e-01
     vertex 2.366949e+00 2.549122e+00 1.205500e-01
     vertex 1.684434e+00 2.943172e+00 1.205500e-01
   endloop
 endfacet
 facet normal 8.660254e-01 -5.000000e-01 -7.132222e-14
   outer loop
     vertex 2.366224e+00 2.547866e+00 1.230615e-01
     vertex 2.304898e+00 2.441647e+00 4.890000e-02
     vertex 2.366949e+00 2.549122e+00 1.205500e-01
   endloop
 endfacet
 facet normal 8.660254e-01 -5.000000e-01 -7.096349e-14
   outer loop
     vertex 2.366224e+00 2.547866e+00 1.230615e-01
     vertex 2.304173e+00 2.440391e+00 5.141147e-02
     vertex 2.304898e+00 2.441647e+00 4.890000e-02
   endloop
 endfacet
 facet normal -8.660254e-01 5.000000e-01 -1.002816e-13
   outer loop
     vertex 1.683709e+00 2.941916e+00 1.230615e-01
     vertex 1.684434e+00 2.943172e+00 1.205500e-01
     vertex 1.622383e+00 2.835697e+00 4.890000e-02
   endloop
 endfacet
 facet normal -8.660254e-01 5.000000e-01 1.461013e-14
   outer loop
     vertex 1.683709e+00 2.941916e+00 1.230615e-01
     vertex 1.622383e+00 2.835697e+00 4.890000e-02
     vertex 1.621658e+00 2.834441e+00 5.141147e-02
   endloop
 endfacet
 facet normal 2.500000e-01 4.330127e-01 -8.660254e-01
   outer loop
     vertex 1.684434e+00 2.943172e+00 1.205500e-01
     vertex 2.304898e+00 2.441647e+00 4.890000e-02
     vertex 1.622383e+00 2.835697e+00 4.890000e-02
   endloop
 endfacet
 facet normal 2.500000e-01 4.330127e-01 -8.660254e-01
   outer loop
     vertex 1.684434e+00 2.943172e+00 1.205500e-01
     vertex 2.366949e+00 2.549122e+00 1.205500e-01
     vertex 2.304898e+00 2.441647e+00 4.890000e-02
   endloop
 endfacet
 facet normal -2.500000e-01 -4.330127e-01 8.660254e-01
   outer loop
     vertex 1.683709e+00 2.941916e+00 1.230615e-01
     vertex 1.621658e+00 2.834441e+00 5.141147e-02
     vertex 2.304173e+00 2.440391e+00 5.141147e-02
   endloop
 endfacet
 facet normal -2.500000e-01 -4.330127e-01 8.660254e-01
   outer loop
     vertex 1.683709e+00 2.941916e+00 1.230615e-01
     vertex 2.304173e+00 2.440391e+00 5.141147e-02
     vertex 2.366224e+00 2.547866e+00 1.230615e-01
   endloop
 endfacet
 facet normal -4.330127e-01 -7.500000e-01 -5.000000e-01
   outer loop
     vertex 1.584419e+00 2.855941e+00 5.141147e-02
     vertex 9.019047e-01 3.249991e+00 5.141147e-02
     vertex 9.026297e-01 3.251247e+00 4.890000e-02
   endloop
 endfacet
 facet normal -4.330127e-01 -7.500000e-01 -5.000000e-01
   outer loop
     vertex 1.584419e+00 2.855941e+00 5.141147e-02
     vertex 9.026297e-01 3.251247e+00 4.890000e-02
     vertex 1.585144e+00 2.857197e+00 4.890000e-02
   endloop
 endfacet
 facet normal 4.330127e-01 7.500000e-01 5.000000e-01
   outer loop
     vertex 1.646470e+00 2.963416e+00 1.230615e-01
     vertex 9.646804e-01 3.358722e+00 1.205500e-01
     vertex 9.639554e-01 3.357466e+00 1.230615e-01
   endloop
 endfacet
 facet normal 4.330127e-01 7.500000e-01 5.000000e-01
   outer loop
     vertex 1.646470e+00 2.963416e+00 1.230615e-01
     vertex 1.647195e+00 2.964672e+00 1.205500e-01
     vertex 9.646804e-01 3.358722e+00 1.205500e-01
   endloop
 endfacet
 facet normal 8.660254e-01 -5.000000e-01 5.185292e-14
   outer loop
     vertex 1.646470e+00 2.963416e+00 1.230615e-01
     vertex 1.585144e+00 2.857197e+00 4.890000e-02
     vertex 1.647195e+00 2.964672e+00 1.205500e-01
   endloop
 endfacet
 facet normal 8.660254e-01 -5.000000e-01 6.052769e-14
   outer loop
     vertex 1.646470e+00 2.963416e+00 1.230615e-01
     vertex 1.584419e+00 2.855941e+00 5.141147e-02
     vertex 1.585144e+00 2.857197e+00 4.890000e-02
   endloop
 endfacet
 facet normal -8.660254e-01 5.000000e-01 -5.107023e-14
   outer loop
     vertex 9.639554e-01 3.357466e+00 1.230615e-01
     vertex 9.646804e-01 3.358722e+00 1.205500e-01
     vertex 9.026297e-01 3.251247e+00 4.890000e-02
   endloop
 endfacet
 facet normal -8.660254e-01 5.000000e-01 4.174323e-15
   outer loop
     vertex 9.639554e-01 3.357466e+00 1.230615e-01
     vertex 9.026297e-01 3.251247e+00 4.890000e-02
     vertex 9.019047e-01 3.249991e+00 5.141147e-02
   endloop
 endfacet
 facet normal 2.500000e-01 4.330127e-01 -8.660254e-01
   outer loop
     vertex 9.646804e-01 3.358722e+00 1.205500e-01
     vertex 1.585144e+00 2.857197e+00 4.890000e-02
     vertex 9.026297e-01 3.251247e+00 4.890000e-02
   endloop
 endfacet
 facet normal 2.500000e-01 4.330127e-01 -8.660254e-01
   outer loop
     vertex 9.646804e-01 3.358722e+00 1.205500e-01
     vertex 1.647195e+00 2.964672e+00 1.205500e-01
     vertex 1.585144e+00 2.857197e+00 4.890000e-02
   endloop
 endfacet
 facet normal -2.500000e-01 -4.330127e-01 8.660254e-01
   outer loop
     vertex 9.639554e-01 3.357466e+00 1.230615e-01
     vertex 9.019047e-01 3.249991e+00 5.141147e-02
     vertex 1.584419e+00 2.855941e+00 5.141147e-02
   endloop
 endfacet
 facet normal -2.500000e-01 -4.330127e-01 8.660254e-01
   outer loop
     vertex 9.639554e-01 3.357466e+00 1.230615e-01
     vertex 1.584419e+00 2.855941e+00 5.141147e-02
     vertex 1.646470e+00 2.963416e+00 1.230615e-01
   endloop
 endfacet
 facet normal -4.330127e-01 -7.500000e-01 -5.000000e-01
   outer loop
     vertex 2.447473e+00 2.688594e+00 5.141147e-02
     vertex 1.764958e+00 3.082644e+00 5.141147e-02
     vertex 1.765683e+00 3.083900e+00 4.890000e-02
   endloop
 endfacet
 facet normal -4.330127e-01 -7.500000e-01 -5.000000e-01
   outer loop
     vertex 2.447473e+00 2.688594e+00 5.141147e-02
     vertex 1.765683e+00 3.083900e+00 4.890000e-02
     vertex 2.448198e+00 2.689850e+00 4.890000e-02
   endloop
 endfacet
 facet normal 4.330127e-01 7.500000e-01 5.000000e-01
   outer loop
     vertex 2.509524e+00 2.796069e+00 1.230615e-01
     vertex 1.827734e+00 3.191375e+00 1.205500e-01
     vertex 1.827009e+00 3.190119e+00 1.230615e-01
   endloop
 endfacet
 facet normal 4.330127e-01 7.500000e-01 5.000000e-01
   outer loop
     vertex 2.509524e+00 2.796069e+00 1.230615e-01
     vertex 2.510249e+00 2.797325e+00 1.205500e-01
     vertex 1.827734e+00 3.191375e+00 1.205500e-01
   endloop
 endfacet
 facet normal 8.660254e-01 -5.000000e-01 -1.848442e-13
   outer loop
     vertex 2.509524e+00 2.796069e+00 1.230615e-01
     vertex 2.448198e+00 2.689850e+00 4.890000e-02
     vertex 2.510249e+00 2.797325e+00 1.205500e-01
   endloop
 endfacet
 facet normal 8.660254e-01 -5.000000e-01 1.085324e-13
   outer loop
     vertex 2.509524e+00 2.796069e+00 1.230615e-01
     vertex 2.447473e+00 2.688594e+00 5.141147e-02
     vertex 2.448198e+00 2.689850e+00 4.890000e-02
   endloop
 endfacet
 facet normal -8.660254e-01 5.000000e-01 -1.091520e-13
   outer loop
     vertex 1.827009e+00 3.190119e+00 1.230615e-01
     vertex 1.827734e+00 3.191375e+00 1.205500e-01
     vertex 1.765683e+00 3.083900e+00 4.890000e-02
   endloop
 endfacet
 facet normal -8.660254e-01 5.000000e-01 4.174323e-15
   outer loop
     vertex 1.827009e+00 3.190119e+00 1.230615e-01
     vertex 1.765683e+00 3.083900e+00 4.890000e-02
     vertex 1.764958e+00 3.082644e+00 5.141147e-02
   endloop
 endfacet
 facet normal 2.500000e-01 4.330127e-01 -8.660254e-01
   outer loop
     vertex 1.827734e+00 3.191375e+00 1.205500e-01
     vertex 2.448198e+00 2.689850e+00 4.890000e-02
     vertex 1.765683e+00 3.083900e+00 4.890000e-02
   endloop
 endfacet
 facet normal 2.500000e-01 4.330127e-01 -8.660254e-01
   outer loop
     vertex 1.827734e+00 3.191375e+00 1.205500e-01
     vertex 2.510249e+00 2.797325e+00 1.205500e-01
     vertex 2.448198e+00 2.689850e+00 4.890000e-02
   endloop
 endfacet
 facet normal -2.500000e-01 -4.330127e-01 8.660254e-01
   outer loop
     vertex 1.827009e+00 3.190119e+00 1.230615e-01
     vertex 1.764958e+00 3.082644e+00 5.141147e-02
     vertex 2.447473e+00 2.688594e+00 5.141147e-02
   endloop
 endfacet
 facet normal -2.500000e-01 -4.330127e-01 8.660254e-01
   outer loop
     vertex 1.827009e+00 3.190119e+00 1.230615e-01
     vertex 2.447473e+00 2.688594e+00 5.141147e-02
     vertex 2.509524e+00 2.796069e+00 1.230615e-01
   endloop
 endfacet
 facet normal -4.330127e-01 -7.500000e-01 -5.000000e-01
   outer loop
     vertex 1.727719e+00 3.104144e+00 5.141147e-02
     vertex 1.045205e+00 3.498194e+00 5.141147e-02
     vertex 1.045930e+00 3.499450e+00 4.890000e-02
   endloop
 endfacet
 facet normal -4.330127e-01 -7.500000e-01 -5.000000e-01
   outer loop
     vertex 1.727719e+00 3.104144e+00 5.141147e-02
     vertex 1.045930e+00 3.499450e+00 4.890000e-02
     vertex 1.728444e+00 3.105400e+00 4.890000e-02
   endloop
 endfacet
 facet normal 4.330127e-01 7.500000e-01 5.000000e-01
   outer loop
     vertex 1.789770e+00 3.211619e+00 1.230615e-01
     vertex 1.107980e+00 3.606925e+00 1.205500e-01
     vertex 1.107255e+00 3.605669e+00 1.230615e-01
   endloop
 endfacet
 facet normal 4.330127e-01 7.500000e-01 5.000000e-01
   outer loop
     vertex 1.789770e+00 3.211619e+00 1.230615e-01
     vertex 1.790495e+00 3.212875e+00 1.205500e-01
     vertex 1.107980e+00 3.606925e+00 1.205500e-01
   endloop
 endfacet
 facet normal 8.660254e-01 -5.000000e-01 4.219980e-14
   outer loop
     vertex 1.789770e+00 3.211619e+00 1.230615e-01
     vertex 1.728444e+00 3.105400e+00 4.890000e-02
     vertex 1.790495e+00 3.212875e+00 1.205500e-01
   endloop
 endfacet
 facet normal 8.660254e-01 -5.000000e-01 -4.174323e-15
   outer loop
     vertex 1.789770e+00 3.211619e+00 1.230615e-01
     vertex 1.727719e+00 3.104144e+00 5.141147e-02
     vertex 1.728444e+00 3.105400e+00 4.890000e-02
   endloop
 endfacet
 facet normal -8.660254e-01 5.000000e-01 -4.226502e-14
   outer loop
     vertex 1.107255e+00 3.605669e+00 1.230615e-01
     vertex 1.107980e+00 3.606925e+00 1.205500e-01
     vertex 1.045930e+00 3.499450e+00 4.890000e-02
   endloop
 endfacet
 facet normal -8.660254e-01 5.000000e-01 5.426620e-14
   outer loop
     vertex 1.107255e+00 3.605669e+00 1.230615e-01
     vertex 1.045930e+00 3.499450e+00 4.890000e-02
     vertex 1.045205e+00 3.498194e+00 5.141147e-02
   endloop
 endfacet
 facet normal 2.500000e-01 4.330127e-01 -8.660254e-01
   outer loop
     vertex 1.107980e+00 3.606925e+00 1.205500e-01
     vertex 1.728444e+00 3.105400e+00 4.890000e-02
     vertex 1.045930e+00 3.499450e+00 4.890000e-02
   endloop
 endfacet
 facet normal 2.500000e-01 4.330127e-01 -8.660254e-01
   outer loop
     vertex 1.107980e+00 3.606925e+00 1.205500e-01
     vertex 1.790495e+00 3.212875e+00 1.205500e-01
     vertex 1.728444e+00 3.105400e+00 4.890000e-02
   endloop
 endfacet
 facet normal -2.500000e-01 -4.330127e-01 8.660254e-01
   outer loop
     vertex 1.107255e+00 3.605669e+00 1.230615e-01
     vertex 1.045205e+00 3.498194e+00 5.141147e-02
     vertex 1.727719e+00 3.104144e+00 5.141147e-02
   endloop
 endfacet
 facet normal -2.500000e-01 -4.330127e-01 8.660254e-01
   outer loop
     vertex 1.107255e+00 3.605669e+00 1.230615e-01
     vertex 1.727719e+00 3.104144e+00 5.141147e-02
     vertex 1.789770e+00 3.211619e+00 1.230615e-01
   endloop
 endfacet
 facet normal -4.330127e-01 -7.500000e-01 -5.000000e-01
   outer loop
     vertex 2.590773e+00 2.936797e+00 5.141147e-02
     vertex 1.908258e+00 3.330847e+00 5.141147e-02
     vertex 1.908983e+00 3.332103e+00 4.890000e-02
   endloop
 endfacet
 facet normal -4.330127e-01 -7.500000e-01 -5.000000e-01
   outer loop
     vertex 2.590773e+00 2.936797e+00 5.141147e-02
     vertex 1.908983e+00 3.332103e+00 4.890000e-02
     vertex 2.591498e+00 2.938053e+00 4.890000e-02
   endloop
 endfacet
 facet normal 4.330127e-01 7.500000e-01 5.000000e-01
   outer loop
     vertex 2.652824e+00 3.044272e+00 1.230615e-01
     vertex 1.971034e+00 3.439578e+00 1.205500e-01
     vertex 1.970309e+00 3.438322e+00 1.230615e-01
   endloop
 endfacet
 facet normal 4.330127e-01 7.500000e-01 5.000000e-01
   outer loop
     vertex 2.652824e+00 3.044272e+00 1.230615e-01
     vertex 2.653549e+00 3.045528e+00 1.205500e-01
     vertex 1.971034e+00 3.439578e+00 1.205500e-01
   endloop
 endfacet
 facet normal 8.660254e-01 -5.000000e-01 -1.854313e-13
   outer loop
     vertex 2.652824e+00 3.044272e+00 1.230615e-01
     vertex 2.591498e+00 2.938053e+00 4.890000e-02
     vertex 2.653549e+00 3.045528e+00 1.205500e-01
   endloop
 endfacet
 facet normal 8.660254e-01 -5.000000e-01 -6.261485e-15
   outer loop
     vertex 2.652824e+00 3.044272e+00 1.230615e-01
     vertex 2.590773e+00 2.936797e+00 5.141147e-02
     vertex 2.591498e+00 2.938053e+00 4.890000e-02
   endloop
 endfacet
 facet normal -8.660254e-01 5.000000e-01 1.379483e-14
   outer loop
     vertex 1.970309e+00 3.438322e+00 1.230615e-01
     vertex 1.971034e+00 3.439578e+00 1.205500e-01
     vertex 1.908983e+00 3.332103e+00 4.890000e-02
   endloop
 endfacet
 facet normal -8.660254e-01 5.000000e-01 6.261485e-15
   outer loop
     vertex 1.970309e+00 3.438322e+00 1.230615e-01
     vertex 1.908983e+00 3.332103e+00 4.890000e-02
     vertex 1.908258e+00 3.330847e+00 5.141147e-02
   endloop
 endfacet
 facet normal 2.500000e-01 4.330127e-01 -8.660254e-01
   outer loop
     vertex 1.971034e+00 3.439578e+00 1.205500e-01
     vertex 2.591498e+00 2.938053e+00 4.890000e-02
     vertex 1.908983e+00 3.332103e+00 4.890000e-02
   endloop
 endfacet
 facet normal 2.500000e-01 4.330127e-01 -8.660254e-01
   outer loop
     vertex 1.971034e+00 3.439578e+00 1.205500e-01
     vertex 2.653549e+00 3.045528e+00 1.205500e-01
     vertex 2.591498e+00 2.938053e+00 4.890000e-02
   endloop
 endfacet
 facet normal -2.500000e-01 -4.330127e-01 8.660254e-01
   outer loop
     vertex 1.970309e+00 3.438322e+00 1.230615e-01
     vertex 1.908258e+00 3.330847e+00 5.141147e-02
     vertex 2.590773e+00 2.936797e+00 5.141147e-02
   endloop
 endfacet
 facet normal -2.500000e-01 -4.330127e-01 8.660254e-01
   outer loop
     vertex 1.970309e+00 3.438322e+00 1.230615e-01
     vertex 2.590773e+00 2.936797e+00 5.141147e-02
     vertex 2.652824e+00 3.044272e+00 1.230615e-01
   endloop
 endfacet
 facet normal -4.330127e-01 -7.500000e-01 -5.000000e-01
   outer loop
     vertex 1.871019e+00 3.352347e+00 5.141147e-02
     vertex 1.188505e+00 3.746397e+00 5.141147e-02
     vertex 1.189230e+00 3.747653e+00 4.890000e-02
   endloop
 endfacet
 facet normal -4.330127e-01 -7.500000e-01 -5.000000e-01
   outer loop
     vertex 1.871019e+00 3.352347e+00 5.141147e-02
     vertex 1.189230e+00 3.747653e+00 4.890000e-02
     vertex 1.871744e+00 3.353603e+00 4.890000e-02
   endloop
 endfacet
 facet normal 4.330127e-01 7.500000e-01 5.000000e-01
   outer loop
     vertex 1.933070e+00 3.459822e+00 1.230615e-01
     vertex 1.251280e+00 3.855128e+00 1.205500e-01
     vertex 1.250555e+00 3.853872e+00 1.230615e-01
   endloop
 endfacet
 facet normal 4.330127e-01 7.500000e-01 5.000000e-01
   outer loop
     vertex 1.933070e+00 3.459822e+00 1.230615e-01
     vertex 1.933795e+00 3.461078e+00 1.205500e-01
     vertex 1.251280e+00 3.855128e+00 1.205500e-01
   endloop
 endfacet
 facet normal 8.660254e-01 -5.000000e-01 1.180551e-13
   outer loop
     vertex 1.933070e+00 3.459822e+00 1.230615e-01
     vertex 1.871744e+00 3.353603e+00 4.890000e-02
     vertex 1.933795e+00 3.461078e+00 1.205500e-01
   endloop
 endfacet
 facet normal 8.660254e-01 -5.000000e-01 1.106196e-13
   outer loop
     vertex 1.933070e+00 3.459822e+00 1.230615e-01
     vertex 1.871019e+00 3.352347e+00 5.141147e-02
     vertex 1.871744e+00 3.353603e+00 4.890000e-02
   endloop
 endfacet
 facet normal -8.660254e-01 5.000000e-01 -5.240732e-14
   outer loop
     vertex 1.250555e+00 3.853872e+00 1.230615e-01
     vertex 1.251280e+00 3.855128e+00 1.205500e-01
     vertex 1.189230e+00 3.747653e+00 4.890000e-02
   endloop
 endfacet
 facet normal -8.660254e-01 5.000000e-01 -5.217904e-14
   outer loop
     vertex 1.250555e+00 3.853872e+00 1.230615e-01
     vertex 1.189230e+00 3.747653e+00 4.890000e-02
     vertex 1.188505e+00 3.746397e+00 5.141147e-02
   endloop
 endfacet
 facet normal 2.500000e-01 4.330127e-01 -8.660254e-01
   outer loop
     vertex 1.251280e+00 3.855128e+00 1.205500e-01
     vertex 1.871744e+00 3.353603e+00 4.890000e-02
     vertex 1.189230e+00 3.747653e+00 4.890000e-02
   endloop
 endfacet
 facet normal 2.500000e-01 4.330127e-01 -8.660254e-01
   outer loop
     vertex 1.251280e+00 3.855128e+00 1.205500e-01
     vertex 1.933795e+00 3.461078e+00 1.205500e-01
     vertex 1.871744e+00 3.353603e+00 4.890000e-02
   endloop
 endfacet
 facet normal -2.500000e-01 -4.330127e-01 8.660254e-01
   outer loop
     vertex 1.250555e+00 3.853872e+00 1.230615e-01
     vertex 1.188505e+00 3.746397e+00 5.141147e-02
     vertex 1.871019e+00 3.352347e+00 5.141147e-02
   endloop
 endfacet
 facet normal -2.500000e-01 -4.330127e-01 8.660254e-01
   outer loop
     vertex 1.250555e+00 3.853872e+00 1.230615e-01
     vertex 1.871019e+00 3.352347e+00 5.141147e-02
     vertex 1.933070e+00 3.459822e+00 1.230615e-01
   endloop
 endfacet
 facet normal -4.330127e-01 -7.500000e-01 -5.000000e-01
   outer loop
     vertex 2.734073e+00 3.185000e+00 5.141147e-02
     vertex 2.051558e+00 3.579050e+00 5.141147e-02
     vertex 2.052283e+00 3.580305e+00 4.890000e-02
   endloop
 endfacet
 facet normal -4.330127e-01 -7.500000e-01 -5.000000e-01
   outer loop
     vertex 2.734073e+00 3.185000e+00 5.141147e-02
     vertex 2.052283e+00 3.580305e+00 4.890000e-02
     vertex 2.734798e+00 3.186255e+00 4.890000e-02
   endloop
 endfacet
 facet normal 4.330127e-01 7.500000e-01 5.000000e-01
   outer loop
     vertex 2.796124e+00 3.292475e+00 1.230615e-01
     vertex 2.114334e+00 3.687780e+00 1.205500e-01
     vertex 2.113609e+00 3.686525e+00 1.230615e-01
   endloop
 endfacet
 facet normal 4.330127e-01 7.500000e-01 5.000000e-01
   outer loop
     vertex 2.796124e+00 3.292475e+00 1.230615e-01
     vertex 2.796849e+00 3.293730e+00 1.205500e-01
     vertex 2.114334e+00 3.687780e+00 1.205500e-01
   endloop
 endfacet
 facet normal 8.660254e-01 -5.000000e-01 -1.198813e-13
   outer loop
     vertex 2.796124e+00 3.292475e+00 1.230615e-01
     vertex 2.734798e+00 3.186255e+00 4.890000e-02
     vertex 2.796849e+00 3.293730e+00 1.205500e-01
   endloop
 endfacet
 facet normal 8.660254e-01 -5.000000e-01 4.174323e-14
   outer loop
     vertex 2.796124e+00 3.292475e+00 1.230615e-01
     vertex 2.734073e+00 3.185000e+00 5.141147e-02
     vertex 2.734798e+00 3.186255e+00 4.890000e-02
   endloop
 endfacet
 facet normal -8.660254e-01 5.000000e-01 -5.997328e-14
   outer loop
     vertex 2.113609e+00 3.686525e+00 1.230615e-01
     vertex 2.114334e+00 3.687780e+00 1.205500e-01
     vertex 2.052283e+00 3.580305e+00 4.890000e-02
   endloop
 endfacet
 facet normal -8.660254e-01 5.000000e-01 7.096349e-14
   outer loop
     vertex 2.113609e+00 3.686525e+00 1.230615e-01
     vertex 2.052283e+00 3.580305e+00 4.890000e-02
     vertex 2.051558e+00 3.579050e+00 5.141147e-02
   endloop
 endfacet
 facet normal 2.500000e-01 4.330127e-01 -8.660254e-01
   outer loop
     vertex 2.114334e+00 3.687780e+00 1.205500e-01
     vertex 2.734798e+00 3.186255e+00 4.890000e-02
     vertex 2.052283e+00 3.580305e+00 4.890000e-02
   endloop
 endfacet
 facet normal 2.500000e-01 4.330127e-01 -8.660254e-01
   outer loop
     vertex 2.114334e+00 3.687780e+00 1.205500e-01
     vertex 2.796849e+00 3.293730e+00 1.205500e-01
     vertex 2.734798e+00 3.186255e+00 4.890000e-02
   endloop
 endfacet
 facet normal -2.500000e-01 -4.330127e-01 8.660254e-01
   outer loop
     vertex 2.113609e+00 3.686525e+00 1.230615e-01
     vertex 2.051558e+00 3.579050e+00 5.141147e-02
     vertex 2.734073e+00 3.185000e+00 5.141147e-02
   endloop
 endfacet
 facet normal -2.500000e-01 -4.330127e-01 8.660254e-01
   outer loop
     vertex 2.113609e+00 3.686525e+00 1.230615e-01
     vertex 2.734073e+00 3.185000e+00 5.141147e-02
     vertex 2.796124e+00 3.292475e+00 1.230615e-01
   endloop
 endfacet
 facet normal -4.330127e-01 -7.500000e-01 -5.000000e-01
   outer loop
     vertex 2.014319e+00 3.600550e+00 5.141147e-02
     vertex 1.331805e+00 3.994600e+00 5.141147e-02
     vertex 1.332530e+00 3.995855e+00 4.890000e-02
   endloop
 endfacet
 facet normal -4.330127e-01 -7.500000e-01 -5.000000e-01
   outer loop
     vertex 2.014319e+00 3.600550e+00 5.141147e-02
     vertex 1.332530e+00 3.995855e+00 4.890000e-02
     vertex 2.015044e+00 3.601805e+00 4.890000e-02
   endloop
 endfacet
 facet normal 4.330127e-01 7.500000e-01 5.000000e-01
   outer loop
     vertex 2.076370e+00 3.708025e+00 1.230615e-01
     vertex 1.394580e+00 4.103330e+00 1.205500e-01
     vertex 1.393855e+00 4.102075e+00 1.230615e-01
   endloop
 endfacet
 facet normal 4.330127e-01 7.500000e-01 5.000000e-01
   outer loop
     vertex 2.076370e+00 3.708025e+00 1.230615e-01
     vertex 2.077095e+00 3.709280e+00 1.205500e-01
     vertex 1.394580e+00 4.103330e+00 1.205500e-01
   endloop
 endfacet
 facet normal 8.660254e-01 -5.000000e-01 -7.132222e-14
   outer loop
     vertex 2.076370e+00 3.708025e+00 1.230615e-01
     vertex 2.015044e+00 3.601805e+00 4.890000e-02
     vertex 2.077095e+00 3.709280e+00 1.205500e-01
   endloop
 endfacet
 facet normal 8.660254e-01 -5.000000e-01 8.974795e-14
   outer loop
     vertex 2.076370e+00 3.708025e+00 1.230615e-01
     vertex 2.014319e+00 3.600550e+00 5.141147e-02
     vertex 2.015044e+00 3.601805e+00 4.890000e-02
   endloop
 endfacet
 facet normal -8.660254e-01 5.000000e-01 7.132222e-14
   outer loop
     vertex 1.393855e+00 4.102075e+00 1.230615e-01
     vertex 1.394580e+00 4.103330e+00 1.205500e-01
     vertex 1.332530e+00 3.995855e+00 4.890000e-02
   endloop
 endfacet
 facet normal -8.660254e-01 5.000000e-01 2.295878e-14
   outer loop
     vertex 1.393855e+00 4.102075e+00 1.230615e-01
     vertex 1.332530e+00 3.995855e+00 4.890000e-02
     vertex 1.331805e+00 3.994600e+00 5.141147e-02
   endloop
 endfacet
 facet normal 2.500000e-01 4.330127e-01 -8.660254e-01
   outer loop
     vertex 1.394580e+00 4.103330e+00 1.205500e-01
     vertex 2.015044e+00 3.601805e+00 4.890000e-02
     vertex 1.332530e+00 3.995855e+00 4.890000e-02
   endloop
 endfacet
 facet normal 2.500000e-01 4.330127e-01 -8.660254e-01
   outer loop
     vertex 1.394580e+00 4.103330e+00 1.205500e-01
     vertex 2.077095e+00 3.709280e+00 1.205500e-01
     vertex 2.015044e+00 3.601805e+00 4.890000e-02
   endloop
 endfacet
 facet normal -2.500000e-01 -4.330127e-01 8.660254e-01
   outer loop
     vertex 1.393855e+00 4.102075e+00 1.230615e-01
     vertex 1.331805e+00 3.994600e+00 5.141147e-02
     vertex 2.014319e+00 3.600550e+00 5.141147e-02
   endloop
 endfacet
 facet normal -2.500000e-01 -4.330127e-01 8.660254e-01
   outer loop
     vertex 1.393855e+00 4.102075e+00 1.230615e-01
     vertex 2.014319e+00 3.600550e+00 5.141147e-02
     vertex 2.076370e+00 3.708025e+00 1.230615e-01
   endloop
 endfacet
 facet normal -4.330127e-01 -7.500000e-01 -5.000000e-01
   outer loop
     vertex 2.877373e+00 3.433203e+00 5.141147e-02
     vertex 2.194858e+00 3.827253e+00 5.141147e-02
     vertex 2.195583e+00 3.828508e+00 4.890000e-02
   endloop
 endfacet
 facet normal -4.330127e-01 -7.500000e-01 -5.000000e-01
   outer loop
     vertex 2.877373e+00 3.433203e+00 5.141147e-02
     vertex 2.195583e+00 3.828508e+00 4.890000e-02
     vertex 2.878098e+00 3.434458e+00 4.890000e-02
   endloop
 endfacet
 facet normal 4.330127e-01 7.500000e-01 5.000000e-01
   outer loop
     vertex 2.939424e+00 3.540678e+00 1.230615e-01
     vertex 2.257634e+00 3.935983e+00 1.205500e-01
     vertex 2.256909e+00 3.934728e+00 1.230615e-01
   endloop
 endfacet
 facet normal 4.330127e-01 7.500000e-01 5.000000e-01
   outer loop
     vertex 2.939424e+00 3.540678e+00 1.230615e-01
     vertex 2.940149e+00 3.541933e+00 1.205500e-01
     vertex 2.257634e+00 3.935983e+00 1.205500e-01
   endloop
 endfacet
 facet normal 8.660254e-01 -5.000000e-01 -1.193269e-13
   outer loop
     vertex 2.939424e+00 3.540678e+00 1.230615e-01
     vertex 2.878098e+00 3.434458e+00 4.890000e-02
     vertex 2.940149e+00 3.541933e+00 1.205500e-01
   endloop
 endfacet
 facet normal 8.660254e-01 -5.000000e-01 1.544500e-13
   outer loop
     vertex 2.939424e+00 3.540678e+00 1.230615e-01
     vertex 2.877373e+00 3.433203e+00 5.141147e-02
     vertex 2.878098e+00 3.434458e+00 4.890000e-02
   endloop
 endfacet
 facet normal -8.660254e-01 5.000000e-01 7.132222e-14
   outer loop
     vertex 2.256909e+00 3.934728e+00 1.230615e-01
     vertex 2.257634e+00 3.935983e+00 1.205500e-01
     vertex 2.195583e+00 3.828508e+00 4.890000e-02
   endloop
 endfacet
 facet normal -8.660254e-01 5.000000e-01 7.096349e-14
   outer loop
     vertex 2.256909e+00 3.934728e+00 1.230615e-01
     vertex 2.195583e+00 3.828508e+00 4.890000e-02
     vertex 2.194858e+00 3.827253e+00 5.141147e-02
   endloop
 endfacet
 facet normal 2.500000e-01 4.330127e-01 -8.660254e-01
   outer loop
     vertex 2.257634e+00 3.935983e+00 1.205500e-01
     vertex 2.878098e+00 3.434458e+00 4.890000e-02
     vertex 2.195583e+00 3.828508e+00 4.890000e-02
   endloop
 endfacet
 facet normal 2.500000e-01 4.330127e-01 -8.660254e-01
   outer loop
     vertex 2.257634e+00 3.935983e+00 1.205500e-01
     vertex 2.940149e+00 3.541933e+00 1.205500e-01
     vertex 2.878098e+00 3.434458e+00 4.890000e-02
   endloop
 endfacet
 facet normal -2.500000e-01 -4.330127e-01 8.660254e-01
   outer loop
     vertex 2.256909e+00 3.934728e+00 1.230615e-01
     vertex 2.194858e+00 3.827253e+00 5.141147e-02
     vertex 2.877373e+00 3.433203e+00 5.141147e-02
   endloop
 endfacet
 facet normal -2.500000e-01 -4.330127e-01 8.660254e-01
   outer loop
     vertex 2.256909e+00 3.934728e+00 1.230615e-01
     vertex 2.877373e+00 3.433203e+00 5.141147e-02
     vertex 2.939424e+00 3.540678e+00 1.230615e-01
   endloop
 endfacet
 facet normal -4.330127e-01 -7.500000e-01 -5.000000e-01
   outer loop
     vertex 2.157619e+00 3.848753e+00 5.141147e-02
     vertex 1.475105e+00 4.242803e+00 5.141147e-02
     vertex 1.475830e+00 4.244058e+00 4.890000e-02
   endloop
 endfacet
 facet normal -4.330127e-01 -7.500000e-01 -5.000000e-01
   outer loop
     vertex 2.157619e+00 3.848753e+00 5.141147e-02
     vertex 1.475830e+00 4.244058e+00 4.890000e-02
     vertex 2.158344e+00 3.850008e+00 4.890000e-02
   endloop
 endfacet
 facet normal 4.330127e-01 7.500000e-01 5.000000e-01
   outer loop
     vertex 2.219670e+00 3.956228e+00 1.230615e-01
     vertex 1.537880e+00 4.351533e+00 1.205500e-01
     vertex 1.537155e+00 4.350278e+00 1.230615e-01
   endloop
 endfacet
 facet normal 4.330127e-01 7.500000e-01 5.000000e-01
   outer loop
     vertex 2.219670e+00 3.956228e+00 1.230615e-01
     vertex 2.220395e+00 3.957483e+00 1.205500e-01
     vertex 1.537880e+00 4.351533e+00 1.205500e-01
   endloop
 endfacet
 facet normal 8.660254e-01 -5.000000e-01 -1.854313e-13
   outer loop
     vertex 2.219670e+00 3.956228e+00 1.230615e-01
     vertex 2.158344e+00 3.850008e+00 4.890000e-02
     vertex 2.220395e+00 3.957483e+00 1.205500e-01
   endloop
 endfacet
 facet normal 8.660254e-01 -5.000000e-01 4.174323e-14
   outer loop
     vertex 2.219670e+00 3.956228e+00 1.230615e-01
     vertex 2.157619e+00 3.848753e+00 5.141147e-02
     vertex 2.158344e+00 3.850008e+00 4.890000e-02
   endloop
 endfacet
 facet normal -8.660254e-01 5.000000e-01 1.456447e-13
   outer loop
     vertex 1.537155e+00 4.350278e+00 1.230615e-01
     vertex 1.537880e+00 4.351533e+00 1.205500e-01
     vertex 1.475830e+00 4.244058e+00 4.890000e-02
   endloop
 endfacet
 facet normal -8.660254e-01 5.000000e-01 -4.174323e-14
   outer loop
     vertex 1.537155e+00 4.350278e+00 1.230615e-01
     vertex 1.475830e+00 4.244058e+00 4.890000e-02
     vertex 1.475105e+00 4.242803e+00 5.141147e-02
   endloop
 endfacet
 facet normal 2.500000e-01 4.330127e-01 -8.660254e-01
   outer loop
     vertex 1.537880e+00 4.351533e+00 1.205500e-01
     vertex 2.158344e+00 3.850008e+00 4.890000e-02
     vertex 1.475830e+00 4.244058e+00 4.890000e-02
   endloop
 endfacet
 facet normal 2.500000e-01 4.330127e-01 -8.660254e-01
   outer loop
     vertex 1.537880e+00 4.351533e+00 1.205500e-01
     vertex 2.220395e+00 3.957483e+00 1.205500e-01
     vertex 2.158344e+00 3.850008e+00 4.890000e-02
   endloop
 endfacet
 facet normal -2.500000e-01 -4.330127e-01 8.660254e-01
   outer loop
     vertex 1.537155e+00 4.350278e+00 1.230615e-01
     vertex 1.475105e+00 4.242803e+00 5.141147e-02
     vertex 2.157619e+00 3.848753e+00 5.141147e-02
   endloop
 endfacet
 facet normal -2.500000e-01 -4.330127e-01 8.660254e-01
   outer loop
     vertex 1.537155e+00 4.350278e+00 1.230615e-01
     vertex 2.157619e+00 3.848753e+00 5.141147e-02
     vertex 2.219670e+00 3.956228e+00 1.230615e-01
   endloop
 endfacet
endsolid shape
