solid shape, STL ascii file, created with Open CASCADE Technology
 facet normal -8.660254e-01 -5.000000e-01 0.000000e+00
   outer loop
     vertex 1.833549e+01 1.491642e+00 8.818515e+01
     vertex 1.832049e+01 1.517623e+00 8.818515e+01
     vertex 1.832049e+01 1.517623e+00 6.454093e+01
   endloop
 endfacet
 facet normal -8.660254e-01 -5.000000e-01 -0.000000e+00
   outer loop
     vertex 1.833549e+01 1.491642e+00 8.818515e+01
     vertex 1.832049e+01 1.517623e+00 6.454093e+01
     vertex 1.833549e+01 1.491642e+00 6.454093e+01
   endloop
 endfacet
 facet normal 8.660254e-01 5.000000e-01 0.000000e+00
   outer loop
     vertex 2.205849e+01 3.641117e+00 8.818515e+01
     vertex 2.204349e+01 3.667098e+00 6.454093e+01
     vertex 2.204349e+01 3.667098e+00 8.818515e+01
   endloop
 endfacet
 facet normal 8.660254e-01 5.000000e-01 0.000000e+00
   outer loop
     vertex 2.205849e+01 3.641117e+00 8.818515e+01
     vertex 2.205849e+01 3.641117e+00 6.454093e+01
     vertex 2.204349e+01 3.667098e+00 6.454093e+01
   endloop
 endfacet
 facet normal 5.000000e-01 -8.660254e-01 0.000000e+00
   outer loop
     vertex 2.205849e+01 3.641117e+00 8.818515e+01
     vertex 1.833549e+01 1.491642e+00 6.454093e+01
     vertex 2.205849e+01 3.641117e+00 6.454093e+01
   endloop
 endfacet
 facet normal 5.000000e-01 -8.660254e-01 0.000000e+00
   outer loop
     vertex 2.205849e+01 3.641117e+00 8.818515e+01
     vertex 1.833549e+01 1.491642e+00 8.818515e+01
     vertex 1.833549e+01 1.491642e+00 6.454093e+01
   endloop
 endfacet
 facet normal -5.000000e-01 8.660254e-01 0.000000e+00
   outer loop
     vertex 2.204349e+01 3.667098e+00 8.818515e+01
     vertex 2.204349e+01 3.667098e+00 6.454093e+01
     vertex 1.832049e+01 1.517623e+00 6.454093e+01
   endloop
 endfacet
 facet normal -5.000000e-01 8.660254e-01 0.000000e+00
   outer loop
     vertex 2.204349e+01 3.667098e+00 8.818515e+01
     vertex 1.832049e+01 1.517623e+00 6.454093e+01
     vertex 1.832049e+01 1.517623e+00 8.818515e+01
   endloop
 endfacet
 facet normal 0.000000e+00 0.000000e+00 -1.000000e+00
   outer loop
     vertex 2.204349e+01 3.667098e+00 6.454093e+01
     vertex 1.833549e+01 1.491642e+00 6.454093e+01
     vertex 1.832049e+01 1.517623e+00 6.454093e+01
   endloop
 endfacet
 facet normal 0.000000e+00 -0.000000e+00 -1.000000e+00
   outer loop
     vertex 2.204349e+01 3.667098e+00 6.454093e+01
     vertex 2.205849e+01 3.641117e+00 6.454093e+01
     vertex 1.833549e+01 1.491642e+00 6.454093e+01
   endloop
 endfacet
 facet normal 0.000000e+00 0.000000e+00 1.000000e+00
   outer loop
     vertex 2.204349e+01 3.667098e+00 8.818515e+01
     vertex 1.832049e+01 1.517623e+00 8.818515e+01
     vertex 1.833549e+01 1.491642e+00 8.818515e+01
   endloop
 endfacet
 facet normal 0.000000e+00 0.000000e+00 1.000000e+00
   outer loop
     vertex 2.204349e+01 3.667098e+00 8.818515e+01
     vertex 1.833549e+01 1.491642e+00 8.818515e+01
     vertex 2.205849e+01 3.641117e+00 8.818515e+01
   endloop
 endfacet
 facet normal -8.660254e-01 -5.000000e-01 0.000000e+00
   outer loop
     vertex 1.833549e+01 1.491642e+00 1.131191e+02
     vertex 1.832049e+01 1.517623e+00 1.131191e+02
     vertex 1.832049e+01 1.517623e+00 8.947483e+01
   endloop
 endfacet
 facet normal -8.660254e-01 -5.000000e-01 -0.000000e+00
   outer loop
     vertex 1.833549e+01 1.491642e+00 1.131191e+02
     vertex 1.832049e+01 1.517623e+00 8.947483e+01
     vertex 1.833549e+01 1.491642e+00 8.947483e+01
   endloop
 endfacet
 facet normal 8.660254e-01 5.000000e-01 0.000000e+00
   outer loop
     vertex 2.205849e+01 3.641117e+00 1.131191e+02
     vertex 2.204349e+01 3.667098e+00 8.947483e+01
     vertex 2.204349e+01 3.667098e+00 1.131191e+02
   endloop
 endfacet
 facet normal 8.660254e-01 5.000000e-01 0.000000e+00
   outer loop
     vertex 2.205849e+01 3.641117e+00 1.131191e+02
     vertex 2.205849e+01 3.641117e+00 8.947483e+01
     vertex 2.204349e+01 3.667098e+00 8.947483e+01
   endloop
 endfacet
 facet normal 5.000000e-01 -8.660254e-01 0.000000e+00
   outer loop
     vertex 2.205849e+01 3.641117e+00 1.131191e+02
     vertex 1.833549e+01 1.491642e+00 8.947483e+01
     vertex 2.205849e+01 3.641117e+00 8.947483e+01
   endloop
 endfacet
 facet normal 5.000000e-01 -8.660254e-01 0.000000e+00
   outer loop
     vertex 2.205849e+01 3.641117e+00 1.131191e+02
     vertex 1.833549e+01 1.491642e+00 1.131191e+02
     vertex 1.833549e+01 1.491642e+00 8.947483e+01
   endloop
 endfacet
 facet normal -5.000000e-01 8.660254e-01 0.000000e+00
   outer loop
     vertex 2.204349e+01 3.667098e+00 1.131191e+02
     vertex 2.204349e+01 3.667098e+00 8.947483e+01
     vertex 1.832049e+01 1.517623e+00 8.947483e+01
   endloop
 endfacet
 facet normal -5.000000e-01 8.660254e-01 0.000000e+00
   outer loop
     vertex 2.204349e+01 3.667098e+00 1.131191e+02
     vertex 1.832049e+01 1.517623e+00 8.947483e+01
     vertex 1.832049e+01 1.517623e+00 1.131191e+02
   endloop
 endfacet
 facet normal 0.000000e+00 0.000000e+00 -1.000000e+00
   outer loop
     vertex 2.204349e+01 3.667098e+00 8.947483e+01
     vertex 1.833549e+01 1.491642e+00 8.947483e+01
     vertex 1.832049e+01 1.517623e+00 8.947483e+01
   endloop
 endfacet
 facet normal 0.000000e+00 -0.000000e+00 -1.000000e+00
   outer loop
     vertex 2.204349e+01 3.667098e+00 8.947483e+01
     vertex 2.205849e+01 3.641117e+00 8.947483e+01
     vertex 1.833549e+01 1.491642e+00 8.947483e+01
   endloop
 endfacet
 facet normal 0.000000e+00 0.000000e+00 1.000000e+00
   outer loop
     vertex 2.204349e+01 3.667098e+00 1.131191e+02
     vertex 1.832049e+01 1.517623e+00 1.131191e+02
     vertex 1.833549e+01 1.491642e+00 1.131191e+02
   endloop
 endfacet
 facet normal 0.000000e+00 0.000000e+00 1.000000e+00
   outer loop
     vertex 2.204349e+01 3.667098e+00 1.131191e+02
     vertex 1.833549e+01 1.491642e+00 1.131191e+02
     vertex 2.205849e+01 3.641117e+00 1.131191e+02
   endloop
 endfacet
 facet normal -8.660254e-01 -5.000000e-01 0.000000e+00
   outer loop
     vertex 2.693339e+01 1.491642e+00 8.818515e+01
     vertex 2.691839e+01 1.517623e+00 8.818515e+01
     vertex 2.691839e+01 1.517623e+00 6.454093e+01
   endloop
 endfacet
 facet normal -8.660254e-01 -5.000000e-01 -0.000000e+00
   outer loop
     vertex 2.693339e+01 1.491642e+00 8.818515e+01
     vertex 2.691839e+01 1.517623e+00 6.454093e+01
     vertex 2.693339e+01 1.491642e+00 6.454093e+01
   endloop
 endfacet
 facet normal 8.660254e-01 5.000000e-01 0.000000e+00
   outer loop
     vertex 3.065639e+01 3.641117e+00 8.818515e+01
     vertex 3.064139e+01 3.667098e+00 6.454093e+01
     vertex 3.064139e+01 3.667098e+00 8.818515e+01
   endloop
 endfacet
 facet normal 8.660254e-01 5.000000e-01 0.000000e+00
   outer loop
     vertex 3.065639e+01 3.641117e+00 8.818515e+01
     vertex 3.065639e+01 3.641117e+00 6.454093e+01
     vertex 3.064139e+01 3.667098e+00 6.454093e+01
   endloop
 endfacet
 facet normal 5.000000e-01 -8.660254e-01 0.000000e+00
   outer loop
     vertex 3.065639e+01 3.641117e+00 8.818515e+01
     vertex 2.693339e+01 1.491642e+00 6.454093e+01
     vertex 3.065639e+01 3.641117e+00 6.454093e+01
   endloop
 endfacet
 facet normal 5.000000e-01 -8.660254e-01 0.000000e+00
   outer loop
     vertex 3.065639e+01 3.641117e+00 8.818515e+01
     vertex 2.693339e+01 1.491642e+00 8.818515e+01
     vertex 2.693339e+01 1.491642e+00 6.454093e+01
   endloop
 endfacet
 facet normal -5.000000e-01 8.660254e-01 0.000000e+00
   outer loop
     vertex 3.064139e+01 3.667098e+00 8.818515e+01
     vertex 3.064139e+01 3.667098e+00 6.454093e+01
     vertex 2.691839e+01 1.517623e+00 6.454093e+01
   endloop
 endfacet
 facet normal -5.000000e-01 8.660254e-01 0.000000e+00
   outer loop
     vertex 3.064139e+01 3.667098e+00 8.818515e+01
     vertex 2.691839e+01 1.517623e+00 6.454093e+01
     vertex 2.691839e+01 1.517623e+00 8.818515e+01
   endloop
 endfacet
 facet normal 0.000000e+00 0.000000e+00 -1.000000e+00
   outer loop
     vertex 3.064139e+01 3.667098e+00 6.454093e+01
     vertex 2.693339e+01 1.491642e+00 6.454093e+01
     vertex 2.691839e+01 1.517623e+00 6.454093e+01
   endloop
 endfacet
 facet normal 0.000000e+00 -0.000000e+00 -1.000000e+00
   outer loop
     vertex 3.064139e+01 3.667098e+00 6.454093e+01
     vertex 3.065639e+01 3.641117e+00 6.454093e+01
     vertex 2.693339e+01 1.491642e+00 6.454093e+01
   endloop
 endfacet
 facet normal 0.000000e+00 0.000000e+00 1.000000e+00
   outer loop
     vertex 3.064139e+01 3.667098e+00 8.818515e+01
     vertex 2.691839e+01 1.517623e+00 8.818515e+01
     vertex 2.693339e+01 1.491642e+00 8.818515e+01
   endloop
 endfacet
 facet normal 0.000000e+00 0.000000e+00 1.000000e+00
   outer loop
     vertex 3.064139e+01 3.667098e+00 8.818515e+01
     vertex 2.693339e+01 1.491642e+00 8.818515e+01
     vertex 3.065639e+01 3.641117e+00 8.818515e+01
   endloop
 endfacet
 facet normal -8.660254e-01 -5.000000e-01 0.000000e+00
   outer loop
     vertex 2.693339e+01 1.491642e+00 1.131191e+02
     vertex 2.691839e+01 1.517623e+00 1.131191e+02
     vertex 2.691839e+01 1.517623e+00 8.947483e+01
   endloop
 endfacet
 facet normal -8.660254e-01 -5.000000e-01 -0.000000e+00
   outer loop
     vertex 2.693339e+01 1.491642e+00 1.131191e+02
     vertex 2.691839e+01 1.517623e+00 8.947483e+01
     vertex 2.693339e+01 1.491642e+00 8.947483e+01
   endloop
 endfacet
 facet normal 8.660254e-01 5.000000e-01 0.000000e+00
   outer loop
     vertex 3.065639e+01 3.641117e+00 1.131191e+02
     vertex 3.064139e+01 3.667098e+00 8.947483e+01
     vertex 3.064139e+01 3.667098e+00 1.131191e+02
   endloop
 endfacet
 facet normal 8.660254e-01 5.000000e-01 0.000000e+00
   outer loop
     vertex 3.065639e+01 3.641117e+00 1.131191e+02
     vertex 3.065639e+01 3.641117e+00 8.947483e+01
     vertex 3.064139e+01 3.667098e+00 8.947483e+01
   endloop
 endfacet
 facet normal 5.000000e-01 -8.660254e-01 0.000000e+00
   outer loop
     vertex 3.065639e+01 3.641117e+00 1.131191e+02
     vertex 2.693339e+01 1.491642e+00 8.947483e+01
     vertex 3.065639e+01 3.641117e+00 8.947483e+01
   endloop
 endfacet
 facet normal 5.000000e-01 -8.660254e-01 0.000000e+00
   outer loop
     vertex 3.065639e+01 3.641117e+00 1.131191e+02
     vertex 2.693339e+01 1.491642e+00 1.131191e+02
     vertex 2.693339e+01 1.491642e+00 8.947483e+01
   endloop
 endfacet
 facet normal -5.000000e-01 8.660254e-01 0.000000e+00
   outer loop
     vertex 3.064139e+01 3.667098e+00 1.131191e+02
     vertex 3.064139e+01 3.667098e+00 8.947483e+01
     vertex 2.691839e+01 1.517623e+00 8.947483e+01
   endloop
 endfacet
 facet normal -5.000000e-01 8.660254e-01 0.000000e+00
   outer loop
     vertex 3.064139e+01 3.667098e+00 1.131191e+02
     vertex 2.691839e+01 1.517623e+00 8.947483e+01
     vertex 2.691839e+01 1.517623e+00 1.131191e+02
   endloop
 endfacet
 facet normal 0.000000e+00 0.000000e+00 -1.000000e+00
   outer loop
     vertex 3.064139e+01 3.667098e+00 8.947483e+01
     vertex 2.693339e+01 1.491642e+00 8.947483e+01
     vertex 2.691839e+01 1.517623e+00 8.947483e+01
   endloop
 endfacet
 facet normal 0.000000e+00 -0.000000e+00 -1.000000e+00
   outer loop
     vertex 3.064139e+01 3.667098e+00 8.947483e+01
     vertex 3.065639e+01 3.641117e+00 8.947483e+01
     vertex 2.693339e+01 1.491642e+00 8.947483e+01
   endloop
 endfacet
 facet normal 0.000000e+00 0.000000e+00 1.000000e+00
   outer loop
     vertex 3.064139e+01 3.667098e+00 1.131191e+02
     vertex 2.691839e+01 1.517623e+00 1.131191e+02
     vertex 2.693339e+01 1.491642e+00 1.131191e+02
   endloop
 endfacet
 facet normal 0.000000e+00 0.000000e+00 1.000000e+00
   outer loop
     vertex 3.064139e+01 3.667098e+00 1.131191e+02
     vertex 2.693339e+01 1.491642e+00 1.131191e+02
     vertex 3.065639e+01 3.641117e+00 1.131191e+02
   endloop
 endfacet
 facet normal -8.660254e-01 -5.000000e-01 0.000000e+00
   outer loop
     vertex 3.553129e+01 1.491642e+00 8.818515e+01
     vertex 3.551629e+01 1.517623e+00 8.818515e+01
     vertex 3.551629e+01 1.517623e+00 6.454093e+01
   endloop
 endfacet
 facet normal -8.660254e-01 -5.000000e-01 -0.000000e+00
   outer loop
     vertex 3.553129e+01 1.491642e+00 8.818515e+01
     vertex 3.551629e+01 1.517623e+00 6.454093e+01
     vertex 3.553129e+01 1.491642e+00 6.454093e+01
   endloop
 endfacet
 facet normal 8.660254e-01 5.000000e-01 0.000000e+00
   outer loop
     vertex 3.925429e+01 3.641117e+00 8.818515e+01
     vertex 3.923929e+01 3.667098e+00 6.454093e+01
     vertex 3.923929e+01 3.667098e+00 8.818515e+01
   endloop
 endfacet
 facet normal 8.660254e-01 5.000000e-01 0.000000e+00
   outer loop
     vertex 3.925429e+01 3.641117e+00 8.818515e+01
     vertex 3.925429e+01 3.641117e+00 6.454093e+01
     vertex 3.923929e+01 3.667098e+00 6.454093e+01
   endloop
 endfacet
 facet normal 5.000000e-01 -8.660254e-01 0.000000e+00
   outer loop
     vertex 3.925429e+01 3.641117e+00 8.818515e+01
     vertex 3.553129e+01 1.491642e+00 6.454093e+01
     vertex 3.925429e+01 3.641117e+00 6.454093e+01
   endloop
 endfacet
 facet normal 5.000000e-01 -8.660254e-01 0.000000e+00
   outer loop
     vertex 3.925429e+01 3.641117e+00 8.818515e+01
     vertex 3.553129e+01 1.491642e+00 8.818515e+01
     vertex 3.553129e+01 1.491642e+00 6.454093e+01
   endloop
 endfacet
 facet normal -5.000000e-01 8.660254e-01 0.000000e+00
   outer loop
     vertex 3.923929e+01 3.667098e+00 8.818515e+01
     vertex 3.923929e+01 3.667098e+00 6.454093e+01
     vertex 3.551629e+01 1.517623e+00 6.454093e+01
   endloop
 endfacet
 facet normal -5.000000e-01 8.660254e-01 0.000000e+00
   outer loop
     vertex 3.923929e+01 3.667098e+00 8.818515e+01
     vertex 3.551629e+01 1.517623e+00 6.454093e+01
     vertex 3.551629e+01 1.517623e+00 8.818515e+01
   endloop
 endfacet
 facet normal 0.000000e+00 0.000000e+00 -1.000000e+00
   outer loop
     vertex 3.923929e+01 3.667098e+00 6.454093e+01
     vertex 3.553129e+01 1.491642e+00 6.454093e+01
     vertex 3.551629e+01 1.517623e+00 6.454093e+01
   endloop
 endfacet
 facet normal 0.000000e+00 -0.000000e+00 -1.000000e+00
   outer loop
     vertex 3.923929e+01 3.667098e+00 6.454093e+01
     vertex 3.925429e+01 3.641117e+00 6.454093e+01
     vertex 3.553129e+01 1.491642e+00 6.454093e+01
   endloop
 endfacet
 facet normal 0.000000e+00 0.000000e+00 1.000000e+00
   outer loop
     vertex 3.923929e+01 3.667098e+00 8.818515e+01
     vertex 3.551629e+01 1.517623e+00 8.818515e+01
     vertex 3.553129e+01 1.491642e+00 8.818515e+01
   endloop
 endfacet
 facet normal 0.000000e+00 0.000000e+00 1.000000e+00
   outer loop
     vertex 3.923929e+01 3.667098e+00 8.818515e+01
     vertex 3.553129e+01 1.491642e+00 8.818515e+01
     vertex 3.925429e+01 3.641117e+00 8.818515e+01
   endloop
 endfacet
 facet normal -8.660254e-01 -5.000000e-01 0.000000e+00
   outer loop
     vertex 3.553129e+01 1.491642e+00 1.131191e+02
     vertex 3.551629e+01 1.517623e+00 1.131191e+02
     vertex 3.551629e+01 1.517623e+00 8.947483e+01
   endloop
 endfacet
 facet normal -8.660254e-01 -5.000000e-01 -0.000000e+00
   outer loop
     vertex 3.553129e+01 1.491642e+00 1.131191e+02
     vertex 3.551629e+01 1.517623e+00 8.947483e+01
     vertex 3.553129e+01 1.491642e+00 8.947483e+01
   endloop
 endfacet
 facet normal 8.660254e-01 5.000000e-01 0.000000e+00
   outer loop
     vertex 3.925429e+01 3.641117e+00 1.131191e+02
     vertex 3.923929e+01 3.667098e+00 8.947483e+01
     vertex 3.923929e+01 3.667098e+00 1.131191e+02
   endloop
 endfacet
 facet normal 8.660254e-01 5.000000e-01 0.000000e+00
   outer loop
     vertex 3.925429e+01 3.641117e+00 1.131191e+02
     vertex 3.925429e+01 3.641117e+00 8.947483e+01
     vertex 3.923929e+01 3.667098e+00 8.947483e+01
   endloop
 endfacet
 facet normal 5.000000e-01 -8.660254e-01 0.000000e+00
   outer loop
     vertex 3.925429e+01 3.641117e+00 1.131191e+02
     vertex 3.553129e+01 1.491642e+00 8.947483e+01
     vertex 3.925429e+01 3.641117e+00 8.947483e+01
   endloop
 endfacet
 facet normal 5.000000e-01 -8.660254e-01 0.000000e+00
   outer loop
     vertex 3.925429e+01 3.641117e+00 1.131191e+02
     vertex 3.553129e+01 1.491642e+00 1.131191e+02
     vertex 3.553129e+01 1.491642e+00 8.947483e+01
   endloop
 endfacet
 facet normal -5.000000e-01 8.660254e-01 0.000000e+00
   outer loop
     vertex 3.923929e+01 3.667098e+00 1.131191e+02
     vertex 3.923929e+01 3.667098e+00 8.947483e+01
     vertex 3.551629e+01 1.517623e+00 8.947483e+01
   endloop
 endfacet
 facet normal -5.000000e-01 8.660254e-01 0.000000e+00
   outer loop
     vertex 3.923929e+01 3.667098e+00 1.131191e+02
     vertex 3.551629e+01 1.517623e+00 8.947483e+01
     vertex 3.551629e+01 1.517623e+00 1.131191e+02
   endloop
 endfacet
 facet normal 0.000000e+00 0.000000e+00 -1.000000e+00
   outer loop
     vertex 3.923929e+01 3.667098e+00 8.947483e+01
     vertex 3.553129e+01 1.491642e+00 8.947483e+01
     vertex 3.551629e+01 1.517623e+00 8.947483e+01
   endloop
 endfacet
 facet normal 0.000000e+00 -0.000000e+00 -1.000000e+00
   outer loop
     vertex 3.923929e+01 3.667098e+00 8.947483e+01
     vertex 3.925429e+01 3.641117e+00 8.947483e+01
     vertex 3.553129e+01 1.491642e+00 8.947483e+01
   endloop
 endfacet
 facet normal 0.000000e+00 0.000000e+00 1.000000e+00
   outer loop
     vertex 3.923929e+01 3.667098e+00 1.131191e+02
     vertex 3.551629e+01 1.517623e+00 1.131191e+02
     vertex 3.553129e+01 1.491642e+00 1.131191e+02
   endloop
 endfacet
 facet normal 0.000000e+00 0.000000e+00 1.000000e+00
   outer loop
     vertex 3.923929e+01 3.667098e+00 1.131191e+02
     vertex 3.553129e+01 1.491642e+00 1.131191e+02
     vertex 3.925429e+01 3.641117e+00 1.131191e+02
   endloop
 endfacet
 facet normal -8.660254e-01 -5.000000e-01 0.000000e+00
   outer loop
     vertex 4.412919e+01 1.491642e+00 8.818515e+01
     vertex 4.411419e+01 1.517623e+00 8.818515e+01
     vertex 4.411419e+01 1.517623e+00 6.454093e+01
   endloop
 endfacet
 facet normal -8.660254e-01 -5.000000e-01 -0.000000e+00
   outer loop
     vertex 4.412919e+01 1.491642e+00 8.818515e+01
     vertex 4.411419e+01 1.517623e+00 6.454093e+01
     vertex 4.412919e+01 1.491642e+00 6.454093e+01
   endloop
 endfacet
 facet normal 8.660254e-01 5.000000e-01 0.000000e+00
   outer loop
     vertex 4.785219e+01 3.641117e+00 8.818515e+01
     vertex 4.783719e+01 3.667098e+00 6.454093e+01
     vertex 4.783719e+01 3.667098e+00 8.818515e+01
   endloop
 endfacet
 facet normal 8.660254e-01 5.000000e-01 0.000000e+00
   outer loop
     vertex 4.785219e+01 3.641117e+00 8.818515e+01
     vertex 4.785219e+01 3.641117e+00 6.454093e+01
     vertex 4.783719e+01 3.667098e+00 6.454093e+01
   endloop
 endfacet
 facet normal 5.000000e-01 -8.660254e-01 0.000000e+00
   outer loop
     vertex 4.785219e+01 3.641117e+00 8.818515e+01
     vertex 4.412919e+01 1.491642e+00 6.454093e+01
     vertex 4.785219e+01 3.641117e+00 6.454093e+01
   endloop
 endfacet
 facet normal 5.000000e-01 -8.660254e-01 0.000000e+00
   outer loop
     vertex 4.785219e+01 3.641117e+00 8.818515e+01
     vertex 4.412919e+01 1.491642e+00 8.818515e+01
     vertex 4.412919e+01 1.491642e+00 6.454093e+01
   endloop
 endfacet
 facet normal -5.000000e-01 8.660254e-01 0.000000e+00
   outer loop
     vertex 4.783719e+01 3.667098e+00 8.818515e+01
     vertex 4.783719e+01 3.667098e+00 6.454093e+01
     vertex 4.411419e+01 1.517623e+00 6.454093e+01
   endloop
 endfacet
 facet normal -5.000000e-01 8.660254e-01 0.000000e+00
   outer loop
     vertex 4.783719e+01 3.667098e+00 8.818515e+01
     vertex 4.411419e+01 1.517623e+00 6.454093e+01
     vertex 4.411419e+01 1.517623e+00 8.818515e+01
   endloop
 endfacet
 facet normal 0.000000e+00 0.000000e+00 -1.000000e+00
   outer loop
     vertex 4.783719e+01 3.667098e+00 6.454093e+01
     vertex 4.412919e+01 1.491642e+00 6.454093e+01
     vertex 4.411419e+01 1.517623e+00 6.454093e+01
   endloop
 endfacet
 facet normal 0.000000e+00 -0.000000e+00 -1.000000e+00
   outer loop
     vertex 4.783719e+01 3.667098e+00 6.454093e+01
     vertex 4.785219e+01 3.641117e+00 6.454093e+01
     vertex 4.412919e+01 1.491642e+00 6.454093e+01
   endloop
 endfacet
 facet normal 0.000000e+00 0.000000e+00 1.000000e+00
   outer loop
     vertex 4.783719e+01 3.667098e+00 8.818515e+01
     vertex 4.411419e+01 1.517623e+00 8.818515e+01
     vertex 4.412919e+01 1.491642e+00 8.818515e+01
   endloop
 endfacet
 facet normal 0.000000e+00 0.000000e+00 1.000000e+00
   outer loop
     vertex 4.783719e+01 3.667098e+00 8.818515e+01
     vertex 4.412919e+01 1.491642e+00 8.818515e+01
     vertex 4.785219e+01 3.641117e+00 8.818515e+01
   endloop
 endfacet
 facet normal -8.660254e-01 -5.000000e-01 0.000000e+00
   outer loop
     vertex 4.412919e+01 1.491642e+00 1.131191e+02
     vertex 4.411419e+01 1.517623e+00 1.131191e+02
     vertex 4.411419e+01 1.517623e+00 8.947483e+01
   endloop
 endfacet
 facet normal -8.660254e-01 -5.000000e-01 -0.000000e+00
   outer loop
     vertex 4.412919e+01 1.491642e+00 1.131191e+02
     vertex 4.411419e+01 1.517623e+00 8.947483e+01
     vertex 4.412919e+01 1.491642e+00 8.947483e+01
   endloop
 endfacet
 facet normal 8.660254e-01 5.000000e-01 0.000000e+00
   outer loop
     vertex 4.785219e+01 3.641117e+00 1.131191e+02
     vertex 4.783719e+01 3.667098e+00 8.947483e+01
     vertex 4.783719e+01 3.667098e+00 1.131191e+02
   endloop
 endfacet
 facet normal 8.660254e-01 5.000000e-01 0.000000e+00
   outer loop
     vertex 4.785219e+01 3.641117e+00 1.131191e+02
     vertex 4.785219e+01 3.641117e+00 8.947483e+01
     vertex 4.783719e+01 3.667098e+00 8.947483e+01
   endloop
 endfacet
 facet normal 5.000000e-01 -8.660254e-01 0.000000e+00
   outer loop
     vertex 4.785219e+01 3.641117e+00 1.131191e+02
     vertex 4.412919e+01 1.491642e+00 8.947483e+01
     vertex 4.785219e+01 3.641117e+00 8.947483e+01
   endloop
 endfacet
 facet normal 5.000000e-01 -8.660254e-01 0.000000e+00
   outer loop
     vertex 4.785219e+01 3.641117e+00 1.131191e+02
     vertex 4.412919e+01 1.491642e+00 1.131191e+02
     vertex 4.412919e+01 1.491642e+00 8.947483e+01
   endloop
 endfacet
 facet normal -5.000000e-01 8.660254e-01 0.000000e+00
   outer loop
     vertex 4.783719e+01 3.667098e+00 1.131191e+02
     vertex 4.783719e+01 3.667098e+00 8.947483e+01
     vertex 4.411419e+01 1.517623e+00 8.947483e+01
   endloop
 endfacet
 facet normal -5.000000e-01 8.660254e-01 0.000000e+00
   outer loop
     vertex 4.783719e+01 3.667098e+00 1.131191e+02
     vertex 4.411419e+01 1.517623e+00 8.947483e+01
     vertex 4.411419e+01 1.517623e+00 1.131191e+02
   endloop
 endfacet
 facet normal 0.000000e+00 0.000000e+00 -1.000000e+00
   outer loop
     vertex 4.783719e+01 3.667098e+00 8.947483e+01
     vertex 4.412919e+01 1.491642e+00 8.947483e+01
     vertex 4.411419e+01 1.517623e+00 8.947483e+01
   endloop
 endfacet
 facet normal 0.000000e+00 -0.000000e+00 -1.000000e+00
   outer loop
     vertex 4.783719e+01 3.667098e+00 8.947483e+01
     vertex 4.785219e+01 3.641117e+00 8.947483e+01
     vertex 4.412919e+01 1.491642e+00 8.947483e+01
   endloop
 endfacet
 facet normal 0.000000e+00 0.000000e+00 1.000000e+00
   outer loop
     vertex 4.783719e+01 3.667098e+00 1.131191e+02
     vertex 4.411419e+01 1.517623e+00 1.131191e+02
     vertex 4.412919e+01 1.491642e+00 1.131191e+02
   endloop
 endfacet
 facet normal 0.000000e+00 0.000000e+00 1.000000e+00
   outer loop
     vertex 4.783719e+01 3.667098e+00 1.131191e+02
     vertex 4.412919e+01 1.491642e+00 1.131191e+02
     vertex 4.785219e+01 3.641117e+00 1.131191e+02
   endloop
 endfacet
 facet normal -8.660254e-01 -5.000000e-01 0.000000e+00
   outer loop
     vertex 5.272709e+01 1.491642e+00 8.818515e+01
     vertex 5.271209e+01 1.517623e+00 8.818515e+01
     vertex 5.271209e+01 1.517623e+00 6.454093e+01
   endloop
 endfacet
 facet normal -8.660254e-01 -5.000000e-01 -0.000000e+00
   outer loop
     vertex 5.272709e+01 1.491642e+00 8.818515e+01
     vertex 5.271209e+01 1.517623e+00 6.454093e+01
     vertex 5.272709e+01 1.491642e+00 6.454093e+01
   endloop
 endfacet
 facet normal 8.660254e-01 5.000000e-01 0.000000e+00
   outer loop
     vertex 5.645009e+01 3.641117e+00 8.818515e+01
     vertex 5.643509e+01 3.667098e+00 6.454093e+01
     vertex 5.643509e+01 3.667098e+00 8.818515e+01
   endloop
 endfacet
 facet normal 8.660254e-01 5.000000e-01 0.000000e+00
   outer loop
     vertex 5.645009e+01 3.641117e+00 8.818515e+01
     vertex 5.645009e+01 3.641117e+00 6.454093e+01
     vertex 5.643509e+01 3.667098e+00 6.454093e+01
   endloop
 endfacet
 facet normal 5.000000e-01 -8.660254e-01 0.000000e+00
   outer loop
     vertex 5.645009e+01 3.641117e+00 8.818515e+01
     vertex 5.272709e+01 1.491642e+00 6.454093e+01
     vertex 5.645009e+01 3.641117e+00 6.454093e+01
   endloop
 endfacet
 facet normal 5.000000e-01 -8.660254e-01 0.000000e+00
   outer loop
     vertex 5.645009e+01 3.641117e+00 8.818515e+01
     vertex 5.272709e+01 1.491642e+00 8.818515e+01
     vertex 5.272709e+01 1.491642e+00 6.454093e+01
   endloop
 endfacet
 facet normal -5.000000e-01 8.660254e-01 0.000000e+00
   outer loop
     vertex 5.643509e+01 3.667098e+00 8.818515e+01
     vertex 5.643509e+01 3.667098e+00 6.454093e+01
     vertex 5.271209e+01 1.517623e+00 6.454093e+01
   endloop
 endfacet
 facet normal -5.000000e-01 8.660254e-01 0.000000e+00
   outer loop
     vertex 5.643509e+01 3.667098e+00 8.818515e+01
     vertex 5.271209e+01 1.517623e+00 6.454093e+01
     vertex 5.271209e+01 1.517623e+00 8.818515e+01
   endloop
 endfacet
 facet normal 0.000000e+00 0.000000e+00 -1.000000e+00
   outer loop
     vertex 5.643509e+01 3.667098e+00 6.454093e+01
     vertex 5.272709e+01 1.491642e+00 6.454093e+01
     vertex 5.271209e+01 1.517623e+00 6.454093e+01
   endloop
 endfacet
 facet normal 0.000000e+00 -0.000000e+00 -1.000000e+00
   outer loop
     vertex 5.643509e+01 3.667098e+00 6.454093e+01
     vertex 5.645009e+01 3.641117e+00 6.454093e+01
     vertex 5.272709e+01 1.491642e+00 6.454093e+01
   endloop
 endfacet
 facet normal 0.000000e+00 0.000000e+00 1.000000e+00
   outer loop
     vertex 5.643509e+01 3.667098e+00 8.818515e+01
     vertex 5.271209e+01 1.517623e+00 8.818515e+01
     vertex 5.272709e+01 1.491642e+00 8.818515e+01
   endloop
 endfacet
 facet normal 0.000000e+00 0.000000e+00 1.000000e+00
   outer loop
     vertex 5.643509e+01 3.667098e+00 8.818515e+01
     vertex 5.272709e+01 1.491642e+00 8.818515e+01
     vertex 5.645009e+01 3.641117e+00 8.818515e+01
   endloop
 endfacet
 facet normal -8.660254e-01 -5.000000e-01 0.000000e+00
   outer loop
     vertex 5.272709e+01 1.491642e+00 1.131191e+02
     vertex 5.271209e+01 1.517623e+00 1.131191e+02
     vertex 5.271209e+01 1.517623e+00 8.947483e+01
   endloop
 endfacet
 facet normal -8.660254e-01 -5.000000e-01 -0.000000e+00
   outer loop
     vertex 5.272709e+01 1.491642e+00 1.131191e+02
     vertex 5.271209e+01 1.517623e+00 8.947483e+01
     vertex 5.272709e+01 1.491642e+00 8.947483e+01
   endloop
 endfacet
 facet normal 8.660254e-01 5.000000e-01 0.000000e+00
   outer loop
     vertex 5.645009e+01 3.641117e+00 1.131191e+02
     vertex 5.643509e+01 3.667098e+00 8.947483e+01
     vertex 5.643509e+01 3.667098e+00 1.131191e+02
   endloop
 endfacet
 facet normal 8.660254e-01 5.000000e-01 0.000000e+00
   outer loop
     vertex 5.645009e+01 3.641117e+00 1.131191e+02
     vertex 5.645009e+01 3.641117e+00 8.947483e+01
     vertex 5.643509e+01 3.667098e+00 8.947483e+01
   endloop
 endfacet
 facet normal 5.000000e-01 -8.660254e-01 0.000000e+00
   outer loop
     vertex 5.645009e+01 3.641117e+00 1.131191e+02
     vertex 5.272709e+01 1.491642e+00 8.947483e+01
     vertex 5.645009e+01 3.641117e+00 8.947483e+01
   endloop
 endfacet
 facet normal 5.000000e-01 -8.660254e-01 0.000000e+00
   outer loop
     vertex 5.645009e+01 3.641117e+00 1.131191e+02
     vertex 5.272709e+01 1.491642e+00 1.131191e+02
     vertex 5.272709e+01 1.491642e+00 8.947483e+01
   endloop
 endfacet
 facet normal -5.000000e-01 8.660254e-01 0.000000e+00
   outer loop
     vertex 5.643509e+01 3.667098e+00 1.131191e+02
     vertex 5.643509e+01 3.667098e+00 8.947483e+01
     vertex 5.271209e+01 1.517623e+00 8.947483e+01
   endloop
 endfacet
 facet normal -5.000000e-01 8.660254e-01 0.000000e+00
   outer loop
     vertex 5.643509e+01 3.667098e+00 1.131191e+02
     vertex 5.271209e+01 1.517623e+00 8.947483e+01
     vertex 5.271209e+01 1.517623e+00 1.131191e+02
   endloop
 endfacet
 facet normal 0.000000e+00 0.000000e+00 -1.000000e+00
   outer loop
     vertex 5.643509e+01 3.667098e+00 8.947483e+01
     vertex 5.272709e+01 1.491642e+00 8.947483e+01
     vertex 5.271209e+01 1.517623e+00 8.947483e+01
   endloop
 endfacet
 facet normal 0.000000e+00 -0.000000e+00 -1.000000e+00
   outer loop
     vertex 5.643509e+01 3.667098e+00 8.947483e+01
     vertex 5.645009e+01 3.641117e+00 8.947483e+01
     vertex 5.272709e+01 1.491642e+00 8.947483e+01
   endloop
 endfacet
 facet normal 0.000000e+00 0.000000e+00 1.000000e+00
   outer loop
     vertex 5.643509e+01 3.667098e+00 1.131191e+02
     vertex 5.271209e+01 1.517623e+00 1.131191e+02
     vertex 5.272709e+01 1.491642e+00 1.131191e+02
   endloop
 endfacet
 facet normal 0.000000e+00 0.000000e+00 1.000000e+00
   outer loop
     vertex 5.643509e+01 3.667098e+00 1.131191e+02
     vertex 5.272709e+01 1.491642e+00 1.131191e+02
     vertex 5.645009e+01 3.641117e+00 1.131191e+02
   endloop
 endfacet
 facet normal -8.660254e-01 -5.000000e-01 0.000000e+00
   outer loop
     vertex 6.132499e+01 1.491642e+00 8.818515e+01
     vertex 6.130999e+01 1.517623e+00 8.818515e+01
     vertex 6.130999e+01 1.517623e+00 6.454093e+01
   endloop
 endfacet
 facet normal -8.660254e-01 -5.000000e-01 -0.000000e+00
   outer loop
     vertex 6.132499e+01 1.491642e+00 8.818515e+01
     vertex 6.130999e+01 1.517623e+00 6.454093e+01
     vertex 6.132499e+01 1.491642e+00 6.454093e+01
   endloop
 endfacet
 facet normal 8.660254e-01 5.000000e-01 0.000000e+00
   outer loop
     vertex 6.504799e+01 3.641117e+00 8.818515e+01
     vertex 6.503299e+01 3.667098e+00 6.454093e+01
     vertex 6.503299e+01 3.667098e+00 8.818515e+01
   endloop
 endfacet
 facet normal 8.660254e-01 5.000000e-01 0.000000e+00
   outer loop
     vertex 6.504799e+01 3.641117e+00 8.818515e+01
     vertex 6.504799e+01 3.641117e+00 6.454093e+01
     vertex 6.503299e+01 3.667098e+00 6.454093e+01
   endloop
 endfacet
 facet normal 5.000000e-01 -8.660254e-01 0.000000e+00
   outer loop
     vertex 6.504799e+01 3.641117e+00 8.818515e+01
     vertex 6.132499e+01 1.491642e+00 6.454093e+01
     vertex 6.504799e+01 3.641117e+00 6.454093e+01
   endloop
 endfacet
 facet normal 5.000000e-01 -8.660254e-01 0.000000e+00
   outer loop
     vertex 6.504799e+01 3.641117e+00 8.818515e+01
     vertex 6.132499e+01 1.491642e+00 8.818515e+01
     vertex 6.132499e+01 1.491642e+00 6.454093e+01
   endloop
 endfacet
 facet normal -5.000000e-01 8.660254e-01 0.000000e+00
   outer loop
     vertex 6.503299e+01 3.667098e+00 8.818515e+01
     vertex 6.503299e+01 3.667098e+00 6.454093e+01
     vertex 6.130999e+01 1.517623e+00 6.454093e+01
   endloop
 endfacet
 facet normal -5.000000e-01 8.660254e-01 0.000000e+00
   outer loop
     vertex 6.503299e+01 3.667098e+00 8.818515e+01
     vertex 6.130999e+01 1.517623e+00 6.454093e+01
     vertex 6.130999e+01 1.517623e+00 8.818515e+01
   endloop
 endfacet
 facet normal 0.000000e+00 0.000000e+00 -1.000000e+00
   outer loop
     vertex 6.503299e+01 3.667098e+00 6.454093e+01
     vertex 6.132499e+01 1.491642e+00 6.454093e+01
     vertex 6.130999e+01 1.517623e+00 6.454093e+01
   endloop
 endfacet
 facet normal 0.000000e+00 -0.000000e+00 -1.000000e+00
   outer loop
     vertex 6.503299e+01 3.667098e+00 6.454093e+01
     vertex 6.504799e+01 3.641117e+00 6.454093e+01
     vertex 6.132499e+01 1.491642e+00 6.454093e+01
   endloop
 endfacet
 facet normal 0.000000e+00 0.000000e+00 1.000000e+00
   outer loop
     vertex 6.503299e+01 3.667098e+00 8.818515e+01
     vertex 6.130999e+01 1.517623e+00 8.818515e+01
     vertex 6.132499e+01 1.491642e+00 8.818515e+01
   endloop
 endfacet
 facet normal 0.000000e+00 0.000000e+00 1.000000e+00
   outer loop
     vertex 6.503299e+01 3.667098e+00 8.818515e+01
     vertex 6.132499e+01 1.491642e+00 8.818515e+01
     vertex 6.504799e+01 3.641117e+00 8.818515e+01
   endloop
 endfacet
 facet normal -8.660254e-01 -5.000000e-01 0.000000e+00
   outer loop
     vertex 6.132499e+01 1.491642e+00 1.131191e+02
     vertex 6.130999e+01 1.517623e+00 1.131191e+02
     vertex 6.130999e+01 1.517623e+00 8.947483e+01
   endloop
 endfacet
 facet normal -8.660254e-01 -5.000000e-01 -0.000000e+00
   outer loop
     vertex 6.132499e+01 1.491642e+00 1.131191e+02
     vertex 6.130999e+01 1.517623e+00 8.947483e+01
     vertex 6.132499e+01 1.491642e+00 8.947483e+01
   endloop
 endfacet
 facet normal 8.660254e-01 5.000000e-01 0.000000e+00
   outer loop
     vertex 6.504799e+01 3.641117e+00 1.131191e+02
     vertex 6.503299e+01 3.667098e+00 8.947483e+01
     vertex 6.503299e+01 3.667098e+00 1.131191e+02
   endloop
 endfacet
 facet normal 8.660254e-01 5.000000e-01 0.000000e+00
   outer loop
     vertex 6.504799e+01 3.641117e+00 1.131191e+02
     vertex 6.504799e+01 3.641117e+00 8.947483e+01
     vertex 6.503299e+01 3.667098e+00 8.947483e+01
   endloop
 endfacet
 facet normal 5.000000e-01 -8.660254e-01 0.000000e+00
   outer loop
     vertex 6.504799e+01 3.641117e+00 1.131191e+02
     vertex 6.132499e+01 1.491642e+00 8.947483e+01
     vertex 6.504799e+01 3.641117e+00 8.947483e+01
   endloop
 endfacet
 facet normal 5.000000e-01 -8.660254e-01 0.000000e+00
   outer loop
     vertex 6.504799e+01 3.641117e+00 1.131191e+02
     vertex 6.132499e+01 1.491642e+00 1.131191e+02
     vertex 6.132499e+01 1.491642e+00 8.947483e+01
   endloop
 endfacet
 facet normal -5.000000e-01 8.660254e-01 0.000000e+00
   outer loop
     vertex 6.503299e+01 3.667098e+00 1.131191e+02
     vertex 6.503299e+01 3.667098e+00 8.947483e+01
     vertex 6.130999e+01 1.517623e+00 8.947483e+01
   endloop
 endfacet
 facet normal -5.000000e-01 8.660254e-01 0.000000e+00
   outer loop
     vertex 6.503299e+01 3.667098e+00 1.131191e+02
     vertex 6.130999e+01 1.517623e+00 8.947483e+01
     vertex 6.130999e+01 1.517623e+00 1.131191e+02
   endloop
 endfacet
 facet normal 0.000000e+00 0.000000e+00 -1.000000e+00
   outer loop
     vertex 6.503299e+01 3.667098e+00 8.947483e+01
     vertex 6.132499e+01 1.491642e+00 8.947483e+01
     vertex 6.130999e+01 1.517623e+00 8.947483e+01
   endloop
 endfacet
 facet normal 0.000000e+00 -0.000000e+00 -1.000000e+00
   outer loop
     vertex 6.503299e+01 3.667098e+00 8.947483e+01
     vertex 6.504799e+01 3.641117e+00 8.947483e+01
     vertex 6.132499e+01 1.491642e+00 8.947483e+01
   endloop
 endfacet
 facet normal 0.000000e+00 0.000000e+00 1.000000e+00
   outer loop
     vertex 6.503299e+01 3.667098e+00 1.131191e+02
     vertex 6.130999e+01 1.517623e+00 1.131191e+02
     vertex 6.132499e+01 1.491642e+00 1.131191e+02
   endloop
 endfacet
 facet normal 0.000000e+00 0.000000e+00 1.000000e+00
   outer loop
     vertex 6.503299e+01 3.667098e+00 1.131191e+02
     vertex 6.132499e+01 1.491642e+00 1.131191e+02
     vertex 6.504799e+01 3.641117e+00 1.131191e+02
   endloop
 endfacet
 facet normal -8.660254e-01 -5.000000e-01 0.000000e+00
   outer loop
     vertex 6.992289e+01 1.491642e+00 8.818515e+01
     vertex 6.990789e+01 1.517623e+00 8.818515e+01
     vertex 6.990789e+01 1.517623e+00 6.454093e+01
   endloop
 endfacet
 facet normal -8.660254e-01 -5.000000e-01 -0.000000e+00
   outer loop
     vertex 6.992289e+01 1.491642e+00 8.818515e+01
     vertex 6.990789e+01 1.517623e+00 6.454093e+01
     vertex 6.992289e+01 1.491642e+00 6.454093e+01
   endloop
 endfacet
 facet normal 8.660254e-01 5.000000e-01 0.000000e+00
   outer loop
     vertex 7.364589e+01 3.641117e+00 8.818515e+01
     vertex 7.363089e+01 3.667098e+00 6.454093e+01
     vertex 7.363089e+01 3.667098e+00 8.818515e+01
   endloop
 endfacet
 facet normal 8.660254e-01 5.000000e-01 0.000000e+00
   outer loop
     vertex 7.364589e+01 3.641117e+00 8.818515e+01
     vertex 7.364589e+01 3.641117e+00 6.454093e+01
     vertex 7.363089e+01 3.667098e+00 6.454093e+01
   endloop
 endfacet
 facet normal 5.000000e-01 -8.660254e-01 0.000000e+00
   outer loop
     vertex 7.364589e+01 3.641117e+00 8.818515e+01
     vertex 6.992289e+01 1.491642e+00 6.454093e+01
     vertex 7.364589e+01 3.641117e+00 6.454093e+01
   endloop
 endfacet
 facet normal 5.000000e-01 -8.660254e-01 0.000000e+00
   outer loop
     vertex 7.364589e+01 3.641117e+00 8.818515e+01
     vertex 6.992289e+01 1.491642e+00 8.818515e+01
     vertex 6.992289e+01 1.491642e+00 6.454093e+01
   endloop
 endfacet
 facet normal -5.000000e-01 8.660254e-01 0.000000e+00
   outer loop
     vertex 7.363089e+01 3.667098e+00 8.818515e+01
     vertex 7.363089e+01 3.667098e+00 6.454093e+01
     vertex 6.990789e+01 1.517623e+00 6.454093e+01
   endloop
 endfacet
 facet normal -5.000000e-01 8.660254e-01 0.000000e+00
   outer loop
     vertex 7.363089e+01 3.667098e+00 8.818515e+01
     vertex 6.990789e+01 1.517623e+00 6.454093e+01
     vertex 6.990789e+01 1.517623e+00 8.818515e+01
   endloop
 endfacet
 facet normal 0.000000e+00 0.000000e+00 -1.000000e+00
   outer loop
     vertex 7.363089e+01 3.667098e+00 6.454093e+01
     vertex 6.992289e+01 1.491642e+00 6.454093e+01
     vertex 6.990789e+01 1.517623e+00 6.454093e+01
   endloop
 endfacet
 facet normal 0.000000e+00 -0.000000e+00 -1.000000e+00
   outer loop
     vertex 7.363089e+01 3.667098e+00 6.454093e+01
     vertex 7.364589e+01 3.641117e+00 6.454093e+01
     vertex 6.992289e+01 1.491642e+00 6.454093e+01
   endloop
 endfacet
 facet normal 0.000000e+00 0.000000e+00 1.000000e+00
   outer loop
     vertex 7.363089e+01 3.667098e+00 8.818515e+01
     vertex 6.990789e+01 1.517623e+00 8.818515e+01
     vertex 6.992289e+01 1.491642e+00 8.818515e+01
   endloop
 endfacet
 facet normal 0.000000e+00 0.000000e+00 1.000000e+00
   outer loop
     vertex 7.363089e+01 3.667098e+00 8.818515e+01
     vertex 6.992289e+01 1.491642e+00 8.818515e+01
     vertex 7.364589e+01 3.641117e+00 8.818515e+01
   endloop
 endfacet
 facet normal -8.660254e-01 -5.000000e-01 0.000000e+00
   outer loop
     vertex 6.992289e+01 1.491642e+00 1.131191e+02
     vertex 6.990789e+01 1.517623e+00 1.131191e+02
     vertex 6.990789e+01 1.517623e+00 8.947483e+01
   endloop
 endfacet
 facet normal -8.660254e-01 -5.000000e-01 -0.000000e+00
   outer loop
     vertex 6.992289e+01 1.491642e+00 1.131191e+02
     vertex 6.990789e+01 1.517623e+00 8.947483e+01
     vertex 6.992289e+01 1.491642e+00 8.947483e+01
   endloop
 endfacet
 facet normal 8.660254e-01 5.000000e-01 0.000000e+00
   outer loop
     vertex 7.364589e+01 3.641117e+00 1.131191e+02
     vertex 7.363089e+01 3.667098e+00 8.947483e+01
     vertex 7.363089e+01 3.667098e+00 1.131191e+02
   endloop
 endfacet
 facet normal 8.660254e-01 5.000000e-01 0.000000e+00
   outer loop
     vertex 7.364589e+01 3.641117e+00 1.131191e+02
     vertex 7.364589e+01 3.641117e+00 8.947483e+01
     vertex 7.363089e+01 3.667098e+00 8.947483e+01
   endloop
 endfacet
 facet normal 5.000000e-01 -8.660254e-01 0.000000e+00
   outer loop
     vertex 7.364589e+01 3.641117e+00 1.131191e+02
     vertex 6.992289e+01 1.491642e+00 8.947483e+01
     vertex 7.364589e+01 3.641117e+00 8.947483e+01
   endloop
 endfacet
 facet normal 5.000000e-01 -8.660254e-01 0.000000e+00
   outer loop
     vertex 7.364589e+01 3.641117e+00 1.131191e+02
     vertex 6.992289e+01 1.491642e+00 1.131191e+02
     vertex 6.992289e+01 1.491642e+00 8.947483e+01
   endloop
 endfacet
 facet normal -5.000000e-01 8.660254e-01 0.000000e+00
   outer loop
     vertex 7.363089e+01 3.667098e+00 1.131191e+02
     vertex 7.363089e+01 3.667098e+00 8.947483e+01
     vertex 6.990789e+01 1.517623e+00 8.947483e+01
   endloop
 endfacet
 facet normal -5.000000e-01 8.660254e-01 0.000000e+00
   outer loop
     vertex 7.363089e+01 3.667098e+00 1.131191e+02
     vertex 6.990789e+01 1.517623e+00 8.947483e+01
     vertex 6.990789e+01 1.517623e+00 1.131191e+02
   endloop
 endfacet
 facet normal 0.000000e+00 0.000000e+00 -1.000000e+00
   outer loop
     vertex 7.363089e+01 3.667098e+00 8.947483e+01
     vertex 6.992289e+01 1.491642e+00 8.947483e+01
     vertex 6.990789e+01 1.517623e+00 8.947483e+01
   endloop
 endfacet
 facet normal 0.000000e+00 -0.000000e+00 -1.000000e+00
   outer loop
     vertex 7.363089e+01 3.667098e+00 8.947483e+01
     vertex 7.364589e+01 3.641117e+00 8.947483e+01
     vertex 6.992289e+01 1.491642e+00 8.947483e+01
   endloop
 endfacet
 facet normal 0.000000e+00 0.000000e+00 1.000000e+00
   outer loop
     vertex 7.363089e+01 3.667098e+00 1.131191e+02
     vertex 6.990789e+01 1.517623e+00 1.131191e+02
     vertex 6.992289e+01 1.491642e+00 1.131191e+02
   endloop
 endfacet
 facet normal 0.000000e+00 0.000000e+00 1.000000e+00
   outer loop
     vertex 7.363089e+01 3.667098e+00 1.131191e+02
     vertex 6.992289e+01 1.491642e+00 1.131191e+02
     vertex 7.364589e+01 3.641117e+00 1.131191e+02
   endloop
 endfacet
endsolid shape
