solid shape, STL ascii file, created with Open CASCADE Technology
 facet normal -8.660254e-01 -5.000000e-01 0.000000e+00
   outer loop
     vertex 1.674880e+01 1.164402e+00 8.050314e+01
     vertex 1.673380e+01 1.190383e+00 8.050314e+01
     vertex 1.673380e+01 1.190383e+00 5.993232e+01
   endloop
 endfacet
 facet normal -8.660254e-01 -5.000000e-01 -0.000000e+00
   outer loop
     vertex 1.674880e+01 1.164402e+00 8.050314e+01
     vertex 1.673380e+01 1.190383e+00 5.993232e+01
     vertex 1.674880e+01 1.164402e+00 5.993232e+01
   endloop
 endfacet
 facet normal 8.660254e-01 5.000000e-01 0.000000e+00
   outer loop
     vertex 2.048894e+01 3.323778e+00 8.050314e+01
     vertex 2.047394e+01 3.349759e+00 5.993232e+01
     vertex 2.047394e+01 3.349759e+00 8.050314e+01
   endloop
 endfacet
 facet normal 8.660254e-01 5.000000e-01 0.000000e+00
   outer loop
     vertex 2.048894e+01 3.323778e+00 8.050314e+01
     vertex 2.048894e+01 3.323778e+00 5.993232e+01
     vertex 2.047394e+01 3.349759e+00 5.993232e+01
   endloop
 endfacet
 facet normal 5.000000e-01 -8.660254e-01 0.000000e+00
   outer loop
     vertex 2.048894e+01 3.323778e+00 8.050314e+01
     vertex 1.674880e+01 1.164402e+00 5.993232e+01
     vertex 2.048894e+01 3.323778e+00 5.993232e+01
   endloop
 endfacet
 facet normal 5.000000e-01 -8.660254e-01 0.000000e+00
   outer loop
     vertex 2.048894e+01 3.323778e+00 8.050314e+01
     vertex 1.674880e+01 1.164402e+00 8.050314e+01
     vertex 1.674880e+01 1.164402e+00 5.993232e+01
   endloop
 endfacet
 facet normal -5.000000e-01 8.660254e-01 0.000000e+00
   outer loop
     vertex 2.047394e+01 3.349759e+00 8.050314e+01
     vertex 2.047394e+01 3.349759e+00 5.993232e+01
     vertex 1.673380e+01 1.190383e+00 5.993232e+01
   endloop
 endfacet
 facet normal -5.000000e-01 8.660254e-01 0.000000e+00
   outer loop
     vertex 2.047394e+01 3.349759e+00 8.050314e+01
     vertex 1.673380e+01 1.190383e+00 5.993232e+01
     vertex 1.673380e+01 1.190383e+00 8.050314e+01
   endloop
 endfacet
 facet normal 0.000000e+00 0.000000e+00 -1.000000e+00
   outer loop
     vertex 2.047394e+01 3.349759e+00 5.993232e+01
     vertex 1.674880e+01 1.164402e+00 5.993232e+01
     vertex 1.673380e+01 1.190383e+00 5.993232e+01
   endloop
 endfacet
 facet normal 0.000000e+00 -0.000000e+00 -1.000000e+00
   outer loop
     vertex 2.047394e+01 3.349759e+00 5.993232e+01
     vertex 2.048894e+01 3.323778e+00 5.993232e+01
     vertex 1.674880e+01 1.164402e+00 5.993232e+01
   endloop
 endfacet
 facet normal 0.000000e+00 0.000000e+00 1.000000e+00
   outer loop
     vertex 2.047394e+01 3.349759e+00 8.050314e+01
     vertex 1.673380e+01 1.190383e+00 8.050314e+01
     vertex 1.674880e+01 1.164402e+00 8.050314e+01
   endloop
 endfacet
 facet normal 0.000000e+00 0.000000e+00 1.000000e+00
   outer loop
     vertex 2.047394e+01 3.349759e+00 8.050314e+01
     vertex 1.674880e+01 1.164402e+00 8.050314e+01
     vertex 2.048894e+01 3.323778e+00 8.050314e+01
   endloop
 endfacet
 facet normal -8.660254e-01 -5.000000e-01 0.000000e+00
   outer loop
     vertex 1.674880e+01 1.164402e+00 1.021960e+02
     vertex 1.673380e+01 1.190383e+00 1.021960e+02
     vertex 1.673380e+01 1.190383e+00 8.162519e+01
   endloop
 endfacet
 facet normal -8.660254e-01 -5.000000e-01 -0.000000e+00
   outer loop
     vertex 1.674880e+01 1.164402e+00 1.021960e+02
     vertex 1.673380e+01 1.190383e+00 8.162519e+01
     vertex 1.674880e+01 1.164402e+00 8.162519e+01
   endloop
 endfacet
 facet normal 8.660254e-01 5.000000e-01 0.000000e+00
   outer loop
     vertex 2.048894e+01 3.323778e+00 1.021960e+02
     vertex 2.047394e+01 3.349759e+00 8.162519e+01
     vertex 2.047394e+01 3.349759e+00 1.021960e+02
   endloop
 endfacet
 facet normal 8.660254e-01 5.000000e-01 0.000000e+00
   outer loop
     vertex 2.048894e+01 3.323778e+00 1.021960e+02
     vertex 2.048894e+01 3.323778e+00 8.162519e+01
     vertex 2.047394e+01 3.349759e+00 8.162519e+01
   endloop
 endfacet
 facet normal 5.000000e-01 -8.660254e-01 0.000000e+00
   outer loop
     vertex 2.048894e+01 3.323778e+00 1.021960e+02
     vertex 1.674880e+01 1.164402e+00 8.162519e+01
     vertex 2.048894e+01 3.323778e+00 8.162519e+01
   endloop
 endfacet
 facet normal 5.000000e-01 -8.660254e-01 0.000000e+00
   outer loop
     vertex 2.048894e+01 3.323778e+00 1.021960e+02
     vertex 1.674880e+01 1.164402e+00 1.021960e+02
     vertex 1.674880e+01 1.164402e+00 8.162519e+01
   endloop
 endfacet
 facet normal -5.000000e-01 8.660254e-01 0.000000e+00
   outer loop
     vertex 2.047394e+01 3.349759e+00 1.021960e+02
     vertex 2.047394e+01 3.349759e+00 8.162519e+01
     vertex 1.673380e+01 1.190383e+00 8.162519e+01
   endloop
 endfacet
 facet normal -5.000000e-01 8.660254e-01 0.000000e+00
   outer loop
     vertex 2.047394e+01 3.349759e+00 1.021960e+02
     vertex 1.673380e+01 1.190383e+00 8.162519e+01
     vertex 1.673380e+01 1.190383e+00 1.021960e+02
   endloop
 endfacet
 facet normal 0.000000e+00 0.000000e+00 -1.000000e+00
   outer loop
     vertex 2.047394e+01 3.349759e+00 8.162519e+01
     vertex 1.674880e+01 1.164402e+00 8.162519e+01
     vertex 1.673380e+01 1.190383e+00 8.162519e+01
   endloop
 endfacet
 facet normal 0.000000e+00 -0.000000e+00 -1.000000e+00
   outer loop
     vertex 2.047394e+01 3.349759e+00 8.162519e+01
     vertex 2.048894e+01 3.323778e+00 8.162519e+01
     vertex 1.674880e+01 1.164402e+00 8.162519e+01
   endloop
 endfacet
 facet normal 0.000000e+00 0.000000e+00 1.000000e+00
   outer loop
     vertex 2.047394e+01 3.349759e+00 1.021960e+02
     vertex 1.673380e+01 1.190383e+00 1.021960e+02
     vertex 1.674880e+01 1.164402e+00 1.021960e+02
   endloop
 endfacet
 facet normal 0.000000e+00 0.000000e+00 1.000000e+00
   outer loop
     vertex 2.047394e+01 3.349759e+00 1.021960e+02
     vertex 1.674880e+01 1.164402e+00 1.021960e+02
     vertex 2.048894e+01 3.323778e+00 1.021960e+02
   endloop
 endfacet
 facet normal -8.660254e-01 -5.000000e-01 0.000000e+00
   outer loop
     vertex 2.422910e+01 1.164402e+00 8.050314e+01
     vertex 2.421409e+01 1.190383e+00 8.050314e+01
     vertex 2.421409e+01 1.190383e+00 5.993232e+01
   endloop
 endfacet
 facet normal -8.660254e-01 -5.000000e-01 -0.000000e+00
   outer loop
     vertex 2.422910e+01 1.164402e+00 8.050314e+01
     vertex 2.421409e+01 1.190383e+00 5.993232e+01
     vertex 2.422910e+01 1.164402e+00 5.993232e+01
   endloop
 endfacet
 facet normal 8.660254e-01 5.000000e-01 0.000000e+00
   outer loop
     vertex 2.796924e+01 3.323778e+00 8.050314e+01
     vertex 2.795424e+01 3.349759e+00 5.993232e+01
     vertex 2.795424e+01 3.349759e+00 8.050314e+01
   endloop
 endfacet
 facet normal 8.660254e-01 5.000000e-01 0.000000e+00
   outer loop
     vertex 2.796924e+01 3.323778e+00 8.050314e+01
     vertex 2.796924e+01 3.323778e+00 5.993232e+01
     vertex 2.795424e+01 3.349759e+00 5.993232e+01
   endloop
 endfacet
 facet normal 5.000000e-01 -8.660254e-01 0.000000e+00
   outer loop
     vertex 2.796924e+01 3.323778e+00 8.050314e+01
     vertex 2.422910e+01 1.164402e+00 5.993232e+01
     vertex 2.796924e+01 3.323778e+00 5.993232e+01
   endloop
 endfacet
 facet normal 5.000000e-01 -8.660254e-01 0.000000e+00
   outer loop
     vertex 2.796924e+01 3.323778e+00 8.050314e+01
     vertex 2.422910e+01 1.164402e+00 8.050314e+01
     vertex 2.422910e+01 1.164402e+00 5.993232e+01
   endloop
 endfacet
 facet normal -5.000000e-01 8.660254e-01 0.000000e+00
   outer loop
     vertex 2.795424e+01 3.349759e+00 8.050314e+01
     vertex 2.795424e+01 3.349759e+00 5.993232e+01
     vertex 2.421409e+01 1.190383e+00 5.993232e+01
   endloop
 endfacet
 facet normal -5.000000e-01 8.660254e-01 0.000000e+00
   outer loop
     vertex 2.795424e+01 3.349759e+00 8.050314e+01
     vertex 2.421409e+01 1.190383e+00 5.993232e+01
     vertex 2.421409e+01 1.190383e+00 8.050314e+01
   endloop
 endfacet
 facet normal 0.000000e+00 0.000000e+00 -1.000000e+00
   outer loop
     vertex 2.795424e+01 3.349759e+00 5.993232e+01
     vertex 2.422910e+01 1.164402e+00 5.993232e+01
     vertex 2.421409e+01 1.190383e+00 5.993232e+01
   endloop
 endfacet
 facet normal 0.000000e+00 -0.000000e+00 -1.000000e+00
   outer loop
     vertex 2.795424e+01 3.349759e+00 5.993232e+01
     vertex 2.796924e+01 3.323778e+00 5.993232e+01
     vertex 2.422910e+01 1.164402e+00 5.993232e+01
   endloop
 endfacet
 facet normal 0.000000e+00 0.000000e+00 1.000000e+00
   outer loop
     vertex 2.795424e+01 3.349759e+00 8.050314e+01
     vertex 2.421409e+01 1.190383e+00 8.050314e+01
     vertex 2.422910e+01 1.164402e+00 8.050314e+01
   endloop
 endfacet
 facet normal 0.000000e+00 0.000000e+00 1.000000e+00
   outer loop
     vertex 2.795424e+01 3.349759e+00 8.050314e+01
     vertex 2.422910e+01 1.164402e+00 8.050314e+01
     vertex 2.796924e+01 3.323778e+00 8.050314e+01
   endloop
 endfacet
 facet normal -8.660254e-01 -5.000000e-01 0.000000e+00
   outer loop
     vertex 2.422910e+01 1.164402e+00 1.021960e+02
     vertex 2.421409e+01 1.190383e+00 1.021960e+02
     vertex 2.421409e+01 1.190383e+00 8.162519e+01
   endloop
 endfacet
 facet normal -8.660254e-01 -5.000000e-01 -0.000000e+00
   outer loop
     vertex 2.422910e+01 1.164402e+00 1.021960e+02
     vertex 2.421409e+01 1.190383e+00 8.162519e+01
     vertex 2.422910e+01 1.164402e+00 8.162519e+01
   endloop
 endfacet
 facet normal 8.660254e-01 5.000000e-01 0.000000e+00
   outer loop
     vertex 2.796924e+01 3.323778e+00 1.021960e+02
     vertex 2.795424e+01 3.349759e+00 8.162519e+01
     vertex 2.795424e+01 3.349759e+00 1.021960e+02
   endloop
 endfacet
 facet normal 8.660254e-01 5.000000e-01 0.000000e+00
   outer loop
     vertex 2.796924e+01 3.323778e+00 1.021960e+02
     vertex 2.796924e+01 3.323778e+00 8.162519e+01
     vertex 2.795424e+01 3.349759e+00 8.162519e+01
   endloop
 endfacet
 facet normal 5.000000e-01 -8.660254e-01 0.000000e+00
   outer loop
     vertex 2.796924e+01 3.323778e+00 1.021960e+02
     vertex 2.422910e+01 1.164402e+00 8.162519e+01
     vertex 2.796924e+01 3.323778e+00 8.162519e+01
   endloop
 endfacet
 facet normal 5.000000e-01 -8.660254e-01 0.000000e+00
   outer loop
     vertex 2.796924e+01 3.323778e+00 1.021960e+02
     vertex 2.422910e+01 1.164402e+00 1.021960e+02
     vertex 2.422910e+01 1.164402e+00 8.162519e+01
   endloop
 endfacet
 facet normal -5.000000e-01 8.660254e-01 0.000000e+00
   outer loop
     vertex 2.795424e+01 3.349759e+00 1.021960e+02
     vertex 2.795424e+01 3.349759e+00 8.162519e+01
     vertex 2.421409e+01 1.190383e+00 8.162519e+01
   endloop
 endfacet
 facet normal -5.000000e-01 8.660254e-01 0.000000e+00
   outer loop
     vertex 2.795424e+01 3.349759e+00 1.021960e+02
     vertex 2.421409e+01 1.190383e+00 8.162519e+01
     vertex 2.421409e+01 1.190383e+00 1.021960e+02
   endloop
 endfacet
 facet normal 0.000000e+00 0.000000e+00 -1.000000e+00
   outer loop
     vertex 2.795424e+01 3.349759e+00 8.162519e+01
     vertex 2.422910e+01 1.164402e+00 8.162519e+01
     vertex 2.421409e+01 1.190383e+00 8.162519e+01
   endloop
 endfacet
 facet normal 0.000000e+00 -0.000000e+00 -1.000000e+00
   outer loop
     vertex 2.795424e+01 3.349759e+00 8.162519e+01
     vertex 2.796924e+01 3.323778e+00 8.162519e+01
     vertex 2.422910e+01 1.164402e+00 8.162519e+01
   endloop
 endfacet
 facet normal 0.000000e+00 0.000000e+00 1.000000e+00
   outer loop
     vertex 2.795424e+01 3.349759e+00 1.021960e+02
     vertex 2.421409e+01 1.190383e+00 1.021960e+02
     vertex 2.422910e+01 1.164402e+00 1.021960e+02
   endloop
 endfacet
 facet normal 0.000000e+00 0.000000e+00 1.000000e+00
   outer loop
     vertex 2.795424e+01 3.349759e+00 1.021960e+02
     vertex 2.422910e+01 1.164402e+00 1.021960e+02
     vertex 2.796924e+01 3.323778e+00 1.021960e+02
   endloop
 endfacet
 facet normal -8.660254e-01 -5.000000e-01 0.000000e+00
   outer loop
     vertex 3.170940e+01 1.164402e+00 8.050314e+01
     vertex 3.169440e+01 1.190383e+00 8.050314e+01
     vertex 3.169440e+01 1.190383e+00 5.993232e+01
   endloop
 endfacet
 facet normal -8.660254e-01 -5.000000e-01 -0.000000e+00
   outer loop
     vertex 3.170940e+01 1.164402e+00 8.050314e+01
     vertex 3.169440e+01 1.190383e+00 5.993232e+01
     vertex 3.170940e+01 1.164402e+00 5.993232e+01
   endloop
 endfacet
 facet normal 8.660254e-01 5.000000e-01 0.000000e+00
   outer loop
     vertex 3.544954e+01 3.323778e+00 8.050314e+01
     vertex 3.543454e+01 3.349759e+00 5.993232e+01
     vertex 3.543454e+01 3.349759e+00 8.050314e+01
   endloop
 endfacet
 facet normal 8.660254e-01 5.000000e-01 0.000000e+00
   outer loop
     vertex 3.544954e+01 3.323778e+00 8.050314e+01
     vertex 3.544954e+01 3.323778e+00 5.993232e+01
     vertex 3.543454e+01 3.349759e+00 5.993232e+01
   endloop
 endfacet
 facet normal 5.000000e-01 -8.660254e-01 0.000000e+00
   outer loop
     vertex 3.544954e+01 3.323778e+00 8.050314e+01
     vertex 3.170940e+01 1.164402e+00 5.993232e+01
     vertex 3.544954e+01 3.323778e+00 5.993232e+01
   endloop
 endfacet
 facet normal 5.000000e-01 -8.660254e-01 0.000000e+00
   outer loop
     vertex 3.544954e+01 3.323778e+00 8.050314e+01
     vertex 3.170940e+01 1.164402e+00 8.050314e+01
     vertex 3.170940e+01 1.164402e+00 5.993232e+01
   endloop
 endfacet
 facet normal -5.000000e-01 8.660254e-01 0.000000e+00
   outer loop
     vertex 3.543454e+01 3.349759e+00 8.050314e+01
     vertex 3.543454e+01 3.349759e+00 5.993232e+01
     vertex 3.169440e+01 1.190383e+00 5.993232e+01
   endloop
 endfacet
 facet normal -5.000000e-01 8.660254e-01 0.000000e+00
   outer loop
     vertex 3.543454e+01 3.349759e+00 8.050314e+01
     vertex 3.169440e+01 1.190383e+00 5.993232e+01
     vertex 3.169440e+01 1.190383e+00 8.050314e+01
   endloop
 endfacet
 facet normal 0.000000e+00 0.000000e+00 -1.000000e+00
   outer loop
     vertex 3.543454e+01 3.349759e+00 5.993232e+01
     vertex 3.170940e+01 1.164402e+00 5.993232e+01
     vertex 3.169440e+01 1.190383e+00 5.993232e+01
   endloop
 endfacet
 facet normal 0.000000e+00 -0.000000e+00 -1.000000e+00
   outer loop
     vertex 3.543454e+01 3.349759e+00 5.993232e+01
     vertex 3.544954e+01 3.323778e+00 5.993232e+01
     vertex 3.170940e+01 1.164402e+00 5.993232e+01
   endloop
 endfacet
 facet normal 0.000000e+00 0.000000e+00 1.000000e+00
   outer loop
     vertex 3.543454e+01 3.349759e+00 8.050314e+01
     vertex 3.169440e+01 1.190383e+00 8.050314e+01
     vertex 3.170940e+01 1.164402e+00 8.050314e+01
   endloop
 endfacet
 facet normal 0.000000e+00 0.000000e+00 1.000000e+00
   outer loop
     vertex 3.543454e+01 3.349759e+00 8.050314e+01
     vertex 3.170940e+01 1.164402e+00 8.050314e+01
     vertex 3.544954e+01 3.323778e+00 8.050314e+01
   endloop
 endfacet
 facet normal -8.660254e-01 -5.000000e-01 0.000000e+00
   outer loop
     vertex 3.170940e+01 1.164402e+00 1.021960e+02
     vertex 3.169440e+01 1.190383e+00 1.021960e+02
     vertex 3.169440e+01 1.190383e+00 8.162519e+01
   endloop
 endfacet
 facet normal -8.660254e-01 -5.000000e-01 -0.000000e+00
   outer loop
     vertex 3.170940e+01 1.164402e+00 1.021960e+02
     vertex 3.169440e+01 1.190383e+00 8.162519e+01
     vertex 3.170940e+01 1.164402e+00 8.162519e+01
   endloop
 endfacet
 facet normal 8.660254e-01 5.000000e-01 0.000000e+00
   outer loop
     vertex 3.544954e+01 3.323778e+00 1.021960e+02
     vertex 3.543454e+01 3.349759e+00 8.162519e+01
     vertex 3.543454e+01 3.349759e+00 1.021960e+02
   endloop
 endfacet
 facet normal 8.660254e-01 5.000000e-01 0.000000e+00
   outer loop
     vertex 3.544954e+01 3.323778e+00 1.021960e+02
     vertex 3.544954e+01 3.323778e+00 8.162519e+01
     vertex 3.543454e+01 3.349759e+00 8.162519e+01
   endloop
 endfacet
 facet normal 5.000000e-01 -8.660254e-01 0.000000e+00
   outer loop
     vertex 3.544954e+01 3.323778e+00 1.021960e+02
     vertex 3.170940e+01 1.164402e+00 8.162519e+01
     vertex 3.544954e+01 3.323778e+00 8.162519e+01
   endloop
 endfacet
 facet normal 5.000000e-01 -8.660254e-01 0.000000e+00
   outer loop
     vertex 3.544954e+01 3.323778e+00 1.021960e+02
     vertex 3.170940e+01 1.164402e+00 1.021960e+02
     vertex 3.170940e+01 1.164402e+00 8.162519e+01
   endloop
 endfacet
 facet normal -5.000000e-01 8.660254e-01 0.000000e+00
   outer loop
     vertex 3.543454e+01 3.349759e+00 1.021960e+02
     vertex 3.543454e+01 3.349759e+00 8.162519e+01
     vertex 3.169440e+01 1.190383e+00 8.162519e+01
   endloop
 endfacet
 facet normal -5.000000e-01 8.660254e-01 0.000000e+00
   outer loop
     vertex 3.543454e+01 3.349759e+00 1.021960e+02
     vertex 3.169440e+01 1.190383e+00 8.162519e+01
     vertex 3.169440e+01 1.190383e+00 1.021960e+02
   endloop
 endfacet
 facet normal 0.000000e+00 0.000000e+00 -1.000000e+00
   outer loop
     vertex 3.543454e+01 3.349759e+00 8.162519e+01
     vertex 3.170940e+01 1.164402e+00 8.162519e+01
     vertex 3.169440e+01 1.190383e+00 8.162519e+01
   endloop
 endfacet
 facet normal 0.000000e+00 -0.000000e+00 -1.000000e+00
   outer loop
     vertex 3.543454e+01 3.349759e+00 8.162519e+01
     vertex 3.544954e+01 3.323778e+00 8.162519e+01
     vertex 3.170940e+01 1.164402e+00 8.162519e+01
   endloop
 endfacet
 facet normal 0.000000e+00 0.000000e+00 1.000000e+00
   outer loop
     vertex 3.543454e+01 3.349759e+00 1.021960e+02
     vertex 3.169440e+01 1.190383e+00 1.021960e+02
     vertex 3.170940e+01 1.164402e+00 1.021960e+02
   endloop
 endfacet
 facet normal 0.000000e+00 0.000000e+00 1.000000e+00
   outer loop
     vertex 3.543454e+01 3.349759e+00 1.021960e+02
     vertex 3.170940e+01 1.164402e+00 1.021960e+02
     vertex 3.544954e+01 3.323778e+00 1.021960e+02
   endloop
 endfacet
 facet normal -8.660254e-01 -5.000000e-01 0.000000e+00
   outer loop
     vertex 3.918970e+01 1.164402e+00 8.050314e+01
     vertex 3.917469e+01 1.190383e+00 8.050314e+01
     vertex 3.917469e+01 1.190383e+00 5.993232e+01
   endloop
 endfacet
 facet normal -8.660254e-01 -5.000000e-01 -0.000000e+00
   outer loop
     vertex 3.918970e+01 1.164402e+00 8.050314e+01
     vertex 3.917469e+01 1.190383e+00 5.993232e+01
     vertex 3.918970e+01 1.164402e+00 5.993232e+01
   endloop
 endfacet
 facet normal 8.660254e-01 5.000000e-01 0.000000e+00
   outer loop
     vertex 4.292984e+01 3.323778e+00 8.050314e+01
     vertex 4.291484e+01 3.349759e+00 5.993232e+01
     vertex 4.291484e+01 3.349759e+00 8.050314e+01
   endloop
 endfacet
 facet normal 8.660254e-01 5.000000e-01 0.000000e+00
   outer loop
     vertex 4.292984e+01 3.323778e+00 8.050314e+01
     vertex 4.292984e+01 3.323778e+00 5.993232e+01
     vertex 4.291484e+01 3.349759e+00 5.993232e+01
   endloop
 endfacet
 facet normal 5.000000e-01 -8.660254e-01 0.000000e+00
   outer loop
     vertex 4.292984e+01 3.323778e+00 8.050314e+01
     vertex 3.918970e+01 1.164402e+00 5.993232e+01
     vertex 4.292984e+01 3.323778e+00 5.993232e+01
   endloop
 endfacet
 facet normal 5.000000e-01 -8.660254e-01 0.000000e+00
   outer loop
     vertex 4.292984e+01 3.323778e+00 8.050314e+01
     vertex 3.918970e+01 1.164402e+00 8.050314e+01
     vertex 3.918970e+01 1.164402e+00 5.993232e+01
   endloop
 endfacet
 facet normal -5.000000e-01 8.660254e-01 0.000000e+00
   outer loop
     vertex 4.291484e+01 3.349759e+00 8.050314e+01
     vertex 4.291484e+01 3.349759e+00 5.993232e+01
     vertex 3.917469e+01 1.190383e+00 5.993232e+01
   endloop
 endfacet
 facet normal -5.000000e-01 8.660254e-01 0.000000e+00
   outer loop
     vertex 4.291484e+01 3.349759e+00 8.050314e+01
     vertex 3.917469e+01 1.190383e+00 5.993232e+01
     vertex 3.917469e+01 1.190383e+00 8.050314e+01
   endloop
 endfacet
 facet normal 0.000000e+00 0.000000e+00 -1.000000e+00
   outer loop
     vertex 4.291484e+01 3.349759e+00 5.993232e+01
     vertex 3.918970e+01 1.164402e+00 5.993232e+01
     vertex 3.917469e+01 1.190383e+00 5.993232e+01
   endloop
 endfacet
 facet normal 0.000000e+00 -0.000000e+00 -1.000000e+00
   outer loop
     vertex 4.291484e+01 3.349759e+00 5.993232e+01
     vertex 4.292984e+01 3.323778e+00 5.993232e+01
     vertex 3.918970e+01 1.164402e+00 5.993232e+01
   endloop
 endfacet
 facet normal 0.000000e+00 0.000000e+00 1.000000e+00
   outer loop
     vertex 4.291484e+01 3.349759e+00 8.050314e+01
     vertex 3.917469e+01 1.190383e+00 8.050314e+01
     vertex 3.918970e+01 1.164402e+00 8.050314e+01
   endloop
 endfacet
 facet normal 0.000000e+00 0.000000e+00 1.000000e+00
   outer loop
     vertex 4.291484e+01 3.349759e+00 8.050314e+01
     vertex 3.918970e+01 1.164402e+00 8.050314e+01
     vertex 4.292984e+01 3.323778e+00 8.050314e+01
   endloop
 endfacet
 facet normal -8.660254e-01 -5.000000e-01 0.000000e+00
   outer loop
     vertex 3.918970e+01 1.164402e+00 1.021960e+02
     vertex 3.917469e+01 1.190383e+00 1.021960e+02
     vertex 3.917469e+01 1.190383e+00 8.162519e+01
   endloop
 endfacet
 facet normal -8.660254e-01 -5.000000e-01 -0.000000e+00
   outer loop
     vertex 3.918970e+01 1.164402e+00 1.021960e+02
     vertex 3.917469e+01 1.190383e+00 8.162519e+01
     vertex 3.918970e+01 1.164402e+00 8.162519e+01
   endloop
 endfacet
 facet normal 8.660254e-01 5.000000e-01 0.000000e+00
   outer loop
     vertex 4.292984e+01 3.323778e+00 1.021960e+02
     vertex 4.291484e+01 3.349759e+00 8.162519e+01
     vertex 4.291484e+01 3.349759e+00 1.021960e+02
   endloop
 endfacet
 facet normal 8.660254e-01 5.000000e-01 0.000000e+00
   outer loop
     vertex 4.292984e+01 3.323778e+00 1.021960e+02
     vertex 4.292984e+01 3.323778e+00 8.162519e+01
     vertex 4.291484e+01 3.349759e+00 8.162519e+01
   endloop
 endfacet
 facet normal 5.000000e-01 -8.660254e-01 0.000000e+00
   outer loop
     vertex 4.292984e+01 3.323778e+00 1.021960e+02
     vertex 3.918970e+01 1.164402e+00 8.162519e+01
     vertex 4.292984e+01 3.323778e+00 8.162519e+01
   endloop
 endfacet
 facet normal 5.000000e-01 -8.660254e-01 0.000000e+00
   outer loop
     vertex 4.292984e+01 3.323778e+00 1.021960e+02
     vertex 3.918970e+01 1.164402e+00 1.021960e+02
     vertex 3.918970e+01 1.164402e+00 8.162519e+01
   endloop
 endfacet
 facet normal -5.000000e-01 8.660254e-01 0.000000e+00
   outer loop
     vertex 4.291484e+01 3.349759e+00 1.021960e+02
     vertex 4.291484e+01 3.349759e+00 8.162519e+01
     vertex 3.917469e+01 1.190383e+00 8.162519e+01
   endloop
 endfacet
 facet normal -5.000000e-01 8.660254e-01 0.000000e+00
   outer loop
     vertex 4.291484e+01 3.349759e+00 1.021960e+02
     vertex 3.917469e+01 1.190383e+00 8.162519e+01
     vertex 3.917469e+01 1.190383e+00 1.021960e+02
   endloop
 endfacet
 facet normal 0.000000e+00 0.000000e+00 -1.000000e+00
   outer loop
     vertex 4.291484e+01 3.349759e+00 8.162519e+01
     vertex 3.918970e+01 1.164402e+00 8.162519e+01
     vertex 3.917469e+01 1.190383e+00 8.162519e+01
   endloop
 endfacet
 facet normal 0.000000e+00 -0.000000e+00 -1.000000e+00
   outer loop
     vertex 4.291484e+01 3.349759e+00 8.162519e+01
     vertex 4.292984e+01 3.323778e+00 8.162519e+01
     vertex 3.918970e+01 1.164402e+00 8.162519e+01
   endloop
 endfacet
 facet normal 0.000000e+00 0.000000e+00 1.000000e+00
   outer loop
     vertex 4.291484e+01 3.349759e+00 1.021960e+02
     vertex 3.917469e+01 1.190383e+00 1.021960e+02
     vertex 3.918970e+01 1.164402e+00 1.021960e+02
   endloop
 endfacet
 facet normal 0.000000e+00 0.000000e+00 1.000000e+00
   outer loop
     vertex 4.291484e+01 3.349759e+00 1.021960e+02
     vertex 3.918970e+01 1.164402e+00 1.021960e+02
     vertex 4.292984e+01 3.323778e+00 1.021960e+02
   endloop
 endfacet
 facet normal -8.660254e-01 -5.000000e-01 0.000000e+00
   outer loop
     vertex 4.667000e+01 1.164402e+00 8.050314e+01
     vertex 4.665499e+01 1.190383e+00 8.050314e+01
     vertex 4.665499e+01 1.190383e+00 5.993232e+01
   endloop
 endfacet
 facet normal -8.660254e-01 -5.000000e-01 -0.000000e+00
   outer loop
     vertex 4.667000e+01 1.164402e+00 8.050314e+01
     vertex 4.665499e+01 1.190383e+00 5.993232e+01
     vertex 4.667000e+01 1.164402e+00 5.993232e+01
   endloop
 endfacet
 facet normal 8.660254e-01 5.000000e-01 0.000000e+00
   outer loop
     vertex 5.041014e+01 3.323778e+00 8.050314e+01
     vertex 5.039514e+01 3.349759e+00 5.993232e+01
     vertex 5.039514e+01 3.349759e+00 8.050314e+01
   endloop
 endfacet
 facet normal 8.660254e-01 5.000000e-01 0.000000e+00
   outer loop
     vertex 5.041014e+01 3.323778e+00 8.050314e+01
     vertex 5.041014e+01 3.323778e+00 5.993232e+01
     vertex 5.039514e+01 3.349759e+00 5.993232e+01
   endloop
 endfacet
 facet normal 5.000000e-01 -8.660254e-01 0.000000e+00
   outer loop
     vertex 5.041014e+01 3.323778e+00 8.050314e+01
     vertex 4.667000e+01 1.164402e+00 5.993232e+01
     vertex 5.041014e+01 3.323778e+00 5.993232e+01
   endloop
 endfacet
 facet normal 5.000000e-01 -8.660254e-01 0.000000e+00
   outer loop
     vertex 5.041014e+01 3.323778e+00 8.050314e+01
     vertex 4.667000e+01 1.164402e+00 8.050314e+01
     vertex 4.667000e+01 1.164402e+00 5.993232e+01
   endloop
 endfacet
 facet normal -5.000000e-01 8.660254e-01 0.000000e+00
   outer loop
     vertex 5.039514e+01 3.349759e+00 8.050314e+01
     vertex 5.039514e+01 3.349759e+00 5.993232e+01
     vertex 4.665499e+01 1.190383e+00 5.993232e+01
   endloop
 endfacet
 facet normal -5.000000e-01 8.660254e-01 0.000000e+00
   outer loop
     vertex 5.039514e+01 3.349759e+00 8.050314e+01
     vertex 4.665499e+01 1.190383e+00 5.993232e+01
     vertex 4.665499e+01 1.190383e+00 8.050314e+01
   endloop
 endfacet
 facet normal 0.000000e+00 0.000000e+00 -1.000000e+00
   outer loop
     vertex 5.039514e+01 3.349759e+00 5.993232e+01
     vertex 4.667000e+01 1.164402e+00 5.993232e+01
     vertex 4.665499e+01 1.190383e+00 5.993232e+01
   endloop
 endfacet
 facet normal 0.000000e+00 -0.000000e+00 -1.000000e+00
   outer loop
     vertex 5.039514e+01 3.349759e+00 5.993232e+01
     vertex 5.041014e+01 3.323778e+00 5.993232e+01
     vertex 4.667000e+01 1.164402e+00 5.993232e+01
   endloop
 endfacet
 facet normal 0.000000e+00 0.000000e+00 1.000000e+00
   outer loop
     vertex 5.039514e+01 3.349759e+00 8.050314e+01
     vertex 4.665499e+01 1.190383e+00 8.050314e+01
     vertex 4.667000e+01 1.164402e+00 8.050314e+01
   endloop
 endfacet
 facet normal 0.000000e+00 0.000000e+00 1.000000e+00
   outer loop
     vertex 5.039514e+01 3.349759e+00 8.050314e+01
     vertex 4.667000e+01 1.164402e+00 8.050314e+01
     vertex 5.041014e+01 3.323778e+00 8.050314e+01
   endloop
 endfacet
 facet normal -8.660254e-01 -5.000000e-01 0.000000e+00
   outer loop
     vertex 4.667000e+01 1.164402e+00 1.021960e+02
     vertex 4.665499e+01 1.190383e+00 1.021960e+02
     vertex 4.665499e+01 1.190383e+00 8.162519e+01
   endloop
 endfacet
 facet normal -8.660254e-01 -5.000000e-01 -0.000000e+00
   outer loop
     vertex 4.667000e+01 1.164402e+00 1.021960e+02
     vertex 4.665499e+01 1.190383e+00 8.162519e+01
     vertex 4.667000e+01 1.164402e+00 8.162519e+01
   endloop
 endfacet
 facet normal 8.660254e-01 5.000000e-01 0.000000e+00
   outer loop
     vertex 5.041014e+01 3.323778e+00 1.021960e+02
     vertex 5.039514e+01 3.349759e+00 8.162519e+01
     vertex 5.039514e+01 3.349759e+00 1.021960e+02
   endloop
 endfacet
 facet normal 8.660254e-01 5.000000e-01 0.000000e+00
   outer loop
     vertex 5.041014e+01 3.323778e+00 1.021960e+02
     vertex 5.041014e+01 3.323778e+00 8.162519e+01
     vertex 5.039514e+01 3.349759e+00 8.162519e+01
   endloop
 endfacet
 facet normal 5.000000e-01 -8.660254e-01 0.000000e+00
   outer loop
     vertex 5.041014e+01 3.323778e+00 1.021960e+02
     vertex 4.667000e+01 1.164402e+00 8.162519e+01
     vertex 5.041014e+01 3.323778e+00 8.162519e+01
   endloop
 endfacet
 facet normal 5.000000e-01 -8.660254e-01 0.000000e+00
   outer loop
     vertex 5.041014e+01 3.323778e+00 1.021960e+02
     vertex 4.667000e+01 1.164402e+00 1.021960e+02
     vertex 4.667000e+01 1.164402e+00 8.162519e+01
   endloop
 endfacet
 facet normal -5.000000e-01 8.660254e-01 0.000000e+00
   outer loop
     vertex 5.039514e+01 3.349759e+00 1.021960e+02
     vertex 5.039514e+01 3.349759e+00 8.162519e+01
     vertex 4.665499e+01 1.190383e+00 8.162519e+01
   endloop
 endfacet
 facet normal -5.000000e-01 8.660254e-01 0.000000e+00
   outer loop
     vertex 5.039514e+01 3.349759e+00 1.021960e+02
     vertex 4.665499e+01 1.190383e+00 8.162519e+01
     vertex 4.665499e+01 1.190383e+00 1.021960e+02
   endloop
 endfacet
 facet normal 0.000000e+00 0.000000e+00 -1.000000e+00
   outer loop
     vertex 5.039514e+01 3.349759e+00 8.162519e+01
     vertex 4.667000e+01 1.164402e+00 8.162519e+01
     vertex 4.665499e+01 1.190383e+00 8.162519e+01
   endloop
 endfacet
 facet normal 0.000000e+00 -0.000000e+00 -1.000000e+00
   outer loop
     vertex 5.039514e+01 3.349759e+00 8.162519e+01
     vertex 5.041014e+01 3.323778e+00 8.162519e+01
     vertex 4.667000e+01 1.164402e+00 8.162519e+01
   endloop
 endfacet
 facet normal 0.000000e+00 0.000000e+00 1.000000e+00
   outer loop
     vertex 5.039514e+01 3.349759e+00 1.021960e+02
     vertex 4.665499e+01 1.190383e+00 1.021960e+02
     vertex 4.667000e+01 1.164402e+00 1.021960e+02
   endloop
 endfacet
 facet normal 0.000000e+00 0.000000e+00 1.000000e+00
   outer loop
     vertex 5.039514e+01 3.349759e+00 1.021960e+02
     vertex 4.667000e+01 1.164402e+00 1.021960e+02
     vertex 5.041014e+01 3.323778e+00 1.021960e+02
   endloop
 endfacet
 facet normal -8.660254e-01 -5.000000e-01 0.000000e+00
   outer loop
     vertex 5.415029e+01 1.164402e+00 8.050314e+01
     vertex 5.413529e+01 1.190383e+00 8.050314e+01
     vertex 5.413529e+01 1.190383e+00 5.993232e+01
   endloop
 endfacet
 facet normal -8.660254e-01 -5.000000e-01 -0.000000e+00
   outer loop
     vertex 5.415029e+01 1.164402e+00 8.050314e+01
     vertex 5.413529e+01 1.190383e+00 5.993232e+01
     vertex 5.415029e+01 1.164402e+00 5.993232e+01
   endloop
 endfacet
 facet normal 8.660254e-01 5.000000e-01 0.000000e+00
   outer loop
     vertex 5.789044e+01 3.323778e+00 8.050314e+01
     vertex 5.787544e+01 3.349759e+00 5.993232e+01
     vertex 5.787544e+01 3.349759e+00 8.050314e+01
   endloop
 endfacet
 facet normal 8.660254e-01 5.000000e-01 0.000000e+00
   outer loop
     vertex 5.789044e+01 3.323778e+00 8.050314e+01
     vertex 5.789044e+01 3.323778e+00 5.993232e+01
     vertex 5.787544e+01 3.349759e+00 5.993232e+01
   endloop
 endfacet
 facet normal 5.000000e-01 -8.660254e-01 0.000000e+00
   outer loop
     vertex 5.789044e+01 3.323778e+00 8.050314e+01
     vertex 5.415029e+01 1.164402e+00 5.993232e+01
     vertex 5.789044e+01 3.323778e+00 5.993232e+01
   endloop
 endfacet
 facet normal 5.000000e-01 -8.660254e-01 0.000000e+00
   outer loop
     vertex 5.789044e+01 3.323778e+00 8.050314e+01
     vertex 5.415029e+01 1.164402e+00 8.050314e+01
     vertex 5.415029e+01 1.164402e+00 5.993232e+01
   endloop
 endfacet
 facet normal -5.000000e-01 8.660254e-01 0.000000e+00
   outer loop
     vertex 5.787544e+01 3.349759e+00 8.050314e+01
     vertex 5.787544e+01 3.349759e+00 5.993232e+01
     vertex 5.413529e+01 1.190383e+00 5.993232e+01
   endloop
 endfacet
 facet normal -5.000000e-01 8.660254e-01 0.000000e+00
   outer loop
     vertex 5.787544e+01 3.349759e+00 8.050314e+01
     vertex 5.413529e+01 1.190383e+00 5.993232e+01
     vertex 5.413529e+01 1.190383e+00 8.050314e+01
   endloop
 endfacet
 facet normal 0.000000e+00 0.000000e+00 -1.000000e+00
   outer loop
     vertex 5.787544e+01 3.349759e+00 5.993232e+01
     vertex 5.415029e+01 1.164402e+00 5.993232e+01
     vertex 5.413529e+01 1.190383e+00 5.993232e+01
   endloop
 endfacet
 facet normal 0.000000e+00 -0.000000e+00 -1.000000e+00
   outer loop
     vertex 5.787544e+01 3.349759e+00 5.993232e+01
     vertex 5.789044e+01 3.323778e+00 5.993232e+01
     vertex 5.415029e+01 1.164402e+00 5.993232e+01
   endloop
 endfacet
 facet normal 0.000000e+00 0.000000e+00 1.000000e+00
   outer loop
     vertex 5.787544e+01 3.349759e+00 8.050314e+01
     vertex 5.413529e+01 1.190383e+00 8.050314e+01
     vertex 5.415029e+01 1.164402e+00 8.050314e+01
   endloop
 endfacet
 facet normal 0.000000e+00 0.000000e+00 1.000000e+00
   outer loop
     vertex 5.787544e+01 3.349759e+00 8.050314e+01
     vertex 5.415029e+01 1.164402e+00 8.050314e+01
     vertex 5.789044e+01 3.323778e+00 8.050314e+01
   endloop
 endfacet
 facet normal -8.660254e-01 -5.000000e-01 0.000000e+00
   outer loop
     vertex 5.415029e+01 1.164402e+00 1.021960e+02
     vertex 5.413529e+01 1.190383e+00 1.021960e+02
     vertex 5.413529e+01 1.190383e+00 8.162519e+01
   endloop
 endfacet
 facet normal -8.660254e-01 -5.000000e-01 -0.000000e+00
   outer loop
     vertex 5.415029e+01 1.164402e+00 1.021960e+02
     vertex 5.413529e+01 1.190383e+00 8.162519e+01
     vertex 5.415029e+01 1.164402e+00 8.162519e+01
   endloop
 endfacet
 facet normal 8.660254e-01 5.000000e-01 0.000000e+00
   outer loop
     vertex 5.789044e+01 3.323778e+00 1.021960e+02
     vertex 5.787544e+01 3.349759e+00 8.162519e+01
     vertex 5.787544e+01 3.349759e+00 1.021960e+02
   endloop
 endfacet
 facet normal 8.660254e-01 5.000000e-01 0.000000e+00
   outer loop
     vertex 5.789044e+01 3.323778e+00 1.021960e+02
     vertex 5.789044e+01 3.323778e+00 8.162519e+01
     vertex 5.787544e+01 3.349759e+00 8.162519e+01
   endloop
 endfacet
 facet normal 5.000000e-01 -8.660254e-01 0.000000e+00
   outer loop
     vertex 5.789044e+01 3.323778e+00 1.021960e+02
     vertex 5.415029e+01 1.164402e+00 8.162519e+01
     vertex 5.789044e+01 3.323778e+00 8.162519e+01
   endloop
 endfacet
 facet normal 5.000000e-01 -8.660254e-01 0.000000e+00
   outer loop
     vertex 5.789044e+01 3.323778e+00 1.021960e+02
     vertex 5.415029e+01 1.164402e+00 1.021960e+02
     vertex 5.415029e+01 1.164402e+00 8.162519e+01
   endloop
 endfacet
 facet normal -5.000000e-01 8.660254e-01 0.000000e+00
   outer loop
     vertex 5.787544e+01 3.349759e+00 1.021960e+02
     vertex 5.787544e+01 3.349759e+00 8.162519e+01
     vertex 5.413529e+01 1.190383e+00 8.162519e+01
   endloop
 endfacet
 facet normal -5.000000e-01 8.660254e-01 0.000000e+00
   outer loop
     vertex 5.787544e+01 3.349759e+00 1.021960e+02
     vertex 5.413529e+01 1.190383e+00 8.162519e+01
     vertex 5.413529e+01 1.190383e+00 1.021960e+02
   endloop
 endfacet
 facet normal 0.000000e+00 0.000000e+00 -1.000000e+00
   outer loop
     vertex 5.787544e+01 3.349759e+00 8.162519e+01
     vertex 5.415029e+01 1.164402e+00 8.162519e+01
     vertex 5.413529e+01 1.190383e+00 8.162519e+01
   endloop
 endfacet
 facet normal 0.000000e+00 -0.000000e+00 -1.000000e+00
   outer loop
     vertex 5.787544e+01 3.349759e+00 8.162519e+01
     vertex 5.789044e+01 3.323778e+00 8.162519e+01
     vertex 5.415029e+01 1.164402e+00 8.162519e+01
   endloop
 endfacet
 facet normal 0.000000e+00 0.000000e+00 1.000000e+00
   outer loop
     vertex 5.787544e+01 3.349759e+00 1.021960e+02
     vertex 5.413529e+01 1.190383e+00 1.021960e+02
     vertex 5.415029e+01 1.164402e+00 1.021960e+02
   endloop
 endfacet
 facet normal 0.000000e+00 0.000000e+00 1.000000e+00
   outer loop
     vertex 5.787544e+01 3.349759e+00 1.021960e+02
     vertex 5.415029e+01 1.164402e+00 1.021960e+02
     vertex 5.789044e+01 3.323778e+00 1.021960e+02
   endloop
 endfacet
 facet normal -8.660254e-01 -5.000000e-01 0.000000e+00
   outer loop
     vertex 6.163059e+01 1.164402e+00 8.050314e+01
     vertex 6.161559e+01 1.190383e+00 8.050314e+01
     vertex 6.161559e+01 1.190383e+00 5.993232e+01
   endloop
 endfacet
 facet normal -8.660254e-01 -5.000000e-01 -0.000000e+00
   outer loop
     vertex 6.163059e+01 1.164402e+00 8.050314e+01
     vertex 6.161559e+01 1.190383e+00 5.993232e+01
     vertex 6.163059e+01 1.164402e+00 5.993232e+01
   endloop
 endfacet
 facet normal 8.660254e-01 5.000000e-01 0.000000e+00
   outer loop
     vertex 6.537074e+01 3.323779e+00 8.050314e+01
     vertex 6.535574e+01 3.349759e+00 5.993232e+01
     vertex 6.535574e+01 3.349759e+00 8.050314e+01
   endloop
 endfacet
 facet normal 8.660254e-01 5.000000e-01 0.000000e+00
   outer loop
     vertex 6.537074e+01 3.323779e+00 8.050314e+01
     vertex 6.537074e+01 3.323779e+00 5.993232e+01
     vertex 6.535574e+01 3.349759e+00 5.993232e+01
   endloop
 endfacet
 facet normal 5.000000e-01 -8.660254e-01 0.000000e+00
   outer loop
     vertex 6.537074e+01 3.323779e+00 8.050314e+01
     vertex 6.163059e+01 1.164402e+00 5.993232e+01
     vertex 6.537074e+01 3.323779e+00 5.993232e+01
   endloop
 endfacet
 facet normal 5.000000e-01 -8.660254e-01 0.000000e+00
   outer loop
     vertex 6.537074e+01 3.323779e+00 8.050314e+01
     vertex 6.163059e+01 1.164402e+00 8.050314e+01
     vertex 6.163059e+01 1.164402e+00 5.993232e+01
   endloop
 endfacet
 facet normal -5.000000e-01 8.660254e-01 0.000000e+00
   outer loop
     vertex 6.535574e+01 3.349759e+00 8.050314e+01
     vertex 6.535574e+01 3.349759e+00 5.993232e+01
     vertex 6.161559e+01 1.190383e+00 5.993232e+01
   endloop
 endfacet
 facet normal -5.000000e-01 8.660254e-01 0.000000e+00
   outer loop
     vertex 6.535574e+01 3.349759e+00 8.050314e+01
     vertex 6.161559e+01 1.190383e+00 5.993232e+01
     vertex 6.161559e+01 1.190383e+00 8.050314e+01
   endloop
 endfacet
 facet normal 0.000000e+00 0.000000e+00 -1.000000e+00
   outer loop
     vertex 6.535574e+01 3.349759e+00 5.993232e+01
     vertex 6.163059e+01 1.164402e+00 5.993232e+01
     vertex 6.161559e+01 1.190383e+00 5.993232e+01
   endloop
 endfacet
 facet normal 0.000000e+00 -0.000000e+00 -1.000000e+00
   outer loop
     vertex 6.535574e+01 3.349759e+00 5.993232e+01
     vertex 6.537074e+01 3.323779e+00 5.993232e+01
     vertex 6.163059e+01 1.164402e+00 5.993232e+01
   endloop
 endfacet
 facet normal 0.000000e+00 0.000000e+00 1.000000e+00
   outer loop
     vertex 6.535574e+01 3.349759e+00 8.050314e+01
     vertex 6.161559e+01 1.190383e+00 8.050314e+01
     vertex 6.163059e+01 1.164402e+00 8.050314e+01
   endloop
 endfacet
 facet normal 0.000000e+00 0.000000e+00 1.000000e+00
   outer loop
     vertex 6.535574e+01 3.349759e+00 8.050314e+01
     vertex 6.163059e+01 1.164402e+00 8.050314e+01
     vertex 6.537074e+01 3.323779e+00 8.050314e+01
   endloop
 endfacet
 facet normal -8.660254e-01 -5.000000e-01 0.000000e+00
   outer loop
     vertex 6.163059e+01 1.164402e+00 1.021960e+02
     vertex 6.161559e+01 1.190383e+00 1.021960e+02
     vertex 6.161559e+01 1.190383e+00 8.162519e+01
   endloop
 endfacet
 facet normal -8.660254e-01 -5.000000e-01 -0.000000e+00
   outer loop
     vertex 6.163059e+01 1.164402e+00 1.021960e+02
     vertex 6.161559e+01 1.190383e+00 8.162519e+01
     vertex 6.163059e+01 1.164402e+00 8.162519e+01
   endloop
 endfacet
 facet normal 8.660254e-01 5.000000e-01 0.000000e+00
   outer loop
     vertex 6.537074e+01 3.323779e+00 1.021960e+02
     vertex 6.535574e+01 3.349759e+00 8.162519e+01
     vertex 6.535574e+01 3.349759e+00 1.021960e+02
   endloop
 endfacet
 facet normal 8.660254e-01 5.000000e-01 0.000000e+00
   outer loop
     vertex 6.537074e+01 3.323779e+00 1.021960e+02
     vertex 6.537074e+01 3.323779e+00 8.162519e+01
     vertex 6.535574e+01 3.349759e+00 8.162519e+01
   endloop
 endfacet
 facet normal 5.000000e-01 -8.660254e-01 0.000000e+00
   outer loop
     vertex 6.537074e+01 3.323779e+00 1.021960e+02
     vertex 6.163059e+01 1.164402e+00 8.162519e+01
     vertex 6.537074e+01 3.323779e+00 8.162519e+01
   endloop
 endfacet
 facet normal 5.000000e-01 -8.660254e-01 0.000000e+00
   outer loop
     vertex 6.537074e+01 3.323779e+00 1.021960e+02
     vertex 6.163059e+01 1.164402e+00 1.021960e+02
     vertex 6.163059e+01 1.164402e+00 8.162519e+01
   endloop
 endfacet
 facet normal -5.000000e-01 8.660254e-01 0.000000e+00
   outer loop
     vertex 6.535574e+01 3.349759e+00 1.021960e+02
     vertex 6.535574e+01 3.349759e+00 8.162519e+01
     vertex 6.161559e+01 1.190383e+00 8.162519e+01
   endloop
 endfacet
 facet normal -5.000000e-01 8.660254e-01 0.000000e+00
   outer loop
     vertex 6.535574e+01 3.349759e+00 1.021960e+02
     vertex 6.161559e+01 1.190383e+00 8.162519e+01
     vertex 6.161559e+01 1.190383e+00 1.021960e+02
   endloop
 endfacet
 facet normal 0.000000e+00 0.000000e+00 -1.000000e+00
   outer loop
     vertex 6.535574e+01 3.349759e+00 8.162519e+01
     vertex 6.163059e+01 1.164402e+00 8.162519e+01
     vertex 6.161559e+01 1.190383e+00 8.162519e+01
   endloop
 endfacet
 facet normal 0.000000e+00 -0.000000e+00 -1.000000e+00
   outer loop
     vertex 6.535574e+01 3.349759e+00 8.162519e+01
     vertex 6.537074e+01 3.323779e+00 8.162519e+01
     vertex 6.163059e+01 1.164402e+00 8.162519e+01
   endloop
 endfacet
 facet normal 0.000000e+00 0.000000e+00 1.000000e+00
   outer loop
     vertex 6.535574e+01 3.349759e+00 1.021960e+02
     vertex 6.161559e+01 1.190383e+00 1.021960e+02
     vertex 6.163059e+01 1.164402e+00 1.021960e+02
   endloop
 endfacet
 facet normal 0.000000e+00 0.000000e+00 1.000000e+00
   outer loop
     vertex 6.535574e+01 3.349759e+00 1.021960e+02
     vertex 6.163059e+01 1.164402e+00 1.021960e+02
     vertex 6.537074e+01 3.323779e+00 1.021960e+02
   endloop
 endfacet
endsolid shape
